<svg id="Background_Images" data-name="Background Images" xmlns="http://www.w3.org/2000/svg" viewBox="0 0 1300 600"><defs><style>.cls-1{fill:#fff;stroke:#e1e4e5;stroke-linecap:round;stroke-linejoin:round;stroke-width:4px;}</style></defs><title>Images</title><g id="Image_10" data-name="Image 10"><path class="cls-1" d="M857,269.82l-109.78.42c-8.89,0-12.76-11.46-5.51-16.59l.31-.22c10.33-7.16,23.92-6.56,23.92-6.56s1.79-38.52,38.36-38.66c18.08-.07,32.81,30.78,32.81,30.78s24.6-.09,28.74,19.31C867.09,264.18,863,269.8,857,269.82Z"/><path class="cls-1" d="M266.19,353.27l147.52.57c11.94,0,17.15-15.4,7.4-22.3l-.41-.29c-13.88-9.62-32.15-8.82-32.15-8.82s-2.41-51.76-51.56-52c-24.3-.09-44.09,41.37-44.09,41.37s-33.05-.13-38.62,25.95C252.59,345.69,258.11,353.24,266.19,353.27Z"/><path class="cls-1" d="M589.62,235.74l58.09-.22c5.19,0,7.41-6.75,3.14-9.72l-.18-.12c-6.07-4.14-14-3.73-14-3.73s-1.22-22.5-22.59-22.42c-19.32.07-26.95,19.06-29.69,29.52A5.36,5.36,0,0,0,589.62,235.74Z"/><path class="cls-1" d="M792.48,288.86l171.58.63c16.11.06,15.42-13.2,10.17-17.84s-16-2.87-16-2.87a25,25,0,0,0-13.56-13.31c-9.22-3.88-18.9-2.08-18.9-2.08a16,16,0,0,0-5.87-11.21c-5.89-5.09-13.78-4.63-13.78-4.63s-5.3-33.77-41.51-33.91S824,235.26,824,235.26s-8.13,0-14.06,5.37a20.63,20.63,0,0,0-6.69,11.56s-19.77-2.74-25.68,14.3C774.08,276.64,781.2,288.82,792.48,288.86Z"/><path class="cls-1" d="M489.22,285h21.5"/><path class="cls-1" d="M460.07,285h16.76"/><line class="cls-1" x1="527.22" y1="283.51" x2="534.72" y2="283.51"/><path class="cls-1" d="M448.44,323.21c13.93-.05,7.33-22.11-10.3-16.77-1.09-30.66-51.16-52.9-71.66-11.47-5.86-4.6-18.95,4.18-16,11.8a101.48,101.48,0,0,0-15.56,2.36c-9.16,2.33-7.3,14.43,2.15,14.31Z"/><path class="cls-1" d="M635.61,339.09h38.92a2.57,2.57,0,0,0,2.57-2.57v-1.86c0-1.22-74-36.87-86.77-36.87H566.41a2.57,2.57,0,0,0-2.57,2.57s.83,2.29,2,2.55l68.4,36A6.2,6.2,0,0,0,635.61,339.09Z"/><path class="cls-1" d="M526.07,337.61c0-6,3.73-10.07,18.64-10.07H708.07c36.07,0,43.7,8.65,54.27,14.76,5.86,3.39,7.66,16.7-17.08,16.76-46.66.12-144.52,0-169.27,0C558.59,359.06,526.07,349.61,526.07,337.61Z"/><path class="cls-1" d="M527.28,335.07l-26-22.92s22.76-2.7,32.83,4.44L565,335.07Z"/><path class="cls-1" d="M635.61,359.11h47.08c0,1.22-79.63,41.3-92.36,41.3H566.41a2.57,2.57,0,0,1-2.57-2.57s.83-2.29,2-2.55l68.4-36A6.2,6.2,0,0,1,635.61,359.11Z"/><path class="cls-1" d="M534.85,346a9.43,9.43,0,0,0-2.08.23L515.4,356.77a1.55,1.55,0,0,0-1.21,1.51v0a1.55,1.55,0,0,0,1.55,1.55h10.42c4,0,34.47-13.84,32.65-13.84Z"/><line class="cls-1" x1="572.25" y1="348.33" x2="620.64" y2="348.33"/><line class="cls-1" x1="634.3" y1="348.33" x2="682.69" y2="348.33"/><line class="cls-1" x1="695.76" y1="348.33" x2="744.15" y2="348.33"/><line class="cls-1" x1="754.23" y1="348.33" x2="763.33" y2="348.33"/><path class="cls-1" d="M593.3,469.68c-19.61-.08-10.32-31.14,14.5-23.61,1.54-43.18,72-74.5,100.93-16.15,8.25-6.48,26.68,5.89,22.55,16.62a142.91,142.91,0,0,1,21.91,3.32c12.91,3.28,10.28,20.33-3,20.16Z"/><path class="cls-1" d="M1000.4,397.3l61.67.24c5,0,7.17-6.44,3.1-9.32l-.17-.12c-5.8-4-13.44-3.69-13.44-3.69s-1-21.64-21.55-21.72c-10.16,0-18.43,17.29-18.43,17.29s-13.82-.05-16.15,10.85A5.22,5.22,0,0,0,1000.4,397.3Z"/><path class="cls-1" d="M837.34,449.53H868.1"/><path class="cls-1" d="M795.07,449.53h19.77"/><line class="cls-1" x1="881.07" y1="449.53" x2="897.2" y2="449.53"/><line class="cls-1" x1="398.07" y1="380.53" x2="427.07" y2="380.53"/><path class="cls-1" d="M521.43,402.53h16.64"/><path class="cls-1" d="M460.07,402.53h26.79"/><path class="cls-1" d="M675.27,284.53h40.81"/><path class="cls-1" d="M626.07,284.53h7"/><line class="cls-1" x1="641.41" y1="263.53" x2="670.14" y2="263.53"/><line class="cls-1" x1="764.07" y1="431.53" x2="818.07" y2="431.53"/><path class="cls-1" d="M903.37,304.87h42.7"/><path class="cls-1" d="M862.07,304.87h18.74"/></g></svg>