<svg id="Background_Images" data-name="Background Images" xmlns="http://www.w3.org/2000/svg" viewBox="0 0 1300 600"><defs><style>.cls-1{fill:#fff;stroke:#e1e4e5;stroke-linecap:round;stroke-linejoin:round;stroke-width:4px;}</style></defs><title>Images</title><g id="Image_9" data-name="Image 9"><line class="cls-1" x1="124.36" y1="458.72" x2="1177.97" y2="458.72"/><path class="cls-1" d="M835.14,231.45c15.08,0,8-23.91-11.08-18.2-1.06-33.19-55.16-57.48-77.54-12.71-6.33-5-20.53,4.45-17.38,12.71a109.86,109.86,0,0,0-16.85,2.49c-9.93,2.49-8,15.6,2.27,15.5Z"/><path class="cls-1" d="M1016.92,263.16H950.16c-5.41,0-7.74-7-3.31-10.11l.19-.13c6.3-4.33,14.57-3.94,14.57-3.94s1.18-23.42,23.42-23.42c11,0,19.88,18.8,19.88,18.8s15,0,17.44,11.81A5.65,5.65,0,0,1,1016.92,263.16Z"/><path class="cls-1" d="M328,221.7h62.89c5.62,0,8-7.28,3.44-10.51l-.2-.14C387.57,206.56,379,207,379,207s-1.23-24.36-24.36-24.36c-20.91,0-29.25,20.53-32.26,31.83A5.8,5.8,0,0,0,328,221.7Z"/><path class="cls-1" d="M440.33,265.46H561.48c11.37,0,10.85-9.36,7.14-12.63s-11.33-2-11.33-2a17.63,17.63,0,0,0-9.61-9.36,26.16,26.16,0,0,0-13.35-1.42,11.3,11.3,0,0,0-4.17-7.9,15,15,0,0,0-9.74-3.23S516.58,205.1,491,205.1s-28.53,22.44-28.53,22.44a16.2,16.2,0,0,0-9.92,3.83,14.57,14.57,0,0,0-4.7,8.18s-14-1.88-18.09,10.16C427.31,256.88,432.37,265.46,440.33,265.46Z"/><rect class="cls-1" x="599.64" y="226.51" width="121.51" height="232.21"/><rect class="cls-1" x="358.84" y="380.25" width="148.56" height="78.47"/><rect class="cls-1" x="780.52" y="354.98" width="148.56" height="103.73"/><rect class="cls-1" x="553.97" y="284.88" width="101.18" height="173.32"/><rect class="cls-1" x="545.5" y="281.79" width="118.12" height="9.01"/><line class="cls-1" x1="554.07" y1="346.41" x2="653.79" y2="346.41"/><line class="cls-1" x1="556.07" y1="404.23" x2="654.43" y2="404.23"/><rect class="cls-1" x="569.42" y="361.01" width="13.95" height="30.2"/><rect class="cls-1" x="598.53" y="361.01" width="13.95" height="30.2"/><rect class="cls-1" x="627.73" y="361.01" width="13.95" height="30.2"/><rect class="cls-1" x="569.42" y="304.57" width="13.95" height="30.2"/><rect class="cls-1" x="598.53" y="304.57" width="13.95" height="30.2"/><rect class="cls-1" x="627.73" y="304.57" width="13.95" height="30.2"/><rect class="cls-1" x="569.42" y="417.41" width="13.95" height="30.2"/><rect class="cls-1" x="598.53" y="417.41" width="13.95" height="41.3"/><rect class="cls-1" x="627.73" y="417.41" width="13.95" height="30.2"/><rect class="cls-1" x="694.07" y="251.86" width="120.41" height="206.25"/><rect class="cls-1" x="694.07" y="447.62" width="120.41" height="10.49"/><rect class="cls-1" x="683.99" y="248.17" width="140.56" height="9.36"/><line class="cls-1" x1="696.57" y1="404.23" x2="815.23" y2="404.23"/><rect class="cls-1" x="747.09" y="417.41" width="16.6" height="41.3"/><rect class="cls-1" x="781.74" y="431.16" width="16.6" height="15.81"/><rect class="cls-1" x="713.06" y="431.16" width="16.6" height="15.81"/><rect class="cls-1" x="781.74" y="373.4" width="16.6" height="15.81"/><rect class="cls-1" x="713.06" y="373.4" width="16.6" height="15.81"/><rect class="cls-1" x="747.09" y="373.4" width="16.6" height="15.81"/><rect class="cls-1" x="781.74" y="340.53" width="16.6" height="15.81"/><rect class="cls-1" x="713.06" y="340.53" width="16.6" height="15.81"/><rect class="cls-1" x="747.09" y="340.53" width="16.6" height="15.81"/><rect class="cls-1" x="781.74" y="309.52" width="16.6" height="15.81"/><rect class="cls-1" x="713.06" y="309.52" width="16.6" height="15.81"/><rect class="cls-1" x="747.09" y="309.52" width="16.6" height="15.81"/><rect class="cls-1" x="781.74" y="276.65" width="16.6" height="15.81"/><rect class="cls-1" x="713.06" y="276.65" width="16.6" height="15.81"/><rect class="cls-1" x="747.09" y="276.65" width="16.6" height="15.81"/><path class="cls-1" d="M469.15,334.42h.07a3.41,3.41,0,0,1,3.41,3.41V458.72h-6.88V337.83A3.41,3.41,0,0,1,469.15,334.42Z"/><path class="cls-1" d="M408.89,373.66a60.56,60.56,0,0,0,121.12,0c0-33.45-27.11-68.48-60.56-68.48S408.89,340.21,408.89,373.66Z"/><rect class="cls-1" x="250.6" y="349.87" width="142.9" height="108.85"/><rect class="cls-1" x="244.85" y="346.99" width="154.41" height="8.04"/><rect class="cls-1" x="307.45" y="417.41" width="29.2" height="40.79"/><rect class="cls-1" x="305.99" y="371.57" width="32.13" height="35.28"/><rect class="cls-1" x="352.7" y="371.57" width="29.76" height="86.54"/><rect class="cls-1" x="262.85" y="371.57" width="29.76" height="86.54"/><rect class="cls-1" x="958.19" y="404.23" width="92.78" height="53.98"/><rect class="cls-1" x="951.7" y="396.61" width="105.78" height="7.72"/><rect class="cls-1" x="975.2" y="417.41" width="16.6" height="41.3"/><rect class="cls-1" x="1004.59" y="419.48" width="33.4" height="27.49"/><path class="cls-1" d="M897.33,301.78h.07a3.41,3.41,0,0,1,3.41,3.41V458.72h-6.88V305.19A3.41,3.41,0,0,1,897.33,301.78Z"/><path class="cls-1" d="M837.07,373.66a60.56,60.56,0,0,0,121.12,0c0-33.45-27.11-99.41-60.56-99.41S837.07,340.21,837.07,373.66Z"/><line class="cls-1" x1="360.2" y1="281.41" x2="382.2" y2="281.41"/><line class="cls-1" x1="404.15" y1="281.41" x2="440.15" y2="281.41"/><line class="cls-1" x1="558.2" y1="201.41" x2="574.2" y2="201.41"/><path class="cls-1" d="M875.18,211.41h14"/><path class="cls-1" d="M638.68,211.41h23"/><path class="cls-1" d="M692.2,191.41v2h12"/><line class="cls-1" x1="963.75" y1="278.41" x2="985.84" y2="278.41"/><line class="cls-1" x1="1002.2" y1="278.41" x2="1018.2" y2="278.41"/></g></svg>