<svg id="Background_Images" data-name="Background Images" xmlns="http://www.w3.org/2000/svg" viewBox="0 0 1300 600"><defs><style>.cls-1{fill:#fff;stroke:#e1e4e5;stroke-linecap:round;stroke-linejoin:round;stroke-width:4px;}</style></defs><title>Images</title><g id="Image_7" data-name="Image 7"><path class="cls-1" d="M775,396.81V425.9h15.61v-48h6.23a15.16,15.16,0,0,0,15.14-15.14V336a7.81,7.81,0,1,0-15.61,0v26.25h-5.76V327A7.81,7.81,0,1,0,775,327v54.16h-6.07a1,1,0,0,1-.95-.95V364.87a7.81,7.81,0,1,0-15.61,0v15.37a16.58,16.58,0,0,0,16.56,16.56Z"/><line class="cls-1" x1="782.5" y1="334.9" x2="782.5" y2="340.4"/><line class="cls-1" x1="804" y1="342.4" x2="804" y2="347.92"/><line class="cls-1" x1="804" y1="358.9" x2="804" y2="362.9"/><path class="cls-1" d="M782.5,384.4h.5v5.5"/><line class="cls-1" x1="759.5" y1="372.9" x2="759.5" y2="376.4"/><path class="cls-1" d="M751.25,449.9s77.08-51.76,185.38-52.49c108.79-.73,195.35,49.71,203.32,52.36Z"/><path class="cls-1" d="M167.11,449.73s77.08-53.21,185.38-53.21c73.51,0,144.13,42.88,242.84,42.88,72,0,112.7-16,194-16,97.5,0,172.28,25.48,175.33,26.5Z"/><line class="cls-1" x1="99.2" y1="449.9" x2="1200.8" y2="449.9"/><circle class="cls-1" cx="655.22" cy="284.75" r="36"/><line class="cls-1" x1="715.22" y1="291.25" x2="739.22" y2="291.25"/><line class="cls-1" x1="755.72" y1="289.75" x2="763.22" y2="289.75"/><line class="cls-1" x1="673.22" y1="337.75" x2="680.72" y2="337.75"/><line class="cls-1" x1="698.72" y1="229.76" x2="706.22" y2="229.76"/><line class="cls-1" x1="564.23" y1="290.75" x2="589.9" y2="290.75"/><line class="cls-1" x1="537.73" y1="290.75" x2="552.4" y2="290.75"/><line class="cls-1" x1="586.73" y1="269.26" x2="598.72" y2="269.26"/><line class="cls-1" x1="576.23" y1="310.25" x2="601.77" y2="310.25"/><line class="cls-1" x1="712.22" y1="270.76" x2="721.34" y2="270.76"/><line class="cls-1" x1="706.22" y1="312.25" x2="722.79" y2="312.25"/><path class="cls-1" d="M391.31,390.35V449.9h32V351.62H436a31,31,0,0,0,31-31v-54.7a16,16,0,0,0-32,0v53.74H423.26V247.54a16,16,0,1,0-32,0V358.4H378.88a1.94,1.94,0,0,1-1.94-1.94V325a16,16,0,0,0-32,0v31.47a33.93,33.93,0,0,0,33.89,33.89Z"/><line class="cls-1" x1="402" y1="255.4" x2="402" y2="270.75"/><line class="cls-1" x1="402" y1="366.73" x2="402" y2="382.08"/><line class="cls-1" x1="402" y1="328.73" x2="402" y2="338.08"/><line class="cls-1" x1="413.33" y1="276.73" x2="413.33" y2="285.4"/><line class="cls-1" x1="456" y1="297.4" x2="456" y2="306.07"/><line class="cls-1" x1="355" y1="328.9" x2="355" y2="337.57"/><line class="cls-1" x1="414" y1="343.82" x2="414" y2="350.32"/><line class="cls-1" x1="445.33" y1="276.15" x2="445.33" y2="282.65"/><line class="cls-1" x1="403.33" y1="291.4" x2="403.33" y2="295.45"/><line class="cls-1" x1="445.33" y1="313.68" x2="445.33" y2="317.73"/><line class="cls-1" x1="367.5" y1="347.84" x2="367.5" y2="351.9"/><line class="cls-1" x1="414" y1="306.07" x2="414" y2="317.42"/><line class="cls-1" x1="414" y1="382.73" x2="414" y2="394.09"/><path class="cls-1" d="M508.11,383.23h8.55V449.9h22V410.23h9.78a21.36,21.36,0,0,0,21.33-21.33V372.57a11,11,0,1,0-22,0v15.67h-9.11V327.57a11,11,0,1,0-22,0v33.67h-8.55a1.33,1.33,0,0,1-1.33-1.33V338.23a11,11,0,0,0-22,0V359.9A23.36,23.36,0,0,0,508.11,383.23Z"/><line class="cls-1" x1="525.5" y1="333.4" x2="525.5" y2="339.9"/><line class="cls-1" x1="530.5" y1="358.9" x2="530.5" y2="363.9"/><line class="cls-1" x1="526.5" y1="379.9" x2="526.5" y2="384.51"/><line class="cls-1" x1="492" y1="343.4" x2="492" y2="349.4"/><line class="cls-1" x1="499" y1="354.4" x2="499" y2="360.4"/><line class="cls-1" x1="556.5" y1="373.4" x2="556.5" y2="380.42"/><line class="cls-1" x1="562.5" y1="386.9" x2="562.5" y2="389.4"/><path class="cls-1" d="M873,387.23h8.55V449.9h22v-21h.94a27.21,27.21,0,0,0,27.17-27.17V331.9a11,11,0,1,0-22,0v69.83a5.18,5.18,0,0,1-5.17,5.17h-.94V292.57a11,11,0,0,0-22,0v72.67H873a1.33,1.33,0,0,1-1.33-1.33v-37a11,11,0,1,0-22,0v37A23.36,23.36,0,0,0,873,387.23Z"/><line class="cls-1" x1="856.5" y1="333.9" x2="856.5" y2="339.4"/><line class="cls-1" x1="863.5" y1="349.9" x2="863.5" y2="355.9"/><line class="cls-1" x1="863.5" y1="327.4" x2="863.5" y2="330.9"/><line class="cls-1" x1="858" y1="363.9" x2="858" y2="371.4"/><line class="cls-1" x1="888.5" y1="304.9" x2="888.5" y2="311.92"/><line class="cls-1" x1="897" y1="292.4" x2="897" y2="295.4"/><line class="cls-1" x1="896.5" y1="326.9" x2="896.5" y2="341.41"/><line class="cls-1" x1="896.5" y1="365.4" x2="896.5" y2="375.41"/><line class="cls-1" x1="888.5" y1="346.4" x2="888.5" y2="349.4"/><line class="cls-1" x1="918.5" y1="344.9" x2="918.5" y2="351.4"/><line class="cls-1" x1="924.5" y1="363.9" x2="924.5" y2="369.9"/><line class="cls-1" x1="924.5" y1="394.15" x2="924.5" y2="398.65"/><line class="cls-1" x1="918.5" y1="376.9" x2="918.5" y2="379.4"/><path class="cls-1" d="M924.5,334.9v2"/></g></svg>