<svg id="Background_Images" data-name="Background Images" xmlns="http://www.w3.org/2000/svg" viewBox="0 0 1300 600"><defs><style>.cls-1{fill:#fff;stroke:#e1e4e5;stroke-linecap:round;stroke-linejoin:round;stroke-width:4px;}</style></defs><title>Images</title><g id="Image_8" data-name="Image 8"><path class="cls-1" d="M979.49,268.83l-109.78.42c-8.89,0-12.76-11.46-5.51-16.59l.31-.22c10.33-7.16,23.92-6.56,23.92-6.56s1.79-38.52,38.36-38.66c18.08-.07,32.81,30.78,32.81,30.78s24.6-.09,28.74,19.31C989.6,263.19,985.5,268.81,979.49,268.83Z"/><path class="cls-1" d="M228.21,329.78l147.52.57c11.94,0,17.15-15.4,7.4-22.3l-.41-.29c-13.88-9.62-32.15-8.82-32.15-8.82s-2.41-52-51.56-52c-34.75,0-44.09,41.37-44.09,41.37s-33.05-.13-38.62,25.95C214.62,322.2,220.13,329.75,228.21,329.78Z"/><path class="cls-1" d="M664.13,213.75l58.09-.22c5.19,0,7.41-6.75,3.14-9.72l-.18-.12c-6.07-4.14-14-3.73-14-3.73s-1.22-22.5-22.59-22.42c-19.32.07-26.95,19.06-29.69,29.52A5.36,5.36,0,0,0,664.13,213.75Z"/><path class="cls-1" d="M447.45,406.39l198.94.73c18.67.07,17.87-15.31,11.79-20.69-6.23-5.51-18.59-3.33-18.59-3.33a29,29,0,0,0-15.73-15.44c-10.69-4.49-21.92-2.41-21.92-2.41s0-7.1-6.81-13-16-5.37-16-5.37S573,307.72,531,307.56s-47,36.68-47,36.68-9.43,0-16.31,6.23-7.76,13.4-7.76,13.4-22.92-3.17-29.77,16.58C426.11,392.22,434.37,406.34,447.45,406.39Z"/><path class="cls-1" d="M1053.92,376.92l61.67.24c5,0,7.17-6.44,3.1-9.32l-.17-.12c-5.8-4-13.44-3.69-13.44-3.69s-1-21.64-21.55-21.72c-10.16,0-18.43,17.29-18.43,17.29s-13.82-.05-16.15,10.85A5.22,5.22,0,0,0,1053.92,376.92Z"/><path class="cls-1" d="M636.63,503.92H618a13.25,13.25,0,0,1-13.17-13.33V471.06l-3.18-10.62c19.72.09,47.38.43,51.3,0l-3.18,10.62v19.54A13.25,13.25,0,0,1,636.63,503.92Z"/><line class="cls-1" x1="627.32" y1="432.67" x2="627.32" y2="459.54"/><line class="cls-1" x1="599.67" y1="433.7" x2="605.67" y2="461.68"/><line class="cls-1" x1="656.58" y1="433.7" x2="649.78" y2="461.68"/><line class="cls-1" x1="642.58" y1="433.52" x2="637.68" y2="461.15"/><line class="cls-1" x1="612.49" y1="433.52" x2="617.39" y2="461.15"/><line class="cls-1" x1="604.67" y1="471.33" x2="649.75" y2="471.33"/><path class="cls-1" d="M739.24,293.33c0-62-49.62-112.22-110.83-112.22S517.57,231.36,517.57,293.33c0,50.48,78.22,140.41,78.22,140.41H661S739.24,343.82,739.24,293.33Z"/><path class="cls-1" d="M699.07,293.33c0-62-31.64-112.22-70.66-112.22s-70.66,50.24-70.66,112.22c0,50.48,49.87,140.41,49.87,140.41H649.2S699.07,343.82,699.07,293.33Z"/><path class="cls-1" d="M652.77,293.33c0-62-10.91-112.22-24.37-112.22S604,231.36,604,293.33c0,50.48,17.2,140.41,17.2,140.41h14.34S652.77,343.82,652.77,293.33Z"/><path class="cls-1" d="M668,376.62c-31.15-.12-16.38-49.45,23-37.5,2.45-68.57,114.42-118.32,160.29-25.65,13.11-10.29,42.38,9.35,35.81,26.4,14.51,1.29,25.93,3,34.8,5.27,20.5,5.21,16.33,32.28-4.81,32Z"/><line class="cls-1" x1="783.24" y1="389.93" x2="861.37" y2="389.93"/><path class="cls-1" d="M759.24,389.93h-15.3l.3-3"/><line class="cls-1" x1="505.76" y1="421.43" x2="528.25" y2="421.43"/><line class="cls-1" x1="321.26" y1="346.43" x2="339.26" y2="346.43"/><line class="cls-1" x1="442.76" y1="325.43" x2="465.46" y2="325.43"/><line class="cls-1" x1="394.76" y1="385.43" x2="415.76" y2="385.43"/><line class="cls-1" x1="375.26" y1="385.43" x2="364.66" y2="385.43"/><line class="cls-1" x1="938.95" y1="283.11" x2="972.09" y2="283.11"/><line class="cls-1" x1="751.74" y1="238.44" x2="768.31" y2="238.44"/><line class="cls-1" x1="826.74" y1="404.93" x2="840.32" y2="404.93"/></g></svg>