<svg id="Background_Images" data-name="Background Images" xmlns="http://www.w3.org/2000/svg" viewBox="0 0 1300 600"><defs><style>.cls-1{fill:#fff;stroke:#e1e4e5;stroke-linecap:round;stroke-linejoin:round;stroke-width:4px;}</style></defs><title>Images</title><g id="Image_1" data-name="Image 1"><path class="cls-1" d="M525.64,214.55c13.93,0,7.41-22.08-10.23-16.81-1-30.66-51-53.1-71.62-11.74-5.84-4.62-19,4.11-16.06,11.74a101.48,101.48,0,0,0-15.57,2.3c-9.17,2.3-7.36,14.41,2.1,14.32Z"/><path class="cls-1" d="M875,234.64H813.36c-5,0-7.15-6.47-3.06-9.33l.17-.12c5.82-4,13.45-3.64,13.45-3.64s1.09-21.64,21.64-21.64c10.16,0,18.37,17.36,18.37,17.36s13.82,0,16.1,10.91A5.22,5.22,0,0,1,875,234.64Z"/><path class="cls-1" d="M812.58,211.88,955.5,459.41H640.55L783.47,211.88A16.81,16.81,0,0,1,812.58,211.88Z"/><path class="cls-1" d="M885.85,338.79,812.58,211.88a16.81,16.81,0,0,0-29.12,0L708.81,341.19a12.62,12.62,0,0,0-1.06,10.25l.64,1.94a12.62,12.62,0,0,0,21.71,4.11l34.48-41.61a12.62,12.62,0,0,1,18.75-.76l18.47,18.93a12.62,12.62,0,0,0,20-2.59l.17-.3a12.62,12.62,0,0,1,20.28-2.31L865.35,354a12.62,12.62,0,0,0,19.32-.87l.28-.36A12.62,12.62,0,0,0,885.85,338.79Z"/><line class="cls-1" x1="109.62" y1="459.41" x2="1191.53" y2="459.41"/><path class="cls-1" d="M488.95,214.24,630.5,459.41H318.55L460.11,214.24A16.65,16.65,0,0,1,488.95,214.24Z"/><path class="cls-1" d="M536.54,296.67l-47.59-82.43a16.65,16.65,0,0,0-28.84,0l-48.58,84.14a7.58,7.58,0,0,0-1,4.28l.7,10.83a7.58,7.58,0,0,0,13.54,4.17l19.8-25.38a7.58,7.58,0,0,1,12.56.9l.12.21a7.58,7.58,0,0,0,13,.27l9.31-14.81a7.58,7.58,0,0,1,12.55-.42l26.38,36.27a7.58,7.58,0,0,0,12.78-.82l5.35-9.77A7.58,7.58,0,0,0,536.54,296.67Z"/><path class="cls-1" d="M691.45,125,884.5,459.41H469.55L662.61,125A16.65,16.65,0,0,1,691.45,125Z"/><path class="cls-1" d="M760.47,244.6,691.45,125a16.65,16.65,0,0,0-28.84,0l-84.8,146.87a21.47,21.47,0,0,0-2.27,15.82l.09.37a15.61,15.61,0,0,0,26.64,6.9l27.19-29.42a17,17,0,0,1,26.21,1.57l.21.29a12.56,12.56,0,0,0,19.05,1.51l.21-.21a12.23,12.23,0,0,1,18.71,1.7l14.33,20.74a11.82,11.82,0,0,0,21.26-4.12l7.14-31.67a7.81,7.81,0,0,1,12.84-4.08l1.3,1.17C756.1,257.31,764.08,250.85,760.47,244.6Z"/><line class="cls-1" x1="613.53" y1="325.41" x2="543.53" y2="459.41"/><line class="cls-1" x1="622.25" y1="310.29" x2="637.75" y2="278.8"/><path class="cls-1" d="M682.13,164.93h58.09c5.19,0,7.43-6.72,3.18-9.71l-.18-.13c-6.05-4.16-14-3.78-14-3.78s-1.13-22.5-22.5-22.5c-19.32,0-27,19-29.8,29.41A5.36,5.36,0,0,0,682.13,164.93Z"/><path class="cls-1" d="M565.82,236.76h111.9c10.5,0,10-8.65,6.59-11.66s-10.46-1.84-10.46-1.84a16.29,16.29,0,0,0-8.88-8.65,24.17,24.17,0,0,0-12.33-1.31,10.44,10.44,0,0,0-3.86-7.3,13.89,13.89,0,0,0-9-3s-3.54-22-27.16-22-26.35,20.73-26.35,20.73a15,15,0,0,0-9.16,3.54,13.46,13.46,0,0,0-4.34,7.55s-12.9-1.74-16.71,9.39C553.79,228.84,558.46,236.76,565.82,236.76Z"/><line class="cls-1" x1="735.25" y1="310.29" x2="750.25" y2="347.79"/><rect class="cls-1" x="363.19" y="349.26" width="3.64" height="41.31"/><polygon class="cls-1" points="365.02 342.24 375.34 360.13 385.67 378.02 365.02 369.85 344.36 378.02 354.69 360.13 365.02 342.24"/><polygon class="cls-1" points="365.02 332.98 373.79 348.18 382.56 363.38 365.02 356.44 347.47 363.38 356.24 348.18 365.02 332.98"/><polygon class="cls-1" points="365.02 322.86 372.74 336.23 380.46 349.61 365.02 343.5 349.57 349.61 357.29 336.23 365.02 322.86"/><rect class="cls-1" x="718.68" y="382.76" width="3.64" height="41.31"/><polygon class="cls-1" points="720.5 375.74 730.83 393.63 741.15 411.52 720.5 403.35 699.84 411.52 710.17 393.63 720.5 375.74"/><polygon class="cls-1" points="720.5 366.48 729.27 381.68 738.05 396.88 720.5 389.94 702.95 396.88 711.72 381.68 720.5 366.48"/><polygon class="cls-1" points="720.5 356.36 728.22 369.73 735.94 383.11 720.5 377 705.05 383.11 712.78 369.73 720.5 356.36"/><rect class="cls-1" x="464.92" y="335.87" width="3.79" height="42.91"/><polygon class="cls-1" points="466.81 328.57 477.54 347.16 488.27 365.74 466.81 357.26 445.36 365.74 456.08 347.16 466.81 328.57"/><polygon class="cls-1" points="466.81 318.96 475.93 334.75 485.04 350.53 466.81 343.33 448.58 350.53 457.7 334.75 466.81 318.96"/><polygon class="cls-1" points="466.81 308.44 474.83 322.33 482.86 336.23 466.81 329.89 450.77 336.23 458.79 322.33 466.81 308.44"/><rect class="cls-1" x="777.58" y="341.24" width="6.05" height="68.54"/><polygon class="cls-1" points="780.61 329.6 797.74 359.27 814.88 388.95 780.61 375.41 746.34 388.95 763.47 359.27 780.61 329.6"/><polygon class="cls-1" points="780.61 314.24 795.16 339.45 809.72 364.67 780.61 353.16 751.49 364.67 766.05 339.45 780.61 314.24"/><polygon class="cls-1" points="780.61 297.44 793.42 319.63 806.23 341.82 780.61 331.69 754.98 341.82 767.8 319.63 780.61 297.44"/><rect class="cls-1" x="275.2" y="381.76" width="3.64" height="41.31"/><polygon class="cls-1" points="277.02 374.74 287.35 392.63 297.68 410.52 277.02 402.35 256.37 410.52 266.69 392.63 277.02 374.74"/><polygon class="cls-1" points="277.02 365.48 285.8 380.68 294.57 395.88 277.02 388.94 259.47 395.88 268.25 380.68 277.02 365.48"/><polygon class="cls-1" points="277.02 355.36 284.74 368.73 292.46 382.11 277.02 376 261.57 382.11 269.3 368.73 277.02 355.36"/><rect class="cls-1" x="903.84" y="355.8" width="4.69" height="53.21"/><polygon class="cls-1" points="906.19 346.76 919.49 369.8 932.79 392.84 906.19 382.32 879.58 392.84 892.88 369.8 906.19 346.76"/><polygon class="cls-1" points="906.19 334.84 917.49 354.41 928.79 373.99 906.19 365.05 883.58 373.99 894.88 354.41 906.19 334.84"/><polygon class="cls-1" points="906.19 321.8 916.13 339.02 926.08 356.25 906.19 348.39 886.29 356.25 896.24 339.02 906.19 321.8"/><rect class="cls-1" x="335.35" y="346.97" width="4.84" height="54.81"/><polygon class="cls-1" points="337.77 337.66 351.47 361.39 365.17 385.12 337.77 374.29 310.36 385.12 324.06 361.39 337.77 337.66"/><polygon class="cls-1" points="337.77 325.37 349.41 345.54 361.05 365.7 337.77 356.5 314.48 365.7 326.13 345.54 337.77 325.37"/><polygon class="cls-1" points="337.77 311.94 348.01 329.69 358.26 347.43 337.77 339.33 317.27 347.43 327.52 329.69 337.77 311.94"/><path class="cls-1" d="M189.53,458.08s116-77.91,279-79c163.74-1.1,294,76.33,306,80.33Z"/><path class="cls-1" d="M646,458.35s92.9-62.39,223.44-63.27c131.13-.88,235.45,61.13,245.06,64.34Z"/><path class="cls-1" d="M609.74,397.6c-11,20.9-32.14,25.55-54.2,27.51-21.21,1.89-42.33,1.34-63.62,1.11-31.76-.35-61.46,10.65-83.84,33.2"/></g></svg>