<svg id="Background_Images" data-name="Background Images" xmlns="http://www.w3.org/2000/svg" viewBox="0 0 1300 600"><defs><style>.cls-1{fill:#fff;stroke:#e1e4e5;stroke-linecap:round;stroke-linejoin:round;stroke-width:4px;}</style></defs><title>Images</title><g id="Image_4" data-name="Image 4"><path class="cls-1" d="M616.22,268.5h-68.1c-5.51,0-7.89-7.14-3.38-10.31l.19-.13c6.42-4.42,14.86-4,14.86-4s1.2-23.89,23.89-23.89c11.22,0,20.28,19.17,20.28,19.17s15.26,0,17.78,12A5.77,5.77,0,0,1,616.22,268.5Z"/><path class="cls-1" d="M325.93,243.41h64.15c5.73,0,8.21-7.42,3.51-10.72l-.2-.14c-6.68-4.59-15.45-4.18-15.45-4.18s-1.25-24.85-24.85-24.85c-21.33,0-29.84,20.94-32.91,32.47A5.92,5.92,0,0,0,325.93,243.41Z"/><path class="cls-1" d="M827.22,240.25c15.38,0,8.18-24.38-11.3-18.56-1.08-33.86-56.27-58.63-79.09-13-6.45-5.11-20.94,4.54-17.73,13a112.06,112.06,0,0,0-17.19,2.54c-10.13,2.54-8.12,15.91,2.32,15.81Z"/><path class="cls-1" d="M574.42,193.68h93.65c8.79,0,8.39-7.24,5.52-9.76s-8.76-1.54-8.76-1.54a13.63,13.63,0,0,0-7.43-7.24,20.23,20.23,0,0,0-10.32-1.1,8.73,8.73,0,0,0-3.23-6.11,11.63,11.63,0,0,0-7.53-2.5s-3-18.42-22.73-18.42-22.05,17.35-22.05,17.35a12.53,12.53,0,0,0-7.67,3,11.26,11.26,0,0,0-3.63,6.32s-10.79-1.45-14,7.86C564.35,187,568.26,193.68,574.42,193.68Z"/><path class="cls-1" d="M920.18,343.44a58.53,58.53,0,0,0,117.06,0c0-32.33-26.21-96.08-58.53-96.08S920.18,311.11,920.18,343.44Z"/><path class="cls-1" d="M1005.66,350.36l0,0a3.18,3.18,0,0,0-4.56,0L982,369.59V301.32l16.94-17.06a3.29,3.29,0,0,0,0-4.65l-.07,0a3.19,3.19,0,0,0-4.57,0L982,292V277.26a3.58,3.58,0,0,0-3.48-3.43h-.07a3.56,3.56,0,0,0-3.46,3.43v43.19l-9.75-10.11a3.24,3.24,0,0,0-4.61,0l0,0a3.29,3.29,0,0,0-.07,4.65L975,329.77v96.05h7V378.9L1005.76,355A3.29,3.29,0,0,0,1005.66,350.36Z"/><path class="cls-1" d="M387.4,352.08a50.8,50.8,0,0,1-101.6,0c0-28.06,22.74-83.39,50.8-83.39S387.4,324,387.4,352.08Z"/><path class="cls-1" d="M352.17,323.39l0,0a2.7,2.7,0,0,0-3.91,0L340,332V294.64a3.07,3.07,0,0,0-3.12-2.82h-.06a2.79,2.79,0,0,0-2.82,2.82V356.9l-16.52-16.58a2.87,2.87,0,0,0-4,0l0,0a2.86,2.86,0,0,0,0,4L334,365v58.84h6V340.08l12.34-12.64A2.86,2.86,0,0,0,352.17,323.39Z"/><path class="cls-1" d="M754.23,475.08s77.08-51.76,185.38-52.49c108.79-.73,195.35,49.71,203.32,52.36Z"/><path class="cls-1" d="M170.08,474.91s77.08-52.48,185.38-53.21c108.79-.73,195.35,50.72,203.32,53.38Z"/><line class="cls-1" x1="102.17" y1="475.08" x2="1203.78" y2="475.08"/><path class="cls-1" d="M961.72,315.61c0,64.34-42.5,90.74-94.92,90.74s-94.92-26.4-94.92-90.74,65.26-163.82,94.92-163.82S961.72,251.27,961.72,315.61Z"/><path class="cls-1" d="M866.86,247.68h-.13a6.56,6.56,0,0,0-6.56,6.56V475.08h13.26V254.24A6.56,6.56,0,0,0,866.86,247.68Z"/><path class="cls-1" d="M869.4,391.07l54.3-54.3a6.56,6.56,0,0,0,0-9.28l-.09-.09a6.56,6.56,0,0,0-9.28,0l-44,44.24"/><path class="cls-1" d="M863.94,333.37l-54.3-54.3a6.56,6.56,0,0,1,0-9.28l.09-.09a6.56,6.56,0,0,1,9.28,0l44,44.24"/><path class="cls-1" d="M542,332.14c0,48.38-32,91.89-71.38,91.89s-71.38-43.51-71.38-91.89,49.08-188.88,71.38-188.88S542,283.76,542,332.14Z"/><path class="cls-1" d="M470.68,208.51h-.1a4.94,4.94,0,0,0-4.94,4.94V475.08h10V213.45A4.94,4.94,0,0,0,470.68,208.51Z"/><path class="cls-1" d="M472.59,379.36l40.84-40.84a4.94,4.94,0,0,0,0-7l-.07-.07a4.94,4.94,0,0,0-7,0l-33.11,33.27"/><path class="cls-1" d="M468.93,336l-26.4-26.77a4.94,4.94,0,0,1,0-7l.07-.07a4.94,4.94,0,0,1,7,0l18.67,19.2"/><path class="cls-1" d="M473,272.8,499.39,246a4.94,4.94,0,0,0,0-7l-.07-.07a4.94,4.94,0,0,0-7,0l-19.95,20.47"/><line class="cls-1" x1="594.66" y1="439.74" x2="594.66" y2="475.08"/><line class="cls-1" x1="733.25" y1="439.74" x2="733.25" y2="475.08"/><line class="cls-1" x1="604.6" y1="475.08" x2="604.6" y2="361.26"/><line class="cls-1" x1="722.76" y1="475.08" x2="722.76" y2="361.26"/><rect class="cls-1" x="584.97" y="392.35" width="157.35" height="18.22"/><rect class="cls-1" x="584.97" y="364.74" width="157.35" height="19.32"/><rect class="cls-1" x="569.52" y="426.03" width="188.27" height="13.8"/></g></svg>