<svg id="Background_Images" data-name="Background Images" xmlns="http://www.w3.org/2000/svg" viewBox="0 0 1300 600"><defs><style>.cls-1{fill:#fff;stroke:#e1e4e5;stroke-linecap:round;stroke-linejoin:round;stroke-width:4px;}</style></defs><title>Images</title><g id="Image_3" data-name="Image 3"><polygon class="cls-1" points="470.85 341.76 609.46 467.76 333.19 468.1 470.85 341.76"/><polygon class="cls-1" points="825.32 344.76 955.24 467.76 687.36 468.1 825.32 344.76"/><polygon class="cls-1" points="612.48 274.97 828.32 467.43 397.84 468.1 612.48 274.97"/><line class="cls-1" x1="623.73" y1="427.93" x2="631.3" y2="427.93"/><line class="cls-1" x1="633.23" y1="352.93" x2="645.28" y2="352.93"/><line class="cls-1" x1="590.23" y1="337.93" x2="598.48" y2="337.93"/><line class="cls-1" x1="593.9" y1="441.43" x2="601.35" y2="441.43"/><line class="cls-1" x1="518.57" y1="398.77" x2="529.92" y2="398.77"/><line class="cls-1" x1="535.9" y1="388.1" x2="550.04" y2="388.1"/><line class="cls-1" x1="706.57" y1="410.1" x2="718.64" y2="410.1"/><line class="cls-1" x1="508.57" y1="380.1" x2="515.93" y2="380.1"/><circle class="cls-1" cx="538.58" cy="209.32" r="36"/><path class="cls-1" d="M1060.3,468.1s-74.92-84.31-179.81-84.29c-105.31,0-183.27,77.28-254.27,77.28-91.34,0-122.62-47.51-208.85-47.51-110.56,0-189.24,53.58-189.24,53.58l164.44.38-.94.56Z"/><line class="cls-1" x1="117.41" y1="468.1" x2="1171.02" y2="468.1"/><line class="cls-1" x1="598.57" y1="215.82" x2="622.57" y2="215.82"/><line class="cls-1" x1="639.07" y1="214.32" x2="646.57" y2="214.32"/><line class="cls-1" x1="556.57" y1="262.31" x2="564.07" y2="262.31"/><line class="cls-1" x1="582.07" y1="154.32" x2="589.57" y2="154.32"/><line class="cls-1" x1="447.58" y1="215.32" x2="473.25" y2="215.32"/><line class="cls-1" x1="421.08" y1="215.32" x2="435.76" y2="215.32"/><line class="cls-1" x1="470.08" y1="193.82" x2="482.08" y2="193.82"/><line class="cls-1" x1="459.58" y1="234.82" x2="485.12" y2="234.82"/><line class="cls-1" x1="595.57" y1="195.32" x2="604.7" y2="195.32"/><line class="cls-1" x1="589.57" y1="236.82" x2="606.14" y2="236.82"/></g></svg>