<svg id="Background_Images" data-name="Background Images" xmlns="http://www.w3.org/2000/svg" viewBox="0 0 1300 600"><defs><style>.cls-1{fill:#fff;stroke:#e1e4e5;stroke-linecap:round;stroke-linejoin:round;stroke-width:4px;}</style></defs><title>Images</title><g id="Image_5" data-name="Image 5"><path class="cls-1" d="M975.14,272.46l-61.67.24c-5,0-7.17-6.44-3.1-9.32l.17-.12c5.8-4,13.44-3.69,13.44-3.69s1-21.64,21.55-21.72c10.16,0,18.43,17.29,18.43,17.29s13.82-.05,16.15,10.85A5.22,5.22,0,0,1,975.14,272.46Z"/><path class="cls-1" d="M583.38,243.39l58.09-.22c5.19,0,7.41-6.75,3.14-9.72l-.18-.12c-6.07-4.14-14-3.73-14-3.73s-1.22-22.5-22.59-22.42c-19.32.07-26.95,19.06-29.69,29.52A5.36,5.36,0,0,0,583.38,243.39Z"/><path class="cls-1" d="M720.87,310.86l111.9.41c10.5,0,10.05-8.61,6.63-11.64s-10.46-1.87-10.46-1.87a16.29,16.29,0,0,0-8.85-8.68,24.17,24.17,0,0,0-12.33-1.36,10.44,10.44,0,0,0-3.83-7.31,13.89,13.89,0,0,0-9-3s-3.45-22-27.08-22.11-26.43,20.63-26.43,20.63a15,15,0,0,0-9.17,3.5,13.46,13.46,0,0,0-4.37,7.54s-12.89-1.79-16.75,9.33C708.87,302.89,713.51,310.83,720.87,310.86Z"/><circle class="cls-1" cx="420.49" cy="286.16" r="36"/><line class="cls-1" x1="133.84" y1="425.6" x2="1187.44" y2="425.6"/><line class="cls-1" x1="564.84" y1="465.26" x2="726.84" y2="465.26"/><line class="cls-1" x1="757.84" y1="465.26" x2="807.84" y2="465.26"/><line class="cls-1" x1="474.84" y1="440.26" x2="524.84" y2="440.26"/><line class="cls-1" x1="671.84" y1="440.26" x2="697.84" y2="440.26"/><line class="cls-1" x1="408.84" y1="465.26" x2="422.84" y2="465.26"/><line class="cls-1" x1="437.65" y1="465.26" x2="477.02" y2="465.26"/><line class="cls-1" x1="458.65" y1="477.26" x2="539.84" y2="477.26"/><line class="cls-1" x1="480.48" y1="292.66" x2="504.48" y2="292.66"/><line class="cls-1" x1="520.98" y1="291.16" x2="528.48" y2="291.16"/><line class="cls-1" x1="438.49" y1="339.16" x2="445.99" y2="339.16"/><line class="cls-1" x1="463.99" y1="231.16" x2="471.48" y2="231.16"/><line class="cls-1" x1="341.49" y1="311.66" x2="367.03" y2="311.66"/><line class="cls-1" x1="477.48" y1="272.16" x2="486.61" y2="272.16"/><line class="cls-1" x1="471.48" y1="313.66" x2="488.05" y2="313.66"/><path class="cls-1" d="M414.21,290.86c13.93-.05,7.33-22.11-10.3-16.77-1.09-30.66-51.16-52.9-71.66-11.47-5.86-4.6-18.95,4.18-16,11.8a101.48,101.48,0,0,0-15.56,2.36c-9.16,2.33-7.3,14.43,2.15,14.31Z"/><polygon class="cls-1" points="561.82 313.64 526.87 388.64 562 388.64 561.82 313.64"/><polygon class="cls-1" points="562.82 277.14 652.49 388.14 563 394.64 562.82 277.14"/><line class="cls-1" x1="563" y1="450.14" x2="563" y2="266.64"/><polygon class="cls-1" points="519.5 450.14 648.5 450.14 670.49 409.64 505.5 417.64 519.5 450.14"/><polygon class="cls-1" points="562.82 266.14 542.82 266.14 547.82 270.75 542.32 275.25 562.82 275.25 562.82 266.14"/><path class="cls-1" d="M161.22,425.51l290.72.09s-197.42-40-318.11-45.21"/><path class="cls-1" d="M1186.1,492.3l-525.61.17s311.13-72.3,529.33-81.73"/></g></svg>