<svg id="Background_Images" data-name="Background Images" xmlns="http://www.w3.org/2000/svg" viewBox="0 0 1300 600"><defs><style>.cls-1{fill:#fff;stroke:#e1e4e5;stroke-linecap:round;stroke-linejoin:round;stroke-width:4px;}</style></defs><title>Images</title><g id="Image_6" data-name="Image 6"><path class="cls-1" d="M358.8,319a36,36,0,0,1,41.15-32.77c-3.42,2.3-41.18,42.42-40.81,42.26a32.19,32.19,0,0,1,2-19.21"/><path class="cls-1" d="M307.79,336.78a36,36,0,0,1,51.9-8.55c-4.11.34-56.63,17-56.24,17a32.19,32.19,0,0,1,11.13-15.78"/><path class="cls-1" d="M356.64,326.42a39.87,39.87,0,0,1,3.56-53.73C360.1,275.4,357.73,323.82,356.64,326.42Z"/><path class="cls-1" d="M333.77,379.61A44.88,44.88,0,0,1,359,324.52C357.84,327.34,336,377.32,333.77,379.61Z"/><path class="cls-1" d="M356.67,326.93l50.05,14.89S394.12,314.24,356.67,326.93Z"/><path class="cls-1" d="M388.4,443.08S379.08,346,353.1,323.2c11,32.78,22.21,83.62,26.89,120.06Z"/><path class="cls-1" d="M398.55,308.28a41.58,41.58,0,0,0-50.13,34.43c3.7-3,60.81-31.2,60.51-30.85A37.21,37.21,0,0,0,387,307.61"/><path class="cls-1" d="M468.22,305.39a41.58,41.58,0,0,0-60.6,5.15c4.7-.78,68.29,2.94,67.85,3.09a37.21,37.21,0,0,0-17-14.53"/><path class="cls-1" d="M451.26,360.76a51.88,51.88,0,0,0-43.95-54.57C409.45,309,448.17,358.81,451.26,360.76Z"/><path class="cls-1" d="M413.91,311.05l-5.49-5s-16.79,33.56-19.35,95c-1.48,35.58-.57,42.06-.57,42.06l10.51.2s-2.18-8.21-.67-42.81C400.85,343,413.91,311.05,413.91,311.05Z"/><path class="cls-1" d="M407.88,309.42A56.75,56.75,0,0,0,339.39,275C342.8,276.86,403.92,308.89,407.88,309.42Z"/><path class="cls-1" d="M408.83,307.66,395.5,242.49S429.09,261.54,408.83,307.66Z"/><line class="cls-1" x1="527.9" y1="453.77" x2="620.92" y2="452.47"/><path class="cls-1" d="M674,443.27H547.23a63.37,63.37,0,1,1,126.74,0Z"/><line class="cls-1" x1="121.73" y1="443.27" x2="1176.87" y2="443.27"/><path class="cls-1" d="M119.64,465.54l417.52.09C462.22,438.4,244.89,421,119.64,421"/><path class="cls-1" d="M742.13,345.51a34.25,34.25,0,0,1,39.19-31.21c-3.26,2.19-39.21,40.4-38.87,40.25a30.65,30.65,0,0,1,1.93-18.29"/><path class="cls-1" d="M693.55,362.44A34.25,34.25,0,0,1,743,354.29c-3.91.33-53.93,16.16-53.56,16.2a30.65,30.65,0,0,1,10.6-15"/><path class="cls-1" d="M740.07,352.56a38,38,0,0,1,3.39-51.17C743.37,304,741.11,350.1,740.07,352.56Z"/><path class="cls-1" d="M718.3,403.22a42.74,42.74,0,0,1,24.05-52.46C741.21,353.44,720.37,401,718.3,403.22Z"/><path class="cls-1" d="M740.1,353.05l47.66,14.18S775.77,341,740.1,353.05Z"/><path class="cls-1" d="M770.32,461.12c-5.55-34.15-8.88-89.89-33.62-111.62,10.46,31.29,21.22,77.59,25.6,111.9C763.7,460.68,768.94,461.84,770.32,461.12Z"/><path class="cls-1" d="M719.52,259.05a44.89,44.89,0,0,1,52.84-39c-4.37,2.72-53.32,51-52.86,50.84A40.18,40.18,0,0,1,722.91,247"/><path class="cls-1" d="M655.07,278.87a44.89,44.89,0,0,1,65.14-8.28c-5.14.24-71.43,18.56-70.94,18.62A40.18,40.18,0,0,1,663.89,270"/><path class="cls-1" d="M716.49,268.19a49.77,49.77,0,0,1,6.92-66.86C723.16,204.72,718,265,716.49,268.19Z"/><path class="cls-1" d="M685.51,333.49a56,56,0,0,1,34-67.56C717.94,269.39,688.34,330.74,685.51,333.49Z"/><path class="cls-1" d="M713.69,272.56l4.66-6.55s48.89,34.16,58.19,95.68,5.66,99.57,5.66,99.57l-11.83.07s-.07-50.35-3.21-87.61C761.89,310.87,713.69,272.56,713.69,272.56Z"/><path class="cls-1" d="M514.18,276.65a40,40,0,0,0-48-33.47c4,2.32,48.73,44.19,48.32,44A35.82,35.82,0,0,0,510.87,266"/><path class="cls-1" d="M572.08,292.77A40,40,0,0,0,513.84,287c4.59.09,64.09,14.83,63.65,14.9A35.82,35.82,0,0,0,564,285.11"/><path class="cls-1" d="M517.1,284.72a44.37,44.37,0,0,0-7.77-59.41C509.64,228.32,515.71,281.92,517.1,284.72Z"/><path class="cls-1" d="M546.26,342.16a49.93,49.93,0,0,0-32-59.38C515.84,285.83,543.68,339.78,546.26,342.16Z"/><path class="cls-1" d="M519.69,288.55l-4.31-5.72s-21.76,28.8-35.07,86.45c-12.47,54-17.16,89-17.16,89l10.51-1.21s8-54.26,15.52-86.73C501.7,316.46,519.69,288.55,519.69,288.55Z"/><path class="cls-1" d="M517.1,285.29l-54.52,20.08S474.61,273.86,517.1,285.29Z"/><path class="cls-1" d="M454,458s.82-27,16.37-27,18.83,17.47,18.83,17.47a17.85,17.85,0,0,1,9.88,3.12,3.75,3.75,0,0,1-2.24,6.77Z"/><path class="cls-1" d="M629.9,453.77h90"/><line class="cls-1" x1="563.9" y1="464.77" x2="666.78" y2="464.77"/><path class="cls-1" d="M608.9,476.27h24"/><line class="cls-1" x1="357.61" y1="429.72" x2="362.79" y2="443.27"/><path class="cls-1" d="M1176.87,492.24l-563.16.13c106.24-38.6,385.59-63.21,563.16-63.21"/><path class="cls-1" d="M870.59,326.5a41.79,41.79,0,0,1,42.17,44.26c-3-3.72-53.35-43.29-53.12-42.89a37.41,37.41,0,0,1,22.44.36"/><path class="cls-1" d="M802.66,309.21a41.79,41.79,0,0,1,58.53,17.63c-4.47-1.74-67.77-11.26-67.38-11A37.41,37.41,0,0,1,813.49,305"/><path class="cls-1" d="M807.86,367.19a52.15,52.15,0,0,1,54.54-44.56C859.71,325,811.31,365.92,807.86,367.19Z"/><path class="cls-1" d="M856.9,326l6.45-3.8s9.81,36.53-.66,97.43C857.46,450.12,854.8,461,854.8,461l-10.64.39s3.85-9.85,9.53-44.2C863.13,360.17,856.9,326,856.9,326Z"/><path class="cls-1" d="M861.17,325.69A57.05,57.05,0,0,1,935.67,306C931.93,307.15,865.18,326,861.17,325.69Z"/><path class="cls-1" d="M860.6,323.76l26.62-61.34S850.23,274.2,860.6,323.76Z"/><line class="cls-1" x1="863.79" y1="461.41" x2="872.18" y2="443.54"/><line class="cls-1" x1="875.29" y1="461.41" x2="883.13" y2="449.72"/></g></svg>