<svg id="Background_Images" data-name="Background Images" xmlns="http://www.w3.org/2000/svg" viewBox="0 0 1300 600"><defs><style>.cls-1{fill:#fff;stroke:#e1e4e5;stroke-linecap:round;stroke-linejoin:round;stroke-width:4px;}</style></defs><title>Images</title><g id="Image_2" data-name="Image 2"><path class="cls-1" d="M1087.81,462.76c-10.52-3.51-124.68-57-268.18-56.07-73.88.5-136.75,19-180.23,36.75a96.55,96.55,0,0,1-67.87,2c-35.37-12.14-81.35-23.19-132.18-22.85C331,423.28,254,462.76,254,462.76Z"/><path class="cls-1" d="M1015.06,286l-61.67.24c-5,0-7.17-6.44-3.1-9.32l.17-.12c5.8-4,13.44-3.69,13.44-3.69s1-21.64,21.55-21.72c10.16,0,18.43,17.29,18.43,17.29s13.82-.05,16.15,10.85A5.22,5.22,0,0,1,1015.06,286Z"/><path class="cls-1" d="M693.77,268.77l58.09-.22c5.19,0,7.41-6.75,3.14-9.72l-.18-.12c-6.07-4.14-14-3.73-14-3.73s-1.22-22.5-22.59-22.42c-19.32.07-26.95,19.06-29.69,29.52A5.36,5.36,0,0,0,693.77,268.77Z"/><path class="cls-1" d="M801.22,310.8l111.9.41c10.5,0,10.05-8.61,6.63-11.64s-10.46-1.87-10.46-1.87a16.29,16.29,0,0,0-8.85-8.68,24.17,24.17,0,0,0-12.33-1.36,10.44,10.44,0,0,0-3.83-7.31,13.89,13.89,0,0,0-9-3s-3.45-22-27.08-22.11-26.43,20.63-26.43,20.63a15,15,0,0,0-9.17,3.5,13.46,13.46,0,0,0-4.37,7.54s-12.89-1.79-16.75,9.33C789.22,302.83,793.86,310.77,801.22,310.8Z"/><path class="cls-1" d="M548.59,284.24c13.93-.05,7.33-22.11-10.3-16.77-1.09-30.66-51.16-52.9-71.66-11.47-5.86-4.6-18.95,4.18-16,11.8a101.48,101.48,0,0,0-15.56,2.36c-9.16,2.33-7.3,14.43,2.15,14.31Z"/><line class="cls-1" x1="126.58" y1="462.76" x2="1180.19" y2="462.76"/><path class="cls-1" d="M335.06,331.07,277,330.85c-5.19,0-7.41-6.75-3.14-9.72L274,321c6.07-4.14,14-3.73,14-3.73s1.22-22.5,22.59-22.42c19.32.07,26.95,19.06,29.69,29.52A5.36,5.36,0,0,1,335.06,331.07Z"/><path class="cls-1" d="M358.68,272.6c-16.8-.06-8.84-26.67,12.42-20.23,1.32-37,61.72-63.82,86.45-13.83,7.07-5.55,22.86,5,19.32,14.24a122.42,122.42,0,0,1,18.77,2.84c11.05,2.81,8.81,17.41-2.6,17.27Z"/><circle class="cls-1" cx="653.39" cy="303.2" r="13.26"/><path class="cls-1" d="M588.26,462.56,616.52,306A29,29,0,0,1,645,282.12h16.69A29,29,0,0,1,690.25,306l28.26,156.61Z"/><path class="cls-1" d="M715.39,443.78h-124a12,12,0,0,0-12,12v6.76H727.42V455.8A12,12,0,0,0,715.39,443.78Z"/><path class="cls-1" d="M654.12,245c24.43,11.05,39.78,37.49,47.23,64.53H605.42C615.68,281.84,629.53,257.87,654.12,245Z"/><circle class="cls-1" cx="653.39" cy="303.18" r="13.26"/><line class="cls-1" x1="694.93" y1="261.63" x2="652.51" y2="304.06"/><rect class="cls-1" x="658.72" y="248.27" width="75.9" height="23.26" transform="translate(20.27 568.74) rotate(-45)"/><line class="cls-1" x1="611.84" y1="344.73" x2="654.26" y2="302.31"/><rect class="cls-1" x="572.16" y="334.83" width="75.9" height="23.26" transform="translate(-66.29 532.89) rotate(-45)"/><line class="cls-1" x1="611.84" y1="261.63" x2="654.26" y2="304.06"/><rect class="cls-1" x="598.48" y="221.96" width="23.26" height="75.9" transform="translate(-5.08 507.53) rotate(-45)"/><line class="cls-1" x1="694.93" y1="344.73" x2="652.51" y2="302.31"/><rect class="cls-1" x="685.04" y="308.51" width="23.26" height="75.9" transform="translate(-40.94 594.09) rotate(-45)"/><rect class="cls-1" x="640.48" y="409.51" width="25.8" height="53.25"/><rect class="cls-1" x="647.85" y="370.93" width="11.07" height="11.07"/><rect class="cls-1" x="676.58" y="370.93" width="11.07" height="11.07"/><rect class="cls-1" x="619.12" y="370.93" width="11.07" height="11.07"/><line class="cls-1" x1="472.28" y1="459.37" x2="472.28" y2="441.37"/><line class="cls-1" x1="484.28" y1="459.37" x2="484.28" y2="446.37"/><line class="cls-1" x1="512.78" y1="459.37" x2="512.78" y2="451.37"/><line class="cls-1" x1="460.28" y1="459.37" x2="460.28" y2="446.37"/><line class="cls-1" x1="781.26" y1="459.37" x2="781.26" y2="446.37"/><line class="cls-1" x1="793.26" y1="459.37" x2="793.26" y2="441.37"/><line class="cls-1" x1="805.76" y1="459.37" x2="805.76" y2="446.37"/><path class="cls-1" d="M461,298.88H443l0,.07,18,0Z"/><path class="cls-1" d="M436.71,298.88h-12V299h12Z"/><path class="cls-1" d="M377.78,298.88h26.87"/><path class="cls-1" d="M505,312.38H529.3"/><path class="cls-1" d="M478.28,312.38h10.24"/><path class="cls-1" d="M859.07,341.88h16.69"/><path class="cls-1" d="M834.73,341.88h9.74"/><path class="cls-1" d="M779.76,341.88h8.34"/><line class="cls-1" x1="800.76" y1="328.38" x2="818.76" y2="328.38"/><line class="cls-1" x1="943.25" y1="328.38" x2="961.25" y2="328.38"/><line class="cls-1" x1="403.28" y1="328.38" x2="421.28" y2="328.38"/><line class="cls-1" x1="851.76" y1="326.88" x2="901.35" y2="326.88"/></g></svg>