<?xml version="1.0" encoding="utf-8"?>
<!-- Generator: Adobe Illustrator 21.0.0, SVG Export Plug-In . SVG Version: 6.00 Build 0)  -->
<svg version="1.1" id="Layer_1" xmlns="http://www.w3.org/2000/svg" xmlns:xlink="http://www.w3.org/1999/xlink" x="0px" y="0px"
	 viewBox="0 0 1050 265" style="enable-background:new 0 0 1050 265;" xml:space="preserve">
<style type="text/css">
	.st0{fill:url(#path32_1_);}
	.st1{fill:url(#path54_1_);}
	.st2{fill:url(#path74_1_);}
	.st3{fill:url(#path96_1_);}
	.st4{fill:url(#path120_1_);}
	.st5{fill:url(#path142_1_);}
	.st6{fill:url(#path164_1_);}
	.st7{fill:url(#path248_1_);}
	.st8{fill:url(#path184_1_);}
	.st9{fill:url(#path206_1_);}
	.st10{fill:url(#path226_1_);}
	.st11{fill:#FFFFFF;}
</style>
<title>Waterbear Logo RGB</title>
<desc>Created with Sketch.</desc>
<g id="Page-1">
	<g id="Waterbear-Logo-RGB" transform="translate(-1.000000, -1.000000)">
		
			<g id="Container" transform="translate(525.500000, 133.666670) scale(-1, 1) rotate(-180.000000) translate(-525.500000, -133.666670) translate(0.000000, 0.666670)">
			<g id="Shape">
				<g id="g12" transform="translate(109.666660, 6.333331)">
					<g id="g14">
						<g id="g20">
							<g id="g22">
								
									<linearGradient id="path32_1_" gradientUnits="userSpaceOnUse" x1="-380.5476" y1="-675.8265" x2="-378.2688" y2="-675.0704" gradientTransform="matrix(148.3867 0 0 258.2 56509.1992 174608.0469)">
									<stop  offset="0" style="stop-color:#7B489E"/>
									<stop  offset="0.9988" style="stop-color:#DA52CF"/>
									<stop  offset="1" style="stop-color:#DA52CF"/>
								</linearGradient>
								<polygon id="path32" class="st0" points="149,258.5 0.6,232.1 10.8,209.2 50.5,120.4 104.1,0.3 127.2,133.4 143.8,228.6 
																	"/>
							</g>
						</g>
					</g>
				</g>
				<g id="g34" transform="translate(209.666658, 6.333331)">
					<g id="g36">
						<g id="g42">
							<g id="g44">
								
									<linearGradient id="path54_1_" gradientUnits="userSpaceOnUse" x1="-482.814" y1="-675.4443" x2="-479.8868" y2="-676.0702" gradientTransform="matrix(137.18 0 0 233.5427 65938.75 157997.2344)">
									<stop  offset="0" style="stop-color:#B436B0"/>
									<stop  offset="0.9988" style="stop-color:#8B0C82"/>
									<stop  offset="1" style="stop-color:#8B0C82"/>
								</linearGradient>
								<polygon id="path54" class="st1" points="43.8,228.6 0.5,233.9 27.2,133.4 62.6,0.3 105.3,123.7 128.3,190.1 137.7,217.3 
																	"/>
							</g>
						</g>
					</g>
				</g>
				<g id="g56" transform="translate(37.666662, 0.666664)">
					<g id="g58">
						<g id="g64">
							<g id="g66">
								
									<linearGradient id="path74_1_" gradientUnits="userSpaceOnUse" x1="-307.6124" y1="-670.3676" x2="-308.6124" y2="-670.3676" gradientTransform="matrix(133.3787 0 0 232.5986 41162.9141 156043.1094)">
									<stop  offset="0" style="stop-color:#7D6FC8"/>
									<stop  offset="1" style="stop-color:#AD7FD8"/>
								</linearGradient>
								<polygon id="path74" class="st2" points="134,232.8 82.8,214.8 0.6,185.9 21.1,150.7 50.3,100.6 108.9,0.2 122.5,126.1 
									122.5,126.1 								"/>
							</g>
						</g>
					</g>
				</g>
				<g id="g76" transform="translate(297.666656, 129.999994)">
					<g id="g78">
						<g id="g84">
							<g id="g86">
								
									<linearGradient id="path96_1_" gradientUnits="userSpaceOnUse" x1="-565.1946" y1="-805.3783" x2="-562.1785" y2="-804.1823" gradientTransform="matrix(39.8693 0 0 84.368 22478.5566 67936.4375)">
									<stop  offset="0" style="stop-color:#901181"/>
									<stop  offset="0.9988" style="stop-color:#C111A7"/>
									<stop  offset="1" style="stop-color:#C111A7"/>
								</linearGradient>
								<polygon id="path96" class="st3" points="0.5,84.4 17.3,0 40.3,66.5 								"/>
							</g>
						</g>
					</g>
				</g>
				<g id="g98" transform="translate(297.666656, 0.666664)">
					<g id="g100">
						<g id="g106">
							<g id="g108">
								
									<linearGradient id="path120_1_" gradientUnits="userSpaceOnUse" x1="-568.2113" y1="-670.7249" x2="-567.2289" y2="-670.3009" gradientTransform="matrix(109.8293 0 0 213.504 62402.3945 143287.875)">
									<stop  offset="0" style="stop-color:#931183"/>
									<stop  offset="1.193040e-03" style="stop-color:#931183"/>
									<stop  offset="0.9988" style="stop-color:#BC12A3"/>
									<stop  offset="1" style="stop-color:#BC12A3"/>
								</linearGradient>
								<polygon id="path120" class="st4" points="40.3,195.8 0.5,213.7 17.3,129.3 43.1,0.2 110.3,164.4 								"/>
							</g>
						</g>
					</g>
				</g>
				<g id="g122" transform="translate(209.666658, 139.666661)">
					<g id="g124">
						<g id="g130">
							<g id="g132">
								
									<linearGradient id="path142_1_" gradientUnits="userSpaceOnUse" x1="-476.2908" y1="-813.2084" x2="-475.0503" y2="-812.9001" gradientTransform="matrix(43.228 0 0 100.4373 20591.2559 81720.0156)">
									<stop  offset="0" style="stop-color:#72489E"/>
									<stop  offset="0.9988" style="stop-color:#D752DA"/>
									<stop  offset="1" style="stop-color:#D752DA"/>
								</linearGradient>
								<polygon id="path142" class="st5" points="0.5,100.5 27.2,0.1 43.8,95.3 								"/>
							</g>
						</g>
					</g>
				</g>
				<g id="g144" transform="translate(0.333330, 51.666663)">
					<g id="g146">
						<g id="g152">
							<g id="g154">
								
									<linearGradient id="path164_1_" gradientUnits="userSpaceOnUse" x1="-270.7181" y1="-723.7292" x2="-269.7188" y2="-723.7306" gradientTransform="matrix(104.7707 0 0 127.5227 28364.0059 92356.4922)">
									<stop  offset="0" style="stop-color:#1B7FB5"/>
									<stop  offset="1.193040e-03" style="stop-color:#1B7FB5"/>
									<stop  offset="1" style="stop-color:#87C2E8"/>
								</linearGradient>
								<polygon id="path164" class="st6" points="58.5,99.7 0.7,64.7 76.6,0.7 87.7,49.6 105.5,128.2 								"/>
							</g>
						</g>
					</g>
				</g>
				<g id="g228" transform="translate(297.666656, 129.999994)">
				</g>
				<g id="g230" transform="translate(297.666656, 129.999994)">
					<g id="g236">
						<g id="g238">
							
								<linearGradient id="path248_1_" gradientUnits="userSpaceOnUse" x1="-564.1096" y1="-804.6486" x2="-563.0559" y2="-804.8298" gradientTransform="matrix(39.8693 0 0 84.368 22478.5566 67936.4375)">
								<stop  offset="0" style="stop-color:#680256"/>
								<stop  offset="0.9988" style="stop-color:#640152"/>
								<stop  offset="1" style="stop-color:#640152"/>
							</linearGradient>
							<polygon id="path248" class="st7" points="0.5,84.4 17.3,0 40.3,66.5 							"/>
						</g>
					</g>
				</g>
				<g id="g166" transform="translate(58.666662, 100.999995)">
					<g id="g168">
						<g id="g174">
							<g id="g176">
								
									<linearGradient id="path184_1_" gradientUnits="userSpaceOnUse" x1="-324.8364" y1="-776.3195" x2="-325.8364" y2="-776.3195" gradientTransform="matrix(46.996 0 0 78.5987 15313.1416 61057.2578)">
									<stop  offset="0" style="stop-color:#5761C6"/>
									<stop  offset="1" style="stop-color:#364694"/>
								</linearGradient>
								<polygon id="path184" class="st8" points="0.1,50.4 29.3,0.3 47.1,78.9 								"/>
							</g>
						</g>
					</g>
				</g>
				<g id="g186" transform="translate(120.333327, 126.333328)">
					<g id="g188">
						<g id="g194">
							<g id="g196">
								
									<linearGradient id="path206_1_" gradientUnits="userSpaceOnUse" x1="-387.6765" y1="-799.5236" x2="-386.6046" y2="-799.2269" gradientTransform="matrix(51.1747 0 0 106.7333 19854.8496 85378.0938)">
									<stop  offset="0" style="stop-color:#392185"/>
									<stop  offset="0.9988" style="stop-color:#3C208F"/>
									<stop  offset="1" style="stop-color:#3C208F"/>
								</linearGradient>
								<polygon id="path206" class="st9" points="0.1,89.2 39.8,0.4 51.3,107.1 								"/>
							</g>
						</g>
					</g>
				</g>
				<g id="g208" transform="translate(209.666658, 139.666661)">
					<g id="g210">
						<g id="g216">
							<g id="g218">
								
									<linearGradient id="path226_1_" gradientUnits="userSpaceOnUse" x1="-476.6263" y1="-812.9935" x2="-475.3343" y2="-813.1959" gradientTransform="matrix(43.228 0 0 100.4373 20591.2559 81720.0156)">
									<stop  offset="0" style="stop-color:#660B6E"/>
									<stop  offset="1" style="stop-color:#770C78"/>
								</linearGradient>
								<polygon id="path226" class="st10" points="0.5,100.5 27.2,0.1 43.8,95.3 								"/>
							</g>
						</g>
					</g>
				</g>
			</g>
			<g id="Type" transform="translate(463.000000, 6.000000)">
				<polygon id="path252" class="st11" points="84.2,137 64.4,137 51.7,200 38.6,137 18.9,137 0,227.6 17.3,227.6 29.7,158.6 
					43.8,227.6 59.5,227.6 73.9,158.6 86.6,227.6 104.1,227.6 				"/>
				<path id="path284" class="st11" d="M453.3,177.3c-0.3,3.2-2.3,13.5-14.4,13.5c-12.7,0-15.1-10.9-15.7-13.5H453.3z M422.8,166
					c0.3-3.2,3.2-15.9,18.1-15.9c10.9,0,15.5,6.7,16.8,8.9l13.1-7.6c-5.1-6.9-14.5-16.3-31.3-16.3c-19.1,0-33,13.1-33,34.4
					c0,23,15.5,33.6,32.2,33.6c24.5,0,31.6-19.6,31.6-37.1H422.8z"/>
				<path id="path288" class="st11" d="M520.2,169c-2.6-1.3-6.3-2.7-12.2-3.6c-7.1-1-14.1-2.4-14.1-8.9c0-4.2,2.8-7.8,10.5-7.8
					c7.1,0,15.8,3.6,15.8,11.7V169z M520.2,137l-0.4,5c-4.2-3.3-11-6.5-18.9-6.5c-14.6,0-23.3,8.9-23.3,19.6
					c0,14,10.6,19.5,22.8,21.7c9.6,1.8,15.7,3.3,19.8,4.7c0,4.9-1.4,9.6-11,9.6c-11.7,0-13-6.3-13-9.6l-15.7,0.9
					c0.3,4.2,1.2,20.7,28.1,20.7c18.9,0,26.9-6.9,26.9-18.2v-37.5c0-4.9,0.3-6.3,2.8-10.4H520.2z"/>
				<path id="path292" class="st11" d="M566.9,201.2v-9.1c4.9,10.1,16,10.5,19.1,10.5h1.3v-15.8c-3.2,0-15.5,0-19.2-11.8
					c-1.2-3.6-1.2-6.8-1.2-10.5V137H552v64.1H566.9z"/>
				<path id="path272" class="st11" d="M261,177.3c-0.3,3.2-2.3,13.5-14.4,13.5c-12.7,0-15.1-10.9-15.7-13.5H261z M230.5,166
					c0.3-3.2,3.2-15.9,18.1-15.9c10.9,0,15.5,6.7,16.8,8.9l13.1-7.6c-5.1-6.9-14.5-16.3-31.3-16.3c-19.1,0-33,13.1-33,34.4
					c0,23,15.5,33.6,32.2,33.6c24.5,0,31.6-19.6,31.6-37.1H230.5z"/>
				<path id="path280" class="st11" d="M366.4,149.7c8.3,0,15.4,7.2,15.4,20.9c0,8.6-5,18.5-16,18.5c-9.2,0-15-8.1-15-18.5
					C350.7,156.8,357.1,149.7,366.4,149.7z M351,227.6v-31.8c6.5,6.5,15.4,7.3,18.3,7.3c14.9,0,28.2-13.1,28.2-33.6
					c0-22.8-15.5-34.4-29.1-34.4c-3.7,0-10.8,0.8-17.6,8.6V137h-15.3v90.6H351z"/>
				<path id="path268" class="st11" d="M170.2,201.2h9.4V224h15.4v-22.8h13.7v-10.9h-13.7v-31.8c0-2.4,0.1-5.3,1.5-6.8
					c1.8-1.9,5.1-1.9,5.8-1.9c2.2,0,4.5,0.3,6.4,0.8v-13c-2.1-0.3-5.8-1-11-1c-13.7,0-18.1,5-18.1,15.5v38.2h-9.4V201.2z"/>
				<path id="path296" class="st11" d="M84.7,46.6C81.7,38.9,71.6,19,45.6,19C24.1,19,3.2,33.7,3.2,67.5c0,20.1,11.4,46.7,43,46.7
					c23.3,0,33-15,36.8-28l-16.8-4.4c-1,9.9-9.4,16.8-19.4,16.8c-14.8,0-25.3-11.3-25.3-31.4c0-12.3,5-32.2,25.1-32.2
					c11.7,0,19.2,9,21.9,18.2L84.7,46.6z"/>
				<path id="path264" class="st11" d="M146,169c-2.6-1.3-6.3-2.7-12.2-3.6c-7.1-1-14.1-2.4-14.1-8.9c0-4.2,2.8-7.8,10.5-7.8
					c7.1,0,15.8,3.6,15.8,11.7V169z M146,137l-0.4,5c-4.2-3.3-11-6.5-18.9-6.5c-14.6,0-23.3,8.9-23.3,19.6c0,14,10.6,19.5,22.8,21.7
					c9.6,1.8,15.7,3.3,19.8,4.7c0,4.9-1.4,9.6-11,9.6c-11.7,0-13-6.3-13-9.6l-15.7,0.9c0.3,4.2,1.2,20.7,28.1,20.7
					c18.9,0,26.9-6.9,26.9-18.2v-37.5c0-4.9,0.3-6.3,2.8-10.4H146z"/>
				<path id="path276" class="st11" d="M305,201.2v-9.1c4.9,10.1,16,10.5,19.1,10.5h1.3v-15.8c-3.2,0-15.5,0-19.2-11.8
					c-1.2-3.6-1.2-6.8-1.2-10.5V137h-14.9v64.1H305z"/>
				<path id="path300" class="st11" d="M132.7,53.3c-2.6-1.3-6.3-2.7-12.2-3.6c-7.1-1-14.1-2.4-14.1-8.9c0-4.2,2.8-7.8,10.5-7.8
					c7.1,0,15.8,3.6,15.8,11.7V53.3z M132.7,21.3l-0.4,5c-4.2-3.3-11-6.5-18.9-6.5c-14.6,0-23.3,8.9-23.3,19.6
					c0,14,10.6,19.5,22.8,21.7c9.6,1.8,15.7,3.3,19.8,4.7c0,4.9-1.4,9.6-11,9.6c-11.7,0-13-6.3-13-9.6L93,66.8
					c0.3,4.2,1.2,20.7,28.1,20.7c18.9,0,26.9-6.9,26.9-18.2V31.7c0-4.9,0.3-6.3,2.8-10.4H132.7z"/>
				<path id="path306" class="st11" d="M239.5,85.5h15.3V21.3h-15.3V85.5z M239.5,111h15.3V95.5h-15.3V111z"/>
				<path id="path310" class="st11" d="M263.7,85.5h9.4v22.8h15.4V85.5h13.7V74.6h-13.7V42.8c0-2.4,0.1-5.3,1.5-6.8
					c1.8-1.9,5.1-1.9,5.8-1.9c2.2,0,4.5,0.3,6.4,0.8v-13c-2.1-0.3-5.8-1-11-1c-13.7,0-18.1,5-18.1,15.5v38.2h-9.4V85.5z"/>
				<path id="path304" class="st11" d="M195,72.6c-10.9,0-15.4-10-15.4-18.9c0-10.9,5.4-19.8,15.8-19.8c6,0,15.4,3.6,15.4,19.6
					C210.8,67,202.5,72.6,195,72.6z M179.9,85.5v-5.8c2.6,2.7,7.8,7.7,17.6,7.7c4.1,0,13.2-0.8,20.5-9.4c3.3-4,8.6-12.3,8.6-25.1
					c0-3.5-0.3-13.1-6.4-21.7c-7.6-10.6-18-11.8-22.8-11.8c-3.8,0-10.5,0.8-17.4,7.2V0.4h-15.4v85.1H179.9z"/>
				<path id="path314" class="st11" d="M352,53.3c-2.6-1.3-6.3-2.7-12.2-3.6c-7.1-1-14.1-2.4-14.1-8.9c0-4.2,2.8-7.8,10.5-7.8
					c7.1,0,15.8,3.6,15.8,11.7V53.3z M352,21.3l-0.4,5c-4.2-3.3-11-6.5-18.9-6.5c-14.6,0-23.3,8.9-23.3,19.6
					c0,14,10.6,19.5,22.8,21.7c9.6,1.8,15.7,3.3,19.8,4.7c0,4.9-1.4,9.6-11,9.6c-11.7,0-13-6.3-13-9.6l-15.7,0.9
					c0.3,4.2,1.2,20.7,28.1,20.7c18.9,0,26.9-6.9,26.9-18.2V31.7c0-4.9,0.3-6.3,2.8-10.4H352z"/>
				<polygon id="path316" class="st11" points="383.9,111.9 399.6,111.9 399.6,21.3 383.9,21.3 				"/>
			</g>
		</g>
	</g>
</g>
</svg>
