<?xml version="1.0" encoding="UTF-8"?>
<svg width="1050px" height="265px" viewBox="0 0 1050 265" version="1.1" xmlns="http://www.w3.org/2000/svg" xmlns:xlink="http://www.w3.org/1999/xlink">
    <!-- Generator: Sketch 52.6 (67491) - http://www.bohemiancoding.com/sketch -->
    <title>Waterbear Logo RGB</title>
    <desc>Created with Sketch.</desc>
    <defs>
        <linearGradient x1="27.252179%" y1="42.3420656%" x2="255.135951%" y2="117.954185%" id="linearGradient-1">
            <stop stop-color="#7B489E" offset="0%"></stop>
            <stop stop-color="#DA52CF" offset="99.8788%"></stop>
            <stop stop-color="#DA52CF" offset="100%"></stop>
        </linearGradient>
        <linearGradient x1="-214.475934%" y1="107.828982%" x2="78.2437139%" y2="45.2480118%" id="linearGradient-2">
            <stop stop-color="#B436B0" offset="0%"></stop>
            <stop stop-color="#8B0C82" offset="99.8788%"></stop>
            <stop stop-color="#8B0C82" offset="100%"></stop>
        </linearGradient>
        <linearGradient x1="99.99996%" y1="50.0001318%" x2="-0.000719755283%" y2="50.0001318%" id="linearGradient-3">
            <stop stop-color="#7D6FC8" offset="0%"></stop>
            <stop stop-color="#AD7FD8" offset="100%"></stop>
        </linearGradient>
        <linearGradient x1="-140.038793%" y1="-13.9152443%" x2="161.573126%" y2="105.682568%" id="linearGradient-4">
            <stop stop-color="#901181" offset="0%"></stop>
            <stop stop-color="#C111A7" offset="99.8788%"></stop>
            <stop stop-color="#C111A7" offset="100%"></stop>
        </linearGradient>
        <linearGradient x1="-3.94374302%" y1="39.9121265%" x2="94.2930656%" y2="82.3154757%" id="linearGradient-5">
            <stop stop-color="#931183" offset="0%"></stop>
            <stop stop-color="#931183" offset="0.119304%"></stop>
            <stop stop-color="#BC12A3" offset="99.8788%"></stop>
            <stop stop-color="#BC12A3" offset="100%"></stop>
        </linearGradient>
        <linearGradient x1="3.73612782%" y1="43.2551375%" x2="127.788868%" y2="74.0810336%" id="linearGradient-6">
            <stop stop-color="#72489E" offset="0%"></stop>
            <stop stop-color="#D752DA" offset="99.8788%"></stop>
            <stop stop-color="#D752DA" offset="100%"></stop>
        </linearGradient>
        <linearGradient x1="-0.000738120085%" y1="50.123795%" x2="99.8941625%" y2="49.980552%" id="linearGradient-7">
            <stop stop-color="#1B7FB5" offset="0%"></stop>
            <stop stop-color="#1B7FB5" offset="0.119304%"></stop>
            <stop stop-color="#87C2E8" offset="100%"></stop>
        </linearGradient>
        <linearGradient x1="-31.5332754%" y1="59.0604653%" x2="73.8267875%" y2="40.9385897%" id="linearGradient-8">
            <stop stop-color="#680256" offset="0%"></stop>
            <stop stop-color="#640152" offset="99.8788%"></stop>
            <stop stop-color="#640152" offset="100%"></stop>
        </linearGradient>
        <linearGradient x1="99.9983545%" y1="49.9996268%" x2="-0.000524867365%" y2="49.9996268%" id="linearGradient-9">
            <stop stop-color="#5761C6" offset="0%"></stop>
            <stop stop-color="#364694" offset="100%"></stop>
        </linearGradient>
        <linearGradient x1="30.2589041%" y1="39.2237601%" x2="137.45305%" y2="68.8970294%" id="linearGradient-10">
            <stop stop-color="#392185" offset="0%"></stop>
            <stop stop-color="#3C208F" offset="99.8788%"></stop>
            <stop stop-color="#3C208F" offset="100%"></stop>
        </linearGradient>
        <linearGradient x1="-29.8185744%" y1="64.7393665%" x2="99.3909657%" y2="44.4984375%" id="linearGradient-11">
            <stop stop-color="#660B6E" offset="0%"></stop>
            <stop stop-color="#770C78" offset="100%"></stop>
        </linearGradient>
    </defs>
    <g id="Page-1" stroke="none" stroke-width="1" fill="none" fill-rule="evenodd">
        <g id="Waterbear-Logo-RGB" transform="translate(-1.000000, -1.000000)">
            <g id="Container" transform="translate(525.500000, 133.666670) scale(-1, 1) rotate(-180.000000) translate(-525.500000, -133.666670) translate(0.000000, 0.666670)">
                <g id="Shape">
                    <g id="g12" transform="translate(109.666660, 6.333331)" fill="url(#linearGradient-1)">
                        <g id="g14">
                            <g id="g20">
                                <g id="g22">
                                    <polygon id="path32" points="148.958663 258.525327 0.571999986 232.075994 10.8146664 209.154661 50.4706654 120.410664 104.130664 0.325333325 127.239997 133.430663 143.770663 228.641328"></polygon>
                                </g>
                            </g>
                        </g>
                    </g>
                    <g id="g34" transform="translate(209.666658, 6.333331)" fill="url(#linearGradient-2)">
                        <g id="g36">
                            <g id="g42">
                                <g id="g44">
                                    <polygon id="path54" points="43.7706656 228.641328 0.542666653 233.867994 27.2399993 133.430663 62.6213318 0.325333325 105.321331 123.68133 128.327997 190.142662 137.722663 217.281328"></polygon>
                                </g>
                            </g>
                        </g>
                    </g>
                    <g id="g56" transform="translate(37.666662, 0.666664)" fill="url(#linearGradient-3)">
                        <g id="g58">
                            <g id="g64">
                                <g id="g66">
                                    <polygon id="path74" points="133.98933 232.810661 82.8146646 214.821328 0.610666651 185.923995 21.1359995 150.718663 50.3439987 100.621331 108.886664 0.21199997 122.470664 126.07733 122.470664 126.078663"></polygon>
                                </g>
                            </g>
                        </g>
                    </g>
                    <g id="g76" transform="translate(297.666656, 129.999994)" fill="url(#linearGradient-4)">
                        <g id="g78">
                            <g id="g84">
                                <g id="g86">
                                    <polygon id="path96" points="0.458666655 84.3826645 17.3213329 0.01466664 40.327999 66.4759983"></polygon>
                                </g>
                            </g>
                        </g>
                    </g>
                    <g id="g98" transform="translate(297.666656, 0.666664)" fill="url(#linearGradient-5)">
                        <g id="g100">
                            <g id="g106">
                                <g id="g108">
                                    <polygon id="path120" points="40.327999 195.809328 0.458666655 213.715995 17.3213329 129.347997 43.1333323 0.21199997 110.287997 164.390663"></polygon>
                                </g>
                            </g>
                        </g>
                    </g>
                    <g id="g122" transform="translate(209.666658, 139.666661)" fill="url(#linearGradient-6)">
                        <g id="g124">
                            <g id="g130">
                                <g id="g132">
                                    <polygon id="path142" points="0.542666653 100.534664 27.2399993 0.0973333309 43.7706656 95.3079976"></polygon>
                                </g>
                            </g>
                        </g>
                    </g>
                    <g id="g144" transform="translate(0.333330, 51.666663)" fill="url(#linearGradient-7)">
                        <g id="g146">
                            <g id="g152">
                                <g id="g154">
                                    <polygon id="path164" points="58.4693319 99.7186642 0.693333316 64.6799984 76.6066648 0.697333316 87.6773311 49.6213321 105.463997 128.219997"></polygon>
                                </g>
                            </g>
                        </g>
                    </g>
                    <g id="g228" transform="translate(297.666656, 129.999994)"></g>
                    <g id="g230" transform="translate(297.666656, 129.999994)" fill="url(#linearGradient-8)">
                        <g id="g236">
                            <g id="g238">
                                <polygon id="path248" points="0.458666655 84.3826645 17.3213329 0.01466664 40.327999 66.4759983"></polygon>
                            </g>
                        </g>
                    </g>
                    <g id="g166" transform="translate(58.666662, 100.999995)" fill="url(#linearGradient-9)">
                        <g id="g168">
                            <g id="g174">
                                <g id="g176">
                                    <polygon id="path184" points="0.13599997 50.3853321 29.3439992 0.287999993 47.1319988 78.8866647"></polygon>
                                </g>
                            </g>
                        </g>
                    </g>
                    <g id="g186" transform="translate(120.333327, 126.333328)" fill="url(#linearGradient-10)">
                        <g id="g188">
                            <g id="g194">
                                <g id="g196">
                                    <polygon id="path206" points="0.147999996 89.1546644 39.803999 0.410666656 51.3226654 107.143997"></polygon>
                                </g>
                            </g>
                        </g>
                    </g>
                    <g id="g208" transform="translate(209.666658, 139.666661)" fill="url(#linearGradient-11)">
                        <g id="g210">
                            <g id="g216">
                                <g id="g218">
                                    <polygon id="path226" points="0.542666653 100.534664 27.2399993 0.0973333309 43.7706656 95.3079976"></polygon>
                                </g>
                            </g>
                        </g>
                    </g>
                </g>
                <g id="Type" transform="translate(463.000000, 6.000000)" fill="#18293D">
                    <polygon id="path252" points="84.1770492 137.014261 64.4210497 137.014261 51.72105 200.004926 38.6343837 137.014261 18.8783842 137.014261 0.01971797 227.586259 17.3383842 227.586259 29.6543839 158.56626 43.7650502 227.586259 59.5463831 227.586259 73.9143828 158.56626 86.6143825 227.586259 104.062382 227.586259"></polygon>
                    <path d="M453.34504,177.298793 C453.08904,180.504126 451.03704,190.766792 438.978374,190.766792 C426.275707,190.766792 423.838374,179.862793 423.325041,177.298793 L453.34504,177.298793 Z M422.813041,166.00946 C423.069041,162.800126 426.019707,150.100127 440.90104,150.100127 C451.806373,150.100127 456.42504,156.770793 457.706373,158.952126 L470.793039,151.384127 C465.66104,144.45746 456.295706,135.08946 439.490374,135.08946 C420.374374,135.08946 406.521041,148.174793 406.521041,169.470793 C406.521041,192.436126 422.042374,203.084125 438.719707,203.084125 C463.223706,203.084125 470.279706,183.454792 470.279706,166.00946 L422.813041,166.00946 Z" id="path284" fill-rule="nonzero"></path>
                    <path d="M520.199172,168.958926 C517.632505,167.674926 513.912505,166.264259 508.011172,165.366926 C500.955172,164.340259 493.899172,162.929593 493.899172,156.514926 C493.899172,152.281593 496.723172,148.689593 504.419172,148.689593 C511.475172,148.689593 520.199172,152.281593 520.199172,160.362926 L520.199172,168.958926 Z M520.199172,137.014927 L519.813838,142.018926 C515.580505,138.68426 508.781839,135.474927 500.955172,135.474927 C486.331172,135.474927 477.607173,144.326926 477.607173,155.104259 C477.607173,169.088259 488.255172,174.601592 500.443172,176.782926 C510.063172,178.578926 516.093838,180.118925 520.199172,181.532259 C520.199172,186.406925 518.787172,191.153592 509.165839,191.153592 C497.492506,191.153592 496.208506,184.868259 496.208506,181.532259 L480.557839,182.430925 C480.813839,186.662925 481.712506,203.084258 508.653839,203.084258 C527.511171,203.084258 535.593838,196.157592 535.593838,184.868259 L535.593838,147.406926 C535.593838,142.530926 535.849838,141.121593 538.415171,137.014927 L520.199172,137.014927 Z" id="path288" fill-rule="nonzero"></path>
                    <path d="M566.908771,201.158792 L566.908771,192.050792 C571.783437,202.186792 582.94477,202.569458 586.02477,202.569458 L587.307437,202.569458 L587.307437,186.789459 C584.10077,186.789459 571.783437,186.789459 568.063437,174.988126 C566.908771,171.396126 566.908771,168.186792 566.908771,164.469459 L566.908771,137.014793 L552.027438,137.014793 L552.027438,201.158792 L566.908771,201.158792 Z" id="path292"></path>
                    <path d="M261.002645,177.298793 C260.746645,180.504126 258.693312,190.766792 246.634645,190.766792 C233.933312,190.766792 231.495979,179.862792 230.982646,177.298793 L261.002645,177.298793 Z M230.469312,166.009459 C230.726646,162.800126 233.677312,150.100127 248.558645,150.100127 C259.463978,150.100127 264.081311,156.770793 265.363978,158.952126 L278.449311,151.384127 C273.318645,144.45746 263.953311,135.08946 247.146645,135.08946 C228.030646,135.08946 214.177313,148.174793 214.177313,169.470793 C214.177313,192.436126 229.698646,203.084125 246.377312,203.084125 C270.881311,203.084125 277.935978,183.454792 277.935978,166.009459 L230.469312,166.009459 Z" id="path272" fill-rule="nonzero"></path>
                    <path d="M366.350242,149.714126 C374.688909,149.714126 381.744909,156.900793 381.744909,170.624792 C381.744909,179.220792 376.740909,189.100792 365.708909,189.100792 C356.471576,189.100792 350.699576,181.016792 350.699576,170.624792 C350.699576,156.770126 357.112909,149.714126 366.350242,149.714126 Z M350.954243,227.586124 L350.954243,195.771458 C357.496909,202.312792 366.350242,203.084792 369.300909,203.084792 C384.182242,203.084792 397.524908,189.998125 397.524908,169.470126 C397.524908,146.634126 382.000909,135.088793 368.402242,135.088793 C364.682242,135.088793 357.626242,135.860793 350.826243,143.686126 L350.826243,137.014127 L335.56091,137.014127 L335.56091,227.586124 L350.954243,227.586124 Z" id="path280" fill-rule="nonzero"></path>
                    <path d="M170.166647,201.158792 L179.53198,201.158792 L179.53198,223.994791 L194.926646,223.994791 L194.926646,201.158792 L208.653313,201.158792 L208.653313,190.254792 L194.926646,190.254792 L194.926646,158.440126 C194.926646,156.002793 195.05598,153.180126 196.466646,151.640126 C198.262646,149.714793 201.597313,149.714793 202.23998,149.714793 C204.41998,149.714793 206.729313,149.96946 208.653313,150.48546 L208.653313,137.526793 C206.601313,137.270793 202.881313,136.502793 197.621313,136.502793 C183.894647,136.502793 179.53198,141.504127 179.53198,152.02546 L179.53198,190.254792 L170.166647,190.254792 L170.166647,201.158792 Z" id="path268"></path>
                    <path d="M84.6901156,46.6093293 C81.739449,38.9106628 71.6061159,19.0266633 45.5621166,19.0266633 C24.1367838,19.0266633 3.22745097,33.6533296 3.22745097,67.5199954 C3.22745097,87.6613283 14.6434507,114.218661 46.2034499,114.218661 C69.5514493,114.218661 79.1741157,99.2066613 83.0221156,86.2506616 L66.2181161,81.8879951 C65.1901161,91.7639948 56.8514496,98.6946613 46.8447832,98.6946613 C32.0914502,98.6946613 21.5714505,87.4053283 21.5714505,67.2626621 C21.5714505,54.9453291 26.5754504,35.0626629 46.7181165,35.0626629 C58.3914496,35.0626629 65.9594494,44.0413294 68.6554493,53.2799958 L84.6901156,46.6093293 Z" id="path296"></path>
                    <path d="M146.035181,168.958926 C143.468514,167.674926 139.748514,166.264259 133.847181,165.366926 C126.791181,164.340259 119.735181,162.929593 119.735181,156.514926 C119.735181,152.281593 122.559181,148.689593 130.255181,148.689593 C137.311181,148.689593 146.035181,152.281593 146.035181,160.362926 L146.035181,168.958926 Z M146.035181,137.014927 L145.649847,142.018926 C141.416514,138.68426 134.617848,135.474927 126.791181,135.474927 C112.167181,135.474927 103.443182,144.326926 103.443182,155.104259 C103.443182,169.088259 114.091181,174.601592 126.279181,176.782926 C135.899181,178.578926 141.929847,180.118925 146.035181,181.532259 C146.035181,186.406925 144.623181,191.153592 135.001848,191.153592 C123.328515,191.153592 122.044515,184.868259 122.044515,181.532259 L106.393848,182.430925 C106.649848,186.662925 107.548515,203.084258 134.489848,203.084258 C153.34718,203.084258 161.429847,196.157592 161.429847,184.868259 L161.429847,147.406926 C161.429847,142.530926 161.685847,141.121593 164.25118,137.014927 L146.035181,137.014927 Z" id="path264" fill-rule="nonzero"></path>
                    <path d="M305.019444,201.158792 L305.019444,192.050792 C309.895443,202.186792 321.055443,202.569458 324.135443,202.569458 L325.41811,202.569458 L325.41811,186.789459 C322.211443,186.789459 309.895443,186.789459 306.17411,174.988126 C305.019444,171.396126 305.019444,168.186793 305.019444,164.469459 L305.019444,137.014793 L290.139444,137.014793 L290.139444,201.158792 L305.019444,201.158792 Z" id="path276"></path>
                    <path d="M132.687448,53.2799958 C130.122114,51.9959958 126.402114,50.5853292 120.499448,49.6893292 C113.443448,48.6599959 106.387448,47.251996 106.387448,40.8359961 C106.387448,36.6026629 109.211448,33.0119963 116.907448,33.0119963 C123.964781,33.0119963 132.687448,36.6026629 132.687448,44.683996 L132.687448,53.2799958 Z M132.687448,21.3359966 L132.303448,26.3399965 C128.068781,23.0053299 121.270115,19.7959966 113.443448,19.7959966 C98.8194485,19.7959966 90.0954487,28.6479964 90.0954487,39.4253295 C90.0954487,53.4093291 100.743448,58.9226623 112.931448,61.1039956 C122.551448,62.8999956 128.582114,64.4399955 132.687448,65.8533288 C132.687448,70.7279954 131.275448,75.4746619 121.655448,75.4746619 C109.980782,75.4746619 108.696782,69.1893287 108.696782,65.8533288 L93.0461153,66.7519955 C93.3034486,70.9839954 94.2007819,87.4053283 121.142115,87.4053283 C139.999447,87.4053283 148.082114,80.4786618 148.082114,69.1893287 L148.082114,31.7279963 C148.082114,26.8533298 148.338114,25.4386632 150.904781,21.3359966 L132.687448,21.3359966 Z" id="path300" fill-rule="nonzero"></path>
                    <path d="M239.451979,85.4799948 L254.718645,85.4799948 L254.718645,21.3359964 L239.451979,21.3359964 L239.451979,85.4799948 Z M239.451979,111.009328 L254.718645,111.009328 L254.718645,95.4853279 L239.451979,95.4853279 L239.451979,111.009328 Z" id="path306" fill-rule="nonzero"></path>
                    <path d="M263.705711,85.4805277 L273.069711,85.4805277 L273.069711,108.315194 L288.46571,108.315194 L288.46571,85.4805277 L302.192377,85.4805277 L302.192377,74.5751946 L288.46571,74.5751946 L288.46571,42.7618621 C288.46571,40.3245288 288.59371,37.5005289 290.004377,35.9605289 C291.800377,34.0351957 295.136377,34.0351957 295.77771,34.0351957 C297.959044,34.0351957 300.268377,34.2911956 302.192377,34.8071956 L302.192377,21.847196 C300.139043,21.591196 296.419044,20.823196 291.159044,20.823196 C277.432377,20.823196 273.069711,25.8245292 273.069711,36.3458623 L273.069711,74.5751946 L263.705711,74.5751946 L263.705711,85.4805277 Z" id="path310"></path>
                    <path d="M195.049447,72.6497285 C184.144114,72.6497285 179.654781,62.6443954 179.654781,53.7910623 C179.654781,42.8883959 185.04278,34.0350628 195.433447,34.0350628 C201.464113,34.0350628 210.829446,37.6257294 210.829446,53.665729 C210.829446,67.007062 202.489447,72.6497285 195.049447,72.6497285 Z M179.910781,85.4803948 L179.910781,79.7070617 C182.477447,82.4003949 187.737447,87.4043948 197.48678,87.4043948 C201.592113,87.4043948 210.700113,86.6337282 218.013446,78.040395 C221.349446,74.0643951 226.608113,65.7243953 226.608113,52.893729 C226.608113,49.4323957 226.353446,39.808396 220.193446,31.2150629 C212.625446,20.5670631 202.23478,19.4097298 197.357447,19.4097298 C193.51078,19.4097298 186.83878,20.1803965 179.910781,26.5963963 L179.910781,0.42573031 L164.517448,0.42573031 L164.517448,85.4803948 L179.910781,85.4803948 Z" id="path304" fill-rule="nonzero"></path>
                    <path d="M351.975176,53.2799958 C349.409842,51.9959958 345.689842,50.5853292 339.787176,49.6893292 C332.731176,48.6599959 325.675176,47.251996 325.675176,40.8359961 C325.675176,36.6026629 328.499176,33.0119963 336.195176,33.0119963 C343.252509,33.0119963 351.975176,36.6026629 351.975176,44.683996 L351.975176,53.2799958 Z M351.975176,21.3359966 L351.591176,26.3399965 C347.356509,23.0053299 340.557843,19.7959966 332.731176,19.7959966 C318.107176,19.7959966 309.383177,28.6479964 309.383177,39.4253295 C309.383177,53.4093291 320.031176,58.9226623 332.219176,61.1039956 C341.839176,62.8999956 347.869842,64.4399955 351.975176,65.8533288 C351.975176,70.7279954 350.563176,75.4746619 340.943176,75.4746619 C329.26851,75.4746619 327.98451,69.1893287 327.98451,65.8533288 L312.333843,66.7519955 C312.591177,70.9839954 313.48851,87.4053283 340.429843,87.4053283 C359.287175,87.4053283 367.369842,80.4786618 367.369842,69.1893287 L367.369842,31.7279963 C367.369842,26.8533298 367.625842,25.4386632 370.192509,21.3359966 L351.975176,21.3359966 Z" id="path314" fill-rule="nonzero"></path>
                    <polygon id="path316" points="383.933308 111.907994 399.583975 111.907994 399.583975 21.3359964 383.933308 21.3359964"></polygon>
                </g>
            </g>
        </g>
    </g>
</svg>