<svg xmlns="http://www.w3.org/2000/svg" xmlns:xlink="http://www.w3.org/1999/xlink" viewBox="0 0 406.78 57.91"><defs><style>.cls-1{fill:url(#linear-gradient);}.cls-2{fill:#ffc502;}.cls-3{fill:#090966;}</style><linearGradient id="linear-gradient" x1="37.76" y1="43.55" x2="60.75" y2="2.07" gradientUnits="userSpaceOnUse"><stop offset="0" stop-color="#a36c00"/><stop offset="0.01" stop-color="#a97200"/><stop offset="0.04" stop-color="#c48c01"/><stop offset="0.07" stop-color="#daa101"/><stop offset="0.12" stop-color="#ebb102"/><stop offset="0.17" stop-color="#f6bd02"/><stop offset="0.24" stop-color="#fdc302"/><stop offset="0.44" stop-color="#ffc502"/></linearGradient></defs><title>valuebaseoneAsset 1</title><g id="Layer_2" data-name="Layer 2"><g id="Layer_1-2" data-name="Layer 1"><path class="cls-1" d="M71.17,14.53,51.3,45.4a5.34,5.34,0,0,1-1.54,1.49,5.5,5.5,0,0,1-7.59-1.65l-1.91-3L56.48,17.06H35.11l7.07-11H66.54a5.49,5.49,0,0,1,4.63,8.46Z"/><path class="cls-2" d="M51.3,45.4c-7,11-6.7,10.57-7.63,11.33a5.51,5.51,0,0,1-7.83-1v0a2.51,2.51,0,0,1-.2-.29L6.89,10.71,3.82,5.94,0,0H13.06l4.76,7.4L40.25,42.27l1.92,3a5.5,5.5,0,0,0,7.59,1.65A5.34,5.34,0,0,0,51.3,45.4Z"/><path class="cls-3" d="M98.28,42.81H91.91L83.86,18H90l5.17,17.1L100.27,18h6.21Z"/><path class="cls-3" d="M125.14,42.81,125,40.87a12.13,12.13,0,0,1-7.31,2.54c-5.66,0-9-3.44-9-7.61,0-5.42,4.12-7.56,8.85-8.4a56.29,56.29,0,0,0,7.65-1.84c0-1.89-.55-3.73-4.27-3.73-4.53,0-5,2.44-5,3.73l-6.06-.35c.1-1.64.45-8,10.89-8,7.3,0,10.44,2.68,10.44,7.06V38.78a5.81,5.81,0,0,0,1.09,4Zm0-12.38a15.36,15.36,0,0,1-4.72,1.39c-2.74.4-5.47,1-5.47,3.43,0,1.64,1.09,3,4.08,3,2.73,0,6.11-1.4,6.11-4.53Z"/><path class="cls-3" d="M138.32,42.81V7.71h6.07v35.1Z"/><path class="cls-3" d="M168,42.81V40.27A11.32,11.32,0,0,1,160,43.41c-4.12,0-6.16-1.79-7.16-3.29-1.34-2-1.44-4.27-1.44-6.56V18h6V32.27c0,2.39.59,5.52,4.87,5.52A5.33,5.33,0,0,0,167.09,35c.9-1.74.95-4.07.95-6V18h6V42.81Z"/><path class="cls-3" d="M186.23,31.57a6.74,6.74,0,0,0,7,6.17,7.2,7.2,0,0,0,6.51-3.43l5.07,2.93a14.51,14.51,0,0,1-12.13,6.31c-7.41,0-12.78-5.07-12.78-13.32,0-8.9,6-13,12.48-13,9.5,0,12.23,7.6,12.23,14.36Zm11.83-4.37A5.36,5.36,0,0,0,192.49,22a6,6,0,0,0-6.06,5.22Z"/><path class="cls-3" d="M216.32,7.71V20a10.46,10.46,0,0,1,7.11-2.83c5.77,0,10.94,5.07,10.94,13,0,8.85-6,13.32-11.29,13.32a8.66,8.66,0,0,1-6.81-3.33v2.59h-5.91V7.71Zm6,30.18c3.23,0,6-2.79,6-8.11,0-3.33-1.93-7.15-6.21-7.15-3.58,0-5.82,3.13-5.82,7.15C216.22,35.15,218.71,37.89,222.29,37.89Z"/><path class="cls-3" d="M255,42.81l-.15-1.94a12.15,12.15,0,0,1-7.31,2.54c-5.67,0-9-3.44-9-7.61,0-5.42,4.13-7.56,8.85-8.4A56.14,56.14,0,0,0,255,25.56c0-1.89-.55-3.73-4.28-3.73-4.52,0-5,2.44-5,3.73l-6.06-.35c.1-1.64.44-8,10.88-8,7.31,0,10.44,2.68,10.44,7.06V38.78a5.77,5.77,0,0,0,1.1,4Zm0-12.38a15.55,15.55,0,0,1-4.72,1.39c-2.74.4-5.47,1-5.47,3.43,0,1.64,1.09,3,4.07,3,2.74,0,6.12-1.4,6.12-4.53Z"/><path class="cls-3" d="M284.15,25.76A7.12,7.12,0,0,0,277.39,22c-1.15,0-4.13.35-4.13,2.58,0,1.64,1.49,2.14,5.07,2.79l4,.74c3.78.7,6.66,2.94,6.66,7,0,4.58-4.32,8.5-11.19,8.5s-10.53-3-11.93-4.47l4.48-3.63c1.19,1.59,3.43,3.18,7.16,3.18,3.58,0,4.87-1.84,4.87-2.93,0-1.44-1.39-2-3.68-2.39l-3.08-.54c-1.94-.35-8.65-1.59-8.65-7.46,0-4.92,4.72-8.1,10.69-8.1a13.85,13.85,0,0,1,10.68,4.62Z"/><path class="cls-3" d="M299.54,31.57a6.74,6.74,0,0,0,7,6.17,7.2,7.2,0,0,0,6.51-3.43l5.07,2.93A14.51,14.51,0,0,1,306,43.55c-7.41,0-12.78-5.07-12.78-13.32,0-8.9,6-13,12.48-13,9.5,0,12.23,7.6,12.23,14.36Zm11.83-4.37A5.37,5.37,0,0,0,305.8,22a6,6,0,0,0-6.06,5.22Z"/><path class="cls-3" d="M322.83,42.81V37h3.92v5.77Z"/><path class="cls-3" d="M342.79,43.41c-6.11,0-10.64-4.53-10.64-12.18,0-7.36,4-12.73,10.84-12.73,7.41,0,10.59,6.31,10.69,12.33C353.68,39.68,348,43.41,342.79,43.41ZM342.94,21c-4.28,0-7.66,3.14-7.66,10.25,0,7.3,3.83,9.59,7.56,9.59s7.71-2.39,7.71-10S346.67,21,342.94,21Z"/><path class="cls-3" d="M375.75,42.81V30.48c0-3.18,0-5.07-.55-6.46-.89-2.29-3.33-2.79-4.92-2.79-4.92,0-7.11,3.68-7.11,8V42.81h-2.93V19.1h2.93v4.22c.2-.65,1.69-4.72,7.46-4.72,4.42,0,6.46,2.43,7.21,4.07s.84,3.39.84,6.67V42.81Z"/><path class="cls-3" d="M388.39,31.67c0,3.53,1.49,9,7.95,9,2.14,0,5.42-.45,7.71-5l2.73.79c-1.09,2.44-3.58,6.87-10.29,6.87-9.64,0-11.33-8.56-11.33-12.68,0-8.1,5.42-12.23,10.94-12.23,6.71,0,10.68,5.87,10.68,12V31H388.39Zm15-3.13c-.69-6.11-4.77-7.41-7.35-7.41-5,0-7.26,4.08-7.61,7.41Z"/></g></g></svg>