<svg xmlns="http://www.w3.org/2000/svg" xmlns:xlink="http://www.w3.org/1999/xlink" viewBox="0 0 600 600"><defs><style>.cls-1,.cls-11{fill:#efefef;}.cls-1,.cls-15,.cls-16,.cls-17,.cls-18,.cls-2,.cls-3,.cls-5{stroke:#323854;stroke-width:4px;}.cls-1,.cls-15,.cls-16,.cls-17,.cls-18,.cls-2,.cls-20,.cls-3{stroke-linecap:round;stroke-linejoin:round;}.cls-12,.cls-19,.cls-2,.cls-20,.cls-5{fill:none;}.cls-3,.cls-6{fill:#2c90db;}.cls-4{fill:#8df;}.cls-19,.cls-5{stroke-miterlimit:10;}.cls-7{fill:url(#linear-gradient);}.cls-8{fill:#ccc;}.cls-9{fill:#fff;}.cls-10{fill:#e4e9ed;}.cls-13{fill:#3bafea;}.cls-14{fill:#3aa6e8;}.cls-15{fill:#5b728e;}.cls-16{fill:#ff6161;}.cls-17,.cls-21{fill:#36bbf9;}.cls-18{fill:#ffe8d9;}.cls-19,.cls-20{stroke:#fff;}.cls-19{stroke-width:1.52px;}.cls-20{stroke-width:1.59px;}</style><linearGradient id="linear-gradient" x1="79.49" y1="312.9" x2="394.48" y2="329.4" gradientUnits="userSpaceOnUse"><stop offset="0.12" stop-color="#2c90db" stop-opacity="0"/><stop offset="0.94" stop-color="#efefef"/></linearGradient></defs><title>Images</title><g id="Color_Images" data-name="Color Images"><g id="Apple_Watch" data-name="Apple Watch"><path class="cls-1" d="M445.7,295a11.61,11.61,0,0,1-11.58,11.63h0L434,260.94h0a11.61,11.61,0,0,1,11.63,11.58Z"/><path class="cls-2" d="M167.4,299.65l0,14.92,0,14.58.14,75.55c.1,54,40.45,97.69,90.12,97.6l50.51-.1c35.56-.07,67.34-22.56,89.83-55.17,8.93-12.94,27.3-27.48,27.27-42.82l-.14-74,0-17.62-.14-74c0-15.34-18.45-29.82-27.43-42.72-22.62-32.52-54.48-54.89-90-54.83l-50.51.1c-49.67.09-89.85,43.94-89.75,97.93"/><path class="cls-3" d="M258.58,261.27l0-12.59a61.39,61.39,0,0,1,9.56-33c9.87-15.56,9.47-35.67-2.14-50-6.38-7.86-14.89-11.14-26-10.89-17.67.41-35.55,11.73-47.85,31.56-9.82,15.84-16.1,35.71-15.89,50.71l.32,167.61c-.15,15,6.2,34.85,16.08,50.65,12.38,19.79,30.3,31,48,31.38,11.06.21,19.56-3.1,25.91-11,11.56-14.35,11.88-34.46,1.95-50a61.39,61.39,0,0,1-9.68-33l0-12.59Z"/><ellipse class="cls-2" cx="233.8" cy="451.72" rx="6.42" ry="6.64" transform="translate(-114.08 80.65) rotate(-15.79)"/><ellipse class="cls-2" cx="249.84" cy="472" rx="6.42" ry="6.64" transform="translate(-118.99 85.78) rotate(-15.79)"/><path class="cls-4" d="M397.59,195.81c-22.62-32.52-54.48-54.89-90-54.83l-50.51.1c-49.68.15-89.93,44.45-89.75,97.93l0,24.3a12.11,12.11,0,0,1,5-4l1.45-.61,3.68,0,.15-18.28A109.62,109.62,0,0,1,188,194.23a81,81,0,0,1,4.25-7.87c12.3-19.83,30.18-31.16,47.85-31.56,12.79-.29,22.17,4.13,28.79,14.91,8.68,14.13,8.06,32.07-.79,46.1a61.39,61.39,0,0,0-9.47,32.87l0,12.59.22,118.93,0,12.59a61.39,61.39,0,0,0,9.59,32.83c8.9,14,9.6,31.93,1,46.09-6.58,10.8-15.94,15.26-28.73,15-17.67-.34-35.59-11.6-48-31.38-9.88-15.8-16.23-35.65-16.08-50.65l-.07-34.74.7-87.39h-.18c-3.76.37-7.41-1.76-9.71-5.19l0,22.28,0,14.91,0,14.58.14,75.55c.1,54,40.45,97.69,90.12,97.6l50.51-.1c35.56-.07,67.34-22.56,89.83-55.17,8.93-12.94,27.3-27.48,27.27-42.82l-.14-74,0-17.62-.14-74C425,223.19,406.57,208.71,397.59,195.81Z"/><path class="cls-5" d="M397.59,195.81c-22.62-32.52-54.48-54.89-90-54.83l-50.51.1c-49.68.15-89.93,44.45-89.75,97.93l0,24.3a12.11,12.11,0,0,1,5-4l1.45-.61,3.68,0,.15-18.28A109.62,109.62,0,0,1,188,194.23a81,81,0,0,1,4.25-7.87c12.3-19.83,30.18-31.16,47.85-31.56,12.79-.29,22.17,4.13,28.79,14.91,8.68,14.13,8.06,32.07-.79,46.1a61.39,61.39,0,0,0-9.47,32.87l0,12.59.22,118.93,0,12.59a61.39,61.39,0,0,0,9.59,32.83c8.9,14,9.6,31.93,1,46.09-6.58,10.8-15.94,15.26-28.73,15-17.67-.34-35.59-11.6-48-31.38-9.88-15.8-16.23-35.65-16.08-50.65l-.07-34.74.7-87.39h-.18c-3.76.37-7.41-1.76-9.71-5.19l0,22.28,0,14.91,0,14.58.14,75.55c.1,54,40.45,97.69,90.12,97.6l50.51-.1c35.56-.07,67.34-22.56,89.83-55.17,8.93-12.94,27.3-27.48,27.27-42.82l-.14-74,0-17.62-.14-74C425,223.19,406.57,208.71,397.59,195.81Z"/><path class="cls-6" d="M281.07,163.87a43.5,43.5,0,0,0-51.73-17.95c-36.11,12.89-62.19,50-62,93.09l0,24.3a12.11,12.11,0,0,1,5-4l1.45-.61,3.68,0,.15-18.28A109.62,109.62,0,0,1,188,194.23a81,81,0,0,1,4.25-7.87c12.3-19.83,30.18-31.16,47.85-31.56,12.79-.29,22.17,4.13,28.79,14.91,8.69,14.14,8.06,32.07-.79,46.1a61.39,61.39,0,0,0-9.46,32.87l0,12.59.22,118.93,0,12.59a61.39,61.39,0,0,0,9.59,32.83c8.9,14,9.6,31.93,1,46.1-6.58,10.8-15.94,15.26-28.73,15-17.67-.34-35.59-11.6-48-31.38-9.88-15.8-16.23-35.65-16.08-50.65l-.07-34.74.7-87.39h-.18c-3.76.37-7.41-1.76-9.71-5.19l0,22.28,0,14.91,0,14.58.14,75.55c.08,42.47,25.06,78.57,59.89,92A43.72,43.72,0,0,0,280,479.9a83.15,83.15,0,0,0,5.73-10.33c16.36-35.16-13.43-56.59-12.44-82.82,1.56-41.06.62-96.75-1.79-136.13-1.32-21.53,27.11-49.17,14.62-77.2A80.77,80.77,0,0,0,281.07,163.87Z"/><path class="cls-2" d="M281.07,163.87a43.5,43.5,0,0,0-51.73-17.95c-36.11,12.89-62.19,50-62,93.09l0,24.3a12.11,12.11,0,0,1,5-4l1.45-.61,3.68,0,.15-18.28A109.62,109.62,0,0,1,188,194.23a81,81,0,0,1,4.25-7.87c12.3-19.83,30.18-31.16,47.85-31.56,12.79-.29,22.17,4.13,28.79,14.91,8.69,14.14,8.06,32.07-.79,46.1a61.39,61.39,0,0,0-9.46,32.87l0,12.59.22,118.93,0,12.59a61.39,61.39,0,0,0,9.59,32.83c8.9,14,9.6,31.93,1,46.1-6.58,10.8-15.94,15.26-28.73,15-17.67-.34-35.59-11.6-48-31.38-9.88-15.8-16.23-35.65-16.08-50.65l-.07-34.74.7-87.39h-.18c-3.76.37-7.41-1.76-9.71-5.19l0,22.28,0,14.91,0,14.58.14,75.55c.08,42.47,25.06,78.57,59.89,92A43.72,43.72,0,0,0,280,479.9a83.15,83.15,0,0,0,5.73-10.33c16.36-35.16-13.43-56.59-12.44-82.82,1.56-41.06.62-96.75-1.79-136.13-1.32-21.53,27.11-49.17,14.62-77.2A80.77,80.77,0,0,0,281.07,163.87Z"/><path class="cls-7" d="M281.07,163.87a43.5,43.5,0,0,0-51.73-17.95c-36.11,12.89-62.19,50-62,93.09l0,24.3a12.11,12.11,0,0,1,5-4l1.45-.61,3.68,0,.15-18.28A109.62,109.62,0,0,1,188,194.23a81,81,0,0,1,4.25-7.87c12.3-19.83,30.18-31.16,47.85-31.56,12.79-.29,22.17,4.13,28.79,14.91,8.69,14.14,8.06,32.07-.79,46.1a61.39,61.39,0,0,0-9.46,32.87l0,12.59.22,118.93,0,12.59a61.39,61.39,0,0,0,9.59,32.83c8.9,14,9.6,31.93,1,46.1-6.58,10.8-15.94,15.26-28.73,15-17.67-.34-35.59-11.6-48-31.38-9.88-15.8-16.23-35.65-16.08-50.65l-.07-34.74.7-87.39h-.18c-3.76.37-7.41-1.76-9.71-5.19l0,22.28,0,14.91,0,14.58.14,75.55c.08,42.47,25.06,78.57,59.89,92A43.72,43.72,0,0,0,280,479.9a83.15,83.15,0,0,0,5.73-10.33c16.36-35.16-13.43-56.59-12.44-82.82,1.56-41.06.62-96.75-1.79-136.13-1.32-21.53,27.11-49.17,14.62-77.2A80.77,80.77,0,0,0,281.07,163.87Z"/><path class="cls-2" d="M281.07,163.87a43.5,43.5,0,0,0-51.73-17.95c-36.11,12.89-62.19,50-62,93.09l0,24.3a12.11,12.11,0,0,1,5-4l1.45-.61,3.68,0,.15-18.28A109.62,109.62,0,0,1,188,194.23a81,81,0,0,1,4.25-7.87c12.3-19.83,30.18-31.16,47.85-31.56,12.79-.29,22.17,4.13,28.79,14.91,8.69,14.14,8.06,32.07-.79,46.1a61.39,61.39,0,0,0-9.46,32.87l0,12.59.22,118.93,0,12.59a61.39,61.39,0,0,0,9.59,32.83c8.9,14,9.6,31.93,1,46.1-6.58,10.8-15.94,15.26-28.73,15-17.67-.34-35.59-11.6-48-31.38-9.88-15.8-16.23-35.65-16.08-50.65l-.07-34.74.7-87.39h-.18c-3.76.37-7.41-1.76-9.71-5.19l0,22.28,0,14.91,0,14.58.14,75.55c.08,42.47,25.06,78.57,59.89,92A43.72,43.72,0,0,0,280,479.9a83.15,83.15,0,0,0,5.73-10.33c16.36-35.16-13.43-56.59-12.44-82.82,1.56-41.06.62-96.75-1.79-136.13-1.32-21.53,27.11-49.17,14.62-77.2A80.77,80.77,0,0,0,281.07,163.87Z"/><rect class="cls-8" x="258.71" y="213.91" width="175.43" height="213.02" rx="42.17" ry="42.17" transform="translate(-0.6 0.65) rotate(-0.11)"/><path class="cls-9" d="M431.27,241a42.18,42.18,0,0,0-39.5-27.17l-91.09.17q-.84,0-1.67,0c-17.44.71-16.64,27,.81,27Z"/><rect class="cls-2" x="258.71" y="213.91" width="175.43" height="213.02" rx="42.17" ry="42.17" transform="translate(-0.6 0.65) rotate(-0.11)"/><rect class="cls-9" x="282.63" y="224.54" width="151.51" height="191.72" rx="22.36" ry="22.36" transform="translate(-0.6 0.68) rotate(-0.11)"/><path class="cls-10" d="M308.36,400.26a16.94,16.94,0,0,1-17.46-16.88c-.08-20.44-.65-53.56-3.38-69.5-1.85-10.83-3.55-21.8-5-32.82l.21,113a22.36,22.36,0,0,0,22.4,22.32l106.79-.2a22.36,22.36,0,0,0,21.69-17.1C431.27,396.8,346,399.12,308.36,400.26Z"/><path class="cls-11" d="M310.57,408.79a22.36,22.36,0,0,1-22.4-22.32l-.28-147c0-4.55,4.4-8.79,6.73-12.33A22.34,22.34,0,0,0,282.49,247l.28,147a22.36,22.36,0,0,0,22.4,22.32l106.79-.2a22.33,22.33,0,0,0,18.63-10.07,22.24,22.24,0,0,1-10.19,2.49Z"/><rect class="cls-2" x="282.63" y="224.54" width="151.51" height="191.72" rx="22.36" ry="22.36" transform="translate(-0.6 0.68) rotate(-0.11)"/><path class="cls-6" d="M167.82,228.07c0,9.52-13.46,27.21-13.52,38.72-.08,16.2,7.43,20.26,13.1,32.86a56.51,56.51,0,0,1,2.41,6.35l6,79.88a53.19,53.19,0,0,0,.75,5.68A52.64,52.64,0,0,0,232.3,434.4l1.06-.08a52.4,52.4,0,0,0,32.05-14.12,61.33,61.33,0,0,1-6.57-27.43l0-12.59-.18-97.78-81.57.15c-5.89.58-11.52-5-12.11-12.07h0a11.48,11.48,0,0,1,8.61-11.16l4.64-29.87"/><path class="cls-12" d="M167.43,263.34a11.76,11.76,0,0,0-2.47,7.16h0c.59,7.09,6.22,12.65,12.11,12.07h.65c-.57-1.64-1.18-3.14-1.81-4.54C173.16,271.9,170,267.79,167.43,263.34Z"/><path class="cls-13" d="M173.47,248.86a14.61,14.61,0,0,0,1.05,4.33l1.87-12a11.78,11.78,0,0,0-2.92,7.71Z"/><path class="cls-13" d="M167.82,228.07c0,.27,0,.54,0,.82l.36-.77Z"/><path class="cls-14" d="M260.74,415.63a52.41,52.41,0,0,1-18.86,5.06l-1.06.08a52.64,52.64,0,0,1-55.71-42.84c-.16-.86-.29-1.73-.41-2.6a69.91,69.91,0,0,1-2.3-7.53,161.34,161.34,0,0,1-4.16-26.23c0-.27,0-.54-.07-.81a119.76,119.76,0,0,0-4.08-14.3,73.22,73.22,0,0,0-3.29-7.48l5.06,66.9a53.19,53.19,0,0,0,.75,5.68A52.64,52.64,0,0,0,232.3,434.4l1.06-.08a52.4,52.4,0,0,0,32.05-14.12C263.41,416.21,261.84,420,260.74,415.63Z"/><path class="cls-13" d="M163,242.65c2.44-5.18,4.5-10,4.77-13.76C165.57,233.7,163.63,238.47,163,242.65Z"/><path class="cls-2" d="M167.82,228.07c0,9.52-13.46,27.21-13.52,38.72-.08,16.2,7.43,20.26,13.1,32.86a56.51,56.51,0,0,1,2.41,6.35l6,79.88a53.19,53.19,0,0,0,.75,5.68A52.64,52.64,0,0,0,232.3,434.4l1.06-.08a52.4,52.4,0,0,0,32.05-14.12,61.33,61.33,0,0,1-6.57-27.43l0-12.59-.18-97.78-81.57.15c-5.89.58-11.52-5-12.11-12.07h0a11.48,11.48,0,0,1,8.61-11.16l4.64-29.87"/><ellipse class="cls-15" cx="226.03" cy="386.84" rx="22.06" ry="22.82" transform="matrix(0.96, -0.27, 0.27, 0.96, -96.72, 76.09)"/><path class="cls-2" d="M257.15,282.41l-80.08.15c-5.89.58-11.52-5-12.11-12.07h0a12.09,12.09,0,0,1,7.36-11.16"/><path class="cls-2" d="M257.15,282.41l-80.08.15c-5.89.58-11.52-5-12.11-12.07h0a12.09,12.09,0,0,1,7.36-11.16"/><path class="cls-2" d="M173.09,257.88s3.14-48.18,19.1-71.51"/><path class="cls-6" d="M177.07,282.56l81.55-.15,0-21.14,0-12.59A61.39,61.39,0,0,1,268,215.81c8.85-14,8.68-25.11,2.33-35.45-3.88-6.33-17.52-13.68-30.31-13.39-17.67.41-38.13,4.64-51.89,29.82-8.72,15.95-13.81,49.15-16.76,84.43A9.39,9.39,0,0,0,177.07,282.56Z"/><path class="cls-2" d="M177.07,282.56l81.55-.15,0-21.14,0-12.59A61.39,61.39,0,0,1,268,215.81c8.85-14,8.68-25.11,2.33-35.45-3.88-6.33-17.52-13.68-30.31-13.39-17.67.41-38.13,4.64-51.89,29.82-8.72,15.95-13.81,49.15-16.76,84.43A9.39,9.39,0,0,0,177.07,282.56Z"/><path class="cls-6" d="M258.58,261.27l0-12.59A61.39,61.39,0,0,1,268,215.81c8.62-13.67,8.66-24.54,2.79-34.65a43.24,43.24,0,0,0-22-6.08c-17.67.41-38.13,4.64-51.89,29.82-8.16,14.93-13.14,45-16.17,77.66l77.89-.15Z"/><path class="cls-2" d="M258.58,261.27l0-12.59A61.39,61.39,0,0,1,268,215.81c8.62-13.67,8.66-24.54,2.79-34.65a43.24,43.24,0,0,0-22-6.08c-17.67.41-38.13,4.64-51.89,29.82-8.16,14.93-13.14,45-16.17,77.66l77.89-.15Z"/><ellipse class="cls-16" cx="405.08" cy="319.99" rx="17.66" ry="16.68" transform="translate(-52.5 558.95) rotate(-65.88)"/><ellipse class="cls-16" cx="336.67" cy="280.87" rx="17.66" ry="16.68" transform="translate(-57.26 473.37) rotate(-65.88)"/><ellipse class="cls-17" cx="384.64" cy="280.13" rx="17.66" ry="16.68" transform="translate(-28.21 516.72) rotate(-65.88)"/><ellipse class="cls-18" cx="308.27" cy="351.6" rx="9.18" ry="8.67" transform="translate(-138.61 489.29) rotate(-65.88)"/><ellipse class="cls-18" cx="413.9" cy="351.4" rx="9.18" ry="8.67" transform="translate(-75.96 585.57) rotate(-65.88)"/><ellipse class="cls-18" cx="360.91" cy="258.86" rx="9.18" ry="8.67" transform="translate(-22.84 482.48) rotate(-65.88)"/><ellipse class="cls-17" cx="361.14" cy="383.71" rx="9.18" ry="8.67" transform="translate(-136.65 556.53) rotate(-65.88)"/><ellipse class="cls-17" cx="306.61" cy="289.11" rx="9.18" ry="8.67" transform="translate(-82.55 450.81) rotate(-65.88)"/><ellipse class="cls-17" cx="413.78" cy="288.91" rx="9.18" ry="8.67" transform="translate(-18.99 548.51) rotate(-65.88)"/><ellipse class="cls-16" cx="337.38" cy="360.95" rx="17.66" ry="16.68" transform="translate(-129.92 521.38) rotate(-65.88)"/><ellipse class="cls-17" cx="316.7" cy="320.16" rx="17.66" ry="16.68" transform="translate(-104.92 478.38) rotate(-65.88)"/><ellipse class="cls-17" cx="383.78" cy="359.5" rx="17.66" ry="16.68" transform="translate(-101.16 562.87) rotate(-65.88)"/><ellipse class="cls-19" cx="383.78" cy="359.5" rx="10.34" ry="9.76" transform="translate(-101.16 562.87) rotate(-65.88)"/><ellipse class="cls-2" cx="361.02" cy="320.08" rx="21.12" ry="22.36" transform="translate(-0.6 0.68) rotate(-0.11)"/><line class="cls-2" x1="361" y1="305.28" x2="360.98" y2="298.23"/><line class="cls-2" x1="361.06" y1="341.92" x2="361.05" y2="334.87"/><line class="cls-2" x1="374.99" y1="320.05" x2="381.64" y2="320.04"/><line class="cls-2" x1="340.4" y1="320.11" x2="347.06" y2="320.1"/><line class="cls-2" x1="368.21" y1="307.4" x2="371.66" y2="301.31"/><line class="cls-2" x1="350.15" y1="339.24" x2="353.83" y2="332.75"/><line class="cls-2" x1="348.71" y1="313.09" x2="342.7" y2="309.68"/><line class="cls-2" x1="379.36" y1="330.48" x2="373.34" y2="327.06"/><line class="cls-2" x1="373.32" y1="313.06" x2="379" y2="309.82"/><line class="cls-2" x1="343.24" y1="330.22" x2="348.73" y2="327.09"/><line class="cls-2" x1="353.8" y1="307.41" x2="350.34" y2="301.35"/><line class="cls-2" x1="371.94" y1="339.2" x2="368.25" y2="332.74"/><polyline class="cls-2" points="354.87 317.16 361.02 320.91 370.05 315.62"/><path class="cls-9" d="M394.64,279.24c0,5-4.46,9.08-10,9.1a10.92,10.92,0,0,1-3.08-.43c-.45-.13-2.88.75-4.27,1.29a.53.53,0,0,1-.7-.63c.31-1.2.68-3.1.14-3.74a8.52,8.52,0,0,1-2.1-5.55c0-5,4.46-9.08,10-9.1S394.63,274.22,394.64,279.24Z"/><path class="cls-9" d="M413,320.81l-11,6.38a1,1,0,0,1-1.44-.83l0-12.71a1,1,0,0,1,1.44-.83l11,6.33A1,1,0,0,1,413,320.81Z"/><path class="cls-9" d="M333.47,287.84c0,1.13-1.22,2.05-2.76,2.05s-2.79-.91-2.8-2,1.25-2.05,2.79-2.05S333.47,286.71,333.47,287.84Z"/><path class="cls-9" d="M343.75,286c0,1.13-1.19,2.05-2.73,2.05s-2.79-.91-2.8-2,1.25-2.05,2.79-2.05S343.75,284.86,343.75,286Z"/><polyline class="cls-20" points="332.69 287.84 332.67 274.89 342.97 271.43 343 285.86"/><polygon class="cls-9" points="332.67 278 342.98 274.54 342.97 271.43 332.67 274.89 332.67 278"/><rect class="cls-9" x="308.17" y="314.11" width="17.6" height="12.1" rx="2.58" ry="2.58" transform="translate(-0.6 0.6) rotate(-0.11)"/><path class="cls-21" d="M317,323.27a3.65,3.65,0,0,1-2.26-.79l-7.74-6.1a2,2,0,0,1,2.48-3.14l7.53,5.94,7.55-6a2,2,0,0,1,2.48,3.14l-7.76,6.13A3.65,3.65,0,0,1,317,323.27Z"/><path class="cls-21" d="M308.9,327.42a2,2,0,0,1-1.31-3.52l6.1-5.26a2,2,0,1,1,2.61,3l-6.1,5.26A2,2,0,0,1,308.9,327.42Z"/><path class="cls-21" d="M325.18,327.39a2,2,0,0,1-1.3-.48l-6.12-5.23a2,2,0,0,1,2.6-3l6.12,5.23a2,2,0,0,1-1.3,3.52Z"/><line class="cls-19" x1="383.8" y1="369.73" x2="383.76" y2="349.27"/><line class="cls-19" x1="373.55" y1="359.52" x2="394" y2="359.48"/><path class="cls-19" d="M375.92,353.66c2.8,2.18,12.38,1.89,16.06,0"/><path class="cls-19" d="M375.94,365.62c2.79-2.19,12.37-1.93,16.06,0"/><ellipse class="cls-19" cx="383.78" cy="359.5" rx="5.31" ry="10.23" transform="translate(-0.68 0.72) rotate(-0.11)"/><path class="cls-9" d="M328.86,356.91a6.13,6.13,0,0,1,.62-3,5.5,5.5,0,0,1,.94-1.36,12.86,12.86,0,0,1,1.66-1.45,1.28,1.28,0,0,1,1.77.15,8.76,8.76,0,0,1,1.45,1.95,5.52,5.52,0,0,1,.7,1.4,2.07,2.07,0,0,1-.08,1.66,3.78,3.78,0,0,1-.85.91c-.3.28-.67.48-1,.76a1.41,1.41,0,0,0-.44,1.33,5.49,5.49,0,0,0,1.11,2.28,19.51,19.51,0,0,0,1.37,1.65,10.4,10.4,0,0,0,1.77,1.59,2.81,2.81,0,0,0,1.13.51,1.37,1.37,0,0,0,1.26-.36,11.29,11.29,0,0,1,1.47-1.31,1.84,1.84,0,0,1,1.89-.13,6.54,6.54,0,0,1,1.67,1.15,13,13,0,0,1,1,.88,2.67,2.67,0,0,1,.79,1.24,1.14,1.14,0,0,1-.3,1.09A11.61,11.61,0,0,1,345,369.4a5.7,5.7,0,0,1-2.28.93,6.43,6.43,0,0,1-1.4.11,8.3,8.3,0,0,1-2.6-.59,12.09,12.09,0,0,1-2.83-1.67c-.41-.32-.81-.66-1.19-1s-.61-.57-.9-.87c-.48-.51-.95-1-1.39-1.57a24.37,24.37,0,0,1-1.59-2.13,13.35,13.35,0,0,1-1.67-3.49,8.08,8.08,0,0,1-.3-1.57C328.86,357.29,328.87,357,328.86,356.91Z"/><line class="cls-2" x1="172.01" y1="502.45" x2="413.5" y2="501.99"/></g></g></svg>