<svg xmlns="http://www.w3.org/2000/svg" viewBox="0 0 600 600"><defs><style>.cls-1{fill:#f29c4e;}.cls-2{fill:#fff8dc;}.cls-3{fill:#167563;}.cls-12,.cls-13,.cls-14,.cls-15,.cls-17,.cls-18,.cls-21,.cls-22,.cls-23,.cls-24,.cls-3,.cls-4,.cls-6,.cls-7{stroke:#323854;}.cls-11,.cls-12,.cls-13,.cls-15,.cls-17,.cls-18,.cls-21,.cls-22,.cls-23,.cls-24,.cls-3,.cls-4,.cls-6,.cls-7{stroke-linecap:round;stroke-linejoin:round;}.cls-11,.cls-12,.cls-14,.cls-15,.cls-17,.cls-21,.cls-22,.cls-23,.cls-24,.cls-3,.cls-4,.cls-6,.cls-7{stroke-width:4px;}.cls-13,.cls-4{fill:none;}.cls-5,.cls-7{fill:#1dd8ab;}.cls-18,.cls-6,.cls-8{fill:#fff;}.cls-9{fill:#efefef;}.cls-10{fill:#64c4f6;}.cls-11,.cls-20{fill:#fd9;}.cls-11{stroke:#47525d;}.cls-12{fill:#b2c0ce;}.cls-13,.cls-18{stroke-width:2.4px;}.cls-14{fill:#36bbf9;stroke-miterlimit:10;}.cls-15{fill:#d34242;}.cls-16,.cls-17{fill:#ff8c80;}.cls-19{fill:#e5893c;}.cls-21{fill:#ff6161;}.cls-22{fill:#21aa8f;}.cls-23{fill:#2c90db;}.cls-24{fill:#8eccef;}</style></defs><title>Images</title><g id="Color_Images" data-name="Color Images"><g id="Books-2" data-name="Books"><path class="cls-1" d="M309.72,249.73H209.57a9.81,9.81,0,0,1-9.81-9.81V222.59a9.81,9.81,0,0,1,9.81-9.81H309.72Z"/><path class="cls-2" d="M303.09,221.45v-8.67H209a9.21,9.21,0,0,0-9.19,8.67Z"/><path class="cls-3" d="M187.11,300.79h44.74V249.57H187.11a25.35,25.35,0,0,0-25.35,25.35v.51A25.35,25.35,0,0,0,187.11,300.79Z"/><path class="cls-4" d="M309.72,249.73H209.57a9.81,9.81,0,0,1-9.81-9.81V222.59a9.81,9.81,0,0,1,9.81-9.81H309.72Z"/><path class="cls-5" d="M231.84,260.15V249.57H187.11a25.3,25.3,0,0,0-20.57,10.57Z"/><rect class="cls-6" x="246.27" y="218.5" width="141.31" height="24.05"/><path class="cls-4" d="M187.11,300.79h44.74V249.57H187.11a25.35,25.35,0,0,0-25.35,25.35v.51A25.35,25.35,0,0,0,187.11,300.79Z"/><path class="cls-7" d="M412.24,254.44a4.71,4.71,0,0,0-4.71-4.71H228.39C218,249.73,205.76,261,205.76,275v.51c0,14,12.21,25.28,22.63,25.28H407.53a4.71,4.71,0,0,0,4.71-4.71V296a4.71,4.71,0,0,0-4.71-4.71H232.21v-32H407.53a4.71,4.71,0,0,0,4.71-4.71Z"/><path class="cls-8" d="M406.45,291.28H232.21a15.86,15.86,0,0,1-15.86-15.86v-.32a15.86,15.86,0,0,1,15.86-15.86H406.45l0,.16c-9.51,10.43-9.51,21.74,0,31.72Z"/><path class="cls-9" d="M401.19,267.08a30.1,30.1,0,0,1,5.21-7.68l0-.16H232.21a15.84,15.84,0,0,0-13.66,7.84"/><path class="cls-10" d="M393.46,217.27a4.71,4.71,0,0,0-4.71-4.71H250a9.3,9.3,0,0,0-9.3,9.3v18.56a9.3,9.3,0,0,0,9.3,9.3h138.7a4.71,4.71,0,0,0,4.71-4.71v-.1a4.71,4.71,0,0,0-4.71-4.71H253.89a3.15,3.15,0,0,1-3.15-3.15V225.22a3.15,3.15,0,0,1,3.15-3.15H388.75a4.71,4.71,0,0,0,4.71-4.71Z"/><path class="cls-11" d="M393.46,217.27a4.71,4.71,0,0,0-4.71-4.71H250a9.3,9.3,0,0,0-9.3,9.3v18.56a9.3,9.3,0,0,0,9.3,9.3h138.7a4.71,4.71,0,0,0,4.71-4.71v-.1a4.71,4.71,0,0,0-4.71-4.71H253.89a3.15,3.15,0,0,1-3.15-3.15V225.22a3.15,3.15,0,0,1,3.15-3.15H388.75a4.71,4.71,0,0,0,4.71-4.71Z"/><line class="cls-4" x1="258.72" y1="231.14" x2="385.34" y2="231.14"/><path class="cls-4" d="M406.45,291.28H232.21a15.86,15.86,0,0,1-15.86-15.86v-.32a15.86,15.86,0,0,1,15.86-15.86H406.45l0,.16c-9.51,10.43-9.51,21.74,0,31.72Z"/><path class="cls-12" d="M231.15,259.29a15.85,15.85,0,0,0-14.8,15.81v.32a15.85,15.85,0,0,0,14.8,15.81C218,291.22,218,259.29,231.15,259.29Z"/><line class="cls-13" x1="397.39" y1="275.9" x2="381.31" y2="275.9"/><polygon class="cls-14" points="354.32 231.14 354.32 264.14 359.47 259.33 364.62 264.14 364.62 231.14 354.32 231.14"/><path class="cls-15" d="M149,509H210.4V438.74H149a34.77,34.77,0,0,0-34.77,34.77v.7A34.77,34.77,0,0,0,149,509Z"/><path class="cls-16" d="M210.4,453.2V438.74H149a34.67,34.67,0,0,0-28.18,14.45Z"/><path class="cls-4" d="M149,509H210.4V438.74H149a34.77,34.77,0,0,0-34.77,34.77v.7A34.77,34.77,0,0,0,149,509Z"/><path class="cls-17" d="M457.77,445.41a6.46,6.46,0,0,0-6.46-6.46H205.66c-14.28,0-31,15.52-31,34.66v.7c0,19.14,16.75,34.66,31,34.66H451.31a6.46,6.46,0,0,0,6.46-6.46v-.13a6.46,6.46,0,0,0-6.46-6.46H210.9V452H451.31a6.46,6.46,0,0,0,6.46-6.46Z"/><path class="cls-8" d="M449.83,495.93H210.9a21.75,21.75,0,0,1-21.75-21.75v-.44A21.75,21.75,0,0,1,210.9,452H449.83l-.07.22v43.49Z"/><path class="cls-9" d="M450.54,462.75s-3.92-7.07-.77-10.53l.07-.22H210.9a21.72,21.72,0,0,0-18.74,10.75"/><line class="cls-4" x1="77.85" y1="508.98" x2="522.15" y2="508.98"/><path class="cls-4" d="M449.83,495.93H210.9a21.75,21.75,0,0,1-21.75-21.75v-.44A21.75,21.75,0,0,1,210.9,452H449.83l-.07.22v43.49Z"/><path class="cls-12" d="M210,452a21.73,21.73,0,0,0-20.9,21.7v.44a21.73,21.73,0,0,0,20.9,21.7C192.36,495.89,192.36,452,210,452Z"/><line class="cls-18" x1="442.66" y1="484.05" x2="247.26" y2="484.05"/><line class="cls-13" x1="440" y1="473.97" x2="348.15" y2="473.97"/><path class="cls-19" d="M314.51,438H158.8a15.25,15.25,0,0,1-15.25-15.25V395.82a15.25,15.25,0,0,1,15.25-15.25H314.51Z"/><path class="cls-20" d="M314.51,395.69V380.57H158.8a15.25,15.25,0,0,0-15.25,15.12Z"/><path class="cls-4" d="M314.51,438H158.8a15.25,15.25,0,0,1-15.25-15.25V395.82a15.25,15.25,0,0,1,15.25-15.25H314.51Z"/><rect class="cls-8" x="215.52" y="389.43" width="218.64" height="37.2"/><path class="cls-9" d="M433,406.19c.35-5.49-1.21-11.08,1.16-16.75H215.52v16.75Z"/><rect class="cls-4" x="215.52" y="389.43" width="218.64" height="37.2"/><path class="cls-10" d="M443.25,387.52a7.29,7.29,0,0,0-7.29-7.29H221.36A14.39,14.39,0,0,0,207,394.62v28.72a14.39,14.39,0,0,0,14.39,14.39H436a7.29,7.29,0,0,0,7.29-7.29v-.15A7.29,7.29,0,0,0,436,423H227.3a4.88,4.88,0,0,1-4.88-4.88V399.83A4.88,4.88,0,0,1,227.3,395H436a7.29,7.29,0,0,0,7.29-7.29Z"/><path class="cls-11" d="M443.25,387.52a7.29,7.29,0,0,0-7.29-7.29H221.36A14.39,14.39,0,0,0,207,394.62v28.72a14.39,14.39,0,0,0,14.39,14.39H436a7.29,7.29,0,0,0,7.29-7.29v-.15A7.29,7.29,0,0,0,436,423H227.3a4.88,4.88,0,0,1-4.88-4.88V399.83A4.88,4.88,0,0,1,227.3,395H436a7.29,7.29,0,0,0,7.29-7.29Z"/><rect class="cls-21" x="246.73" y="407.67" width="15.93" height="21.24"/><line class="cls-22" x1="246.73" y1="406.94" x2="312.57" y2="406.94"/><path class="cls-14" d="M419.06,314.94c-5-8.6-12.83-15.15-22.78-15.15H159.5v10.36H376.78a18.22,18.22,0,0,1,16.93,11.26c4.81,11.88,4,25.77-.24,36.8A18.36,18.36,0,0,1,376.32,370H159.5v10.36H395.64c10.25,0,20-6.14,23.09-15.92C424.75,345.52,425.33,325.71,419.06,314.94Z"/><rect class="cls-23" x="159.5" y="370.03" width="77.51" height="10.36"/><rect class="cls-23" x="159.5" y="299.79" width="77.51" height="10.36"/><path class="cls-8" d="M172.38,310.14H393.75a18.22,18.22,0,0,1,16.93,11.26c4.81,11.88,4,25.77-.24,36.8A18.36,18.36,0,0,1,393.28,370H172.38Z"/><path class="cls-9" d="M409.28,318.68a18.31,18.31,0,0,0-15.53-8.54H250.88v8.54Z"/><rect class="cls-24" x="172.38" y="310.14" width="74.23" height="59.88"/><path class="cls-12" d="M410.68,321.4a18.15,18.15,0,0,0-14.61-11.1c13.19,0,13.19,59.52,0,59.52a18.37,18.37,0,0,0,14.37-11.61C414.64,347.18,415.49,333.28,410.68,321.4Z"/><line class="cls-18" x1="247.57" y1="329.82" x2="339.12" y2="329.82"/><line class="cls-18" x1="247.57" y1="339.15" x2="293.34" y2="339.15"/><line class="cls-18" x1="246.27" y1="352.87" x2="316.03" y2="352.87"/><line class="cls-13" x1="172.38" y1="330.84" x2="196.8" y2="330.84"/><line class="cls-13" x1="172.38" y1="340.09" x2="187.56" y2="340.09"/><path class="cls-4" d="M172.38,310.14H393.75a18.22,18.22,0,0,1,16.93,11.26c4.81,11.88,4,25.77-.24,36.8A18.36,18.36,0,0,1,393.28,370H172.38Z"/></g></g></svg>