<svg xmlns="http://www.w3.org/2000/svg" xmlns:xlink="http://www.w3.org/1999/xlink" viewBox="0 0 600 600"><defs><style>.cls-1{isolation:isolate;}.cls-12,.cls-2{fill:#ffd371;}.cls-14,.cls-16,.cls-19,.cls-2,.cls-20,.cls-21,.cls-22,.cls-23,.cls-25,.cls-28,.cls-3,.cls-30,.cls-7{stroke:#323854;stroke-linecap:round;stroke-linejoin:round;}.cls-14,.cls-16,.cls-19,.cls-2,.cls-20,.cls-23,.cls-25,.cls-28,.cls-3,.cls-30,.cls-7{stroke-width:4px;}.cls-22,.cls-3{fill:none;}.cls-4{fill:#b0dda6;}.cls-10,.cls-5,.cls-9{mix-blend-mode:darken;}.cls-5{fill:url(#linear-gradient);}.cls-6,.cls-7{fill:#23a58c;}.cls-8{fill:#c0f2af;}.cls-9{fill:url(#linear-gradient-2);}.cls-10{fill:url(#linear-gradient-3);}.cls-11,.cls-25{fill:#ff6161;}.cls-13{fill:url(#linear-gradient-4);}.cls-14,.cls-17,.cls-21{fill:#fff;}.cls-15{fill:#efefef;}.cls-16{fill:#36bbf9;}.cls-18,.cls-19{fill:#d6ecf3;}.cls-20{fill:#b2c0ce;}.cls-21,.cls-22{stroke-width:2.4px;}.cls-23{fill:#d34242;}.cls-24{fill:url(#linear-gradient-5);}.cls-26{fill:#e2c8b7;}.cls-27{fill:#f2e0d6;}.cls-28{fill:#c9af9d;}.cls-29{fill:#c4ad9d;}.cls-30{fill:#9b7053;}.cls-31{fill:#e0c7b6;}.cls-32{fill:#ffe8d9;}.cls-33{fill:#fff4ee;}</style><linearGradient id="linear-gradient" x1="182.33" y1="155.75" x2="175" y2="248.41" gradientUnits="userSpaceOnUse"><stop offset="0" stop-color="#fff" stop-opacity="0"/><stop offset="0.97" stop-color="#23a58c"/></linearGradient><linearGradient id="linear-gradient-2" x1="118.06" y1="240.87" x2="211.39" y2="332.87" xlink:href="#linear-gradient"/><linearGradient id="linear-gradient-3" x1="227.75" y1="208.76" x2="222.41" y2="274.76" xlink:href="#linear-gradient"/><linearGradient id="linear-gradient-4" x1="216.2" y1="405.57" x2="209.2" y2="303.57" gradientTransform="translate(81.94 -41.67) rotate(14.08)" gradientUnits="userSpaceOnUse"><stop offset="0" stop-color="#fff" stop-opacity="0"/><stop offset="1" stop-color="#ff9583"/></linearGradient><linearGradient id="linear-gradient-5" x1="384.51" y1="319.84" x2="499.51" y2="332.84" gradientTransform="translate(563.49 -175.43) rotate(68.94)" xlink:href="#linear-gradient-4"/></defs><title>Images</title><g class="cls-1"><g id="Color_Images" data-name="Color Images"><g id="Box-2" data-name="Box"><rect class="cls-2" x="269.24" y="300.85" width="43.04" height="93.13" transform="translate(69.41 -47.86) rotate(10.68)"/><path class="cls-3" d="M216.58,312.49s-7.87-38.9,45.95-62.63"/><path class="cls-4" d="M167.16,265.88a57.22,57.22,0,0,1-10.72-10.57c3.08-3.59,8.51-9.48,8.51-9.48s-8.15,2.17-12.49,3.86a78.44,78.44,0,0,1-7-13.76,38.26,38.26,0,0,1-1.68-5.6c6.62-2.15,18.55-6.64,18.55-6.64s-12.71-.89-19.58-2.62a64.84,64.84,0,0,1,2.41-17.43c4.84-.08,13.19-.53,13.19-.53s-7.51-2.27-11.92-3.7a103.19,103.19,0,0,1,10.37-22.25,102.58,102.58,0,0,1,19.47,7.65c-2.72,4.25-5.15,12.32-5.15,12.32a134.41,134.41,0,0,0,10.6-9.29,65.68,65.68,0,0,1,15.65,12.78c-3,5-9.35,14.08-9.35,14.08s10.33-3.36,14.78-6.35a37.94,37.94,0,0,1,2.08,4.44,78.36,78.36,0,0,1,4.2,15c-4.51,2.08-13.24,7-13.24,7l14.22,2a52.3,52.3,0,0,1-2,17.22,105.88,105.88,0,0,0-12.76.08,115.44,115.44,0,0,0,10,6.64,23,23,0,0,1-11.72,10.8c-6.94,2.7-14.81,1.4-22.34-3,.72-3.63,2.1-8.93,2.1-8.93A55.31,55.31,0,0,0,167.16,265.88Z"/><path class="cls-5" d="M167.16,265.88a57.22,57.22,0,0,1-10.72-10.57c3.08-3.59,8.51-9.48,8.51-9.48s-8.15,2.17-12.49,3.86a78.44,78.44,0,0,1-7-13.76,38.26,38.26,0,0,1-1.68-5.6c6.62-2.15,18.55-6.64,18.55-6.64s-12.71-.89-19.58-2.62a64.84,64.84,0,0,1,2.41-17.43c4.84-.08,13.19-.53,13.19-.53s-7.51-2.27-11.92-3.7a103.19,103.19,0,0,1,10.37-22.25,102.58,102.58,0,0,1,19.47,7.65c-2.72,4.25-5.15,12.32-5.15,12.32a134.41,134.41,0,0,0,10.6-9.29,65.68,65.68,0,0,1,15.65,12.78c-3,5-9.35,14.08-9.35,14.08s10.33-3.36,14.78-6.35a37.94,37.94,0,0,1,2.08,4.44,78.36,78.36,0,0,1,4.2,15c-4.51,2.08-13.24,7-13.24,7l14.22,2a52.3,52.3,0,0,1-2,17.22,105.88,105.88,0,0,0-12.76.08,115.44,115.44,0,0,0,10,6.64,23,23,0,0,1-11.72,10.8c-6.94,2.7-14.81,1.4-22.34-3,.72-3.63,2.1-8.93,2.1-8.93A55.31,55.31,0,0,0,167.16,265.88Z"/><path class="cls-6" d="M195.87,234.79s8.73-4.92,13.24-7c-.2-1.17-.44-2.35-.7-3.53a39.09,39.09,0,0,1-6.22,5.42c-15.87,9.76-37.83,0-40.27-17.09-2.34-11.7-2.42-22.28,3-32.82-4.82-1.8-8.05-2.62-8.05-2.62a103.19,103.19,0,0,0-10.37,22.25c4.41,1.43,11.92,3.7,11.92,3.7s-8.35.45-13.19.53a64.84,64.84,0,0,0-2.41,17.43c6.88,1.73,19.58,2.62,19.58,2.62s-11.93,4.49-18.55,6.64a38.26,38.26,0,0,0,1.68,5.6,78.45,78.45,0,0,0,7,13.76c4.34-1.69,12.49-3.86,12.49-3.86s-5.43,5.89-8.51,9.48a57.22,57.22,0,0,0,10.72,10.57,55.31,55.31,0,0,1,6.19-6.22s-1.39,5.29-2.1,8.93c7.53,4.37,15.39,5.68,22.34,3a23,23,0,0,0,11.72-10.8,115.44,115.44,0,0,1-10-6.64A105.88,105.88,0,0,1,208.1,254a52.31,52.31,0,0,0,2-17.22Z"/><path class="cls-3" d="M167.16,265.88a57.22,57.22,0,0,1-10.72-10.57c3.08-3.59,8.51-9.48,8.51-9.48s-8.15,2.17-12.49,3.86a78.44,78.44,0,0,1-7-13.76,38.26,38.26,0,0,1-1.68-5.6c6.62-2.15,18.55-6.64,18.55-6.64s-12.71-.89-19.58-2.62a64.84,64.84,0,0,1,2.41-17.43c4.84-.08,13.19-.53,13.19-.53s-7.51-2.27-11.92-3.7a103.19,103.19,0,0,1,10.37-22.25,102.58,102.58,0,0,1,19.47,7.65c-2.72,4.25-5.15,12.32-5.15,12.32a134.41,134.41,0,0,0,10.6-9.29,65.68,65.68,0,0,1,15.65,12.78c-3,5-9.35,14.08-9.35,14.08s10.33-3.36,14.78-6.35a37.94,37.94,0,0,1,2.08,4.44,78.36,78.36,0,0,1,4.2,15c-4.51,2.08-13.24,7-13.24,7l14.22,2a52.3,52.3,0,0,1-2,17.22,105.88,105.88,0,0,0-12.76.08,115.44,115.44,0,0,0,10,6.64,23,23,0,0,1-11.72,10.8c-6.94,2.7-14.81,1.4-22.34-3,.72-3.63,2.1-8.93,2.1-8.93A55.31,55.31,0,0,0,167.16,265.88Z"/><path class="cls-3" d="M163.84,195.19s41.68,94.54,45.7,130.71"/><path class="cls-7" d="M246.57,286a45.67,45.67,0,0,0,11.71-2.69c-.59-3.73-1.81-10-1.81-10s4.63,4.89,6.87,7.85a62.6,62.6,0,0,0,10.49-6.43,30.53,30.53,0,0,0,3.49-3.1c-3.6-4.23-9.82-12.28-9.82-12.28s9,4.72,14.4,6.42a51.75,51.75,0,0,0,5.67-12.85c-3.25-2.08-8.73-5.89-8.73-5.89s6.05,1.6,9.65,2.48a82.35,82.35,0,0,0,2.28-19.46,81.87,81.87,0,0,0-16.43-3c.07,4-1.66,10.53-1.66,10.53a107.27,107.27,0,0,1-3.31-10.75,52.42,52.42,0,0,0-16,2.12c-.08,4.67.45,13.48.45,13.48s-5.61-6.61-7.38-10.5a30.28,30.28,0,0,0-3.28,2.14,62.54,62.54,0,0,0-9.14,8.43c2.19,3.31,6.06,10.3,6.06,10.3l-10.51-4.59a41.74,41.74,0,0,0-5.86,12.53,84.5,84.5,0,0,1,8.63,5.4,92.13,92.13,0,0,1-9.55.34,18.37,18.37,0,0,0,3.43,12.25c3.59,4.75,9.47,7.15,16.42,7.34,1-2.77,2.31-6.95,2.31-6.95A44.14,44.14,0,0,1,246.57,286Z"/><path class="cls-3" d="M205.79,315.19s-11.42-38-70.06-33.54"/><path class="cls-7" d="M166.86,306a45.67,45.67,0,0,1-11.6,3.15c-1.24-3.56-3.13-9.67-3.13-9.67s-1.78,6.49-2.35,10.17a62.6,62.6,0,0,1-12.29-.72,30.53,30.53,0,0,1-4.54-1.08c1.17-5.43,2.86-15.46,2.86-15.46s-5.71,8.41-9.66,12.46a51.75,51.75,0,0,1-11.06-8.66c1.88-3.37,4.92-9.31,4.92-9.31s-4.58,4.27-7.34,6.74a82.35,82.35,0,0,1-11.19-16.08,81.87,81.87,0,0,1,13.09-10.36c1.84,3.58,6.44,8.5,6.44,8.5a107.27,107.27,0,0,0-2.15-11A52.42,52.42,0,0,1,134,259c2.28,4.08,6,12.1,6,12.1s1.83-8.47,1.55-12.75a30.28,30.28,0,0,1,3.9.34,62.54,62.54,0,0,1,12,3.12c-.37,3.95-.48,11.95-.48,11.95l7.1-9A41.74,41.74,0,0,1,175.12,273a84.5,84.5,0,0,0-5.06,8.83,92.13,92.13,0,0,0,8.58-4.2,18.37,18.37,0,0,1,2.75,12.42c-.92,5.88-5,10.78-11,14.22-2.22-2-5.32-5-5.32-5A44.14,44.14,0,0,0,166.86,306Z"/><path class="cls-8" d="M186.21,277a48,48,0,0,0-5.9-11.17c-3.63,1.6-9.68,4.53-9.68,4.53s3.72-6,6.12-9.1a65.81,65.81,0,0,0-9.37-8.92,32.1,32.1,0,0,0-4.09-2.71c-3.33,4.8-9.83,13.29-9.83,13.29s2.36-10.42,2.64-16.36a54.4,54.4,0,0,0-14.58-2.29c-1.24,3.86-3.62,10.46-3.62,10.46s0-6.58-.08-10.47a86.57,86.57,0,0,0-20.38,2.94,86.06,86.06,0,0,0,1.43,17.49c4.07-1.16,11.15-1.15,11.15-1.15a112.76,112.76,0,0,1-10,6.27,55.1,55.1,0,0,0,6.47,15.67c4.77-1.18,13.57-4.1,13.57-4.1s-5.2,7.48-8.68,10.34a31.83,31.83,0,0,0,3.06,2.75,65.74,65.74,0,0,0,11,7c2.77-3.12,8.83-8.94,8.83-8.94s-1.22,7.94-1.82,11.91A43.88,43.88,0,0,0,166.77,307a88.83,88.83,0,0,1,3.16-10.23,96.85,96.85,0,0,1,2.93,9.61,19.31,19.31,0,0,0,11.51-6.79c3.85-4.92,4.71-11.55,3-18.66-3.09-.3-7.68-.47-7.68-.47A46.4,46.4,0,0,1,186.21,277Z"/><path class="cls-9" d="M186.21,277a48,48,0,0,0-5.9-11.17c-3.63,1.6-9.68,4.53-9.68,4.53s3.72-6,6.12-9.1a65.81,65.81,0,0,0-9.37-8.92,32.1,32.1,0,0,0-4.09-2.71c-3.33,4.8-9.83,13.29-9.83,13.29s2.36-10.42,2.64-16.36a54.4,54.4,0,0,0-14.58-2.29c-1.24,3.86-3.62,10.46-3.62,10.46s0-6.58-.08-10.47a86.57,86.57,0,0,0-20.38,2.94,86.06,86.06,0,0,0,1.43,17.49c4.07-1.16,11.15-1.15,11.15-1.15a112.76,112.76,0,0,1-10,6.27,55.1,55.1,0,0,0,6.47,15.67c4.77-1.18,13.57-4.1,13.57-4.1s-5.2,7.48-8.68,10.34a31.83,31.83,0,0,0,3.06,2.75,65.74,65.74,0,0,0,11,7c2.77-3.12,8.83-8.94,8.83-8.94s-1.22,7.94-1.82,11.91A43.88,43.88,0,0,0,166.77,307a88.83,88.83,0,0,1,3.16-10.23,96.85,96.85,0,0,1,2.93,9.61,19.31,19.31,0,0,0,11.51-6.79c3.85-4.92,4.71-11.55,3-18.66-3.09-.3-7.68-.47-7.68-.47A46.4,46.4,0,0,1,186.21,277Z"/><path class="cls-3" d="M186.21,277a48,48,0,0,0-5.9-11.17c-3.63,1.6-9.68,4.53-9.68,4.53s3.72-6,6.12-9.1a65.81,65.81,0,0,0-9.37-8.92,32.1,32.1,0,0,0-4.09-2.71c-3.33,4.8-9.83,13.29-9.83,13.29s2.36-10.42,2.64-16.36a54.4,54.4,0,0,0-14.58-2.29c-1.24,3.86-3.62,10.46-3.62,10.46s0-6.58-.08-10.47a86.57,86.57,0,0,0-20.38,2.94,86.06,86.06,0,0,0,1.43,17.49c4.07-1.16,11.15-1.15,11.15-1.15a112.76,112.76,0,0,1-10,6.27,55.1,55.1,0,0,0,6.47,15.67c4.77-1.18,13.57-4.1,13.57-4.1s-5.2,7.48-8.68,10.34a31.83,31.83,0,0,0,3.06,2.75,65.74,65.74,0,0,0,11,7c2.77-3.12,8.83-8.94,8.83-8.94s-1.22,7.94-1.82,11.91A43.88,43.88,0,0,0,166.77,307a88.83,88.83,0,0,1,3.16-10.23,96.85,96.85,0,0,1,2.93,9.61,19.31,19.31,0,0,0,11.51-6.79c3.85-4.92,4.71-11.55,3-18.66-3.09-.3-7.68-.47-7.68-.47A46.4,46.4,0,0,1,186.21,277Z"/><path class="cls-3" d="M126.39,254.22c22.42,13.13,64.82,44.75,77.73,68.47"/><path class="cls-4" d="M195.92,275.21A54.87,54.87,0,0,1,193.24,261c4.39-1.15,11.88-2.84,11.88-2.84s-7.61-2.74-12-3.77a75.22,75.22,0,0,1,2-14.65,36.69,36.69,0,0,1,1.72-5.33c6.39,1.92,18.26,4.88,18.26,4.88s-9.54-7.63-14-12.75a62.18,62.18,0,0,1,11.41-12.44c3.86,2.57,10.69,6.77,10.69,6.77s-4.68-5.89-7.38-9.42a99,99,0,0,1,20.32-11.89,98.37,98.37,0,0,1,11.18,16.65c-4.46,1.86-10.79,6.91-10.79,6.91A128.89,128.89,0,0,0,250,221.61a63,63,0,0,1,5.37,18.61c-5.1,2.35-15.05,6-15.05,6s10,3,15.12,3.06a36.39,36.39,0,0,1-.78,4.64,75.15,75.15,0,0,1-4.87,14.12c-4.7-.82-14.27-1.7-14.27-1.7l10.12,9.35a50.16,50.16,0,0,1-11,12.5,101.54,101.54,0,0,0-10.11-6.89A110.7,110.7,0,0,0,228.8,292a22.08,22.08,0,0,1-15.13,2.13c-7-1.66-12.44-7-16-14.53,2.55-2.48,6.53-5.89,6.53-5.89A53,53,0,0,0,195.92,275.21Z"/><path class="cls-10" d="M195.92,275.21A54.87,54.87,0,0,1,193.24,261c4.39-1.15,11.88-2.84,11.88-2.84s-7.61-2.74-12-3.77a75.22,75.22,0,0,1,2-14.65,36.69,36.69,0,0,1,1.72-5.33c6.39,1.92,18.26,4.88,18.26,4.88s-9.54-7.63-14-12.75a62.18,62.18,0,0,1,11.41-12.44c3.86,2.57,10.69,6.77,10.69,6.77s-4.68-5.89-7.38-9.42a99,99,0,0,1,20.32-11.89,98.37,98.37,0,0,1,11.18,16.65c-4.46,1.86-10.79,6.91-10.79,6.91A128.89,128.89,0,0,0,250,221.61a63,63,0,0,1,5.37,18.61c-5.1,2.35-15.05,6-15.05,6s10,3,15.12,3.06a36.39,36.39,0,0,1-.78,4.64,75.15,75.15,0,0,1-4.87,14.12c-4.7-.82-14.27-1.7-14.27-1.7l10.12,9.35a50.16,50.16,0,0,1-11,12.5,101.54,101.54,0,0,0-10.11-6.89A110.7,110.7,0,0,0,228.8,292a22.08,22.08,0,0,1-15.13,2.13c-7-1.66-12.44-7-16-14.53,2.55-2.48,6.53-5.89,6.53-5.89A53,53,0,0,0,195.92,275.21Z"/><path class="cls-6" d="M253.9,256.8c-12.8,3.67-26,6.78-39.51,9.49-3.53-23.56,7.72-47.13,23.88-64.1-1.29-1.67-2.09-2.59-2.09-2.59a99,99,0,0,0-20.32,11.89c2.7,3.53,7.38,9.42,7.38,9.42s-6.83-4.2-10.69-6.77a62.18,62.18,0,0,0-11.41,12.44c4.48,5.11,14,12.75,14,12.75s-11.86-3-18.26-4.88a36.68,36.68,0,0,0-1.72,5.33,75.22,75.22,0,0,0-2,14.65c4.35,1,12,3.77,12,3.77s-7.5,1.69-11.88,2.84a54.87,54.87,0,0,0,2.69,14.19,53,53,0,0,1,8.28-1.53s-4,3.42-6.53,5.89c3.55,7.56,9,12.87,16,14.53A22.08,22.08,0,0,0,228.8,292a110.72,110.72,0,0,1-4.23-10.67,101.54,101.54,0,0,1,10.11,6.89,50.16,50.16,0,0,0,11-12.5l-10.12-9.35s9.57.88,14.27,1.7A74.59,74.59,0,0,0,253.9,256.8Z"/><path class="cls-3" d="M195.92,275.21A54.87,54.87,0,0,1,193.24,261c4.39-1.15,11.88-2.84,11.88-2.84s-7.61-2.74-12-3.77a75.22,75.22,0,0,1,2-14.65,36.69,36.69,0,0,1,1.72-5.33c6.39,1.92,18.26,4.88,18.26,4.88s-9.54-7.63-14-12.75a62.18,62.18,0,0,1,11.41-12.44c3.86,2.57,10.69,6.77,10.69,6.77s-4.68-5.89-7.38-9.42a99,99,0,0,1,20.32-11.89,98.37,98.37,0,0,1,11.18,16.65c-4.46,1.86-10.79,6.91-10.79,6.91A128.89,128.89,0,0,0,250,221.61a63,63,0,0,1,5.37,18.61c-5.1,2.35-15.05,6-15.05,6s10,3,15.12,3.06a36.39,36.39,0,0,1-.78,4.64,75.15,75.15,0,0,1-4.87,14.12c-4.7-.82-14.27-1.7-14.27-1.7l10.12,9.35a50.16,50.16,0,0,1-11,12.5,101.54,101.54,0,0,0-10.11-6.89A110.7,110.7,0,0,0,228.8,292a22.08,22.08,0,0,1-15.13,2.13c-7-1.66-12.44-7-16-14.53,2.55-2.48,6.53-5.89,6.53-5.89A53,53,0,0,0,195.92,275.21Z"/><path class="cls-3" d="M233.16,212.23c-10.69,27.71-26.07,86.18-20.71,116.57"/><polygon class="cls-11" points="251.92 372.71 201.61 385.32 175.5 316.33 242.38 299.56 251.92 372.71"/><path class="cls-12" d="M227.69,303.25c4.63,24.06,8.6,48.24,12.15,72.49l12.08-3-9.54-73.15Z"/><polygon class="cls-3" points="251.92 372.71 201.61 385.32 175.5 316.33 242.38 299.56 251.92 372.71"/><rect class="cls-11" x="167.86" y="307.71" width="86.04" height="15.91" transform="translate(-70.45 60.78) rotate(-14.08)"/><rect class="cls-13" x="166.68" y="307.85" width="86.04" height="6.26" transform="translate(-69.35 60.35) rotate(-14.08)"/><rect class="cls-3" x="167.86" y="307.71" width="86.04" height="15.91" transform="translate(-70.45 60.78) rotate(-14.08)"/><rect class="cls-14" x="203.03" y="268.57" width="93.16" height="126.14" transform="translate(-86.04 87.45) rotate(-17)"/><rect class="cls-15" x="203.3" y="285.21" width="65.85" height="5.33" transform="translate(-73.83 81.63) rotate(-17)"/><rect class="cls-16" x="216.68" y="283.21" width="65.85" height="96.85" transform="translate(-86.04 87.45) rotate(-17)"/><polygon class="cls-14" points="221.13 351.12 242.11 315.98 254.02 321.59 263.24 300.26 274.6 303.81 295.25 368.32 231.59 385.32 221.13 351.12"/><rect class="cls-3" x="237.52" y="326.61" width="29.07" height="26.04" transform="translate(-88.27 88.52) rotate(-17)"/><line class="cls-3" x1="234.62" y1="358.58" x2="277.1" y2="345.59"/><polygon class="cls-14" points="229.15 340.68 271.63 327.69 261.08 319.43 233.27 327.93 229.15 340.68"/><line class="cls-14" x1="230.58" y1="382.01" x2="288.57" y2="346.46"/><line class="cls-14" x1="245.41" y1="342.94" x2="246.24" y2="345.66"/><line class="cls-14" x1="259.26" y1="338.71" x2="260.09" y2="341.43"/><line class="cls-14" x1="252.05" y1="339.63" x2="255.86" y2="352.08"/><path class="cls-16" d="M271.43,423.13a14.43,14.43,0,0,1-3.22-15.33l59.91-150,5.51,2.2L277.86,399.64A10.43,10.43,0,0,0,280.25,411c5.29,5.08,12.86,7.58,19.61,7.68a10.51,10.51,0,0,0,9.93-6.61l55.67-139.36L371,275,311.19,424.58a13.9,13.9,0,0,1-13.36,8.89C287.72,433,277.7,429.7,271.43,423.13Z"/><rect class="cls-16" x="337.8" y="291.49" width="44.37" height="5.93" transform="translate(-47 519.52) rotate(-68.23)"/><rect class="cls-16" x="300.46" y="276.57" width="44.37" height="5.93" transform="translate(-56.64 475.46) rotate(-68.23)"/><path class="cls-17" d="M330.89,266.89,274.25,408.66a10.43,10.43,0,0,0,2.39,11.39c5.29,5.08,12.86,7.58,19.61,7.69a10.51,10.51,0,0,0,9.93-6.61L362.72,279.6Z"/><path class="cls-18" d="M275.49,418.73a10.48,10.48,0,0,1-1.24-10.07l40-100.05,4.54,1.81Z"/><rect class="cls-19" x="317.68" y="275.83" width="42.48" height="34.28" transform="translate(-58.87 499.03) rotate(-68.23)"/><path class="cls-20" d="M276.65,420.05a10.39,10.39,0,0,1-2.8-10.12c-2.8,7,28.83,19.65,31.63,12.64a10.51,10.51,0,0,1-9.22,5.17C289.5,427.63,281.94,425.13,276.65,420.05Z"/><line class="cls-21" x1="325.38" y1="311.03" x2="296.31" y2="383.8"/><line class="cls-21" x1="330.34" y1="313.01" x2="310.99" y2="361.45"/><line class="cls-21" x1="337.91" y1="315.23" x2="313.47" y2="376.42"/><line class="cls-22" x1="341.89" y1="271.28" x2="336.7" y2="284.26"/><line class="cls-22" x1="346.8" y1="273.24" x2="343.58" y2="281.31"/><path class="cls-3" d="M330.89,266.89,274.25,408.66a10.43,10.43,0,0,0,2.39,11.39c5.29,5.08,12.86,7.58,19.61,7.69a10.51,10.51,0,0,0,9.93-6.61L362.72,279.6Z"/><rect class="cls-23" x="340.31" y="279.53" width="113.67" height="76.75" transform="translate(-42.23 574.3) rotate(-68.94)"/><rect class="cls-11" x="352.68" y="284.3" width="113.67" height="76.75" transform="translate(-38.75 588.89) rotate(-68.94)"/><rect class="cls-24" x="352.68" y="284.3" width="113.67" height="76.75" transform="translate(-38.75 588.89) rotate(-68.94)"/><rect class="cls-3" x="352.68" y="284.3" width="113.67" height="76.75" transform="translate(-38.75 588.89) rotate(-68.94)"/><rect class="cls-25" x="372.87" y="300.77" width="73.28" height="43.8" transform="translate(-38.75 588.89) rotate(-68.94)"/><rect class="cls-25" x="246.46" y="339.72" width="37.88" height="63.36" transform="translate(-83.25 76.74) rotate(-14.25)"/><rect class="cls-26" x="234.35" y="331.64" width="223.34" height="175.54"/><path class="cls-27" d="M457.69,507.18V331.64H234.35l.33,1.46A217.6,217.6,0,0,0,414,500.48Z"/><rect class="cls-28" x="142.85" y="331.64" width="91.49" height="175.54"/><polygon class="cls-29" points="234.35 331.64 234.35 348.13 234.35 353.73 280.58 404.81 457.69 404.81 457.69 353.73 457.69 331.64 234.35 331.64"/><rect class="cls-3" x="234.35" y="331.64" width="223.34" height="175.54"/><rect class="cls-15" x="357.71" y="455.17" width="79.24" height="39.36" rx="6.1" ry="6.1"/><rect class="cls-14" x="357.71" y="451.5" width="79.24" height="39.36" rx="6.1" ry="6.1"/><rect class="cls-3" x="142.85" y="331.64" width="91.49" height="175.54"/><polygon class="cls-30" points="114.48 398.63 145.05 398.63 167.36 376.22 136.79 376.22 114.48 398.63"/><polygon class="cls-31" points="182.5 388.31 91 388.31 142.85 331.64 234.35 331.64 182.5 388.31"/><polygon class="cls-32" points="225.39 341.43 158.67 341.44 150.76 331.64 234.35 331.64 225.39 341.43"/><polygon class="cls-30" points="416.52 398.63 385.95 398.63 363.64 376.22 394.21 376.22 416.52 398.63"/><polygon class="cls-32" points="509 388.31 285.65 388.31 234.35 331.64 457.69 331.64 509 388.31"/><polygon class="cls-33" points="465.26 340 457.69 331.64 234.35 331.64 241.92 340 465.26 340"/><polygon class="cls-3" points="182.5 388.31 91 388.31 142.85 331.64 234.35 331.64 182.5 388.31"/><polygon class="cls-3" points="509 388.31 285.65 388.31 234.35 331.64 457.69 331.64 509 388.31"/><line class="cls-3" x1="393.87" y1="388.31" x2="362.42" y2="353.58"/><line class="cls-3" x1="185.11" y1="505.6" x2="185.11" y2="451.5"/><line class="cls-3" x1="104.39" y1="507.18" x2="509" y2="507.18"/><line class="cls-3" x1="371.54" y1="471.19" x2="423.11" y2="471.19"/><line class="cls-3" x1="378.13" y1="480.2" x2="416.52" y2="480.2"/><line class="cls-3" x1="371.54" y1="462.13" x2="423.11" y2="462.13"/></g></g></g></svg>