<svg xmlns="http://www.w3.org/2000/svg" viewBox="0 0 600 600"><defs><style>.cls-1{fill:#fff;}.cls-2{fill:#eaf5f9;}.cls-3,.cls-6{fill:none;}.cls-11,.cls-3,.cls-4,.cls-5,.cls-6,.cls-9{stroke:#323854;stroke-width:4px;}.cls-11,.cls-3,.cls-4{stroke-miterlimit:10;}.cls-4{fill:#8df;}.cls-5{fill:#ff6161;}.cls-5,.cls-6,.cls-9{stroke-linecap:round;stroke-linejoin:round;}.cls-7{fill:#444a54;}.cls-8{fill:#efefef;}.cls-9{fill:#2c90db;}.cls-10,.cls-11{fill:#36bbf9;}</style></defs><title>Images</title><g id="Color_Images" data-name="Color Images"><g id="Browser"><path class="cls-1" d="M464.34,517.3H135.55a14.07,14.07,0,0,1-14.08-14.06V269.46a14.07,14.07,0,0,1,14.08-14.06H464.34a14.07,14.07,0,0,1,14.08,14.06V503.24A14.07,14.07,0,0,1,464.34,517.3Z"/><path class="cls-2" d="M464.34,517.3H135.55a14.07,14.07,0,0,1-14.08-14.06V269.46a14.07,14.07,0,0,1,14.08-14.06H464.34a14.07,14.07,0,0,1,14.08,14.06V503.24A14.07,14.07,0,0,1,464.34,517.3Z"/><path class="cls-1" d="M416.65,483.91H133.6c-6.69,0-12.12-5.08-12.12-11.35V283.83c0-6.27,5.43-11.35,12.12-11.35H416.65c6.69,0,12.12,5.08,12.12,11.35V472.56C428.77,478.83,423.34,483.91,416.65,483.91Z"/><path class="cls-3" d="M464.34,517.3H135.55a14.07,14.07,0,0,1-14.08-14.06V269.46a14.07,14.07,0,0,1,14.08-14.06H464.34a14.07,14.07,0,0,1,14.08,14.06V503.24A14.07,14.07,0,0,1,464.34,517.3Z"/><path class="cls-4" d="M478.42,325.15V269.46a14.07,14.07,0,0,0-14.08-14.06H135.55a14.07,14.07,0,0,0-14.08,14.06v55.69Z"/><path class="cls-5" d="M478.52,280.27V269.46a14.06,14.06,0,0,0-14.06-14.06H135.54a14.06,14.06,0,0,0-14.06,14.06v10.81Z"/><line class="cls-6" x1="243.83" y1="267.58" x2="385.11" y2="267.58"/><line class="cls-6" x1="449.51" y1="267.58" x2="454.81" y2="267.58"/><line class="cls-6" x1="436.47" y1="267.58" x2="441.77" y2="267.58"/><line class="cls-6" x1="421.9" y1="267.58" x2="428.37" y2="267.58"/><ellipse class="cls-7" cx="138.01" cy="267.63" rx="4.57" ry="4.48"/><ellipse class="cls-7" cx="152.15" cy="267.63" rx="4.57" ry="4.48"/><ellipse class="cls-7" cx="165.99" cy="267.63" rx="4.57" ry="4.48"/><path class="cls-8" d="M177.35,394.81a5.25,5.25,0,0,1-5.25-5.25v-40a5.2,5.2,0,0,1,5.2-5.2h44.52a5.2,5.2,0,0,1,5.2,5.2v40a5.25,5.25,0,0,1-5.25,5.25Z"/><rect class="cls-9" x="172.09" y="344.98" width="48.92" height="44.31" rx="1.94" ry="1.94"/><path class="cls-8" d="M419.18,420.72H349.75a9.81,9.81,0,0,1-9.59-10v-.2a9.81,9.81,0,0,1,9.59-10h69.43a9.81,9.81,0,0,1,9.59,10v.2A9.81,9.81,0,0,1,419.18,420.72Z"/><path class="cls-10" d="M413.78,414.58H348.15a8.85,8.85,0,0,1-8.65-9v-.18a8.85,8.85,0,0,1,8.65-9h65.63a8.85,8.85,0,0,1,8.65,9v.18A8.85,8.85,0,0,1,413.78,414.58Z"/><path class="cls-3" d="M413.78,414.58H348.15a8.85,8.85,0,0,1-8.65-9v-.18a8.85,8.85,0,0,1,8.65-9h65.63a8.85,8.85,0,0,1,8.65,9v.18A8.85,8.85,0,0,1,413.78,414.58Z"/><path class="cls-8" d="M419.18,507.59H349.75a9.81,9.81,0,0,1-9.59-10v-.2a9.81,9.81,0,0,1,9.59-10h69.43a9.81,9.81,0,0,1,9.59,10v.2A9.81,9.81,0,0,1,419.18,507.59Z"/><path class="cls-11" d="M413.78,501.45H348.15a8.85,8.85,0,0,1-8.65-9v-.18a8.85,8.85,0,0,1,8.65-9h65.63a8.85,8.85,0,0,1,8.65,9v.18A8.85,8.85,0,0,1,413.78,501.45Z"/><polyline class="cls-6" points="190.81 262.92 184.65 267.79 190.81 272.24"/><polyline class="cls-6" points="199.04 262.92 205.2 267.79 199.04 272.24"/><path class="cls-6" d="M252.57,347.84c19.22.07,139.55.12,173,0"/><path class="cls-6" d="M252.6,358.76H373.91"/><path class="cls-6" d="M253,370.35H401.65"/><path class="cls-6" d="M252.57,381.3c26.33.1,24.15.08,50.48,0"/><path class="cls-8" d="M177.35,483.08a5.25,5.25,0,0,1-5.25-5.25v-40a5.2,5.2,0,0,1,5.2-5.2h44.52a5.2,5.2,0,0,1,5.2,5.2v40a5.25,5.25,0,0,1-5.25,5.25Z"/><rect class="cls-9" x="172.09" y="433.25" width="48.92" height="44.31" rx="1.94" ry="1.94"/><path class="cls-6" d="M252.57,436.33c19.22.07,139.55.12,173,0"/><path class="cls-6" d="M252.6,447.25H408"/><path class="cls-6" d="M253,458.84H384.53"/><path class="cls-6" d="M252.57,469.79c26.33.1,119.45.08,145.78,0"/><line class="cls-6" x1="147.06" y1="292.38" x2="195.99" y2="292.38"/><line class="cls-6" x1="427.48" y1="292.38" x2="451.94" y2="292.38"/><line class="cls-6" x1="360.99" y1="292.38" x2="385.45" y2="292.38"/><line class="cls-6" x1="397.66" y1="292.38" x2="416.47" y2="292.38"/><line class="cls-6" x1="87.07" y1="517.3" x2="512.93" y2="517.3"/></g></g></svg>