<svg xmlns="http://www.w3.org/2000/svg" xmlns:xlink="http://www.w3.org/1999/xlink" viewBox="0 0 600 600"><defs><style>.cls-1{isolation:isolate;}.cls-2{fill:#929899;}.cls-10,.cls-11,.cls-12,.cls-13,.cls-14,.cls-15,.cls-16,.cls-17,.cls-18,.cls-2,.cls-20,.cls-21,.cls-24,.cls-25,.cls-26,.cls-27,.cls-28,.cls-29,.cls-3,.cls-4,.cls-7{stroke:#323854;}.cls-10,.cls-11,.cls-12,.cls-14,.cls-15,.cls-16,.cls-17,.cls-18,.cls-2,.cls-20,.cls-21,.cls-24,.cls-25,.cls-26,.cls-28,.cls-29,.cls-3,.cls-4,.cls-7{stroke-linecap:round;stroke-linejoin:round;}.cls-13,.cls-17,.cls-18,.cls-2,.cls-4{stroke-width:4px;}.cls-3{fill:#9b7053;}.cls-10,.cls-3,.cls-7{stroke-width:2.35px;}.cls-10,.cls-14,.cls-21,.cls-4{fill:none;}.cls-19,.cls-5{fill:#efefef;}.cls-6,.cls-7{fill:#d9a47e;}.cls-8{fill:url(#linear-gradient);}.cls-9{fill:#f9c29d;}.cls-11,.cls-26{fill:#8e7661;}.cls-11,.cls-12,.cls-21,.cls-25{stroke-width:3px;}.cls-12,.cls-15,.cls-17,.cls-23{fill:#777471;}.cls-13{fill:#9ddced;}.cls-13,.cls-27{stroke-miterlimit:10;}.cls-14,.cls-15,.cls-16,.cls-20,.cls-24,.cls-26,.cls-28,.cls-29{stroke-width:2.4px;}.cls-16{fill:#36bbf9;}.cls-18,.cls-25{fill:#998f87;}.cls-19,.cls-34{mix-blend-mode:multiply;}.cls-20,.cls-22{fill:#ffe8d9;}.cls-24{fill:#f9e1d4;}.cls-27,.cls-33{fill:#f4ce9f;}.cls-27{stroke-width:2px;}.cls-28{fill:#ff6161;}.cls-29{fill:#e2f6ff;}.cls-30{fill:#d6cecc;}.cls-31{fill:url(#linear-gradient-2);}.cls-32{fill:url(#linear-gradient-3);}.cls-34{fill:#ffd371;}.cls-35{fill:url(#linear-gradient-4);}.cls-36{fill:url(#linear-gradient-6);}.cls-37{fill:url(#linear-gradient-7);}.cls-38{fill:url(#linear-gradient-8);}.cls-39{fill:url(#linear-gradient-9);}.cls-40{fill:url(#linear-gradient-10);}.cls-41{fill:url(#linear-gradient-11);}.cls-42{fill:url(#linear-gradient-12);}</style><linearGradient id="linear-gradient" x1="245.49" y1="562.33" x2="245.49" y2="402.45" gradientUnits="userSpaceOnUse"><stop offset="0" stop-color="#fff" stop-opacity="0.6"/><stop offset="0.16" stop-color="#f7fcff" stop-opacity="0.61"/><stop offset="0.34" stop-color="#dff5ff" stop-opacity="0.66"/><stop offset="0.53" stop-color="#b7e8ff" stop-opacity="0.72"/><stop offset="0.72" stop-color="#80d7fe" stop-opacity="0.82"/><stop offset="0.92" stop-color="#39c1fe" stop-opacity="0.94"/><stop offset="1" stop-color="#18b6fe"/></linearGradient><linearGradient id="linear-gradient-2" x1="249.77" y1="267.44" x2="245.77" y2="176.94" xlink:href="#linear-gradient"/><linearGradient id="linear-gradient-3" x1="249.28" y1="267.46" x2="245.28" y2="176.96" xlink:href="#linear-gradient"/><linearGradient id="linear-gradient-4" x1="316.38" y1="316.85" x2="316.38" y2="140.64" xlink:href="#linear-gradient"/><linearGradient id="linear-gradient-6" x1="246.49" y1="391.52" x2="246.49" y2="271.15" xlink:href="#linear-gradient"/><linearGradient id="linear-gradient-7" x1="250.46" y1="391.52" x2="250.46" y2="271.15" xlink:href="#linear-gradient"/><linearGradient id="linear-gradient-8" x1="387.76" y1="343.71" x2="390.43" y2="263.05" xlink:href="#linear-gradient"/><linearGradient id="linear-gradient-9" x1="385.48" y1="343.64" x2="388.14" y2="262.97" xlink:href="#linear-gradient"/><linearGradient id="linear-gradient-10" x1="316.38" y1="350.85" x2="316.38" y2="261.51" xlink:href="#linear-gradient"/><linearGradient id="linear-gradient-11" x1="368.8" y1="407.49" x2="405.53" y2="407.49" xlink:href="#linear-gradient"/><linearGradient id="linear-gradient-12" x1="368.8" y1="417.49" x2="405.53" y2="417.49" xlink:href="#linear-gradient"/></defs><title>Images</title><g class="cls-1"><g id="Color_Images" data-name="Color Images"><g id="Building"><rect class="cls-2" x="181.31" y="129.57" width="243.04" height="380.15"/><rect class="cls-3" x="181.31" y="452.55" width="18.14" height="57.17"/><line class="cls-4" x1="181.31" y1="458.15" x2="199.45" y2="458.15"/><rect class="cls-5" x="199.05" y="129.57" width="233.85" height="380.15"/><rect class="cls-6" x="199.45" y="452.55" width="233.85" height="57.09"/><rect class="cls-6" x="195.15" y="339.47" width="242.47" height="8.7"/><rect class="cls-7" x="423.57" y="330.77" width="9.73" height="8.7"/><rect class="cls-7" x="199.45" y="330.77" width="9.91" height="8.7"/><rect class="cls-7" x="427.43" y="322.07" width="5.87" height="8.7"/><rect class="cls-7" x="423.57" y="313.37" width="9.73" height="8.7"/><rect class="cls-7" x="427.43" y="304.67" width="5.87" height="8.7"/><rect class="cls-7" x="199.45" y="322.07" width="6.1" height="8.7"/><rect class="cls-7" x="199.45" y="313.37" width="9.91" height="8.7"/><rect class="cls-7" x="199.45" y="304.67" width="6.1" height="8.7"/><rect class="cls-7" x="423.57" y="295.98" width="9.73" height="8.7"/><rect class="cls-7" x="199.45" y="295.98" width="9.91" height="8.7"/><rect class="cls-7" x="427.43" y="287.28" width="5.87" height="8.7"/><rect class="cls-7" x="423.57" y="278.58" width="9.73" height="8.7"/><rect class="cls-7" x="427.43" y="269.88" width="5.87" height="8.7"/><rect class="cls-7" x="427.43" y="252.48" width="5.87" height="8.7"/><rect class="cls-7" x="199.45" y="287.28" width="6.1" height="8.7"/><rect class="cls-7" x="199.45" y="278.58" width="9.91" height="8.7"/><rect class="cls-7" x="199.45" y="269.88" width="6.1" height="8.7"/><rect class="cls-7" x="423.57" y="261.18" width="9.73" height="8.7"/><rect class="cls-7" x="199.45" y="261.18" width="9.91" height="8.7"/><rect class="cls-7" x="199.45" y="252.48" width="6.1" height="8.7"/><rect class="cls-7" x="423.57" y="426.45" width="9.73" height="8.7"/><rect class="cls-7" x="199.45" y="426.45" width="9.91" height="8.7"/><rect class="cls-7" x="427.43" y="417.75" width="5.87" height="8.7"/><rect class="cls-8" x="227.13" y="478.4" width="36.74" height="24"/><rect class="cls-7" x="423.57" y="409.05" width="9.73" height="8.7"/><rect class="cls-7" x="427.43" y="400.36" width="5.87" height="8.7"/><rect class="cls-7" x="199.45" y="417.75" width="6.1" height="8.7"/><rect class="cls-7" x="423.57" y="443.85" width="9.73" height="8.7"/><rect class="cls-7" x="199.45" y="443.85" width="9.91" height="8.7"/><rect class="cls-7" x="427.43" y="435.15" width="5.87" height="8.7"/><rect class="cls-7" x="199.45" y="435.15" width="6.1" height="8.7"/><rect class="cls-7" x="199.45" y="409.05" width="9.91" height="8.7"/><rect class="cls-7" x="199.45" y="400.36" width="6.1" height="8.7"/><rect class="cls-7" x="423.57" y="391.66" width="9.73" height="8.7"/><rect class="cls-7" x="199.45" y="391.66" width="9.91" height="8.7"/><rect class="cls-7" x="427.43" y="382.96" width="5.87" height="8.7"/><rect class="cls-7" x="423.57" y="374.26" width="9.73" height="8.7"/><rect class="cls-7" x="427.43" y="365.56" width="5.87" height="8.7"/><rect class="cls-7" x="427.43" y="348.17" width="5.87" height="8.7"/><rect class="cls-7" x="199.45" y="382.96" width="6.1" height="8.7"/><rect class="cls-7" x="199.45" y="374.26" width="9.91" height="8.7"/><rect class="cls-7" x="199.45" y="365.56" width="6.1" height="8.7"/><rect class="cls-7" x="423.57" y="356.86" width="9.73" height="8.7"/><rect class="cls-7" x="199.45" y="356.86" width="9.91" height="8.7"/><rect class="cls-7" x="199.45" y="348.17" width="6.1" height="8.7"/><rect class="cls-3" x="177.83" y="339.47" width="18.35" height="8.7"/><rect class="cls-3" x="177.83" y="243.79" width="18.35" height="8.7"/><rect class="cls-6" x="195.15" y="243.79" width="242.47" height="8.7"/><rect class="cls-6" x="173.68" y="124.39" width="267.18" height="20.17"/><polygon class="cls-9" points="205.55 460.39 199.38 509.63 199.38 452.55 249.43 452.55 205.55 460.39"/><polygon class="cls-9" points="199.5 343.82 195.45 348.17 195.45 339.47 247.35 339.47 199.5 343.82"/><polygon class="cls-9" points="437.64 343.82 437.69 339.47 385.79 339.47 437.64 343.82"/><polygon class="cls-9" points="199.06 248.13 195.45 252.48 195.45 243.79 247.35 243.79 199.06 248.13"/><polygon class="cls-9" points="251.04 144.56 193.86 144.56 193.86 124.39 199.04 141.1 251.04 144.56"/><rect class="cls-10" x="199.45" y="452.55" width="233.85" height="57.09"/><rect class="cls-10" x="195.15" y="339.47" width="242.47" height="8.7"/><rect class="cls-10" x="195.15" y="243.79" width="242.47" height="8.7"/><rect class="cls-10" x="173.68" y="124.39" width="267.18" height="20.17"/><rect class="cls-3" x="173.68" y="124.39" width="21.13" height="20.17"/><rect class="cls-11" x="166.98" y="124.39" width="281.72" height="10.35"/><rect class="cls-12" x="166.98" y="124.39" width="23.28" height="10.35"/><rect class="cls-13" x="228.13" y="478.4" width="36.74" height="24"/><rect class="cls-14" x="364.09" y="471.09" width="46.14" height="38.54"/><rect class="cls-14" x="223.42" y="471.09" width="46.14" height="38.54"/><rect class="cls-15" x="223.42" y="471.09" width="46.14" height="7.3"/><rect class="cls-16" x="188.15" y="478.4" width="4.02" height="24"/><rect class="cls-15" x="187.63" y="471.09" width="5.05" height="7.3"/><polyline class="cls-17" points="259 509.7 177.49 509.7 177.49 502.39 259 502.39"/><polyline class="cls-18" points="275.97 509.7 194.46 509.7 194.46 502.39 275.97 502.39"/><line class="cls-14" x1="246.49" y1="479.74" x2="246.49" y2="502.39"/><rect class="cls-13" x="368.8" y="478.4" width="36.74" height="24"/><rect class="cls-15" x="364.09" y="471.09" width="46.14" height="7.3"/><polyline class="cls-18" points="356.79 502.39 437.62 502.39 437.62 509.7 356.79 509.7"/><line class="cls-14" x1="387.16" y1="479.74" x2="387.16" y2="502.39"/><rect class="cls-19" x="222.45" y="231.35" width="48.09" height="4.42"/><rect class="cls-20" x="188.15" y="376.35" width="4.02" height="49.92"/><rect class="cls-15" x="187.63" y="369.05" width="5.05" height="7.3"/><rect class="cls-15" x="187.63" y="426.27" width="5.05" height="7.3"/><rect class="cls-16" x="188.15" y="270.93" width="4.02" height="49.92"/><rect class="cls-15" x="187.63" y="263.63" width="5.05" height="7.3"/><rect class="cls-15" x="187.63" y="320.85" width="5.05" height="7.3"/><rect class="cls-20" x="188.15" y="174.13" width="4.02" height="49.92"/><rect class="cls-15" x="187.63" y="166.83" width="5.05" height="7.3"/><rect class="cls-15" x="187.63" y="224.05" width="5.05" height="7.3"/><line class="cls-14" x1="165.34" y1="129.57" x2="450.33" y2="129.57"/><line class="cls-14" x1="181" y1="149.93" x2="433.31" y2="149.93"/><line class="cls-21" x1="199.45" y1="458.15" x2="431.71" y2="458.15"/><rect class="cls-22" x="286.14" y="453.67" width="60.48" height="56.05"/><rect class="cls-23" x="286.14" y="506.05" width="60.48" height="1.69"/><rect class="cls-23" x="286.14" y="457.25" width="60.48" height="3.14"/><rect class="cls-23" x="286.14" y="464.02" width="60.48" height="3.14"/><rect class="cls-23" x="286.14" y="470.64" width="60.48" height="3.14"/><rect class="cls-23" x="286.14" y="477.75" width="60.48" height="3.14"/><rect class="cls-23" x="286.14" y="484.75" width="60.48" height="3.14"/><rect class="cls-23" x="286.14" y="491.89" width="60.48" height="3.14"/><rect class="cls-23" x="286.14" y="499.24" width="60.48" height="3.14"/><line class="cls-24" x1="346.62" y1="460.39" x2="286.14" y2="460.39"/><line class="cls-24" x1="346.62" y1="467.16" x2="286.14" y2="467.16"/><line class="cls-24" x1="346.62" y1="473.78" x2="286.14" y2="473.78"/><line class="cls-24" x1="346.62" y1="480.88" x2="286.14" y2="480.88"/><line class="cls-24" x1="346.62" y1="487.89" x2="286.14" y2="487.89"/><line class="cls-24" x1="346.62" y1="495.03" x2="286.14" y2="495.03"/><line class="cls-24" x1="346.62" y1="502.37" x2="286.14" y2="502.37"/><path class="cls-25" d="M346.62,433.93h.1A10.07,10.07,0,0,1,356.79,444v65.72H346.62Z"/><path class="cls-25" d="M286,433.93h.1v75.79H276V444A10.07,10.07,0,0,1,286,433.93Z"/><rect class="cls-7" x="423.57" y="235.09" width="9.73" height="8.7"/><rect class="cls-19" x="292.34" y="231.35" width="48.09" height="4.42"/><rect class="cls-19" x="363.12" y="231.35" width="48.09" height="4.42"/><rect class="cls-19" x="222.45" y="328.15" width="48.09" height="4.42"/><rect class="cls-19" x="292.34" y="328.15" width="48.09" height="4.42"/><rect class="cls-19" x="363.12" y="328.15" width="48.09" height="4.42"/><rect class="cls-19" x="222.45" y="433.48" width="48.09" height="4.42"/><rect class="cls-19" x="228.13" y="478.67" width="36.74" height="4.42"/><rect class="cls-19" x="368.8" y="478.67" width="36.74" height="4.42"/><rect class="cls-19" x="363.12" y="433.48" width="48.09" height="4.42"/><rect class="cls-7" x="199.45" y="235.09" width="9.91" height="8.7"/><rect class="cls-7" x="427.43" y="226.39" width="5.87" height="8.7"/><rect class="cls-7" x="423.57" y="217.69" width="9.73" height="8.7"/><rect class="cls-7" x="427.43" y="208.99" width="5.87" height="8.7"/><rect class="cls-7" x="199.45" y="226.39" width="6.1" height="8.7"/><rect class="cls-7" x="199.45" y="217.69" width="9.91" height="8.7"/><rect class="cls-7" x="199.45" y="208.99" width="6.1" height="8.7"/><rect class="cls-7" x="423.57" y="200.29" width="9.73" height="8.7"/><rect class="cls-7" x="199.45" y="200.29" width="9.91" height="8.7"/><rect class="cls-7" x="427.43" y="191.6" width="5.87" height="8.7"/><rect class="cls-7" x="423.57" y="182.9" width="9.73" height="8.7"/><rect class="cls-7" x="427.43" y="174.2" width="5.87" height="8.7"/><rect class="cls-7" x="427.43" y="156.8" width="5.87" height="8.7"/><rect class="cls-7" x="199.45" y="191.6" width="6.1" height="8.7"/><rect class="cls-7" x="199.45" y="182.9" width="9.91" height="8.7"/><rect class="cls-7" x="199.45" y="174.2" width="6.1" height="8.7"/><rect class="cls-7" x="423.57" y="165.5" width="9.73" height="8.7"/><rect class="cls-7" x="199.45" y="165.5" width="9.91" height="8.7"/><rect class="cls-7" x="423.57" y="149.93" width="9.73" height="6.87"/><rect class="cls-15" x="196.39" y="330.77" width="3.31" height="8.7"/><rect class="cls-24" x="197.7" y="322.07" width="2" height="8.7"/><rect class="cls-15" x="196.39" y="313.37" width="3.31" height="8.7"/><rect class="cls-24" x="197.7" y="304.67" width="2" height="8.7"/><rect class="cls-15" x="196.39" y="295.98" width="3.31" height="8.7"/><rect class="cls-24" x="197.7" y="287.28" width="2" height="8.7"/><rect class="cls-15" x="196.39" y="278.58" width="3.31" height="8.7"/><rect class="cls-24" x="197.7" y="269.88" width="2" height="8.7"/><rect class="cls-24" x="197.7" y="252.48" width="2" height="8.7"/><rect class="cls-15" x="196.39" y="261.18" width="3.31" height="8.7"/><rect class="cls-15" x="196.39" y="426.45" width="3.31" height="8.7"/><rect class="cls-24" x="197.7" y="417.75" width="2" height="8.7"/><rect class="cls-15" x="196.39" y="409.05" width="3.31" height="8.7"/><rect class="cls-24" x="197.7" y="400.36" width="2" height="8.7"/><rect class="cls-15" x="196.39" y="443.85" width="3.31" height="8.7"/><rect class="cls-24" x="197.7" y="435.15" width="2" height="8.7"/><rect class="cls-15" x="196.39" y="391.66" width="3.31" height="8.7"/><rect class="cls-24" x="197.7" y="382.96" width="2" height="8.7"/><rect class="cls-15" x="196.39" y="374.26" width="3.31" height="8.7"/><rect class="cls-24" x="197.7" y="365.56" width="2" height="8.7"/><rect class="cls-24" x="197.7" y="348.17" width="2" height="8.7"/><rect class="cls-15" x="196.39" y="356.86" width="3.31" height="8.7"/><rect class="cls-15" x="196.39" y="235.09" width="3.31" height="8.7"/><rect class="cls-24" x="197.7" y="226.39" width="2" height="8.7"/><rect class="cls-15" x="196.39" y="217.69" width="3.31" height="8.7"/><rect class="cls-24" x="197.7" y="208.99" width="2" height="8.7"/><rect class="cls-15" x="196.39" y="200.29" width="3.31" height="8.7"/><rect class="cls-24" x="197.7" y="191.6" width="2" height="8.7"/><rect class="cls-15" x="196.39" y="182.9" width="3.31" height="8.7"/><rect class="cls-24" x="197.7" y="174.2" width="2" height="8.7"/><rect class="cls-24" x="197.7" y="156.8" width="2" height="8.7"/><rect class="cls-15" x="196.39" y="165.5" width="3.31" height="8.7"/><rect class="cls-15" x="196.39" y="149.93" width="3.31" height="6.87"/><rect class="cls-24" x="181" y="330.77" width="1.96" height="8.7"/><rect class="cls-24" x="181" y="313.37" width="1.96" height="8.7"/><rect class="cls-24" x="181" y="295.98" width="1.96" height="8.7"/><rect class="cls-24" x="181" y="278.58" width="1.96" height="8.7"/><rect class="cls-24" x="181" y="261.18" width="1.96" height="8.7"/><rect class="cls-24" x="181" y="426.45" width="1.96" height="8.7"/><rect class="cls-24" x="181" y="409.05" width="1.96" height="8.7"/><rect class="cls-24" x="181" y="443.85" width="1.96" height="8.7"/><rect class="cls-24" x="181" y="391.66" width="1.96" height="8.7"/><rect class="cls-24" x="181" y="374.26" width="1.96" height="8.7"/><rect class="cls-24" x="181" y="356.86" width="1.96" height="8.7"/><rect class="cls-24" x="181" y="235.09" width="1.96" height="8.7"/><rect class="cls-24" x="181" y="217.69" width="1.96" height="8.7"/><rect class="cls-24" x="181" y="200.29" width="1.96" height="8.7"/><rect class="cls-24" x="181" y="182.9" width="1.96" height="8.7"/><rect class="cls-24" x="181" y="165.5" width="1.96" height="8.7"/><rect class="cls-24" x="181" y="149.93" width="1.96" height="6.87"/><rect class="cls-7" x="199.45" y="149.93" width="9.91" height="6.87"/><rect class="cls-7" x="199.45" y="156.8" width="6.1" height="8.7"/><rect class="cls-26" x="286.14" y="360.49" width="60.48" height="93.18"/><rect class="cls-26" x="293.31" y="367.65" width="46.14" height="86.01"/><rect class="cls-27" x="302.38" y="376.35" width="28" height="69.18"/><line class="cls-28" x1="302.38" y1="399.06" x2="330.38" y2="399.06"/><line class="cls-28" x1="302.38" y1="423.12" x2="330.38" y2="423.12"/><line class="cls-29" x1="316.38" y1="376.35" x2="316.38" y2="445.53"/><line class="cls-4" x1="152.31" y1="509.72" x2="466.8" y2="509.72"/><rect class="cls-30" x="262.7" y="228.2" width="12.39" height="6.95" rx="2.47" ry="2.47"/><rect class="cls-30" x="276.85" y="228.2" width="12.39" height="6.95" rx="2.47" ry="2.47"/><rect class="cls-30" x="276.85" y="212.45" width="12.39" height="6.95" rx="2.47" ry="2.47"/><rect class="cls-30" x="269.66" y="220.25" width="12.39" height="6.95" rx="2.47" ry="2.47"/><rect class="cls-14" x="293.31" y="166.83" width="46.14" height="64.53"/><rect class="cls-14" x="364.09" y="166.83" width="46.14" height="64.53"/><rect class="cls-14" x="223.42" y="166.83" width="46.14" height="64.53"/><rect class="cls-16" x="228.13" y="174.13" width="36.74" height="49.92"/><polygon class="cls-31" points="264.86 175.72 264.86 174.13 252.11 174.13 228.13 198.11 228.13 212.45 264.86 175.72"/><polygon class="cls-32" points="264.86 194.72 264.86 184.87 228.13 221.61 228.13 224.05 235.53 224.05 264.86 194.72"/><rect class="cls-19" x="228.13" y="174.13" width="36.74" height="4.42"/><rect class="cls-19" x="228.13" y="198.08" width="36.74" height="4.42"/><rect class="cls-26" x="223.42" y="166.83" width="46.14" height="7.3"/><rect class="cls-26" x="223.42" y="224.05" width="46.14" height="7.3"/><line class="cls-14" x1="246.49" y1="175.47" x2="246.49" y2="224.05"/><line class="cls-14" x1="228.13" y1="199.09" x2="264.86" y2="199.09"/><rect class="cls-33" x="368.8" y="174.13" width="36.74" height="49.92"/><rect class="cls-34" x="368.8" y="174.13" width="36.74" height="4.42"/><rect class="cls-34" x="368.8" y="198.08" width="36.74" height="4.42"/><rect class="cls-14" x="368.8" y="174.13" width="36.74" height="49.92"/><rect class="cls-26" x="364.09" y="166.83" width="46.14" height="7.3"/><rect class="cls-26" x="364.09" y="224.05" width="46.14" height="7.3"/><line class="cls-14" x1="387.16" y1="175.47" x2="387.16" y2="224.05"/><line class="cls-14" x1="368.8" y1="199.09" x2="405.53" y2="199.09"/><rect class="cls-16" x="298.01" y="174.13" width="36.74" height="49.92"/><path class="cls-35" d="M334.75,174.83v-.7H322.61L298,198.72v12.84Z"/><path class="cls-35" d="M334.75,204.83V184.49L298,221.22v2.83h17.51Z"/><rect class="cls-19" x="298.01" y="174.13" width="36.74" height="4.42"/><rect class="cls-14" x="298.01" y="174.13" width="36.74" height="49.92"/><rect class="cls-26" x="293.31" y="166.83" width="46.14" height="7.3"/><rect class="cls-26" x="293.31" y="224.05" width="46.14" height="7.3"/><rect class="cls-19" x="298.01" y="198.08" width="36.74" height="4.42"/><line class="cls-14" x1="316.38" y1="175.47" x2="316.38" y2="224.05"/><line class="cls-14" x1="298.01" y1="199.09" x2="334.75" y2="199.09"/><rect class="cls-14" x="228.13" y="174.13" width="36.74" height="49.92"/><rect class="cls-14" x="293.31" y="263.63" width="46.14" height="64.53"/><rect class="cls-14" x="364.09" y="263.63" width="46.14" height="64.53"/><rect class="cls-14" x="223.42" y="263.63" width="46.14" height="64.53"/><rect class="cls-16" x="228.13" y="270.93" width="36.74" height="49.92"/><polygon class="cls-36" points="228.13 301.44 228.13 317.12 264.86 280.38 264.86 270.93 258.64 270.93 228.13 301.44"/><path class="cls-37" d="M264.86,303V292l-28.81,28.81h11Z"/><rect class="cls-26" x="223.42" y="263.63" width="46.14" height="7.3"/><rect class="cls-26" x="223.42" y="320.85" width="46.14" height="7.3"/><rect class="cls-19" x="228.13" y="270.93" width="36.74" height="4.42"/><rect class="cls-19" x="228.13" y="294.89" width="36.74" height="4.42"/><line class="cls-14" x1="246.49" y1="272.27" x2="246.49" y2="320.85"/><line class="cls-14" x1="228.13" y1="295.89" x2="264.86" y2="295.89"/><rect class="cls-16" x="368.8" y="270.93" width="36.74" height="49.92"/><polygon class="cls-38" points="405.53 304.38 405.53 287.37 372.05 320.85 389.06 320.85 405.53 304.38"/><path class="cls-39" d="M368.8,303.44v15l36.74-36.74V270.93H401.3Z"/><rect class="cls-26" x="364.09" y="263.63" width="46.14" height="7.3"/><rect class="cls-19" x="368.8" y="270.93" width="36.74" height="4.42"/><rect class="cls-19" x="368.8" y="294.89" width="36.74" height="4.42"/><rect class="cls-26" x="364.09" y="320.85" width="46.14" height="7.3"/><line class="cls-14" x1="387.16" y1="270.93" x2="387.16" y2="320.85"/><line class="cls-14" x1="368.8" y1="295.89" x2="405.53" y2="295.89"/><rect class="cls-16" x="298.01" y="270.93" width="36.74" height="49.92"/><path class="cls-40" d="M334.75,281.83v-10.9h-8.11L298,299.56v19Z"/><rect class="cls-14" x="228.13" y="270.93" width="36.74" height="49.92"/><rect class="cls-19" x="298.01" y="270.93" width="36.74" height="4.42"/><rect class="cls-14" x="368.8" y="270.93" width="36.74" height="49.92"/><rect class="cls-14" x="298.01" y="270.93" width="36.74" height="49.92"/><rect class="cls-26" x="293.31" y="263.63" width="46.14" height="7.3"/><rect class="cls-19" x="298.01" y="294.89" width="36.74" height="4.42"/><rect class="cls-26" x="293.31" y="320.85" width="46.14" height="7.3"/><line class="cls-14" x1="316.38" y1="270.93" x2="316.38" y2="320.85"/><line class="cls-14" x1="298.01" y1="295.89" x2="334.75" y2="295.89"/><rect class="cls-14" x="364.09" y="369.05" width="46.14" height="64.46"/><rect class="cls-16" x="368.8" y="376.35" width="36.74" height="49.92"/><path class="cls-41" d="M368.8,425.44v.83H379l26.56-26.56v-11Z"/><path class="cls-42" d="M388,426.27h17.57V408.7Z"/><rect class="cls-14" x="368.8" y="376.35" width="36.74" height="49.92"/><rect class="cls-19" x="368.8" y="400.21" width="36.74" height="4.42"/><rect class="cls-19" x="368.8" y="376.26" width="36.74" height="4.42"/><rect class="cls-26" x="364.09" y="369.05" width="46.14" height="7.3"/><rect class="cls-26" x="364.09" y="426.27" width="46.14" height="7.3"/><line class="cls-14" x1="387.16" y1="376.35" x2="387.16" y2="426.27"/><line class="cls-14" x1="368.8" y1="401.31" x2="405.53" y2="401.31"/><rect class="cls-14" x="368.8" y="376.35" width="36.74" height="49.92"/><rect class="cls-33" x="228.13" y="376.35" width="36.74" height="49.92"/><rect class="cls-14" x="223.42" y="369.05" width="46.14" height="64.46"/><rect class="cls-26" x="223.42" y="369.05" width="46.14" height="7.3"/><rect class="cls-26" x="223.42" y="426.27" width="46.14" height="7.3"/><rect class="cls-34" x="228.13" y="376.26" width="36.74" height="4.42"/><rect class="cls-34" x="228.13" y="400.21" width="36.74" height="4.42"/><line class="cls-14" x1="246.49" y1="376.35" x2="246.49" y2="426.27"/><line class="cls-14" x1="228.13" y1="401.31" x2="264.86" y2="401.31"/><rect class="cls-14" x="228.13" y="376.35" width="36.74" height="49.92"/><rect class="cls-30" x="351.71" y="358.61" width="12.39" height="6.95" rx="2.47" ry="2.47"/><rect class="cls-30" x="365.86" y="358.61" width="12.39" height="6.95" rx="2.47" ry="2.47"/><rect class="cls-30" x="358.66" y="350.66" width="12.39" height="6.95" rx="2.47" ry="2.47"/></g></g></g></svg>