<svg xmlns="http://www.w3.org/2000/svg" xmlns:xlink="http://www.w3.org/1999/xlink" viewBox="0 0 600 600"><defs><style>.cls-1,.cls-14,.cls-16,.cls-4{fill:#444a54;}.cls-1,.cls-12,.cls-15,.cls-16,.cls-2,.cls-3,.cls-4,.cls-5{stroke:#323854;stroke-linecap:round;stroke-linejoin:round;}.cls-1{stroke-width:1.6px;}.cls-2{fill:#818387;}.cls-12,.cls-15,.cls-2,.cls-3,.cls-4,.cls-5{stroke-width:4px;}.cls-3{fill:none;}.cls-5{fill:#707d87;}.cls-6{fill:#fff;}.cls-7{fill:#adadad;}.cls-8{fill:url(#linear-gradient);}.cls-12,.cls-9{fill:#efefef;}.cls-10{fill:url(#linear-gradient-2);}.cls-11{fill:url(#linear-gradient-3);}.cls-13{fill:url(#linear-gradient-4);}.cls-15{fill:#ff6161;}.cls-16{stroke-width:3.59px;}</style><linearGradient id="linear-gradient" x1="287.48" y1="334.19" x2="278.48" y2="275.69" gradientUnits="userSpaceOnUse"><stop offset="0" stop-color="#707175" stop-opacity="0"/><stop offset="0.94" stop-color="#efefef"/></linearGradient><linearGradient id="linear-gradient-2" x1="116.55" y1="413.22" x2="320.74" y2="413.22" gradientUnits="userSpaceOnUse"><stop offset="0" stop-color="#707175"/><stop offset="1" stop-color="#fff" stop-opacity="0"/></linearGradient><linearGradient id="linear-gradient-3" x1="180.3" y1="572" x2="180.3" y2="302" xlink:href="#linear-gradient"/><linearGradient id="linear-gradient-4" x1="404.82" y1="197.68" x2="404.82" y2="697.97" xlink:href="#linear-gradient-2"/></defs><title>Images</title><g id="Color_Images" data-name="Color Images"><g id="Camera"><path class="cls-1" d="M186.75,309.61l-15.74.06v-3.94a2.36,2.36,0,0,1,2.35-2.37l11,0a2.36,2.36,0,0,1,2.37,2.35Z"/><path class="cls-1" d="M165.17,316l-15.78.06v-3.95a2.37,2.37,0,0,1,2.36-2.37l11,0a2.37,2.37,0,0,1,2.37,2.36Z"/><path class="cls-2" d="M417.33,310.09H177.17a54.43,54.43,0,0,0-54.43,54.43V489.13A27.21,27.21,0,0,0,150,516.34H444.54a27.21,27.21,0,0,0,27.21-27.21V364.52A54.43,54.43,0,0,0,417.33,310.09Z"/><line class="cls-3" x1="89.04" y1="516.48" x2="510.96" y2="516.48"/><path class="cls-1" d="M210.58,309.6l-15.78.06v-3.95a2.37,2.37,0,0,1,2.36-2.37l11,0a2.37,2.37,0,0,1,2.37,2.36Z"/><path class="cls-4" d="M428.8,311.35l-40.58.15,0-10.15a6.08,6.08,0,0,1,6.06-6.11l28.41-.11a6.08,6.08,0,0,1,6.11,6.06Z"/><path class="cls-5" d="M327.68,248.57H278.41a4.73,4.73,0,0,0-4.73,4.73v0h58.73v0A4.73,4.73,0,0,0,327.68,248.57Z"/><path class="cls-6" d="M417.72,310.82a54.81,54.81,0,0,0-9-.74H280.38c-23.07,31.94-34.83,71.35-29,110.6,6.33,42.37,35.91,60.16,45.84,70,0,0,165.91,13.45,165.91-1.58V364.52A54.44,54.44,0,0,0,417.72,310.82Z"/><path class="cls-7" d="M397.47,312.64c-1.64-35.49-28.63-57.41-52.4-61.58s-39.26-4.21-64.43,1.57c-16,3.68-29.05,15.85-38,27.08-14.31,17.89-31.7,27.1-56.14,33.85-4,1.11-15,5.6-15,5.6"/><path class="cls-8" d="M397.47,312.64c-1.64-35.49-28.63-57.41-52.4-61.58s-39.26-4.21-64.43,1.57c-16,3.68-29.05,15.85-38,27.08-14.31,17.89-31.7,27.1-56.14,33.85-4,1.11-15,5.6-15,5.6"/><path class="cls-9" d="M280.64,252.63c-16,3.68-29.05,15.85-38,27.08-12,15-26.23,23.91-44.94,30.38h-.44A54.44,54.44,0,0,0,145.69,347c8.38,1,16.94.41,25.3.41,39.6,0,34-35.88,34.14-35.9,37.94-5.92,52.61-6.67,75.08-35.42,8.46-10.82,32.43-18.29,42.38-27.79C309.4,247.57,297.08,248.85,280.64,252.63Z"/><path class="cls-7" d="M415.9,310.09H197.22a54.43,54.43,0,0,0-54.43,54.43V489.13A27.21,27.21,0,0,0,170,516.34h273.1a27.21,27.21,0,0,0,27.21-27.21V364.52a54.37,54.37,0,0,0-54.43-54.43Z"/><path class="cls-10" d="M415.9,310.09H197.22a54.43,54.43,0,0,0-54.43,54.43V489.13A27.21,27.21,0,0,0,170,516.34h273.1a27.21,27.21,0,0,0,27.21-27.21V364.52a54.37,54.37,0,0,0-54.43-54.43Z"/><path class="cls-11" d="M186.75,365.38h-.92c-4.62,0-8.82,3.87-12,10.21V512.3a4.88,4.88,0,0,0,3.09,1.21h9.82Z"/><path class="cls-3" d="M197.22,310.09a54.43,54.43,0,0,0-54.43,54.43V489.13A27.21,27.21,0,0,0,170,516.34h273.1c15,0,28.65-12.18,28.65-27.21V364.52c0-27-28.25-49.41-54-53.69a54.8,54.8,0,0,0-9-.74"/><path class="cls-9" d="M396.16,302.06c-5.9-29.25-29.79-47.26-51.09-51-23.77-4.17-39.26-4.21-64.43,1.57-15.78,3.62-28.6,15.44-37.57,26.51,15.12-8.15,33.26-14.67,46.33.17,5.72,6.49,8.15,14.41,9.13,22.73C331,302.17,363.68,303.37,396.16,302.06Z"/><path class="cls-3" d="M397.47,312.64c-1.64-35.49-28.63-57.41-52.4-61.58s-39.26-4.21-64.43,1.57c-16,3.68-29.05,15.85-38,27.08a80.37,80.37,0,0,1-58.25,30.35c-4.15.23-6.75.25-6.75.25"/><path class="cls-3" d="M191.45,309.34c15.92-3,24.85-6.76,38.6-16.83l11.43-10.4A42.52,42.52,0,0,1,270.1,271h1.19A27.52,27.52,0,0,1,298,292l2,8.08"/><path class="cls-3" d="M291.83,516.34c-11.77-.35-46.08-56.1-46.08-99.79,0-48.25,16.71-81.52,27.2-97.26q.54-.81,1.09-1.58c7.85-11,15-17.29,28.53-17.29h93.25l1.65,215.91Z"/><path class="cls-2" d="M376,513.51c-66,.3-119.61-39.42-120-100.3-.42-60.36,53.74-100.3,120-100.3"/><path class="cls-4" d="M375.43,512.08c-60.65,0-109.82-42.72-109.82-100.3s49.17-100.3,109.82-100.3"/><path class="cls-2" d="M403.26,516.48c-64.18,0-116.21-45.2-116.21-106.13s52-106.13,116.21-106.13"/><circle class="cls-12" cx="404.82" cy="410.35" r="106.13"/><circle class="cls-13" cx="404.82" cy="410.35" r="106.13"/><circle class="cls-12" cx="404.82" cy="410.35" r="83.53"/><circle class="cls-2" cx="404.82" cy="410.35" r="59.37"/><path class="cls-14" d="M454.76,410.35c-1.85,32.74-24.47,59.37-54.65,59.37s-54.65-26.58-54.65-59.37,24.5-60.68,54.65-59.37C430.61,352.3,456.26,383.77,454.76,410.35Z"/><circle class="cls-6" cx="421.61" cy="392.58" r="5.28"/><line class="cls-3" x1="170.04" y1="347.79" x2="127.64" y2="347.79"/><path class="cls-3" d="M238.08,447.73c-8-43.35-1.61-65.55,6.54-92a6.05,6.05,0,0,0-5.7-8H218.64"/><path class="cls-3" d="M127.66,502.45H252.22a5.52,5.52,0,0,0,4.89-8.06c-1.7-3.3-9.77-16.92-9.77-16.92"/><path class="cls-3" d="M246.67,476.88a15.69,15.69,0,1,1-7.78-29.32"/><path class="cls-5" d="M241.32,454.95a8.38,8.38,0,0,0-2.56-.41,8.71,8.71,0,1,0,7,13.85c-.08-.24-.15-.49-.23-.73Q243.18,461.38,241.32,454.95Z"/><circle class="cls-15" cx="228.62" cy="361.41" r="5.73"/><path class="cls-3" d="M201.71,516.43V379.88a20,20,0,0,1,7-15.29,25.1,25.1,0,0,0,8.8-18.46q0-.09,0-.17V327.6a17.6,17.6,0,0,0-17.6-17.6h-19"/><path class="cls-3" d="M205.13,322a18.88,18.88,0,0,1-.35,3.63c-1.28,7.1-7.25,22.15-34.75,22.15"/><ellipse class="cls-16" cx="184.15" cy="328.83" rx="6.96" ry="6.67"/><ellipse class="cls-5" cx="182.72" cy="380.95" rx="4.67" ry="7.64"/><line class="cls-3" x1="130.29" y1="477.01" x2="130.29" y2="393.85"/></g></g></svg>