<svg xmlns="http://www.w3.org/2000/svg" viewBox="0 0 600 600"><defs><style>.cls-1{fill:none;}.cls-1,.cls-11,.cls-2,.cls-3,.cls-9{stroke:#323854;stroke-linecap:round;stroke-linejoin:round;stroke-width:4px;}.cls-2{fill:#acd6e8;}.cls-3{fill:#cae3ed;}.cls-4{fill:#eaf5f9;}.cls-11,.cls-5{fill:#fff;}.cls-6{fill:#cadbe8;}.cls-7{fill:#e2f6ff;}.cls-8{fill:#ffd371;}.cls-9{fill:#bdffdc;}.cls-10{fill:#1dd8ab;}</style></defs><title>Images</title><g id="Color_Images" data-name="Color Images"><g id="Documents"><line class="cls-1" x1="127.29" y1="506.67" x2="472.71" y2="506.67"/><path class="cls-2" d="M366.48,170.76H166.43a8.28,8.28,0,0,0-8.28,8.28V497.63a8.28,8.28,0,0,0,8.28,8.28h239.1a8.28,8.28,0,0,0,8.28-8.28V218.1Z"/><path class="cls-3" d="M377.39,170.76H177.33A8.28,8.28,0,0,0,169,179V497.63a8.28,8.28,0,0,0,8.28,8.28h239.1a8.28,8.28,0,0,0,8.28-8.28V218.1Z"/><path class="cls-4" d="M388.29,170.76H188.24A8.28,8.28,0,0,0,180,179V497.63a8.28,8.28,0,0,0,8.28,8.28h239.1a8.28,8.28,0,0,0,8.28-8.28V218.1Z"/><path class="cls-5" d="M395.16,182.48H262a5.36,5.36,0,0,0-5.52,5.18V386.91a5.36,5.36,0,0,0,5.52,5.18H421.17a5.36,5.36,0,0,0,5.52-5.18V212.09Z"/><path class="cls-6" d="M195.16,495.3a8.28,8.28,0,0,1-8.28-8.28V170.9A8.27,8.27,0,0,0,180,179V497.63a8.28,8.28,0,0,0,8.28,8.28h239.1a8.28,8.28,0,0,0,8.28-8.28v-2.46a8.25,8.25,0,0,1-1.37.14Z"/><path class="cls-7" d="M435.62,223.53H394.21a11.35,11.35,0,0,1-11.35-11.35V170.76h5.43l47.34,47.34Z"/><path class="cls-1" d="M388.29,170.76H188.24A8.28,8.28,0,0,0,180,179V497.63a8.28,8.28,0,0,0,8.28,8.28h239.1a8.28,8.28,0,0,0,8.28-8.28V218.1Z"/><path class="cls-1" d="M212.48,166.32c0-3.62,1.88-6.56,5.5-6.56h0c3.62,0,5.5,2.94,5.5,6.56v31.06a6.56,6.56,0,0,1-6.56,6.56h0a6.56,6.56,0,0,1-6.56-6.56V174.2"/><rect class="cls-8" x="216.92" y="226.6" width="46.27" height="49.02" rx="4.84" ry="4.84"/><rect class="cls-1" x="216.92" y="226.6" width="46.27" height="49.02" rx="4.84" ry="4.84"/><rect class="cls-9" x="216.92" y="320.37" width="180.28" height="71.72" rx="5.74" ry="5.74"/><rect class="cls-1" x="216.92" y="320.37" width="180.28" height="71.72" rx="5.74" ry="5.74"/><line class="cls-1" x1="279.55" y1="226.6" x2="383.9" y2="226.6"/><line class="cls-1" x1="279.55" y1="249.97" x2="394.8" y2="249.97"/><line class="cls-1" x1="279.55" y1="272.55" x2="350.41" y2="272.55"/><line class="cls-1" x1="216.92" y1="294.39" x2="394.8" y2="294.39"/><line class="cls-1" x1="233.61" y1="420.51" x2="246.84" y2="420.51"/><line class="cls-1" x1="274.1" y1="420.51" x2="358.98" y2="420.51"/><line class="cls-1" x1="233.61" y1="443.87" x2="246.84" y2="443.87"/><line class="cls-1" x1="274.1" y1="443.87" x2="394.8" y2="443.87"/><line class="cls-1" x1="233.61" y1="466.45" x2="246.84" y2="466.45"/><path class="cls-10" d="M374.49,370.46c-38.49-21.63-55.68-11.12-74.38-11.12s-23.88-26.2-47.62-26.2-35.56,26.2-35.56,26.2v11.12H397.21"/><line class="cls-1" x1="274.1" y1="466.45" x2="366.77" y2="466.45"/><path class="cls-1" d="M374.49,370.46c-38.49-21.63-55.68-11.12-74.38-11.12s-23.88-26.2-47.62-26.2-35.56,26.2-35.56,26.2v11.12H397.21"/><path class="cls-11" d="M435.62,218H398.54a10.16,10.16,0,0,1-10.16-10.16V170.76Z"/></g></g></svg>