<svg xmlns="http://www.w3.org/2000/svg" xmlns:xlink="http://www.w3.org/1999/xlink" viewBox="0 0 600 600"><defs><style>.cls-1{fill:#8df;stroke-miterlimit:10;}.cls-1,.cls-4,.cls-7{stroke:#323854;stroke-width:4px;}.cls-2{fill:url(#linear-gradient);}.cls-3{fill:#36bbf9;}.cls-4,.cls-6{fill:none;}.cls-4,.cls-7{stroke-linecap:round;stroke-linejoin:round;}.cls-5{fill:#fff;}.cls-7{fill:#ffd371;}.cls-8{fill:#1dd8ab;}.cls-9{fill:#21aa8f;}</style><linearGradient id="linear-gradient" x1="354.37" y1="281.02" x2="264.37" y2="431.02" gradientTransform="translate(0.69 -0.57) rotate(0.11)" gradientUnits="userSpaceOnUse"><stop offset="0" stop-color="#fff" stop-opacity="0.6"/><stop offset="0.16" stop-color="#f7fcff" stop-opacity="0.61"/><stop offset="0.34" stop-color="#dff5ff" stop-opacity="0.66"/><stop offset="0.53" stop-color="#b7e8ff" stop-opacity="0.72"/><stop offset="0.72" stop-color="#80d7fe" stop-opacity="0.82"/><stop offset="0.92" stop-color="#39c1fe" stop-opacity="0.94"/><stop offset="1" stop-color="#18b6fe"/></linearGradient></defs><title>Images</title><g id="Color_Images" data-name="Color Images"><g id="Earth"><circle class="cls-1" cx="300" cy="362.92" r="146.43" transform="translate(-0.68 0.57) rotate(-0.11)"/><ellipse class="cls-2" cx="301.98" cy="368.32" rx="133.18" ry="141.03" transform="translate(-0.69 0.57) rotate(-0.11)"/><path class="cls-3" d="M239.07,229.73a146,146,0,0,0-20.57,11.54c2.39.28,4.68.86,6.93,1.23A130,130,0,0,1,239.07,229.73Z"/><path class="cls-3" d="M397.69,454.41c.17-5.55,1.29-16,.61-21.2a129.41,129.41,0,0,1-104.64,23.41c-1.42,4.83-3.31,9.63-6.06,11.71-5.64,4.26-15.39,3.77-16.4,9.93s7.74,22.57,7.75,26.67-19.52-8.17-23.13-18.43c-2.91-8.26-2.86-34.5-4.07-46.81a129.4,129.4,0,0,1-56.82-78.31c-2.31,0-4.34-.48-5.55-2-3.6-4.61-7.23-23.59-8.26-28.21s-2.59-10.26-5.15-9.23-4.6,7.71-6.66,7.2c-1.6-.4-5.38-9.48-7.23-15.43A146.44,146.44,0,0,0,405,464.94C401.12,462.37,397.55,458.85,397.69,454.41Z"/><path class="cls-3" d="M374.66,278.82c-3.59,2.31-14-3.06-18.65-1.78s-9.22,8-6.14,12.06,8.62,2.26,5.26,3.52a14.92,14.92,0,0,0-8.75,8.44c-1.05,2.57-2.55,14.23,2.55,15.76s23.75-1.48,28.88-5.51,12.82-3,18.47-1,8.75,11.36,23.62,8.47c5.6-1.09,13.27-6,16.62-8.91-9.17-25.91-25.72-46.27-44.28-61.2C392.24,248.69,378.25,276.52,374.66,278.82Z"/><circle class="cls-4" cx="300" cy="362.92" r="146.43" transform="translate(-0.68 0.57) rotate(-0.11)"/><path class="cls-3" d="M350.31,269.11c1.65,3.74,6.86,1.82,9.61,0s7.33-6.43,5.95-8.73-7.34-3.66-10.09-2.27S348.49,265,350.31,269.11Z"/><path class="cls-5" d="M354.26,265.68c1.15,2.6,4.77,1.27,6.69,0s5.1-4.48,4.14-6.07-5.11-2.54-7-1.58S353,262.81,354.26,265.68Z"/><path class="cls-4" d="M354.26,265.68c1.15,2.6,4.77,1.27,6.69,0s5.1-4.48,4.14-6.07-5.11-2.54-7-1.58S353,262.81,354.26,265.68Z"/><path class="cls-3" d="M165.17,322.1c2.56-1,6.74,8.52,7.78,13.14s4.66,23.6,8.26,28.21,14.37,0,18.48,0,15.44,11.91,19.53,14.95c4.72,3.5,6.16,3,1,11.88s-3,19.33-.46,28.56,20,14.33,22.62,18.95,1.62,42.59,5.23,52.85S262,488.51,263,482.35s10.77-5.67,16.4-9.93,7.66-19.88,9.42-24,8-1.55,12.08-5.67,9.71-22.09,12.25-36.46-15.42-12.8-24-16.2-7.87-2.73-14.56-11.86-19-3.14-22.07-2.11-10.28-6.65-13.36-6.38-5.17,4.49-10.62,3.14c-3-.74-6.84-7-10.43-9s-1.05-12.83-5.16-16.41-15.39,5.16-19,1.58,8.65-13.8,15.83-15.87S237,346,241.79,337.86c1.92-3.3,4.94-11.74,9.72-18.87,4.17-6.21,10.13-11.25,12-13.4,4.1-4.63,21,4.59,33.19-11.13,3.16-4.07-12.54-17.42-20.24-20.49s-24.11,7.74-28.72,8.27.06-5.09,3.65-9.46c1.23-1.5,4.09-7.33,12.05-8.2,15.33-1.68,33.73,2.71,33.34-11.9-.14-5.19-20.88-6.92-26.53-7.58s-21.54,6.86-27.7,5.85-13.86-4.48-20.54-4C201.36,248.28,162.61,323.13,165.17,322.1Z"/><path class="cls-5" d="M169.3,329.11c2.05.51,4.09-6.17,6.66-7.2s4.11,4.61,5.15,9.23,4.66,23.6,8.26,28.21,14.37,0,18.48,0,15.44,11.91,19.53,14.95c4.72,3.5,6.16,3,1,11.88s-3,19.33-.46,28.56,20,14.33,22.62,18.95,1.62,42.59,5.23,52.85,23.14,22.54,23.13,18.43-8.76-20.51-7.75-26.67,10.77-5.67,16.4-9.93,7.66-19.88,9.42-24,8-1.55,12.08-5.67,9.71-22.09,12.25-36.46-15.42-12.8-24-16.2-7.87-2.73-14.56-11.86-19-3.14-22.07-2.11-10.28-6.65-13.36-6.38-10.25,8.47-13.33,8.58-4.13-12.41-7.73-14.46-1.05-12.83-5.16-16.41-15.39,5.16-19,1.58,7.67-13.36,14.85-15.42,15.41,6.64,19,4.58,5.63-8.22,8.18-14.9,15.88-17,20-21.59,10.27.49,14.89,2.54,15.39-4.13,17.66-8.76-4.37-18.47-12.07-21.53-24.11,7.74-28.72,8.27-5.16-12.31-1.57-16.68,23.6-1.32,32.32-3.65,10.77-2.33,10-7.46-12.56-8.7-18.21-9.36-21.54,6.86-27.7,5.85-13.87-4.59-20.54-4c-3.81.32-7.63-1.06-11.72-1.54a146.85,146.85,0,0,0-56.42,72.41C163.91,319.63,167.7,328.71,169.3,329.11Z"/><path class="cls-6" d="M219.11,368.35c3.6,2,4.65,14.56,7.73,14.46,1.1,0,2.73-1.12,4.5-2.49,1-3.11-.66-3.6-4-6-2.09-1.55-6.07-5.42-10-8.83A4.33,4.33,0,0,0,219.11,368.35Z"/><path class="cls-7" d="M264,486.81c-.47,2.88,1.19,8,3.09,13,5.94,4.62,11.88,7.35,11.87,5.08,0-3.62-6.79-16.76-7.72-24.06C267.61,482.11,264.53,483.5,264,486.81Z"/><path class="cls-8" d="M277.44,278.43c-7.7-3.06-24.11,7.74-28.72,8.27s-5.16-12.31-1.57-16.68c.85-1,2.64-1.66,5-2a12.82,12.82,0,0,1,2.23-6.53c3.58-4.37,23.6-1.32,32.32-3.65l2.08-.55c-2.69-4.24-12.52-7.13-17.54-7.71-5.65-.66-21.54,6.86-27.7,5.85s-13.87-4.59-20.54-4c-3.81.32-7.63-1.06-11.72-1.54A147.18,147.18,0,0,0,184.42,273a146.15,146.15,0,0,0-22.35,40.65c1.85,5.95,5.64,15,7.23,15.43,2.05.51,4.09-6.17,6.66-7.2s4.11,4.61,5.15,9.23,4.66,23.6,8.26,28.21,14.37,0,18.48,0c2,0,5.75,2.85,9.52,6.12-1-4.06-.33-10.81-3.42-13.5-4.11-3.58-15.39,5.16-19,1.58-2.34-2.33,1.6-7.26,6.61-11,.92-4.4,9.57-11.28,15.46-13,6.26-1.8,13.31,4.58,17.39,4.88a2.74,2.74,0,0,0,1.6-.3c3.59-2.06,5.63-8.22,8.18-14.9a12.2,12.2,0,0,1,.84-1.69c3.83-6.62,15.37-15.65,19.13-19.9,4.1-4.63,10.27.49,14.89,2.54,2.57,1.14,7-.27,10.89-2.54C290,291.79,284.11,281.08,277.44,278.43Z"/><path class="cls-8" d="M290.15,394.57c-8.56-3.39-7.87-2.73-14.56-11.86s-19-3.14-22.07-2.11-10.28-6.65-13.36-6.38c-2,.18-6.64.62-9.82,3.09-.44,1.34-.38,6.15-1.91,8.83-5.12,8.92-3,19.33-.46,28.56s20,14.33,22.62,18.95,1.62,42.59,5.23,52.85c1.62,4.6,6.43,9.6,11.25,13.35-1.9-5-3.56-10.16-3.09-13,.55-3.32,3.63-4.7,7.24-5.94a9.32,9.32,0,0,1,0-2.61c.86-5.24,8-5.67,13.64-8.31a15.5,15.5,0,0,0,2.77-1.62c4.06-3.07,6.25-12,7.81-18.34a45.55,45.55,0,0,1,1.61-5.65c1.31-3.06,5.09-2.43,8.63-3.6,3.28-7.58,6.67-19.69,8.48-30C316.67,396.39,298.71,398,290.15,394.57Z"/><path class="cls-5" d="M376,272c-3.59,2.31-9.75-1.25-14.37,0s-9.22,8-6.14,12.06,11.81,4.6,11.82,8.19-11.74,5.15-12.79,7.72-5.08,10.27,0,11.8,19.47-3.28,24.59-7.32,12.82-3,18.47-1,8.75,11.36,23.62,8.47a28.37,28.37,0,0,0,13.38-6.75,146.87,146.87,0,0,0-42.94-56.49S379.6,269.71,376,272Z"/><path class="cls-3" d="M435.28,329.06c-5-.43-17.57-1.54-24.06-2.34-8.21-1-14.88,3.62-19.2,4.66s-7-4.09-16.73-6.64-16.12-5.23-23.23-.08S330.66,337,330.71,362.8c0,10.78,12.86,14.86,24.67,18s16.93-2.19,23.61,0,4.33,23.19,2.29,31.41,9.1,22.36,10.94,25.43.25,16.94,0,23.61c-.14,4.44,48.82-52,48.74-91.77A146.51,146.51,0,0,0,435.28,329.06Z"/><path class="cls-5" d="M440.71,322.25c-5-.43-17.57-1.54-24.06-2.34-8.21-1-14.88,3.62-19.2,4.66s-7-4.09-16.73-6.64-21.55,1.58-28.65,6.73S336.12,345.22,336.14,356s12.86,14.86,24.67,18,16.93-2.19,23.61,0,5.7,28.63,3.66,36.84,7.73,16.92,9.57,20,.25,16.94,0,23.61c-.14,4.44,3.43,8,7.34,10.53a146.63,146.63,0,0,0,35.68-142.69Z"/><path class="cls-6" d="M381.31,312.75a35.78,35.78,0,0,1-8.65,4.47,26,26,0,0,1,8,.71c9.76,2.55,12.41,7.67,16.73,6.64,3.53-.84,8.61-4.08,14.82-4.69-6-2-8.64-6.72-12.48-8.11C394.14,309.72,386.44,308.71,381.31,312.75Z"/><path class="cls-7" d="M399.81,439a16.66,16.66,0,0,0-1.29-1.73c0,5.47-.69,12.78-.83,17.1a9.27,9.27,0,0,0,2.26,6.1C400.33,453.38,401.47,441.82,399.81,439Z"/><path class="cls-8" d="M379.15,304.51c5.12-4,12.82-3,18.47-1s8.75,11.36,23.62,8.47a28,28,0,0,0,12.19-5.75,147,147,0,0,0-35.27-45.64,4.75,4.75,0,0,0-7.17,1.15l0,0c-4.1,2.26-9.21,16.15-12.8,18.45s-9.75-1.25-14.37,0a10.89,10.89,0,0,0-6.29,5.63c3.81,2.55,9.81,3.4,9.82,6.38,0,1.47-2,2.59-4.34,3.59,3.24,1.41,6.5,2.45,6.51,4.65,0,3.59-11.74,5.15-12.79,7.72-.34.82-1,2.18-1.53,3.69C360.71,313,374.21,308.4,379.15,304.51Z"/><path class="cls-7" d="M412.26,319.88a20.5,20.5,0,0,0,9.47.61c-1.89-.2-3.64-.39-5.09-.57A19.76,19.76,0,0,0,412.26,319.88Z"/><path class="cls-7" d="M359.86,320.32a45,45,0,0,0,12.81-3.1A39.14,39.14,0,0,0,359.86,320.32Z"/><path class="cls-8" d="M442.8,330.49c-5-.43-17.53-1.53-24-2.33-8.21-1-14.88,3.62-19.2,4.66s-7-4.09-16.73-6.64-21.55,1.58-28.65,6.73c-6.82,4.94-15.23,19.36-15.86,30,4.18,5.83,13.6,8.71,22.45,11.07,11.81,3.16,16.93-2.19,23.61,0,2.54.82,4,5.17,4.66,10.7,1.12,9,.26,21.06-1,26.15-.81,3.26.26,6.6,1.94,9.64,2.55,4.6,6.53,8.51,7.63,10.36.65,1.09.87,3.53.87,6.51a16.66,16.66,0,0,1,1.29,1.73c1.66,2.78.53,14.34.14,21.47a21.75,21.75,0,0,0,5.08,4.43A146.49,146.49,0,0,0,442.8,330.49Z"/><path class="cls-3" d="M204.64,251.8q4.31-3.7,8.91-7.07Q209,248.09,204.64,251.8Z"/><path class="cls-3" d="M446.43,362.61q0-2-.06-3.91v.06C446.39,360,446.43,361.32,446.43,362.61Z"/><path class="cls-3" d="M213.85,244.51c1.32-1,2.65-1.89,4-2.8C216.51,242.62,215.17,243.55,213.85,244.51Z"/><path class="cls-3" d="M171.79,292.14q2.78-5,5.93-9.79Q174.57,287.12,171.79,292.14Z"/><polygon class="cls-7" points="162.06 313.68 162.06 313.68 162.06 313.68 162.06 313.68"/><path class="cls-9" d="M255.81,486.5c3.61,10.26,23.14,22.54,23.13,18.43s-8.76-20.51-7.75-26.67,10.77-5.67,16.4-9.93c2.75-2.08,4.64-6.87,6.06-11.71a128.42,128.42,0,0,1-41.91-16.93C253,452,252.9,478.24,255.81,486.5Z"/><path class="cls-9" d="M169.3,329.11c2.05.51,4.09-6.17,6.66-7.2s4.11,4.61,5.15,9.23,4.66,23.6,8.26,28.21c1.21,1.55,3.24,2,5.55,2A129.35,129.35,0,0,1,225.44,242.5c-2.25-.38-4.54-1-6.93-1.23l-.64.43c-1.35.92-2.69,1.85-4,2.8l-.3.22q-4.59,3.37-8.91,7.07l-.06.05q-2.13,1.84-4.19,3.75l-.25.23q-4.14,3.87-8,8l-.1.11q-1.9,2.08-3.73,4.23l-.18.21q-3.66,4.33-7,8.95l-.11.15q-1.66,2.3-3.22,4.67l-.1.16q-3.15,4.77-5.93,9.79l-.1.18q-1.38,2.51-2.67,5.08l0,.08q-2.58,5.16-4.76,10.55l-.09.22q-1.08,2.69-2.06,5.43h0C163.91,319.63,167.7,328.71,169.3,329.11Z"/><path class="cls-7" d="M218.48,241.27l-.62.44.64-.43Z"/><path class="cls-7" d="M181.16,277.37q3.32-4.61,7-8.95Q184.48,272.76,181.16,277.37Z"/><polygon class="cls-7" points="405.03 464.94 405.03 464.94 405.03 464.94 405.03 464.94"/><path class="cls-3" d="M446.36,358.77v-.06c0-.25,0-.49,0-.74C446.35,358.23,446.35,358.5,446.36,358.77Z"/><path class="cls-3" d="M391.7,248.76a147.42,147.42,0,0,1,13.18,12A147.26,147.26,0,0,0,391.7,248.76Z"/><polygon class="cls-3" points="391.69 248.76 391.69 248.76 391.7 248.76 391.69 248.76"/><path class="cls-3" d="M432.91,301.4c.59,1.28,1.15,2.57,1.7,3.86l0,0Q433.8,303.31,432.91,301.4Z"/><path class="cls-9" d="M446.36,358.77a129.26,129.26,0,0,1-48.06,74.45c.68,5.15-.44,15.65-.61,21.2-.14,4.44,3.43,8,7.34,10.53h0q1.19-1.23,2.36-2.49l0,0q1.16-1.25,2.29-2.53l0,0q1.12-1.27,2.22-2.57l0-.05q1.09-1.29,2.15-2.61l.06-.08q1-1.3,2.06-2.63l.09-.12q1-1.31,2-2.64l.11-.15q1-1.32,1.89-2.66l.13-.19q.92-1.32,1.8-2.67l.15-.23q.87-1.32,1.71-2.67l.19-.3q.82-1.32,1.62-2.66l.2-.34q.78-1.32,1.53-2.65l.23-.41q.73-1.31,1.44-2.63l.25-.47q.69-1.3,1.35-2.61l.27-.54q.64-1.29,1.26-2.59l.29-.62q.59-1.27,1.16-2.55l.3-.7q.55-1.25,1.08-2.52l.31-.77c.34-.83.67-1.66,1-2.49l.32-.85c.31-.81.61-1.63.91-2.45l.33-.94c.28-.8.56-1.6.83-2.4.11-.34.22-.68.33-1,.25-.78.51-1.57.75-2.35.11-.37.22-.74.33-1.11.23-.76.45-1.53.67-2.3.11-.4.21-.8.32-1.2.2-.75.4-1.5.59-2.25.11-.43.21-.86.31-1.29.18-.73.36-1.46.52-2.19.1-.46.2-.93.3-1.39.15-.71.31-1.42.45-2.13.1-.5.19-1,.29-1.5.13-.68.26-1.36.38-2s.18-1.07.26-1.61.22-1.31.32-2,.16-1.14.24-1.72.18-1.26.26-1.89.14-1.24.21-1.85.14-1.19.2-1.79.12-1.35.18-2,.1-1.09.14-1.64c.05-.74.09-1.49.14-2.23,0-.49.06-1,.09-1.47,0-.87.07-1.74.09-2.62,0-.37,0-.74,0-1.11q0-1.87,0-3.75v0C446.43,361.32,446.39,360,446.36,358.77Z"/><path class="cls-3" d="M404.91,260.78q4.61,4.74,8.79,9.88Q409.53,265.52,404.91,260.78Z"/><path class="cls-4" d="M169.3,329.11c2.05.51,4.09-6.17,6.66-7.2s4.11,4.61,5.15,9.23,4.66,23.6,8.26,28.21,14.37,0,18.48,0,15.44,11.91,19.53,14.95c4.72,3.5,6.16,3,1,11.88s-3,19.33-.46,28.56,20,14.33,22.62,18.95,1.62,42.59,5.23,52.85,23.14,22.54,23.13,18.43-8.76-20.51-7.75-26.67,10.77-5.67,16.4-9.93,7.66-19.88,9.42-24,8-1.55,12.08-5.67,9.71-22.09,12.25-36.46-15.42-12.8-24-16.2-7.87-2.73-14.56-11.86-19-3.14-22.07-2.11-10.28-6.65-13.36-6.38-10.25,8.47-13.33,8.58-4.13-12.41-7.73-14.46-1.05-12.83-5.16-16.41-15.39,5.16-19,1.58,7.67-13.36,14.85-15.42,15.41,6.64,19,4.58,5.63-8.22,8.18-14.9,15.88-17,20-21.59,10.27.49,14.89,2.54,15.39-4.13,17.66-8.76-4.37-18.47-12.07-21.53-24.11,7.74-28.72,8.27-5.16-12.31-1.57-16.68,23.6-1.32,32.32-3.65,10.77-2.33,10-7.46-12.56-8.7-18.21-9.36-21.54,6.86-27.7,5.85-13.87-4.59-20.54-4c-3.81.32-7.63-1.06-11.72-1.54a146.85,146.85,0,0,0-56.42,72.41C163.91,319.63,167.7,328.71,169.3,329.11Z"/><path class="cls-4" d="M376,272c-3.59,2.31-9.75-1.25-14.37,0s-9.22,8-6.14,12.06,11.81,4.6,11.82,8.19-11.74,5.15-12.79,7.72-5.08,10.27,0,11.8,19.47-3.28,24.59-7.32,12.82-3,18.47-1,8.75,11.36,23.62,8.47a28.37,28.37,0,0,0,13.38-6.75,146.87,146.87,0,0,0-42.94-56.49S379.6,269.71,376,272Z"/><path class="cls-4" d="M440.71,322.25c-5-.43-17.57-1.54-24.06-2.34-8.21-1-14.88,3.62-19.2,4.66s-7-4.09-16.73-6.64-21.55,1.58-28.65,6.73S336.12,345.22,336.14,356s12.86,14.86,24.67,18,16.93-2.19,23.61,0,5.7,28.63,3.66,36.84,7.73,16.92,9.57,20,.25,16.94,0,23.61c-.14,4.44,3.43,8,7.34,10.53a146.63,146.63,0,0,0,35.68-142.69Z"/><path class="cls-4" d="M252.12,213.36a152.73,152.73,0,0,1,131.3,15.47"/><path class="cls-4" d="M163.2,285.21a157.55,157.55,0,0,1,11.22-17"/><path class="cls-4" d="M148.29,404.68a157.49,157.49,0,0,1-5.6-41.46"/><path class="cls-4" d="M457.31,362.63a156.88,156.88,0,0,1-11.16,58.6"/><line class="cls-4" x1="183.2" y1="509.57" x2="417.35" y2="509.13"/></g></g></svg>