<svg xmlns="http://www.w3.org/2000/svg" xmlns:xlink="http://www.w3.org/1999/xlink" viewBox="0 0 600 600"><defs><style>.cls-1{fill:#818387;}.cls-1,.cls-10,.cls-3,.cls-4,.cls-5{stroke:#323854;stroke-linecap:round;stroke-linejoin:round;stroke-width:4px;}.cls-2{fill:#f4ba5d;}.cls-3{fill:none;}.cls-4{fill:#efefef;}.cls-5{fill:#ffd371;}.cls-6{fill:#fd9;}.cls-7{fill:#ff6161;}.cls-8{fill:url(#linear-gradient);}.cls-9{fill:#ff8c80;}.cls-10{fill:#fff;}</style><linearGradient id="linear-gradient" x1="385.35" y1="402.91" x2="572.35" y2="363.91" gradientUnits="userSpaceOnUse"><stop offset="0" stop-color="#fff" stop-opacity="0"/><stop offset="1" stop-color="#ff9583"/></linearGradient></defs><title>Images</title><g id="Color_Images" data-name="Color Images"><g id="Folder"><path class="cls-1" d="M405.87,256.18h-156a21.8,21.8,0,0,0-21.77-20.9H145.33A21.57,21.57,0,0,0,123.8,257.1V486.94A13.19,13.19,0,0,0,137,500.13H405.87a11.75,11.75,0,0,0,11.75-11.75V267.93A11.75,11.75,0,0,0,405.87,256.18Z"/><path class="cls-2" d="M411.68,256.18h-156a21.8,21.8,0,0,0-21.77-20.9H151.14a21.57,21.57,0,0,0-21.52,21.82V486.94a13.19,13.19,0,0,0,13.19,13.19H411.68a11.75,11.75,0,0,0,11.75-11.75V267.93A11.75,11.75,0,0,0,411.68,256.18Z"/><path class="cls-3" d="M411.68,256.18h-156a21.8,21.8,0,0,0-21.77-20.9H151.14a21.57,21.57,0,0,0-21.52,21.82V486.94a13.19,13.19,0,0,0,13.19,13.19H411.68a11.75,11.75,0,0,0,11.75-11.75V267.93A11.75,11.75,0,0,0,411.68,256.18Z"/><rect class="cls-4" x="138.37" y="273.77" width="327.02" height="220.02"/><rect class="cls-4" x="145.63" y="273.77" width="327.02" height="220.02"/><rect class="cls-4" x="154.34" y="273.77" width="311.04" height="220.02"/><path class="cls-5" d="M136.62,499.89l40.74.25H466.57a11.75,11.75,0,0,0,11.75-11.75V267.93a11.75,11.75,0,0,0-11.75-11.75H290.32A13.28,13.28,0,0,0,277,269.31l0,2.85H175.92a11.75,11.75,0,0,0-11.75,11.75c1.19,0,0,199.54,0,207.42"/><path class="cls-6" d="M478.15,379.67V270.21A11.21,11.21,0,0,0,466.94,259H324.32l132,20Z"/><path class="cls-2" d="M175.92,272.15a11.75,11.75,0,0,0-11.75,11.75c1.19,0,0,199.54,0,207.42l-27.55,8.57,40.74.25H466.57a11.75,11.75,0,0,0,11.75-11.75l-286.16-5.14Z"/><path class="cls-1" d="M123.8,396.91v88.71c0,7.08,7.19,14.27,14.27,14.27l15,.12a18.63,18.63,0,0,0,18.76-18.63V285.62a12.48,12.48,0,0,1,12.48-12.48H284.4l0-3a14.1,14.1,0,0,1,14.1-13.94h-8.22A13.28,13.28,0,0,0,277,269.31l0,2.85H175.92a11.75,11.75,0,0,0-11.75,11.75V482.7a10.8,10.8,0,0,1-2.89,7.35l-.27.29a10.8,10.8,0,0,1-7.92,3.45H141a10.8,10.8,0,0,1-7.57-3.09l-.59-.58a10.8,10.8,0,0,1-3.24-7.71V396.54"/><path class="cls-2" d="M478.32,461.28H327.62a9.28,9.28,0,0,1-9.28-9.28V355.39a9.28,9.28,0,0,1,9.28-9.28h150.7Z"/><path class="cls-7" d="M478.32,456.92H327.62a9.28,9.28,0,0,1-9.28-9.28V351a9.28,9.28,0,0,1,9.28-9.28h150.7Z"/><path class="cls-8" d="M478.32,456.92H327.62a9.28,9.28,0,0,1-9.28-9.28V351a9.28,9.28,0,0,1,9.28-9.28h150.7Z"/><path class="cls-9" d="M327.62,341.76a9.28,9.28,0,0,0-9.28,9.28V361a9.28,9.28,0,0,1,9.28-9.28h150.7v-9.94Z"/><rect class="cls-10" x="346.14" y="370.97" width="84.51" height="11.88" rx="5.54" ry="5.54"/><rect class="cls-10" x="346.14" y="393.4" width="110.2" height="11.88" rx="5.54" ry="5.54"/><rect class="cls-10" x="346.14" y="416.1" width="98.78" height="11.88" rx="5.54" ry="5.54"/><path class="cls-3" d="M136.62,499.89l38.43.25c2.2.16,291.62,0,291.52,0a11.75,11.75,0,0,0,11.75-11.75V267.93a11.75,11.75,0,0,0-11.75-11.75H290.32A13.28,13.28,0,0,0,277,269.31l0,2.85H175.92a11.75,11.75,0,0,0-11.75,11.75V482.14"/><line class="cls-3" x1="77.28" y1="500" x2="522.72" y2="500"/><line class="cls-3" x1="397.74" y1="512.93" x2="492.1" y2="512.93"/><path class="cls-3" d="M478.32,456.92H327.62a9.28,9.28,0,0,1-9.28-9.28V351a9.28,9.28,0,0,1,9.28-9.28h150.7Z"/><line class="cls-3" x1="388.32" y1="488.24" x2="330.62" y2="488.24"/><line class="cls-3" x1="179.19" y1="322.64" x2="179.19" y2="352.64"/></g></g></svg>