<svg xmlns="http://www.w3.org/2000/svg" xmlns:xlink="http://www.w3.org/1999/xlink" viewBox="0 0 600 600"><defs><style>.cls-1{fill:#f5fcff;}.cls-2{fill:#cadbe8;}.cls-27,.cls-3,.cls-5{fill:none;}.cls-16,.cls-17,.cls-19,.cls-20,.cls-22,.cls-23,.cls-24,.cls-25,.cls-26,.cls-27,.cls-3,.cls-4,.cls-5,.cls-6,.cls-9{stroke:#323854;}.cls-17,.cls-19,.cls-20,.cls-22,.cls-23,.cls-24,.cls-25,.cls-26,.cls-27,.cls-3,.cls-4,.cls-5,.cls-6,.cls-9{stroke-linecap:round;stroke-linejoin:round;}.cls-16,.cls-17,.cls-19,.cls-20,.cls-22,.cls-3,.cls-6,.cls-9{stroke-width:4px;}.cls-4,.cls-6{fill:#777471;}.cls-4,.cls-5{stroke-width:2.4px;}.cls-16,.cls-19,.cls-7{fill:#fff;}.cls-8{fill:#b2c0ce;}.cls-9{fill:#71e1f9;}.cls-10{fill:#2b2b2b;}.cls-11{fill:url(#linear-gradient);}.cls-12{fill:#36bbf9;}.cls-13{fill:url(#linear-gradient-2);}.cls-14{fill:url(#linear-gradient-3);}.cls-15{fill:url(#linear-gradient-4);}.cls-16{stroke-miterlimit:10;}.cls-17{fill:#ffd371;}.cls-18{fill:#444a54;}.cls-20{fill:#ffe8d9;}.cls-21{fill:#d6ecf3;}.cls-22,.cls-23{fill:#21aa8f;}.cls-23,.cls-24,.cls-25,.cls-26,.cls-27{stroke-width:2.53px;}.cls-24{fill:#ff6161;}.cls-25{fill:#efefef;}.cls-26{fill:#ff4151;}</style><linearGradient id="linear-gradient" x1="292.14" y1="349.78" x2="391.13" y2="-11.7" gradientUnits="userSpaceOnUse"><stop offset="0" stop-color="#707175" stop-opacity="0"/><stop offset="0.94" stop-color="#efefef"/></linearGradient><linearGradient id="linear-gradient-2" x1="309.87" y1="188.8" x2="296.87" y2="405.8" gradientUnits="userSpaceOnUse"><stop offset="0" stop-color="#fff" stop-opacity="0.6"/><stop offset="0.16" stop-color="#f7fcff" stop-opacity="0.61"/><stop offset="0.34" stop-color="#dff5ff" stop-opacity="0.66"/><stop offset="0.53" stop-color="#b7e8ff" stop-opacity="0.72"/><stop offset="0.72" stop-color="#80d7fe" stop-opacity="0.82"/><stop offset="0.92" stop-color="#39c1fe" stop-opacity="0.94"/><stop offset="1" stop-color="#18b6fe"/></linearGradient><linearGradient id="linear-gradient-3" x1="741.91" y1="437.48" x2="-116.09" y2="178.48" xlink:href="#linear-gradient-2"/><linearGradient id="linear-gradient-4" x1="751.22" y1="406.65" x2="-106.78" y2="147.65" xlink:href="#linear-gradient-2"/></defs><title>Images</title><g id="Color_Images" data-name="Color Images"><g id="iMac-2" data-name="iMac"><path class="cls-1" d="M214.63,441.25s-5,21.06-8.1,36.75c-2.27,11.43-5.17,27.24,12.92,27.24h55.61c7.75,0,85.25-.13,89.75-.13,4.07,0,3-8.41-2.38-8.41s-59-4.07-68.43-4.07-14.55-8.45-12-21.43c1.69-8.51,4.31-32.1,4.31-32.1Z"/><path class="cls-2" d="M362.43,496.71c-5.37,0-59-4.07-68.43-4.07a12.33,12.33,0,0,1-10.14-5.8c-22,.16-56.72,0-78.75-.32-1.05,9.47.5,18.73,14.34,18.73h55.61c7.75,0,85.25-.13,89.75-.13C368.88,505.12,367.8,496.71,362.43,496.71Z"/><path class="cls-2" d="M283.48,462.19c1.43-10.17,2.86-23.08,2.86-23.08l-71.71,2.14s-2.3,9.76-4.76,20.94Z"/><path class="cls-3" d="M214.63,441.25s-5,21.06-8.1,36.75c-2.27,11.43-5.17,27.24,12.92,27.24h55.61c7.75,0,85.25-.13,89.75-.13,4.07,0,3-8.41-2.38-8.41s-59-4.07-68.43-4.07-14.55-8.45-12-21.43c1.69-8.51,4.31-32.1,4.31-32.1Z"/><path class="cls-4" d="M225.48,500.94c-18.08,0-15.19-15.82-12.92-27.24s5.53-25.72,7.13-32.63l-5.07.18s-5,21.06-8.1,36.75c-2.27,11.43-5.17,27.24,12.92,27.24h55.61c7.75,0,85.25-.13,89.75-.13,2.06,0,2.8-2.15,2.33-4.28-16.29.16-79.26.18-86.06.11C273.34,500.86,250.52,500.94,225.48,500.94Z"/><line class="cls-5" x1="286.34" y1="500.91" x2="286.34" y2="505.25"/><path class="cls-6" d="M492.41,447.63H99.84a11.08,11.08,0,0,1-11.19-11V177.16a11.08,11.08,0,0,1,11.19-11H492.41a11.08,11.08,0,0,1,11.19,11v259.5A11.08,11.08,0,0,1,492.41,447.63Z"/><path class="cls-6" d="M88.82,408.82v27.84a11.08,11.08,0,0,0,11.19,11H492.58a11.08,11.08,0,0,0,11.19-11V408.82Z"/><path class="cls-7" d="M500.16,447.63H107.59a11.08,11.08,0,0,1-11.19-11V177.16a11.08,11.08,0,0,1,11.19-11H500.16a11.08,11.08,0,0,1,11.19,11v259.5A11.08,11.08,0,0,1,500.16,447.63Z"/><path class="cls-8" d="M500.16,447.63H107.59a11.08,11.08,0,0,1-11.19-11V177.16a11.08,11.08,0,0,1,11.19-11H500.16a11.08,11.08,0,0,1,11.19,11v259.5A11.08,11.08,0,0,1,500.16,447.63Z"/><path class="cls-9" d="M500.16,447.63H107.59a11.08,11.08,0,0,1-11.19-11V177.16a11.08,11.08,0,0,1,11.19-11H500.16a11.08,11.08,0,0,1,11.19,11v259.5A11.08,11.08,0,0,1,500.16,447.63Z"/><path class="cls-7" d="M500.16,447.63H107.59a11.08,11.08,0,0,1-11.19-11V177.16a11.08,11.08,0,0,1,11.19-11H500.16a11.08,11.08,0,0,1,11.19,11v259.5A11.08,11.08,0,0,1,500.16,447.63Z"/><path class="cls-10" d="M500.16,447.63H107.59a11.08,11.08,0,0,1-11.19-11V177.16a11.08,11.08,0,0,1,11.19-11H500.16a11.08,11.08,0,0,1,11.19,11v259.5A11.08,11.08,0,0,1,500.16,447.63Z"/><path class="cls-11" d="M500.16,447.63H107.59a11.08,11.08,0,0,1-11.19-11V177.16a11.08,11.08,0,0,1,11.19-11H500.16a11.08,11.08,0,0,1,11.19,11v259.5A11.08,11.08,0,0,1,500.16,447.63Z"/><path class="cls-7" d="M96.4,408.82v27.84a11.08,11.08,0,0,0,11.19,11H500.16a11.08,11.08,0,0,0,11.19-11V408.82Z"/><path class="cls-1" d="M277.29,408.82h-107Q151.77,427.39,133.2,446l-1.67,1.67h107Z"/><path class="cls-1" d="M346.91,417.07l8.23-8.25H322.9l-38.81,38.81h32.33Z"/><path class="cls-3" d="M96.4,408.82v27.84a11.08,11.08,0,0,0,11.19,11H500.16a11.08,11.08,0,0,0,11.19-11V408.82Z"/><rect class="cls-12" x="112.35" y="183.41" width="383.06" height="210.88"/><rect class="cls-13" x="112.35" y="183.41" width="383.06" height="210.88"/><polygon class="cls-14" points="386.76 183.41 290.42 183.41 112.35 361.48 112.35 394.29 175.88 394.29 386.76 183.41"/><path class="cls-15" d="M349,357.45q73.13-73,146.4-146V183.41h-58L391.13,229.7,226.54,394.29h85.62Q330.59,375.87,349,357.45Z"/><rect class="cls-16" x="112.35" y="183.41" width="383.06" height="17.11"/><path class="cls-16" d="M398.75,349.77H166.6a6.75,6.75,0,0,1-6.76-6.75V230.76A6.75,6.75,0,0,1,166.6,224H398.75a6.75,6.75,0,0,1,6.76,6.75V343A6.75,6.75,0,0,1,398.75,349.77Z"/><path class="cls-17" d="M159.84,236v-5.24A6.75,6.75,0,0,1,166.6,224H398.75a6.75,6.75,0,0,1,6.76,6.75V236Z"/><ellipse class="cls-18" cx="304.51" cy="428.22" rx="9.65" ry="9.46"/><path class="cls-19" d="M372.05,393.41H238.23V377.65a6,6,0,0,1,6-6H365.94a6.11,6.11,0,0,1,6.11,6.11Z"/><rect class="cls-3" x="112.35" y="183.41" width="383.06" height="210.88"/><line class="cls-3" x1="137.89" y1="191.96" x2="153.59" y2="191.96"/><line class="cls-3" x1="202.98" y1="191.96" x2="218.68" y2="191.96"/><line class="cls-3" x1="162.8" y1="191.96" x2="175.98" y2="191.96"/><line class="cls-3" x1="185.09" y1="191.96" x2="194.48" y2="191.96"/><line class="cls-3" x1="120.37" y1="191.96" x2="129.76" y2="191.96"/><line class="cls-3" x1="474.71" y1="191.96" x2="485.46" y2="191.96"/><line class="cls-3" x1="454.49" y1="191.96" x2="465.23" y2="191.96"/><line class="cls-3" x1="434.75" y1="191.96" x2="445.5" y2="191.96"/><path class="cls-16" d="M444.4,348H337.82a10.28,10.28,0,0,1-10.28-10.28V291a10.28,10.28,0,0,1,10.28-10.28H444.39A10.28,10.28,0,0,1,454.67,291v46.66A10.28,10.28,0,0,1,444.4,348Z"/><path class="cls-16" d="M327.54,297.11V291a10.28,10.28,0,0,1,10.28-10.28H444.39A10.28,10.28,0,0,1,454.67,291v6.07Z"/><rect class="cls-20" x="348.88" y="307.22" width="88.09" height="28.61"/><ellipse class="cls-18" cx="304.51" cy="174.39" rx="3.32" ry="3.26"/><path class="cls-16" d="M416.25,357.17H188a7.56,7.56,0,0,1-7.56-7.55V224a7.56,7.56,0,0,1,7.56-7.55H416.25a7.56,7.56,0,0,1,7.56,7.55V349.62A7.56,7.56,0,0,1,416.25,357.17Z"/><path class="cls-17" d="M423.44,229.79V224a7.55,7.55,0,0,0-7.55-7.55H188a7.55,7.55,0,0,0-7.55,7.55v5.81Z"/><line class="cls-3" x1="264.47" y1="223.11" x2="352.35" y2="223.11"/><ellipse class="cls-18" cx="189.35" cy="223" rx="2.46" ry="2.41"/><ellipse class="cls-18" cx="196.96" cy="223" rx="2.46" ry="2.41"/><ellipse class="cls-18" cx="204.39" cy="223" rx="2.46" ry="2.41"/><path class="cls-21" d="M298.53,311.9H205.87a6.06,6.06,0,0,1-6-6V252.06a6,6,0,0,1,6-6h92.69a6,6,0,0,1,6,6v53.81A6,6,0,0,1,298.53,311.9Z"/><rect class="cls-19" x="199.82" y="245.68" width="101.59" height="62.86" rx="4.02" ry="4.02"/><path class="cls-21" d="M240.27,337.42a2.82,2.82,0,0,1-2.82-2.82V320.66a2.79,2.79,0,0,1,2.79-2.79h23.93a2.79,2.79,0,0,1,2.79,2.79v13.93a2.82,2.82,0,0,1-2.82,2.82Z"/><path class="cls-21" d="M277.87,337.42a2.82,2.82,0,0,1-2.82-2.82V320.66a2.79,2.79,0,0,1,2.79-2.79h23.93a2.79,2.79,0,0,1,2.79,2.79v13.93a2.82,2.82,0,0,1-2.82,2.82Z"/><path class="cls-21" d="M202.65,337.42a2.82,2.82,0,0,1-2.82-2.82V320.66a2.79,2.79,0,0,1,2.79-2.79h23.93a2.79,2.79,0,0,1,2.79,2.79v13.93a2.82,2.82,0,0,1-2.82,2.82Z"/><rect class="cls-19" x="199.82" y="317.75" width="26.29" height="16.27" rx="1.04" ry="1.04"/><rect class="cls-19" x="237.44" y="318.18" width="26.29" height="16.27" rx="1.04" ry="1.04"/><rect class="cls-19" x="275.04" y="317.75" width="26.29" height="16.27" rx="1.04" ry="1.04"/><path class="cls-3" d="M327.88,257.43h64.79"/><path class="cls-3" d="M327.46,270.92q37.33.13,74.66,0"/><path class="cls-3" d="M327.49,281.25h58.45"/><path class="cls-3" d="M327.88,292.2h64.79"/><path class="cls-3" d="M327.46,302.54c24.89.09,24.89.08,49.77,0"/><path class="cls-21" d="M389,333.56H332.22A6.33,6.33,0,0,1,326,327.1V327a6.33,6.33,0,0,1,6.19-6.46H389A6.33,6.33,0,0,1,395.2,327v.13A6.33,6.33,0,0,1,389,333.56Z"/><path class="cls-22" d="M385.52,329.59H331.19a5.71,5.71,0,0,1-5.59-5.83v-.12a5.71,5.71,0,0,1,5.59-5.83h54.33a5.71,5.71,0,0,1,5.59,5.83v.12A5.71,5.71,0,0,1,385.52,329.59Z"/><rect class="cls-17" x="244.71" y="378.05" width="8.94" height="8.94" rx="1.74" ry="1.74"/><rect class="cls-23" x="260.37" y="378.05" width="8.94" height="8.94" rx="1.74" ry="1.74"/><rect class="cls-24" x="275.53" y="378.05" width="8.94" height="8.94" rx="1.74" ry="1.74"/><rect class="cls-25" x="291.74" y="378.05" width="8.94" height="8.94" rx="1.74" ry="1.74"/><rect class="cls-26" x="307.4" y="378.05" width="8.94" height="8.94" rx="1.74" ry="1.74"/><rect class="cls-24" x="324.05" y="378.05" width="8.94" height="8.94" rx="1.74" ry="1.74"/><rect class="cls-17" x="340.26" y="378.05" width="8.94" height="8.94" rx="1.74" ry="1.74"/><rect class="cls-24" x="355.92" y="378.05" width="8.94" height="8.94" rx="1.74" ry="1.74"/><circle class="cls-17" cx="315.77" cy="378.81" r="3.32"/><line class="cls-3" x1="199.82" y1="298.94" x2="301.42" y2="298.94"/><polyline class="cls-3" points="199.82 273.73 216.82 256.74 258.97 298.94"/><polyline class="cls-3" points="244.24 284.19 254.62 276.82 279.32 298.94"/><circle class="cls-19" cx="280.9" cy="264.66" r="9.36"/><polyline class="cls-27" points="217.73 220.46 214.42 223.08 217.73 225.47"/><polyline class="cls-27" points="222.16 220.46 225.47 223.08 222.16 225.47"/><line class="cls-3" x1="136.81" y1="505.25" x2="473.47" y2="505.25"/><path class="cls-3" d="M500.16,447.63H107.59a11.08,11.08,0,0,1-11.19-11V177.16a11.08,11.08,0,0,1,11.19-11H500.16a11.08,11.08,0,0,1,11.19,11v259.5A11.08,11.08,0,0,1,500.16,447.63Z"/></g></g></svg>