<svg xmlns="http://www.w3.org/2000/svg" viewBox="0 0 600 600"><defs><style>.cls-1{fill:#777471;}.cls-1,.cls-11,.cls-12,.cls-14,.cls-15,.cls-19,.cls-20,.cls-6,.cls-7,.cls-8{stroke:#323854;stroke-linecap:round;stroke-linejoin:round;}.cls-1,.cls-11,.cls-14,.cls-6,.cls-7{stroke-width:4px;}.cls-11,.cls-12,.cls-2{fill:#fff;}.cls-3{fill:#f5fcff;}.cls-4{fill:#e8f3f9;}.cls-5{fill:#cadbe8;}.cls-15,.cls-19,.cls-20,.cls-6,.cls-8{fill:none;}.cls-7{fill:#ff8c80;}.cls-8{stroke-width:5.3px;}.cls-9{fill:#444a54;}.cls-10{fill:#e2f6ff;}.cls-12,.cls-15{stroke-width:2.65px;}.cls-13{fill:#8eccef;}.cls-14,.cls-18{fill:#36bbf9;}.cls-16{fill:#def2ff;}.cls-17{fill:#9fe4ff;}.cls-19{stroke-width:1.6px;}.cls-20{stroke-width:3.97px;}</style></defs><title>Images</title><g id="Color_Images" data-name="Color Images"><g id="Ipad_Pro" data-name="Ipad Pro"><path class="cls-1" d="M410.36,501.06l-226.5.53a16.37,16.37,0,0,1-16.42-16.31l-1.16-354.32a16.37,16.37,0,0,1,16.31-16.42l226.5-.53a16.37,16.37,0,0,1,16.42,16.31l1.16,354.32A16.37,16.37,0,0,1,410.36,501.06Z"/><path class="cls-2" d="M418.74,501.06l-226.5.53a16.37,16.37,0,0,1-16.42-16.31l-1.16-354.32A16.37,16.37,0,0,1,191,114.53l226.5-.53a16.37,16.37,0,0,1,16.42,16.31l1.16,354.32A16.37,16.37,0,0,1,418.74,501.06Z"/><path class="cls-3" d="M274.71,270Q351,193.64,427.6,117.48A16.28,16.28,0,0,0,417.48,114l-31.73.07-53.87,53.86q-78.24,78.2-156.59,156.29l.15,45.24Q225.06,319.73,274.71,270Z"/><path class="cls-4" d="M295.79,338.38,434.13,200,434,156.84q-42.69,42.68-85.43,85.32-79.84,79.67-159.67,159.35l-13.3,13.31.14,43.63Z"/><path class="cls-3" d="M434.72,381.45l-.28-84.31q-23.64,23.51-47.29,47Q308.27,422.72,229.62,501.5l85.11-.2Q374.76,441.41,434.72,381.45Z"/><path class="cls-5" d="M195.58,489.36A16.37,16.37,0,0,1,179.21,473L179,120.12a16.68,16.68,0,0,0-3.76,10.51V485a16.37,16.37,0,0,0,16.37,16.37H418.75a16.36,16.36,0,0,0,16.31-15.15,16.27,16.27,0,0,1-9.69,3.2Z"/><path class="cls-6" d="M418.74,501.06l-226.5.53a16.37,16.37,0,0,1-16.42-16.31l-1.16-354.32A16.37,16.37,0,0,1,191,114.53l226.5-.53a16.37,16.37,0,0,1,16.42,16.31l1.16,354.32A16.37,16.37,0,0,1,418.74,501.06Z"/><rect class="cls-2" x="187.16" y="154.33" width="236.15" height="293.74"/><rect class="cls-7" x="187.16" y="154.33" width="236.15" height="21.06"/><line class="cls-8" x1="302.94" y1="273.51" x2="392.14" y2="273.51"/><line class="cls-8" x1="314.12" y1="286.56" x2="382.12" y2="286.56"/><line class="cls-8" x1="305.75" y1="298.48" x2="390.49" y2="298.48"/><line class="cls-8" x1="320.08" y1="310.46" x2="376.16" y2="310.46"/><path class="cls-8" d="M341.85,350.3H390"/><path class="cls-8" d="M305.12,350.3H334"/><line class="cls-8" x1="314.12" y1="363.35" x2="382.12" y2="363.35"/><line class="cls-8" x1="324.34" y1="375.26" x2="371.91" y2="375.26"/><line class="cls-8" x1="320.08" y1="387.25" x2="376.16" y2="387.25"/><line class="cls-8" x1="306.21" y1="424.8" x2="320.64" y2="424.8"/><line class="cls-8" x1="329.79" y1="437.85" x2="377.36" y2="437.85"/><circle class="cls-9" cx="309.2" cy="135.44" r="4.48"/><circle class="cls-10" cx="309.2" cy="470.66" r="11.92"/><circle class="cls-11" cx="309.2" cy="470.66" r="11.92"/><circle class="cls-12" cx="242.84" cy="293.18" r="29.59"/><circle class="cls-13" cx="246.76" cy="295.25" r="33.26"/><circle class="cls-14" cx="242.84" cy="293.18" r="29.59"/><path class="cls-2" d="M242.84,322.77a29.53,29.53,0,0,0,23.36-11.44,33.22,33.22,0,0,0-46.72,0A29.53,29.53,0,0,0,242.84,322.77Z"/><path class="cls-6" d="M242.84,322.77a29.53,29.53,0,0,0,23.36-11.44,33.22,33.22,0,0,0-46.72,0A29.53,29.53,0,0,0,242.84,322.77Z"/><polyline class="cls-2" points="234.06 304.95 234.06 277.01 251.63 277.01 251.63 304.95"/><path class="cls-2" d="M261.41,281.17c0,2.46-2.51,4.46-5.6,4.46H229.88c-3.09,0-5.6-2-5.6-4.46h0c0-2.46,2.51-4.46,5.6-4.46h25.93c3.09,0,5.6,2,5.6,4.46Z"/><path class="cls-6" d="M262.84,281.17c0,3-2.7,5.39-6,5.39H228.88c-3.33,0-6-2.41-6-5.39h0c0-3,2.7-5.39,6-5.39h27.93c3.33,0,6,2.41,6,5.39Z"/><polyline class="cls-6" points="234.06 304.95 234.06 277.01 251.63 277.01 251.63 304.95"/><path class="cls-2" d="M257,283.68a14.13,14.13,0,0,1-14.13,14.13h0a14.13,14.13,0,0,1-14.13-14.13V269.75a14.13,14.13,0,0,1,14.13-14.13h0A14.13,14.13,0,0,1,257,269.75Z"/><path class="cls-6" d="M257,283.68a14.13,14.13,0,0,1-14.13,14.13h0a14.13,14.13,0,0,1-14.13-14.13V269.75a14.13,14.13,0,0,1,14.13-14.13h0A14.13,14.13,0,0,1,257,269.75Z"/><path class="cls-6" d="M228.72,277s11.9,1.52,20.43-9.74l7.83,9.44"/><path class="cls-15" d="M234,271.81a23.54,23.54,0,0,0,11.26-6.92"/><circle class="cls-12" cx="242.84" cy="370.97" r="29.59"/><circle class="cls-13" cx="246.76" cy="373.56" r="33.26"/><circle class="cls-14" cx="242.84" cy="370.97" r="29.59"/><path class="cls-11" d="M243,331.54h-.37a18.38,18.38,0,0,0-18.38,18.38V390h37.13V349.92A18.38,18.38,0,0,0,243,331.54Z"/><path class="cls-2" d="M242.84,400.57a29.53,29.53,0,0,0,23.36-11.44,33.22,33.22,0,0,0-46.72,0A29.53,29.53,0,0,0,242.84,400.57Z"/><path class="cls-6" d="M242.84,400.57a29.53,29.53,0,0,0,23.36-11.44,33.22,33.22,0,0,0-46.72,0A29.53,29.53,0,0,0,242.84,400.57Z"/><polyline class="cls-2" points="234.06 382.74 234.06 354.81 251.63 354.81 251.63 382.74"/><polyline class="cls-6" points="234.06 382.74 234.06 354.81 251.63 354.81 251.63 382.74"/><path class="cls-2" d="M257,361.48a14.13,14.13,0,0,1-14.13,14.13h0a14.13,14.13,0,0,1-14.13-14.13V347.54a14.13,14.13,0,0,1,14.13-14.13h0A14.13,14.13,0,0,1,257,347.54Z"/><path class="cls-6" d="M257,347.54v13.93a14.13,14.13,0,0,1-14.13,14.13h0a14.13,14.13,0,0,1-14.13-14.13V347.54"/><path class="cls-6" d="M257,354.51l-7.83-9.44c-8.53,11.26-20.43,9.74-20.43,9.74"/><path class="cls-15" d="M234,349.61a23.54,23.54,0,0,0,11.26-6.92"/><path class="cls-12" d="M272.4,447.73a29.59,29.59,0,0,0-59.11,0Z"/><path class="cls-13" d="M279.7,448.28a33.25,33.25,0,0,0-65.88,0Z"/><path class="cls-14" d="M272.4,447.73a29.59,29.59,0,0,0-59.11,0Z"/><path class="cls-11" d="M261.41,447.73v-19.6A18.38,18.38,0,0,0,243,409.76h-.37a18.38,18.38,0,0,0-18.38,18.38v19.6Z"/><path class="cls-6" d="M234.06,447.22c-.08-4.45-.08-9.75-.08-13.72a4.62,4.62,0,0,1,2.65-1.32c4,1.32,7.94,1.32,13.24,0,2.65,4,0,9.27,1.76,15"/><path class="cls-12" d="M228.72,427.08V441a12.68,12.68,0,0,0,1.54,6.05h25.19A12.68,12.68,0,0,0,257,441V427.08"/><line class="cls-6" x1="206.39" y1="164.29" x2="222.29" y2="164.29"/><line class="cls-6" x1="241.08" y1="164.29" x2="256.98" y2="164.29"/><line class="cls-6" x1="273.08" y1="164.29" x2="288.98" y2="164.29"/><line class="cls-6" x1="391.7" y1="164.29" x2="407.61" y2="164.29"/><line class="cls-6" x1="361.87" y1="164.29" x2="377.77" y2="164.29"/><path class="cls-16" d="M204.31,236.36V194.55c0-1.6.91-2.89,2-2.89H405.46c1.12,0,2,1.29,2,2.89v41.82c0,1.6-.91,2.89-2,2.89H206.34C205.22,239.25,204.31,238,204.31,236.36Z"/><path class="cls-17" d="M242.8,236.36,219.48,217.8c0-1.6,24-26.14,24.76-26.14H385.78c.8,0-22.91,24.55-22.91,26.14l24.35,18.56c0,1.6-.65,2.89-1.44,2.89H244.25C243.45,239.25,242.8,238,242.8,236.36Z"/><path class="cls-18" d="M324.34,236.36,296.12,217.8s28.52-26.14,28.89-26.14h80.45c.37,0,.37,47.59,0,47.59H325C324.64,239.25,324.34,238,324.34,236.36Z"/><line class="cls-6" x1="230.04" y1="433.66" x2="255.65" y2="433.66"/><line class="cls-15" x1="235.14" y1="433.66" x2="235.14" y2="421.41"/><line class="cls-15" x1="238.78" y1="433.66" x2="238.78" y2="427.54"/><line class="cls-15" x1="243.03" y1="409.76" x2="243.03" y2="419.6"/><rect class="cls-6" x="187.16" y="154.33" width="236.15" height="293.74"/><line class="cls-8" x1="327.69" y1="424.8" x2="388.71" y2="424.8"/><path class="cls-19" d="M417,497.47,193.95,498c-8.8,0-14.63-5.82-14.66-14.69l-1.13-350.39c0-8.87,5.75-14.76,14.55-14.79l223.06-.51c8.8,0,14.63,5.82,14.66,14.69l1.13,350.39C431.59,491.55,425.8,497.44,417,497.47Z"/><path class="cls-6" d="M204.31,236.36V194.55c0-1.6.91-2.89,2-2.89H405.46c1.12,0,2,1.29,2,2.89v41.82c0,1.6-.91,2.89-2,2.89H206.34C205.22,239.25,204.31,238,204.31,236.36Z"/><line class="cls-20" x1="138.8" y1="501.59" x2="462.53" y2="501.59"/></g></g></svg>