<svg xmlns="http://www.w3.org/2000/svg" viewBox="0 0 600 600"><defs><style>.cls-1,.cls-10{fill:#fff;}.cls-2{fill:#777471;}.cls-10,.cls-11,.cls-12,.cls-13,.cls-14,.cls-15,.cls-16,.cls-17,.cls-18,.cls-19,.cls-2,.cls-6,.cls-7,.cls-9{stroke:#323854;}.cls-10,.cls-11,.cls-13,.cls-15,.cls-16,.cls-17,.cls-18,.cls-19,.cls-2,.cls-6,.cls-7,.cls-9{stroke-linecap:round;stroke-linejoin:round;}.cls-10,.cls-11,.cls-12,.cls-13,.cls-14,.cls-15,.cls-16,.cls-17,.cls-18,.cls-2,.cls-6,.cls-9{stroke-width:4px;}.cls-3{fill:#f5fcff;}.cls-4{fill:#e8f3f9;}.cls-5{fill:#cadbe8;}.cls-19,.cls-6,.cls-7{fill:none;}.cls-7{stroke-width:1.6px;}.cls-8{fill:#444a54;}.cls-9{fill:#efefef;}.cls-11,.cls-12{fill:#36bbf9;}.cls-12,.cls-14{stroke-miterlimit:10;}.cls-13{fill:#ffd371;}.cls-14{fill:#f29c4e;}.cls-15{fill:#21aa8f;}.cls-16{fill:#d34242;}.cls-17{fill:#2c90db;}.cls-18{fill:#fff8dc;}.cls-19{stroke-width:3.85px;}</style></defs><title>Images</title><g id="Color_Images" data-name="Color Images"><g id="iPhone"><path class="cls-1" d="M368,502.21H225.61a23,23,0,0,1-23-23V143.95a24.34,24.34,0,0,1,24.34-24.34H369.32a23,23,0,0,1,23,23V477.87A24.34,24.34,0,0,1,368,502.21Z"/><path class="cls-2" d="M365.68,502.21H229.25c-15.45,0-26.67-12.53-26.67-28V147.59c0-15.45,11.22-28,26.67-28H365.68c15.45,0,26.67,12.53,26.67,28V474.23C392.35,489.68,381.13,502.21,365.68,502.21Z"/><path class="cls-1" d="M375.87,502.21H233.46a23,23,0,0,1-23-23V143.95a24.34,24.34,0,0,1,24.34-24.34H377.18a23,23,0,0,1,23,23V477.87A24.34,24.34,0,0,1,375.87,502.21Z"/><path class="cls-3" d="M257.06,257.78Q324,191,391,124.18a22.93,22.93,0,0,0-13.78-4.58h-25l-57.84,57.84-84,84v42.83Z"/><path class="cls-3" d="M252.62,314.55,400.21,167V142.64a22.89,22.89,0,0,0-1.9-9.12L338.2,193.63,210.43,321.4v35.34Z"/><polygon class="cls-4" points="386 399.83 386 442.17 400.21 427.97 400.21 385.62 386 399.83"/><polygon class="cls-3" points="329.83 456 283.62 502.21 325.96 502.21 372.17 456 329.83 456"/><path class="cls-5" d="M240.7,491.1a23,23,0,0,1-23-23V132.83a24.24,24.24,0,0,1,1.77-9.1,24.28,24.28,0,0,0-9,18.9V477.87a23,23,0,0,0,23,23H375.87a24.33,24.33,0,0,0,22.57-15.24,24.23,24.23,0,0,1-15.33,5.44Z"/><rect class="cls-1" x="222.21" y="199.31" width="166.22" height="167.1"/><path class="cls-6" d="M373.53,502.21H237.1c-15.45,0-26.67-12.53-26.67-28V147.59c0-15.45,11.22-28,26.67-28H373.53c15.45,0,26.67,12.53,26.67,28V474.23C400.21,489.68,389,502.21,373.53,502.21Z"/><path class="cls-7" d="M372.32,498.67h-134c-14.88,0-24.38-11-24.38-26.16V149.29c0-15.17,9.5-26.16,24.38-26.16h134c14.88,0,24.38,11,24.38,26.16V472.52C396.7,487.69,387.2,498.67,372.32,498.67Z"/><rect class="cls-6" x="222.21" y="364.59" width="166.22" height="94.14"/><circle class="cls-8" cx="276.18" cy="142.11" r="3.08"/><circle class="cls-8" cx="310.55" cy="131.64" r="1.75"/><line class="cls-6" x1="293.84" y1="141.77" x2="326.26" y2="141.77"/><circle class="cls-9" cx="309.24" cy="477.7" r="11.78"/><circle class="cls-10" cx="309.24" cy="477.7" r="11.78"/><rect class="cls-10" x="222.21" y="163.14" width="166.22" height="12.42"/><rect class="cls-9" x="222.21" y="175.56" width="166.22" height="23.75"/><path class="cls-8" d="M258.42,190.93H229.05a1.27,1.27,0,0,1-1.32-1.22v-6a1.27,1.27,0,0,1,1.32-1.22h29.36a1.27,1.27,0,0,1,1.32,1.22v6A1.27,1.27,0,0,1,258.42,190.93Z"/><path class="cls-8" d="M380.34,190.93H350.73a1.28,1.28,0,0,1-1.33-1.22v-6a1.28,1.28,0,0,1,1.33-1.22h29.61a1.28,1.28,0,0,1,1.33,1.22v6A1.28,1.28,0,0,1,380.34,190.93Z"/><path class="cls-6" d="M285.65,187.86h41.43"/><line class="cls-6" x1="207.38" y1="163.14" x2="207.38" y2="179.05"/><line class="cls-6" x1="207.38" y1="189.39" x2="207.38" y2="209.22"/><line class="cls-6" x1="401.51" y1="189.39" x2="401.51" y2="209.22"/><line class="cls-6" x1="207.38" y1="217.8" x2="207.38" y2="237.64"/><line class="cls-6" x1="381.67" y1="169.35" x2="368.16" y2="169.35"/><line class="cls-6" x1="316.21" y1="169.35" x2="302.7" y2="169.35"/><line class="cls-6" x1="251.72" y1="169.35" x2="230.35" y2="169.35"/><path class="cls-11" d="M367.2,231a17.13,17.13,0,0,0-17.13-17.13H300.34a17.13,17.13,0,1,0,0,34.26h49.73a17,17,0,0,0,10.23-3.41v0c3.58,4.57,7.1,6.74,13.95,6.9C370.27,247.25,367,240.46,367.2,231Z"/><path class="cls-11" d="M367.2,330.91a17.13,17.13,0,0,0-17.13-17.13H326.59a17.13,17.13,0,0,0,0,34.26h23.48a17,17,0,0,0,10.23-3.41v0c3.58,4.57,7.1,6.74,13.95,6.9C370.27,347.15,367,340.36,367.2,330.91Z"/><path class="cls-11" d="M239.65,281a17.13,17.13,0,0,1,17.13-17.13h86.28a17.13,17.13,0,1,1,0,34.26H256.78a17,17,0,0,1-10.23-3.41v0c-3.58,4.57-7.1,6.74-13.95,6.9C236.58,297.25,239.84,290.47,239.65,281Z"/><rect class="cls-12" x="234.32" y="395.1" width="22.93" height="22.78" rx="11.28" ry="11.28"/><rect class="cls-13" x="352.9" y="395.1" width="22.93" height="22.78" rx="11.28" ry="11.28"/><rect class="cls-14" x="273.87" y="395.1" width="22.93" height="22.78" rx="11.28" ry="11.28"/><rect class="cls-15" x="313.89" y="395.1" width="22.93" height="22.78" rx="11.28" ry="11.28"/><rect class="cls-16" x="352.9" y="426.83" width="22.93" height="22.78" rx="11.28" ry="11.28"/><rect class="cls-15" x="234.32" y="426.83" width="22.93" height="22.78" rx="11.28" ry="11.28"/><rect class="cls-17" x="313.35" y="426.83" width="22.93" height="22.78" rx="11.28" ry="11.28"/><rect class="cls-18" x="273.33" y="426.83" width="22.93" height="22.78" rx="11.28" ry="11.28"/><rect class="cls-6" x="250.14" y="373.93" width="99.47" height="11.79" rx="5.84" ry="5.84"/><rect class="cls-9" x="357.57" y="373.93" width="22.25" height="11.79" rx="5.84" ry="5.84"/><circle class="cls-9" cx="236.24" cy="379.7" r="6.05"/><line class="cls-6" x1="255.35" y1="280.55" x2="343.67" y2="280.55"/><line class="cls-6" x1="300.2" y1="230.93" x2="349.61" y2="230.93"/><line class="cls-6" x1="324.87" y1="331.77" x2="348.99" y2="331.77"/><rect class="cls-6" x="222.21" y="163.14" width="166.22" height="295.59"/><line class="cls-19" x1="156.02" y1="502.21" x2="448.07" y2="502.21"/></g></g></svg>