<svg xmlns="http://www.w3.org/2000/svg" xmlns:xlink="http://www.w3.org/1999/xlink" viewBox="0 0 801 600"><defs><style>.cls-1,.cls-20{fill:#777471;}.cls-1,.cls-10,.cls-11,.cls-12,.cls-13,.cls-18,.cls-19,.cls-24,.cls-25,.cls-5,.cls-6,.cls-8,.cls-9{stroke:#323854;stroke-linecap:round;stroke-linejoin:round;}.cls-1,.cls-18,.cls-19,.cls-5,.cls-6{stroke-width:4px;}.cls-2{fill:#2b2b2b;}.cls-3{fill:url(#linear-gradient);}.cls-4{fill:#cadbe8;}.cls-24,.cls-25,.cls-5,.cls-8{fill:none;}.cls-16,.cls-6{fill:#fff;}.cls-7{fill:#444a54;}.cls-8{stroke-width:2.35px;}.cls-9{fill:#ffd371;}.cls-10,.cls-11,.cls-12,.cls-13,.cls-9{stroke-width:3px;}.cls-10{fill:#ff4151;}.cls-11,.cls-18{fill:#ff6161;}.cls-12{fill:#efefef;}.cls-13{fill:#21aa8f;}.cls-14,.cls-19{fill:#36bbf9;}.cls-15{fill:url(#linear-gradient-2);}.cls-17{fill:#2c90db;}.cls-21{fill:#e1e1e1;}.cls-22{fill:#adadad;}.cls-23{fill:url(#linear-gradient-3);}.cls-24{stroke-width:4.2px;}.cls-25{stroke-width:1.6px;}</style><linearGradient id="linear-gradient" x1="313.48" y1="609.28" x2="367.48" y2="-58.72" gradientUnits="userSpaceOnUse"><stop offset="0" stop-color="#707175" stop-opacity="0"/><stop offset="0.94" stop-color="#efefef"/></linearGradient><linearGradient id="linear-gradient-2" x1="378.55" y1="270.25" x2="164.55" y2="472.25" gradientUnits="userSpaceOnUse"><stop offset="0" stop-color="#fff" stop-opacity="0"/><stop offset="1" stop-color="#ff9583"/></linearGradient><linearGradient id="linear-gradient-3" x1="425.86" y1="533.16" x2="426.86" y2="460.16" xlink:href="#linear-gradient"/></defs><title>Images</title><g id="Color_Images" data-name="Color Images"><g id="MacBook"><path class="cls-1" d="M499.75,509.27H151.23a13.46,13.46,0,0,1-13.46-13.46v-247a13.51,13.51,0,0,1,13.51-13.51H499.69a13.51,13.51,0,0,1,13.51,13.51v247A13.46,13.46,0,0,1,499.75,509.27Z"/><path class="cls-2" d="M506.89,509.27H158.38a13.46,13.46,0,0,1-13.46-13.46v-247a13.51,13.51,0,0,1,13.51-13.51H506.84a13.51,13.51,0,0,1,13.51,13.51v247A13.46,13.46,0,0,1,506.89,509.27Z"/><path class="cls-3" d="M506.89,509.27H158.38a13.46,13.46,0,0,1-13.46-13.46v-247a13.51,13.51,0,0,1,13.51-13.51H506.84a13.51,13.51,0,0,1,13.51,13.51v247A13.46,13.46,0,0,1,506.89,509.27Z"/><rect class="cls-4" x="164.09" y="252.9" width="337.08" height="223.5"/><rect class="cls-5" x="164.09" y="252.9" width="337.08" height="223.5"/><rect class="cls-6" x="164.09" y="252.34" width="337.08" height="12.12"/><path class="cls-6" d="M469.77,462.57H195.33a9,9,0,0,1-9-9V290.13a8,8,0,0,1,8-8H470.71a8,8,0,0,1,8,8V453.58A9,9,0,0,1,469.77,462.57Z"/><path class="cls-6" d="M478.36,296.31v-6.18a8,8,0,0,0-8-8H194.38a8,8,0,0,0-8,8v6.18Z"/><line class="cls-5" x1="272.44" y1="289.2" x2="401.57" y2="289.2"/><ellipse class="cls-7" cx="195.79" cy="289.09" rx="2.61" ry="2.56"/><ellipse class="cls-7" cx="203.87" cy="289.09" rx="2.61" ry="2.56"/><ellipse class="cls-7" cx="211.78" cy="289.09" rx="2.61" ry="2.56"/><path class="cls-5" d="M220,403.87c19.33.07,12.13.12,45.74,0"/><path class="cls-5" d="M220,414.86h35.64"/><path class="cls-5" d="M220,392.06h35.64"/><path class="cls-5" d="M220.4,426.51h30.14"/><path class="cls-5" d="M220,437.52c26.47.1-.05.08,26.41,0"/><path class="cls-5" d="M309.48,403.87c19.33.07,62,.12,95.62,0"/><path class="cls-5" d="M309.51,414.86h58.32"/><path class="cls-5" d="M309.93,426.51H385.5"/><path class="cls-5" d="M309.48,437.52c26.47.1,11.76.08,38.23,0"/><line class="cls-5" x1="174.96" y1="258.13" x2="187.3" y2="258.13"/><line class="cls-5" x1="196.24" y1="258.13" x2="203.88" y2="258.13"/><line class="cls-5" x1="212.31" y1="258.13" x2="219.94" y2="258.13"/><line class="cls-5" x1="228.54" y1="258.13" x2="240.88" y2="258.13"/><line class="cls-5" x1="462.52" y1="258.13" x2="470.16" y2="258.13"/><line class="cls-5" x1="441.21" y1="258.13" x2="453.55" y2="258.13"/><line class="cls-5" x1="478.76" y1="258.13" x2="491.1" y2="258.13"/><polyline class="cls-8" points="226.41 286.52 223.02 289.2 226.41 291.65"/><polyline class="cls-8" points="230.93 286.52 234.32 289.2 230.93 291.65"/><path class="cls-6" d="M396.85,476.21H270.6V461.53a5.57,5.57,0,0,1,5.54-5.61H391.23a5.65,5.65,0,0,1,5.62,5.69Z"/><rect class="cls-9" x="277.82" y="461.9" width="8.32" height="8.32" rx="1.62" ry="1.62"/><rect class="cls-10" x="292.39" y="461.9" width="8.32" height="8.32" rx="1.62" ry="1.62"/><rect class="cls-11" x="306.51" y="461.9" width="8.32" height="8.32" rx="1.62" ry="1.62"/><rect class="cls-12" x="321.6" y="461.9" width="8.32" height="8.32" rx="1.62" ry="1.62"/><rect class="cls-10" x="336.17" y="461.9" width="8.32" height="8.32" rx="1.62" ry="1.62"/><rect class="cls-13" x="351.67" y="461.9" width="8.32" height="8.32" rx="1.62" ry="1.62"/><rect class="cls-9" x="366.76" y="461.9" width="8.32" height="8.32" rx="1.62" ry="1.62"/><rect class="cls-11" x="381.34" y="461.9" width="8.32" height="8.32" rx="1.62" ry="1.62"/><circle class="cls-9" cx="329.7" cy="462.61" r="3.09"/><path class="cls-14" d="M478.36,296.31h-292v50.05h32.49v27a3.13,3.13,0,0,0,3.13,3.13h51.52a3.13,3.13,0,0,0,3.13-3.13v-27H478.36Z"/><path class="cls-15" d="M258.31,376.52h15.17a3.13,3.13,0,0,0,3.13-3.13V358.22Z"/><path class="cls-5" d="M478.36,296.31h-292v50.05h32.49v27a3.13,3.13,0,0,0,3.13,3.13h51.52a3.13,3.13,0,0,0,3.13-3.13v-27H478.36Z"/><rect class="cls-16" x="217.62" y="322.27" width="60.19" height="55.36" rx="2.74" ry="2.74"/><path class="cls-17" d="M275.08,322.27H220.37a2.74,2.74,0,0,0-2.74,2.74v49.88a2.74,2.74,0,0,0,2.74,2.74h1.15c3.71-12.8,20-17.71,32.13-15a29.46,29.46,0,0,1,20,15h1.46a2.74,2.74,0,0,0,2.74-2.74V325A2.74,2.74,0,0,0,275.08,322.27Z"/><line class="cls-5" x1="305.09" y1="335.71" x2="333.36" y2="335.71"/><line class="cls-5" x1="379.6" y1="335.71" x2="407.87" y2="335.71"/><line class="cls-5" x1="419.82" y1="335.71" x2="438.68" y2="335.71"/><line class="cls-5" x1="345.22" y1="335.71" x2="367.62" y2="335.71"/><rect class="cls-18" x="310.66" y="375.34" width="33.12" height="19.2"/><rect class="cls-6" x="355.87" y="375.34" width="33.12" height="19.2"/><rect class="cls-19" x="401.34" y="375.34" width="33.12" height="19.2"/><circle class="cls-7" cx="336.47" cy="243.87" r="2.56"/><rect class="cls-5" x="217.62" y="322.27" width="60.19" height="55.36" rx="2.74" ry="2.74"/><path class="cls-5" d="M271.51,377.86c-1.73-11.52-11.66-15.13-23.66-15.13s-21.93,3.61-23.66,15.13Z"/><rect class="cls-6" x="232" y="345.87" width="31.71" height="9.08" rx="4.36" ry="4.36"/><polyline class="cls-6" points="240.6 370.3 240.6 355.17 255.1 355.17 255.1 370.3"/><rect class="cls-6" x="235.32" y="327.8" width="24.82" height="33.75" rx="12.28" ry="12.28"/><polyline class="cls-6" points="235.47 344.68 247.73 344.68 250.26 337.65 252.62 344.68 258.89 344.68"/><path class="cls-5" d="M506.89,509.27H158.38a13.46,13.46,0,0,1-13.46-13.46v-247a13.51,13.51,0,0,1,13.51-13.51H506.84a13.51,13.51,0,0,1,13.51,13.51v247A13.46,13.46,0,0,1,506.89,509.27Z"/><path class="cls-20" d="M646.67,509.83l-.2.07a85,85,0,0,1-29.18,5.17H182a85,85,0,0,1-25.84-4l-4.33-1.38a9.21,9.21,0,0,1-6.41-8.77V494h507.3v7.2A9.21,9.21,0,0,1,646.67,509.83Z"/><path class="cls-5" d="M646.67,509.83l-.2.07a85,85,0,0,1-29.18,5.17H182a85,85,0,0,1-25.84-4l-4.33-1.38a9.21,9.21,0,0,1-6.41-8.77V494h507.3v7.2A9.21,9.21,0,0,1,646.67,509.83Z"/><path class="cls-21" d="M657.58,509.83l-.19.07a74.7,74.7,0,0,1-27.25,5.17H223.64a74.57,74.57,0,0,1-24.13-4l-4-1.38a9.17,9.17,0,0,1-6-8.77V494H663.22v7.2A9.2,9.2,0,0,1,657.58,509.83Z"/><path class="cls-22" d="M191.09,506.24a8.63,8.63,0,0,0,4.37,3.42l4,1.38a74.57,74.57,0,0,0,24.13,4h406.5a74.7,74.7,0,0,0,27.25-5.17l.19-.07a8.68,8.68,0,0,0,4.2-3.58Z"/><path class="cls-5" d="M457.33,494.79s1.14,3.8-5.59,3.8H401c-6.73,0-5.59-3.8-5.59-3.8"/><path class="cls-2" d="M657.58,509.83l-.19.07a74.7,74.7,0,0,1-27.25,5.17H223.64a74.57,74.57,0,0,1-24.13-4l-4-1.38a9.17,9.17,0,0,1-6-8.77V494H663.22v7.2A9.2,9.2,0,0,1,657.58,509.83Z"/><path class="cls-23" d="M657.58,509.83l-.19.07a74.7,74.7,0,0,1-27.25,5.17H223.64a74.57,74.57,0,0,1-24.13-4l-4-1.38a9.17,9.17,0,0,1-6-8.77V494H663.22v7.2A9.2,9.2,0,0,1,657.58,509.83Z"/><path class="cls-24" d="M657.58,509.83l-.19.07a74.7,74.7,0,0,1-27.25,5.17H223.64a74.57,74.57,0,0,1-24.13-4l-4-1.38a9.17,9.17,0,0,1-6-8.77V494H663.22v7.2A9.2,9.2,0,0,1,657.58,509.83Z"/><line class="cls-5" x1="625.51" y1="499.77" x2="637.59" y2="499.77"/><ellipse class="cls-7" cx="224.1" cy="512.71" rx="3.3" ry="1.76"/><ellipse class="cls-7" cx="494.03" cy="512.71" rx="3.3" ry="1.76"/><ellipse class="cls-7" cx="358.88" cy="512.71" rx="3.3" ry="1.76"/><ellipse class="cls-7" cx="628.8" cy="512.71" rx="3.3" ry="1.76"/><line class="cls-5" x1="153.16" y1="501.69" x2="156.98" y2="501.69"/><line class="cls-5" x1="161.76" y1="501.69" x2="165.57" y2="501.69"/><line class="cls-5" x1="170" y1="501.69" x2="175" y2="501.69"/><line class="cls-25" x1="148.42" y1="507.11" x2="661.78" y2="507.11"/><line class="cls-24" x1="111.8" y1="517.3" x2="689.2" y2="517.3"/></g></g></svg>