<svg xmlns="http://www.w3.org/2000/svg" viewBox="0 0 600 600"><defs><style>.cls-1,.cls-6{fill:#ffe8d9;}.cls-2{fill:#eabb9b;}.cls-3{fill:none;}.cls-10,.cls-12,.cls-13,.cls-3,.cls-6,.cls-9{stroke:#323854;stroke-width:4px;}.cls-10,.cls-13,.cls-3,.cls-6,.cls-9{stroke-linecap:round;stroke-linejoin:round;}.cls-10,.cls-4{fill:#ff6161;}.cls-5{fill:#ff8c80;}.cls-7,.cls-9{fill:#fff;}.cls-8{fill:#efefef;}.cls-11,.cls-12{fill:#444a54;}.cls-12{stroke-miterlimit:10;}.cls-13{fill:#ffd371;}.cls-14{fill:#fff2eb;}</style></defs><title>Images</title><g id="Color_Images" data-name="Color Images"><g id="Man"><path class="cls-1" d="M368.84,299.62l27.66-.05A30.53,30.53,0,0,0,427,269h0a30.53,30.53,0,0,0-30.58-30.47l-27.66.05"/><path class="cls-2" d="M400.22,288.78l-27.66.05-.09-50.27h-3.74l.11,61.05,27.66-.05a30.51,30.51,0,0,0,30.12-26.13A30.49,30.49,0,0,1,400.22,288.78Z"/><path class="cls-3" d="M368.84,299.62l27.66-.05A30.53,30.53,0,0,0,427,269h0a30.53,30.53,0,0,0-30.58-30.47l-27.66.05"/><path class="cls-4" d="M397.25,268.78a19.59,19.59,0,0,0,19.44-19.63l-.09-47.83c-.11-58-29.36-103.15-111.35-103-74.74.14-111.07,45.38-111,103.41l.13,67.3S343,269.2,397.25,268.78Z"/><path class="cls-5" d="M305.25,113.43c82-.15,111.24,45,111.35,103l.06,33.3c0-.19,0-.37,0-.57l-.09-47.83c-.11-58-29.36-103.15-111.35-103-74.74.14-111.07,45.38-111,103.41l0,12.32C195.35,157.37,231.7,113.57,305.25,113.43Z"/><path class="cls-3" d="M397.25,268.78a19.59,19.59,0,0,0,19.44-19.63l-.09-47.83c-.11-58-29.36-103.15-111.35-103-74.74.14-111.07,45.38-111,103.41l.13,67.3S343,269.2,397.25,268.78Z"/><path class="cls-1" d="M234.16,299.88l-30.54.06A30.53,30.53,0,0,1,173,269.46h0a30.53,30.53,0,0,1,30.47-30.58l36.39-.07"/><path class="cls-2" d="M178.22,261.59A30.37,30.37,0,0,1,181,248.92a30.49,30.49,0,0,0,22.65,51l30.54-.06.74-7.86-26.09,0A30.53,30.53,0,0,1,178.22,261.59Z"/><path class="cls-3" d="M234.16,299.88l-30.54.06A30.53,30.53,0,0,1,173,269.46h0a30.53,30.53,0,0,1,30.47-30.58l36.39-.07"/><path class="cls-6" d="M186.58,258.65h.19a18.78,18.78,0,0,1,18.81,18.74V279"/><path class="cls-7" d="M194.88,407c3,57,50.17,90.78,107.92,90.67s104.82-34,107.57-91.08C392.58,388.53,351,375.88,302.57,376S212.6,388.87,194.88,407Z"/><path class="cls-8" d="M302.77,483.45c-53.27.1-97.54-28.63-106.41-77.85-.51.48-1,1-1.48,1.44,3,57,50.17,90.78,107.92,90.67s104.82-34,107.57-91.08c-.47-.48-1-1-1.48-1.43C400.2,454.45,356,483.35,302.77,483.45Z"/><path class="cls-3" d="M194.88,407c3,57,50.17,90.78,107.92,90.67s104.82-34,107.57-91.08C392.58,388.53,351,375.88,302.57,376S212.6,388.87,194.88,407Z"/><path class="cls-9" d="M305.93,399.53l36.34,20.81-9.58-35.88A20.89,20.89,0,0,0,313.31,369q-5.31-.2-10.75-.19c-2.71,0-5.67.13-8.58.3a20.9,20.9,0,0,0-19.47,18.43l-4.13,35.13Z"/><path class="cls-1" d="M302.8,399.54h-.38a19,19,0,0,1-19-18.94l-.1-54.46,38.34-.07.1,54.46A19,19,0,0,1,302.8,399.54Z"/><path class="cls-2" d="M302.8,399.54h-.38a19,19,0,0,1-19-18.94l-.1-54.46,38.34-.07.1,54.46A19,19,0,0,1,302.8,399.54Z"/><path class="cls-3" d="M302.8,399.54h-.38a19,19,0,0,1-19-18.94l-.1-54.46,38.34-.07.1,54.46A19,19,0,0,1,302.8,399.54Z"/><path class="cls-1" d="M279,164.14c-23.79,0-44.55,14.77-50.41,35.8a84,84,0,0,0-3.09,22.75l0,16.79-12.26,22.63,0,12c.09,50.25,45.43,92.05,100.52,92.6,56,.56,94.29-40.7,94.19-91.6l-.1-52.79a84,84,0,0,0-3.56-24.08C398.16,177.85,377.39,164,354.17,164Z"/><path class="cls-2" d="M317.75,353.87c-55.69-.55-101.79-41.66-104.39-92l-.12.22,0,12c.09,50.25,45.43,92.05,100.52,92.6,42.57.42,74.9-23.35,87.92-57.15C385.23,336.47,355.32,354.24,317.75,353.87Z"/><path class="cls-2" d="M225.94,213.65a84.41,84.41,0,0,0-.47,8.79l.48-.89Z"/><path class="cls-2" d="M225.46,222.7c0-.09,0-.18,0-.26L213.2,245.07l0,12.51c0,1.45.06,2.88.13,4.31l12.14-22.41Z"/><path class="cls-3" d="M279,164.14c-23.79,0-44.55,14.77-50.41,35.8a84,84,0,0,0-3.09,22.75l0,16.79-12.26,22.63,0,12c.09,50.25,45.43,92.05,100.52,92.6,56,.56,94.29-40.7,94.19-91.6l-.1-52.79a84,84,0,0,0-3.56-24.08C398.16,177.85,377.39,164,354.17,164Z"/><path class="cls-10" d="M225.55,221l.05,26.76c0,17.79-5.79,22.81-12.23,22.83L213.06,230"/><circle class="cls-11" cx="279.15" cy="264.22" r="6.76" transform="matrix(1, 0, 0, 1, -0.5, 0.53)"/><circle class="cls-11" cx="373.8" cy="264.05" r="6.76" transform="translate(-0.5 0.7) rotate(-0.11)"/><path class="cls-3" d="M257.69,244.49c8.22-5.72,19.75-8.66,35.27-7.65"/><path class="cls-3" d="M390.63,244.24c-8.24-5.69-19.78-8.59-35.29-7.52"/><path class="cls-12" d="M293.07,295.63a33.13,33.13,0,0,0,31.81,23.7h1.44a33.13,33.13,0,0,0,31.72-23.82Z"/><path class="cls-13" d="M306.27,399.73c-.34-.2.18,98,.18,98"/><line class="cls-13" x1="221.22" y1="448.41" x2="221.25" y2="466.52"/><line class="cls-13" x1="384.23" y1="448.11" x2="384.27" y2="466.22"/><line class="cls-3" x1="307.52" y1="164.09" x2="297.09" y2="174.57"/><line class="cls-3" x1="296.71" y1="164.11" x2="286.27" y2="174.59"/><path class="cls-4" d="M325.57,303a23,23,0,0,0-19.32,10.59,32.92,32.92,0,0,0,18.63,5.73h1.44a32.92,32.92,0,0,0,18.61-5.8A23,23,0,0,0,325.57,303Z"/><path class="cls-3" d="M325.57,303a23,23,0,0,0-19.32,10.59,32.92,32.92,0,0,0,18.63,5.73h1.44a32.92,32.92,0,0,0,18.61-5.8A23,23,0,0,0,325.57,303Z"/><path class="cls-14" d="M252.25,274.25c-3.33,5.08,22.5,24.33,25.8,16.8S255.58,269.17,252.25,274.25Z"/><path class="cls-14" d="M355.33,180.33c8-7.33,43.33,14.63,40,33.31s-54-15.64-40-31.65"/></g></g></svg>