<svg xmlns="http://www.w3.org/2000/svg" xmlns:xlink="http://www.w3.org/1999/xlink" viewBox="0 0 600 600"><defs><style>.cls-1{fill:#21aa8f;}.cls-1,.cls-16,.cls-2,.cls-3,.cls-4,.cls-5,.cls-6{stroke:#323854;stroke-linecap:round;stroke-linejoin:round;stroke-width:4px;}.cls-2{fill:#ccc;}.cls-3{fill:none;}.cls-25,.cls-4{fill:#fff;}.cls-5{fill:#bdffdc;}.cls-6{fill:#ffe8d9;}.cls-7{fill:#4fbc9f;}.cls-8{fill:url(#linear-gradient);}.cls-9{fill:url(#linear-gradient-2);}.cls-10{fill:url(#linear-gradient-3);}.cls-11{fill:#8e8e8e;}.cls-12{fill:url(#linear-gradient-4);}.cls-13{fill:#707175;}.cls-14{fill:#51bfe0;}.cls-15{fill:url(#linear-gradient-5);}.cls-16,.cls-18{fill:#ff6161;}.cls-17{fill:#ffa083;}.cls-19{fill:#1dd8ab;}.cls-20{fill:url(#linear-gradient-6);}.cls-21{fill:url(#linear-gradient-7);}.cls-22{fill:#ff5554;}.cls-23{fill:#ff1f20;}.cls-24{fill:url(#linear-gradient-8);}.cls-25{opacity:0.42;}</style><linearGradient id="linear-gradient" x1="312.9" y1="394.05" x2="443.9" y2="333.05" gradientUnits="userSpaceOnUse"><stop offset="0" stop-color="#fff" stop-opacity="0"/><stop offset="1" stop-color="#9af2c7"/></linearGradient><linearGradient id="linear-gradient-2" x1="163.28" y1="200.26" x2="328.28" y2="590.26" gradientUnits="userSpaceOnUse"><stop offset="0.16" stop-color="#048962"/><stop offset="1" stop-color="#fff" stop-opacity="0"/></linearGradient><linearGradient id="linear-gradient-3" x1="381.63" y1="384.53" x2="454.96" y2="274.53" gradientUnits="userSpaceOnUse"><stop offset="0.16" stop-color="#21aa8f"/><stop offset="1" stop-color="#fff" stop-opacity="0"/></linearGradient><linearGradient id="linear-gradient-4" x1="159.36" y1="455.89" x2="176.69" y2="577.89" gradientUnits="userSpaceOnUse"><stop offset="0" stop-color="#707175"/><stop offset="1" stop-color="#fff" stop-opacity="0"/></linearGradient><linearGradient id="linear-gradient-5" x1="438.64" y1="429.63" x2="458.64" y2="609.63" xlink:href="#linear-gradient-4"/><linearGradient id="linear-gradient-6" x1="367.03" y1="491" x2="567.03" y2="254.33" gradientUnits="userSpaceOnUse"><stop offset="0.16" stop-color="#429586"/><stop offset="1" stop-color="#fff" stop-opacity="0"/></linearGradient><linearGradient id="linear-gradient-7" x1="100.47" y1="461.42" x2="229.8" y2="370.09" xlink:href="#linear-gradient-6"/><linearGradient id="linear-gradient-8" x1="146.22" y1="383.71" x2="356.22" y2="199.71" gradientUnits="userSpaceOnUse"><stop offset="0" stop-color="#fff" stop-opacity="0"/><stop offset="1" stop-color="#ff9583"/></linearGradient></defs><title>Images</title><g id="Color_Images" data-name="Color Images"><g id="Moped"><path class="cls-1" d="M436.65,199.89a12.82,12.82,0,0,1-12.76,12.87c-7,0-11.69-5.76-11.69-12.87S416.83,187,423.88,187A12.82,12.82,0,0,1,436.65,199.89Z"/><path class="cls-2" d="M436.65,199.89c.3,9.27-4.4,13-9.87,12.87s-9.87-5.76-9.87-12.87S421.33,187,426.78,187,436.42,192.78,436.65,199.89Z"/><path class="cls-3" d="M411.32,245.19l33.15-40.56a2.91,2.91,0,0,0-2.25-4.74h-14"/><path class="cls-4" d="M459.78,269.37a2.22,2.22,0,0,1,1.68,2.65h0a2.22,2.22,0,0,1-2.65,1.68L430,268.24a2.22,2.22,0,0,1-1.68-2.65h0a2.22,2.22,0,0,1,2.65-1.68Z"/><path class="cls-5" d="M412.21,255.14a6.34,6.34,0,0,0-7.56,4.8h0a6.34,6.34,0,0,0,4.8,7.56l17.76,4.34a6.34,6.34,0,0,0,7.56-4.8h0a6.34,6.34,0,0,0-4.8-7.56Z"/><ellipse class="cls-5" cx="414.31" cy="254.74" rx="12.88" ry="19.96"/><ellipse class="cls-6" cx="404.84" cy="256.01" rx="9.78" ry="15.16"/><path class="cls-1" d="M410.8,235.54c-12,0-40.2,15.64-40.35,30.29-.05,5.33,19.13,27.24,19.13,27.24h15.26l-15.26-21.91,24.74,3.53s-12.88-3.53-12.88-20C401.44,239.22,410.8,235.54,410.8,235.54Z"/><path class="cls-5" d="M309.21,355.85c-12,0-24.76,17.11-24.76,38.74s15.51,36,27.69,36h33.2v15.16H247.86V355.85Z"/><path class="cls-7" d="M92.56,427.66,133,363.32a40.43,40.43,0,0,1,34.24-18.93H313.32a5.33,5.33,0,0,1,5.33,5.33v.11a5.33,5.33,0,0,1-5.33,5.33H283.24c-13.75,0-28.32,19.58-28.32,44.32s17.74,41.21,31.68,41.21h45.28c7.3,0,13.4-5.13,13.4-41.21V329.56A41.55,41.55,0,0,1,386.83,288H408a41.55,41.55,0,0,1,41.55,41.55V452.1H113.23S88,448.21,92.56,427.66Z"/><path class="cls-8" d="M92.56,427.66,133,363.32a40.43,40.43,0,0,1,34.24-18.93H313.32a5.33,5.33,0,0,1,5.33,5.33v.11a5.33,5.33,0,0,1-5.33,5.33H283.24c-13.75,0-28.32,19.58-28.32,44.32s17.74,41.21,31.68,41.21h45.28c7.3,0,13.4-5.13,13.4-41.21V329.56A41.55,41.55,0,0,1,386.83,288H408a41.55,41.55,0,0,1,41.55,41.55V452.1H113.23S88,448.21,92.56,427.66Z"/><path class="cls-9" d="M274.55,357.67a17.61,17.61,0,0,1,8.7-2.5h30.08a5.33,5.33,0,0,0,5.33-5.33v-.11a5.33,5.33,0,0,0-5.33-5.33H167.21a40.42,40.42,0,0,0-29.93,13.27Z"/><path class="cls-3" d="M92.56,427.66,133,363.32a40.43,40.43,0,0,1,34.24-18.93H313.32a5.33,5.33,0,0,1,5.33,5.33v.11a5.33,5.33,0,0,1-5.33,5.33H283.24c-13.75,0-28.32,19.58-28.32,44.32s17.74,41.21,31.68,41.21h45.28c7.3,0,13.4-5.13,13.4-41.21V329.56A41.55,41.55,0,0,1,386.83,288H408a41.55,41.55,0,0,1,41.55,41.55V452.1H113.23S88,448.21,92.56,427.66Z"/><ellipse class="cls-2" cx="166.3" cy="452.1" rx="59.74" ry="56.33"/><ellipse class="cls-2" cx="448.61" cy="452.1" rx="59.74" ry="56.33"/><path class="cls-5" d="M397.17,385.57V304a7.1,7.1,0,0,1,7.1-7.1h.14a7.09,7.09,0,0,1,7.05,6.3c1.53,13.5,6.06,44.39,15.91,48.82,12.67,5.7,11.4,16.22,11.4,16.22"/><path class="cls-10" d="M418.55,355.16c-9.86-4.44-14.39-35.32-15.91-48.82a7.09,7.09,0,0,0-4.56-5.84,7.06,7.06,0,0,0-.91,3.47v81.09L430,371.39S431.22,360.86,418.55,355.16Z"/><path class="cls-3" d="M418.55,355.16c-9.86-4.44-14.39-35.32-15.91-48.82a7.09,7.09,0,0,0-4.56-5.84,7.06,7.06,0,0,0-.91,3.47v81.09L430,371.39S431.22,360.86,418.55,355.16Z"/><path class="cls-3" d="M397.17,385.57V304a7.1,7.1,0,0,1,7.1-7.1h.14a7.09,7.09,0,0,1,7.05,6.3c1.53,13.5,6.06,44.39,15.91,48.82,12.67,5.7,11.4,16.22,11.4,16.22"/><path class="cls-5" d="M439.71,378.78c0,6.3-3.17,11.4-7.08,11.4H430c-3.91,0-7.08-5.11-7.08-11.4V365.27c0-6.3,3.17-11.4,7.08-11.4h2.62c3.91,0,7.08,5.11,7.08,11.4Z"/><path class="cls-5" d="M363.83,452.1s16.64-88,80.52-86.8c53.45,1,61.45,50.89,64,50.05H419.22"/><ellipse class="cls-11" cx="158.82" cy="452.1" rx="52.26" ry="56.33"/><ellipse class="cls-12" cx="158.82" cy="452.1" rx="52.26" ry="56.33"/><path class="cls-13" d="M126.66,457.35c0-25,18.79-45.24,42-45.24s42,20.26,42,45.24c0,1.09,0,2.16-.12,3.23a61.1,61.1,0,0,0,.59-8.48c0-31.11-23.4-56.33-52.26-56.33S106.56,421,106.56,452.1s23.4,56.33,52.26,56.33a50.34,50.34,0,0,0,37.35-16.95,40.1,40.1,0,0,1-27.54,11.11C145.46,502.6,126.66,482.34,126.66,457.35Z"/><path class="cls-14" d="M210.5,460.58a57.88,57.88,0,0,1-14.32,30.9A46.44,46.44,0,0,0,210.5,460.58Z"/><ellipse class="cls-3" cx="158.82" cy="452.1" rx="52.26" ry="56.33"/><ellipse class="cls-11" cx="441.14" cy="452.1" rx="52.26" ry="56.33"/><ellipse class="cls-15" cx="441.14" cy="452.1" rx="52.26" ry="56.33"/><path class="cls-13" d="M441.14,395.77c-28.87,0-52.26,25.22-52.26,56.33s23.4,56.33,52.26,56.33,52.26-25.22,52.26-56.33S470,395.77,441.14,395.77Zm11.93,99.76c-22.25,0-40.29-19.44-40.29-43.43s18-43.43,40.29-43.43,40.29,19.44,40.29,43.43S475.31,495.53,453.06,495.53Z"/><ellipse class="cls-3" cx="441.14" cy="452.1" rx="52.26" ry="56.33"/><ellipse class="cls-3" cx="441.14" cy="452.1" rx="30.09" ry="32.43"/><ellipse class="cls-16" cx="441.14" cy="452.1" rx="18.48" ry="19.92"/><ellipse class="cls-3" cx="157.98" cy="452.1" rx="30.09" ry="32.43"/><ellipse class="cls-16" cx="157.98" cy="452.1" rx="18.48" ry="19.92"/><path class="cls-17" d="M448.08,448a8.87,8.87,0,0,1-2.55,12.28h0a8.87,8.87,0,0,1-12.28-2.55l-29.18-44.51a8.87,8.87,0,0,1,2.55-12.28h0a8.87,8.87,0,0,1,12.28,2.55Z"/><path class="cls-18" d="M446.24,452.25A8.87,8.87,0,0,1,434,449.7l-29.18-44.51a8.91,8.91,0,0,1-.8-1.54,8.86,8.86,0,0,0,.09,9.57l29.18,44.51a8.87,8.87,0,0,0,15.64-8.19A8.82,8.82,0,0,1,446.24,452.25Z"/><path class="cls-3" d="M448.08,448a8.87,8.87,0,0,1-2.55,12.28h0a8.87,8.87,0,0,1-12.28-2.55l-29.18-44.51a8.87,8.87,0,0,1,2.55-12.28h0a8.87,8.87,0,0,1,12.28,2.55Z"/><path class="cls-19" d="M346.87,452.1s16.63-86.8,80.52-86.8c56.39,0,64,50.05,64,50.05H402.26l-16.9,36.75Z"/><path class="cls-20" d="M485.76,399c.6,2.28.81,3.64.81,3.64H397.45l-16.9,36.75H350.19c-2.35,7.64-3.32,12.67-3.32,12.67h38.5l16.9-36.75h89.12A61.17,61.17,0,0,0,485.76,399Z"/><path class="cls-3" d="M346.87,452.1s16.63-86.8,80.52-86.8c56.39,0,64,50.05,64,50.05H402.26l-16.9,36.75Z"/><path class="cls-5" d="M243.56,413.2c0,21.48-17.85,38.9-39.87,38.9h-72c-22.06,0-39.87-3.17-39.87-17.41,0-25.67,47.27-69.38,86.89-69.38h24.94c22,0,39.87,17.41,39.87,38.9Z"/><path class="cls-19" d="M224.3,413.2c0,21.48-15.61,38.9-34.86,38.9H126.52c-19.29,0-34.86-3.17-34.86-17.41,0-25.67,41.33-69.38,76-69.38h21.8c19.25,0,34.86,17.41,34.86,38.9Z"/><path class="cls-21" d="M139.26,439.35c-17.68.1-34.64-6.62-34.86-17.41-.22-10.45,6.86-23.9,17.33-36.17-17.3,14.81-30.07,34.65-30.07,48.92s15.57,17.42,34.86,17.41h62.91c12.05,0,22.67-6.82,28.94-17.2a31.86,31.86,0,0,1-16.19,4.45Z"/><path class="cls-3" d="M224.3,413.2c0,21.48-15.61,38.9-34.86,38.9H126.52c-19.29,0-34.86-3.17-34.86-17.41,0-25.67,41.33-69.38,76-69.38h21.8c19.25,0,34.86,17.41,34.86,38.9Z"/><path class="cls-22" d="M319,332.35a11.4,11.4,0,0,1-11.4,11.4H191.79a11.4,11.4,0,0,1-11.4-11.4V307a11.4,11.4,0,0,1,11.4-11.4H242a33.48,33.48,0,0,1,22.25,8.47l.19.17a33.48,33.48,0,0,0,22.25,8.47h20.9a11.4,11.4,0,0,1,11.4,11.4Z"/><path class="cls-23" d="M180.42,333a11.39,11.39,0,0,0,11.37,10.77H307.62A11.39,11.39,0,0,0,319,333Z"/><path class="cls-3" d="M319,332.35a11.4,11.4,0,0,1-11.4,11.4H191.79a11.4,11.4,0,0,1-11.4-11.4V307a11.4,11.4,0,0,1,11.4-11.4H242a33.48,33.48,0,0,1,22.25,8.47l.19.17a33.48,33.48,0,0,0,22.25,8.47h20.9a11.4,11.4,0,0,1,11.4,11.4Z"/><path class="cls-23" d="M288.61,332.35a11.4,11.4,0,0,1-11.4,11.4H161.38a11.4,11.4,0,0,1-11.4-11.4V307a11.4,11.4,0,0,1,11.4-11.4H211.6a33.48,33.48,0,0,1,22.25,8.47l.19.17a33.48,33.48,0,0,0,22.25,8.47h20.9a11.4,11.4,0,0,1,11.4,11.4Z"/><path class="cls-24" d="M288.61,332.35a11.4,11.4,0,0,1-11.4,11.4H161.38a11.4,11.4,0,0,1-11.4-11.4V307a11.4,11.4,0,0,1,11.4-11.4H211.6a33.48,33.48,0,0,1,22.25,8.47l.19.17a33.48,33.48,0,0,0,22.25,8.47h20.9a11.4,11.4,0,0,1,11.4,11.4Z"/><path class="cls-23" d="M150,332.33v0a11.4,11.4,0,0,0,11.4,11.4H277.21a11.4,11.4,0,0,0,11.4-11.4v0Z"/><path class="cls-3" d="M288.61,332.35a11.4,11.4,0,0,1-11.4,11.4H161.38a11.4,11.4,0,0,1-11.4-11.4V307a11.4,11.4,0,0,1,11.4-11.4H211.6a33.48,33.48,0,0,1,22.25,8.47l.19.17a33.48,33.48,0,0,0,22.25,8.47h20.9a11.4,11.4,0,0,1,11.4,11.4Z"/><path class="cls-1" d="M333.75,203.42a15.14,15.14,0,0,1-15.08,15.21c-8.33,0-13.81-6.81-13.81-15.21s5.48-15.21,13.81-15.21A15.14,15.14,0,0,1,333.75,203.42Z"/><ellipse class="cls-2" cx="322.09" cy="203.42" rx="11.66" ry="15.21"/><path class="cls-5" d="M377,256.78a6.34,6.34,0,0,1,7.94,4.15h0a6.34,6.34,0,0,1-4.15,7.94l-17.33,5.82a6.34,6.34,0,0,1-7.94-4.15h0a6.34,6.34,0,0,1,4.15-7.94Z"/><path class="cls-4" d="M330.8,275a2.22,2.22,0,0,0-1.45,2.78h0a2.22,2.22,0,0,0,2.78,1.45l28.3-7.88a2.22,2.22,0,0,0,1.45-2.78h0a2.22,2.22,0,0,0-2.78-1.45Z"/><path class="cls-3" d="M383.63,253.16V238.35a7.57,7.57,0,0,0-3.81-6.57L332.36,204.6a8.91,8.91,0,0,0-4.43-1.18h-7.44"/><path class="cls-6" d="M351.51,344.39h-6.21v25.09h6.21a7.6,7.6,0,0,0,7.6-7.6V352A7.6,7.6,0,0,0,351.51,344.39Z"/><line class="cls-3" x1="101.12" y1="509.7" x2="508.22" y2="509.7"/><path class="cls-25" d="M196.17,378.17a3.79,3.79,0,0,1-3.79,3.79H170.69a3.79,3.79,0,0,1-3.79-3.79h0a3.79,3.79,0,0,1,3.79-3.79h21.69a3.79,3.79,0,0,1,3.79,3.79Z"/><path class="cls-25" d="M441.82,378.17A3.79,3.79,0,0,1,438,382H425.21a3.79,3.79,0,0,1-3.79-3.79h0a3.79,3.79,0,0,1,3.79-3.79H438a3.79,3.79,0,0,1,3.79,3.79Z"/></g></g></svg>