<svg xmlns="http://www.w3.org/2000/svg" xmlns:xlink="http://www.w3.org/1999/xlink" viewBox="0 0 801 600"><defs><style>.cls-1{fill:#7c7876;}.cls-2{fill:none;}.cls-10,.cls-2,.cls-3,.cls-4,.cls-5,.cls-6,.cls-7{stroke:#323854;stroke-linecap:round;stroke-linejoin:round;stroke-width:4px;}.cls-3{fill:#818387;}.cls-4{fill:#c9af9d;}.cls-5{fill:#fff;}.cls-6{fill:#efefef;}.cls-17,.cls-7{fill:#36bbf9;}.cls-8{fill:#fff4ee;}.cls-9{fill:#ffe8d9;}.cls-10,.cls-12{fill:#ffd371;}.cls-11{fill:#e2c8b7;}.cls-13{fill:#fd9;}.cls-14{fill:#21aa8f;}.cls-15{fill:url(#linear-gradient);}.cls-16{fill:url(#linear-gradient-2);}.cls-18{fill:url(#linear-gradient-3);}.cls-19{fill:url(#linear-gradient-4);}</style><linearGradient id="linear-gradient" x1="348.24" y1="394.97" x2="310.24" y2="480.97" gradientUnits="userSpaceOnUse"><stop offset="0" stop-color="#fff" stop-opacity="0"/><stop offset="1" stop-color="#9af2c7"/></linearGradient><linearGradient id="linear-gradient-2" x1="362.08" y1="401.08" x2="324.08" y2="487.08" xlink:href="#linear-gradient"/><linearGradient id="linear-gradient-3" x1="484.24" y1="407.7" x2="454.91" y2="508.37" gradientUnits="userSpaceOnUse"><stop offset="0" stop-color="#fff" stop-opacity="0"/><stop offset="1" stop-color="#8df"/></linearGradient><linearGradient id="linear-gradient-4" x1="464.12" y1="401.84" x2="434.79" y2="502.51" xlink:href="#linear-gradient-3"/></defs><title>Images</title><g id="Color_Images" data-name="Color Images"><g id="Notebook-2" data-name="Notebook"><path class="cls-1" d="M597.91,225.57,400.49,235.63,202.31,225.57a14,14,0,0,0-14.57,14V510.73H612.48V239.59A14,14,0,0,0,597.91,225.57Z"/><path class="cls-2" d="M597.91,225.57,400.49,235.63,202.31,225.57a14,14,0,0,0-14.57,14V510.73H612.48V239.59A14,14,0,0,0,597.91,225.57Z"/><rect class="cls-3" x="384.17" y="234.55" width="32.67" height="37.08"/><polygon class="cls-4" points="597.89 510.73 400.5 510.73 400.5 246.34 597.89 238.04 597.89 510.73"/><polygon class="cls-4" points="400.5 510.73 203.11 510.73 203.11 238.04 400.5 246.34 400.5 510.73"/><polyline class="cls-5" points="238.53 289.02 178.47 330.15 238.53 415.33"/><polygon class="cls-4" points="400.5 510.73 211.79 510.73 211.79 238.04 400.5 246.34 400.5 510.73"/><polygon class="cls-6" points="400.5 510.73 221.28 510.73 221.28 238.04 400.5 246.34 400.5 510.73"/><polyline class="cls-7" points="250.54 250.29 250.54 215.52 275.67 216.7 275.67 250.29"/><polygon class="cls-8" points="400.5 510.73 230.83 510.73 230.83 238.04 400.5 246.34 400.5 510.73"/><polygon class="cls-9" points="400.5 510.73 230.83 510.73 336.17 439.2 400.5 246.34 400.5 510.73"/><polygon class="cls-4" points="400.5 510.73 589.21 510.73 589.21 238.04 400.5 246.34 400.5 510.73"/><polyline class="cls-7" points="568.55 283.55 592.93 283.55 592.93 308.27 568.55 308.27"/><polygon class="cls-6" points="400.5 510.73 579.72 510.73 579.72 238.04 400.5 246.34 400.5 510.73"/><polyline class="cls-10" points="559.37 347.59 583.75 347.59 583.75 372.31 559.37 372.31"/><polygon class="cls-9" points="400.5 510.73 570.17 510.73 570.17 238.04 400.5 246.34 400.5 510.73"/><path class="cls-11" d="M389.08,504.41H231.63l-.8,6.32H400.5V246.34l-4-.31-1.56,252.56A5.86,5.86,0,0,1,389.08,504.41Z"/><path class="cls-11" d="M404.5,246l-4,.31V510.73H570.17l.8-6.32H413.48a5.86,5.86,0,0,1-5.86-5.78Z"/><polygon class="cls-2" points="400.5 510.73 230.83 510.73 230.83 238.04 400.5 246.34 400.5 510.73"/><polygon class="cls-2" points="400.5 510.73 570.17 510.73 570.17 238.04 400.5 246.34 400.5 510.73"/><polygon class="cls-5" points="329.56 348.47 250.54 347.28 250.54 266.88 329.56 269.25 329.56 348.47"/><polygon class="cls-12" points="317.47 329.13 262.62 327.94 262.62 280.36 317.47 282.73 317.47 329.13"/><path class="cls-13" d="M302.1,282.07,290,281.55q-13.66,12.64-27.41,25.19v14.82Z"/><path class="cls-13" d="M287.65,304.52l22.12-22.12-2.25-.1-21,21C286.93,303.68,287.28,304.1,287.65,304.52Z"/><path class="cls-13" d="M317.47,290.7v-8l-2.28-.1-45.46,45.46,10.12.22Z"/><polygon class="cls-2" points="317.47 329.13 262.62 327.94 262.62 280.36 317.47 282.73 317.47 329.13"/><rect class="cls-7" x="237.45" y="266.62" width="31.11" height="6.94" transform="translate(-116.88 258.01) rotate(-45)"/><rect class="cls-7" x="310.31" y="346.18" width="31.11" height="6.94" transform="translate(-151.8 332.83) rotate(-45)"/><polygon class="cls-5" points="378.18 470.04 299.16 470.04 299.16 388.45 378.18 389.64 378.18 470.04"/><polygon class="cls-14" points="366.1 450.7 311.24 450.7 311.24 401.93 366.1 403.12 366.1 450.7"/><path class="cls-15" d="M366.1,404.08v-1l-28-.6q-13.45,13.34-26.9,26.69V450.7h8.23Z"/><path class="cls-16" d="M366.1,426V409.73l-41,41h16Q353.65,438.37,366.1,426Z"/><rect class="cls-7" x="367.46" y="382.03" width="6.94" height="31.11" transform="translate(-172.49 378.74) rotate(-45)"/><polygon class="cls-2" points="366.1 450.7 311.24 450.7 311.24 401.93 366.1 403.12 366.1 450.7"/><rect class="cls-7" x="305.27" y="446.18" width="6.94" height="31.11" transform="translate(-236.07 353.56) rotate(-45)"/><polygon class="cls-5" points="502.05 470.04 423.03 470.04 423.03 390.82 502.05 388.45 502.05 470.04"/><polygon class="cls-17" points="489.96 450.7 435.11 450.7 435.11 404.3 489.96 403.12 489.96 450.7"/><polygon class="cls-18" points="453.47 450.7 489.96 450.7 489.96 414.2 453.47 450.7"/><path class="cls-19" d="M484.6,403.23l-23.52.51-26,26v21h2Z"/><polygon class="cls-2" points="489.96 450.7 435.11 450.7 435.11 404.3 489.96 403.12 489.96 450.7"/><rect class="cls-7" x="422.03" y="454.48" width="6.94" height="31.11" transform="translate(-207.74 438.54) rotate(-45)"/><line class="cls-5" x1="285.75" y1="401.13" x2="250.54" y2="400.75"/><line class="cls-5" x1="342.56" y1="374.67" x2="250.54" y2="374.28"/><line class="cls-5" x1="285.75" y1="420.23" x2="250.54" y2="420.23"/><line class="cls-5" x1="285.75" y1="439.2" x2="250.54" y2="439.2"/><line class="cls-5" x1="550.43" y1="421.42" x2="515.22" y2="421.42"/><line class="cls-5" x1="550.43" y1="403.32" x2="515.22" y2="403.71"/><line class="cls-5" x1="550.43" y1="440.38" x2="515.22" y2="440.38"/><line class="cls-5" x1="550.43" y1="458.99" x2="515.22" y2="458.99"/><line class="cls-5" x1="377.78" y1="280.36" x2="342.56" y2="279.18"/><line class="cls-5" x1="377.78" y1="298.66" x2="342.56" y2="297.47"/><line class="cls-5" x1="377.78" y1="317.63" x2="342.56" y2="316.44"/><path class="cls-5" d="M377.78,335.85l-16.35-.55"/><line class="cls-5" x1="548.7" y1="275.62" x2="424.07" y2="281.55"/><line class="cls-5" x1="548.7" y1="295.1" x2="424.07" y2="299.84"/><line class="cls-5" x1="548.7" y1="315.26" x2="424.07" y2="318.81"/><line class="cls-5" x1="548.7" y1="334.08" x2="424.07" y2="336.45"/><line class="cls-5" x1="548.7" y1="353.64" x2="424.07" y2="356.01"/><path class="cls-5" d="M467.08,373.48c-14.18-.76-28.58,1.64-43,.82"/><path class="cls-7" d="M514.17,387.55a12.3,12.3,0,1,1-10-10A12.31,12.31,0,0,1,514.17,387.55Z"/><line class="cls-2" x1="150.34" y1="510.73" x2="650.66" y2="510.73"/></g></g></svg>