<svg xmlns="http://www.w3.org/2000/svg" xmlns:xlink="http://www.w3.org/1999/xlink" viewBox="0 0 600 600"><defs><style>.cls-1{fill:#777471;}.cls-1,.cls-16,.cls-17,.cls-2,.cls-3,.cls-4,.cls-7,.cls-9{stroke:#323854;stroke-linecap:round;stroke-linejoin:round;stroke-width:4px;}.cls-2,.cls-5{fill:#fff;}.cls-3{fill:none;}.cls-4,.cls-6{fill:#efefef;}.cls-12,.cls-7{fill:#ff6161;}.cls-8{fill:#444a54;}.cls-9{fill:#c9af9d;}.cls-10{fill:#e2c8b7;}.cls-11{fill:#f2e0d6;}.cls-13{fill:url(#linear-gradient);}.cls-14{fill:#ff1f20;}.cls-15{fill:url(#linear-gradient-2);}.cls-16{fill:#21aa8f;}.cls-17{fill:#ffd371;}</style><linearGradient id="linear-gradient" x1="247.76" y1="311.87" x2="413.76" y2="147.87" gradientTransform="translate(0.5 -0.56) rotate(0.11)" gradientUnits="userSpaceOnUse"><stop offset="0" stop-color="#fff" stop-opacity="0"/><stop offset="1" stop-color="#ff9583"/></linearGradient><linearGradient id="linear-gradient-2" x1="286.97" y1="278.87" x2="330.97" y2="208.87" xlink:href="#linear-gradient"/></defs><title>Images</title><g id="Color_Images" data-name="Color Images"><g id="Target"><ellipse class="cls-1" cx="280.21" cy="263.75" rx="129.08" ry="132.4" transform="translate(-0.5 0.53) rotate(-0.11)"/><path class="cls-1" d="M182.68,494.61a3.69,3.69,0,0,0,2.36,4.65l.78.25a3.69,3.69,0,0,0,4.65-2.36L249.4,301.26a3.69,3.69,0,0,0-2.36-4.65l-.78-.25a3.69,3.69,0,0,0-4.65,2.36Z"/><path class="cls-2" d="M188.71,494.6a3.69,3.69,0,0,0,2.36,4.65l.78.25a3.69,3.69,0,0,0,4.65-2.36l58.94-195.89a3.69,3.69,0,0,0-2.36-4.65l-.78-.25a3.69,3.69,0,0,0-4.65,2.36Z"/><line class="cls-3" x1="232.32" y1="501.25" x2="246.8" y2="501.25"/><path class="cls-1" d="M393.67,494.21a3.69,3.69,0,0,1-2.35,4.65l-.78.26a3.69,3.69,0,0,1-4.65-2.35L327.73,301.11a3.69,3.69,0,0,1,2.35-4.65l.78-.26a3.69,3.69,0,0,1,4.65,2.35Z"/><path class="cls-2" d="M399.71,494.2a3.69,3.69,0,0,1-2.35,4.65l-.78.26a3.69,3.69,0,0,1-4.65-2.35L333.76,301.1a3.69,3.69,0,0,1,2.35-4.65l.78-.26a3.69,3.69,0,0,1,4.65,2.35Z"/><path class="cls-4" d="M409.16,500.9a13.66,13.66,0,0,0-26.87,0Z"/><path class="cls-1" d="M274,468.3a3.69,3.69,0,0,1-3.68,3.69h-.82a3.69,3.69,0,0,1-3.69-3.68l17.78-169.67a3.69,3.69,0,0,1,3.68-3.69h.82a3.69,3.69,0,0,1,3.69,3.68Z"/><path class="cls-2" d="M280,468.29a3.69,3.69,0,0,1-3.68,3.69h-.82a3.69,3.69,0,0,1-3.69-3.68L289.6,298.63a3.69,3.69,0,0,1,3.68-3.69h.82a3.69,3.69,0,0,1,3.69,3.68Z"/><path class="cls-4" d="M288.4,473.47a13.66,13.66,0,0,0-26.87,0Z"/><circle class="cls-5" cx="296.49" cy="263.72" r="132.4" transform="translate(-0.5 0.56) rotate(-0.11)"/><circle class="cls-5" cx="296.49" cy="263.72" r="132.4" transform="translate(-0.5 0.56) rotate(-0.11)"/><path class="cls-6" d="M302.83,386.27a131.44,131.44,0,0,1-105-210.81A132.41,132.41,0,1,0,414.63,323.57,131.35,131.35,0,0,1,302.83,386.27Z"/><circle class="cls-3" cx="296.49" cy="263.72" r="132.4" transform="translate(-0.5 0.56) rotate(-0.11)"/><circle class="cls-7" cx="296.49" cy="263.72" r="96.96" transform="translate(-0.5 0.56) rotate(-0.11)"/><circle class="cls-2" cx="296.49" cy="263.72" r="67.11" transform="translate(-0.5 0.56) rotate(-0.11)"/><circle class="cls-7" cx="296.49" cy="263.72" r="33.32" transform="translate(-0.5 0.56) rotate(-0.11)"/><circle class="cls-8" cx="390.53" cy="327.69" r="2.1" transform="translate(-0.62 0.74) rotate(-0.11)"/><circle class="cls-8" cx="179.01" cy="246.79" r="2.1" transform="translate(-0.46 0.34) rotate(-0.11)"/><circle class="cls-8" cx="210.68" cy="268.08" r="2.1" transform="translate(-0.5 0.4) rotate(-0.11)"/><circle class="cls-8" cx="393.26" cy="340.48" r="2.1" transform="translate(-0.64 0.74) rotate(-0.11)"/><circle class="cls-8" cx="353.18" cy="362.67" r="2.1" transform="translate(-0.68 0.67) rotate(-0.11)"/><circle class="cls-8" cx="378.83" cy="263.57" r="2.1" transform="translate(-0.5 0.71) rotate(-0.11)"/><circle class="cls-8" cx="342.6" cy="289.28" r="2.1" transform="translate(-0.54 0.65) rotate(-0.11)"/><circle class="cls-8" cx="252.41" cy="196.7" r="2.1" transform="translate(-0.37 0.48) rotate(-0.11)"/><polygon class="cls-2" points="355.54 225.45 334.77 226.66 334.16 205.43 373.85 163.03 374.23 184.05 395.23 183.05 381.83 197.36 360.31 198.92 353.1 206.63 373.58 206.18 355.54 225.45"/><line class="cls-3" x1="389.7" y1="167.53" x2="296.5" y2="267.08"/><line class="cls-3" x1="342.92" y1="196.07" x2="342.79" y2="217.64"/><line class="cls-3" x1="366.63" y1="170.74" x2="368.05" y2="190.66"/><polygon class="cls-2" points="259.19 265.27 238.42 266.49 237.81 245.26 277.5 202.86 277.88 223.88 298.89 222.88 259.19 265.27"/><line class="cls-3" x1="293.35" y1="207.36" x2="200.15" y2="306.9"/><line class="cls-3" x1="246.57" y1="235.9" x2="246.44" y2="257.47"/><line class="cls-3" x1="270.29" y1="210.57" x2="271.7" y2="230.49"/><line class="cls-3" x1="284.91" y1="205.66" x2="284.59" y2="216.72"/><line class="cls-3" x1="257.26" y1="245.9" x2="279.8" y2="243.27"/><line class="cls-3" x1="232" y1="272.89" x2="242.51" y2="272.38"/><polygon class="cls-2" points="409.17 285.77 388.4 286.99 387.79 265.75 427.48 223.35 427.86 244.37 448.86 243.37 409.17 285.77"/><line class="cls-3" x1="443.33" y1="227.85" x2="350.13" y2="327.4"/><line class="cls-3" x1="396.55" y1="256.39" x2="396.42" y2="277.96"/><line class="cls-3" x1="404.42" y1="248.24" x2="404.29" y2="269.82"/><line class="cls-3" x1="407.24" y1="266.4" x2="429.77" y2="263.76"/><line class="cls-3" x1="200.14" y1="300.28" x2="200.16" y2="310.51"/><line class="cls-3" x1="350.12" y1="320.77" x2="350.14" y2="331.01"/><line class="cls-3" x1="296.49" y1="260.45" x2="296.51" y2="270.69"/><ellipse class="cls-1" cx="280.21" cy="263.75" rx="129.08" ry="132.4" transform="translate(-0.5 0.53) rotate(-0.11)"/><path class="cls-1" d="M182.68,494.61a3.69,3.69,0,0,0,2.36,4.65l.78.25a3.69,3.69,0,0,0,4.65-2.36L249.4,301.26a3.69,3.69,0,0,0-2.36-4.65l-.78-.25a3.69,3.69,0,0,0-4.65,2.36Z"/><path class="cls-9" d="M188.71,494.6a3.69,3.69,0,0,0,2.36,4.65l.78.25a3.69,3.69,0,0,0,4.65-2.36l58.94-195.89a3.69,3.69,0,0,0-2.36-4.65l-.78-.25a3.69,3.69,0,0,0-4.65,2.36Z"/><path class="cls-1" d="M393.67,494.21a3.69,3.69,0,0,1-2.35,4.65l-.78.26a3.69,3.69,0,0,1-4.65-2.35L327.73,301.11a3.69,3.69,0,0,1,2.35-4.65l.78-.26a3.69,3.69,0,0,1,4.65,2.35Z"/><path class="cls-9" d="M399.71,494.2a3.69,3.69,0,0,1-2.35,4.65l-.78.26a3.69,3.69,0,0,1-4.65-2.35L333.76,301.1a3.69,3.69,0,0,1,2.35-4.65l.78-.26a3.69,3.69,0,0,1,4.65,2.35Z"/><path class="cls-10" d="M409.16,500.9a13.66,13.66,0,0,0-26.87,0Z"/><line class="cls-3" x1="369.39" y1="500.9" x2="427.82" y2="500.9"/><path class="cls-1" d="M274,468.3a3.69,3.69,0,0,1-3.68,3.69h-.82a3.69,3.69,0,0,1-3.69-3.68l17.78-169.67a3.69,3.69,0,0,1,3.68-3.69h.82a3.69,3.69,0,0,1,3.69,3.68Z"/><path class="cls-9" d="M280,468.29a3.69,3.69,0,0,1-3.68,3.69h-.82a3.69,3.69,0,0,1-3.69-3.68L289.6,298.63a3.69,3.69,0,0,1,3.68-3.69h.82a3.69,3.69,0,0,1,3.69,3.68Z"/><path class="cls-10" d="M288.4,473.47a13.66,13.66,0,0,0-26.87,0Z"/><line class="cls-3" x1="244.52" y1="473.47" x2="302.86" y2="473.47"/><circle class="cls-11" cx="296.49" cy="263.72" r="132.4" transform="translate(-0.5 0.56) rotate(-0.11)"/><circle class="cls-5" cx="313.37" cy="243.77" r="111.49" transform="translate(-0.46 0.59) rotate(-0.11)"/><path class="cls-10" d="M302.83,386.27a131.44,131.44,0,0,1-105-210.81A132.41,132.41,0,1,0,414.63,323.57,131.35,131.35,0,0,1,302.83,386.27Z"/><circle class="cls-3" cx="296.49" cy="263.72" r="132.4" transform="translate(-0.5 0.56) rotate(-0.11)"/><circle class="cls-12" cx="296.49" cy="263.72" r="96.96" transform="translate(-0.5 0.56) rotate(-0.11)"/><circle class="cls-13" cx="296.49" cy="263.72" r="96.96" transform="translate(-0.5 0.56) rotate(-0.11)"/><path class="cls-14" d="M349.74,318.5l-39.9,40.05-1.22,1.36a96.44,96.44,0,0,0,16.06-3.43l24.94-24.94C349.94,327.21,349.84,322.85,349.74,318.5Z"/><circle class="cls-3" cx="296.49" cy="263.72" r="96.96" transform="translate(-0.5 0.56) rotate(-0.11)"/><circle class="cls-2" cx="296.49" cy="263.72" r="67.11" transform="translate(-0.5 0.56) rotate(-0.11)"/><circle class="cls-7" cx="296.49" cy="263.72" r="33.32" transform="translate(-0.5 0.56) rotate(-0.11)"/><circle class="cls-15" cx="296.49" cy="263.72" r="33.32" transform="translate(-0.5 0.56) rotate(-0.11)"/><path class="cls-14" d="M294.85,260.66l-24.59,23.59a33.55,33.55,0,0,0,8,7.35L299.82,270C296.91,267.85,297.16,263.46,294.85,260.66Z"/><circle class="cls-3" cx="296.49" cy="263.72" r="33.32" transform="translate(-0.5 0.56) rotate(-0.11)"/><circle class="cls-8" cx="390.53" cy="327.69" r="2.1" transform="translate(-0.62 0.74) rotate(-0.11)"/><circle class="cls-8" cx="179.01" cy="246.79" r="2.1" transform="translate(-0.46 0.34) rotate(-0.11)"/><circle class="cls-8" cx="210.68" cy="268.08" r="2.1" transform="translate(-0.5 0.4) rotate(-0.11)"/><circle class="cls-8" cx="393.26" cy="340.48" r="2.1" transform="translate(-0.64 0.74) rotate(-0.11)"/><circle class="cls-8" cx="353.18" cy="362.67" r="2.1" transform="translate(-0.68 0.67) rotate(-0.11)"/><circle class="cls-8" cx="378.83" cy="263.57" r="2.1" transform="translate(-0.5 0.71) rotate(-0.11)"/><circle class="cls-8" cx="342.6" cy="289.28" r="2.1" transform="translate(-0.54 0.65) rotate(-0.11)"/><circle class="cls-8" cx="252.41" cy="196.7" r="2.1" transform="translate(-0.37 0.48) rotate(-0.11)"/><polygon class="cls-16" points="355.54 225.45 334.77 226.66 334.16 205.43 373.85 163.03 374.23 184.05 395.23 183.05 381.83 197.36 360.31 198.92 353.1 206.63 373.58 206.18 355.54 225.45"/><line class="cls-3" x1="389.7" y1="167.53" x2="296.5" y2="267.08"/><line class="cls-3" x1="342.92" y1="196.07" x2="342.79" y2="217.64"/><line class="cls-3" x1="366.63" y1="170.74" x2="368.05" y2="190.66"/><polygon class="cls-17" points="259.19 265.27 238.42 266.49 237.81 245.26 277.5 202.86 277.88 223.88 298.89 222.88 259.19 265.27"/><line class="cls-3" x1="293.35" y1="207.36" x2="200.15" y2="306.9"/><line class="cls-3" x1="246.57" y1="235.9" x2="246.44" y2="257.47"/><line class="cls-3" x1="270.29" y1="210.57" x2="271.7" y2="230.49"/><line class="cls-3" x1="284.91" y1="205.66" x2="284.59" y2="216.72"/><line class="cls-3" x1="257.26" y1="245.9" x2="279.8" y2="243.27"/><line class="cls-3" x1="232" y1="272.89" x2="242.51" y2="272.38"/><polygon class="cls-17" points="409.17 285.77 388.4 286.99 387.79 265.75 427.48 223.35 427.86 244.37 448.86 243.37 409.17 285.77"/><line class="cls-3" x1="443.33" y1="227.85" x2="350.13" y2="327.4"/><line class="cls-3" x1="396.55" y1="256.39" x2="396.42" y2="277.96"/><line class="cls-3" x1="404.42" y1="248.24" x2="404.29" y2="269.82"/><line class="cls-3" x1="407.24" y1="266.4" x2="429.77" y2="263.76"/><line class="cls-3" x1="200.14" y1="300.28" x2="200.16" y2="310.51"/><line class="cls-3" x1="350.12" y1="320.77" x2="350.14" y2="331.01"/><line class="cls-3" x1="296.49" y1="260.45" x2="296.51" y2="270.69"/><path class="cls-10" d="M203,501.25a13.67,13.67,0,0,0-26.87,0Z"/><path class="cls-3" d="M409.16,500.9a13.66,13.66,0,0,0-26.87,0Z"/><path class="cls-3" d="M288.4,473.47a13.66,13.66,0,0,0-26.87,0Z"/><path class="cls-3" d="M203,501.25a13.67,13.67,0,0,0-26.87,0Z"/><line class="cls-3" x1="161.36" y1="501.25" x2="219.79" y2="501.25"/></g></g></svg>