<svg xmlns="http://www.w3.org/2000/svg" xmlns:xlink="http://www.w3.org/1999/xlink" viewBox="0 0 600 600"><defs><style>.cls-1{fill:#777471;}.cls-1,.cls-14,.cls-15,.cls-16,.cls-2,.cls-3{stroke:#323854;stroke-linecap:round;stroke-linejoin:round;stroke-width:4px;}.cls-2{fill:#aaa9a9;}.cls-3{fill:none;}.cls-4{fill:#2b2b2b;}.cls-5{fill:url(#linear-gradient);}.cls-6{fill:#eaf5f9;}.cls-7{fill:#fff;}.cls-8{fill:url(#linear-gradient-2);}.cls-9{fill:#f5fcff;}.cls-10{fill:#efefef;}.cls-11{fill:#898989;}.cls-12{fill:#565656;}.cls-13{fill:url(#linear-gradient-3);}.cls-14{fill:#21aa8f;}.cls-15{fill:#ff6161;}.cls-16{fill:#ffd371;}.cls-17{fill:url(#linear-gradient-4);}</style><linearGradient id="linear-gradient" x1="293.25" y1="480.87" x2="301.25" y2="-97.13" gradientUnits="userSpaceOnUse"><stop offset="0" stop-color="#707175" stop-opacity="0"/><stop offset="0.2" stop-color="#949598" stop-opacity="0.29"/><stop offset="0.39" stop-color="#b4b5b7" stop-opacity="0.54"/><stop offset="0.57" stop-color="#cececf" stop-opacity="0.74"/><stop offset="0.73" stop-color="#e0e0e0" stop-opacity="0.88"/><stop offset="0.86" stop-color="#ebebeb" stop-opacity="0.97"/><stop offset="0.94" stop-color="#efefef"/></linearGradient><linearGradient id="linear-gradient-2" x1="257.39" y1="325.33" x2="310.72" y2="188.66" gradientUnits="userSpaceOnUse"><stop offset="0" stop-color="#f5fcff"/><stop offset="0.95" stop-color="#fff"/></linearGradient><linearGradient id="linear-gradient-3" x1="289.88" y1="109.13" x2="370.55" y2="3.79" gradientUnits="userSpaceOnUse"><stop offset="0" stop-color="#707175" stop-opacity="0"/><stop offset="0.94" stop-color="#efefef"/></linearGradient><linearGradient id="linear-gradient-4" x1="290.72" y1="394.45" x2="354.05" y2="323.79" xlink:href="#linear-gradient-3"/></defs><title>Images</title><g id="Color_Images" data-name="Color Images"><g id="White_Board" data-name="White Board"><path class="cls-1" d="M281,488.78a3.4,3.4,0,0,1-3.4,3.4h-.75a3.4,3.4,0,0,1-3.4-3.4l16.71-216.46a3.4,3.4,0,0,1,3.4-3.4h.75a3.4,3.4,0,0,1,3.4,3.4Z"/><path class="cls-2" d="M286.59,488.78a3.4,3.4,0,0,1-3.4,3.4h-.75a3.4,3.4,0,0,1-3.4-3.4l16.71-216.46a3.4,3.4,0,0,1,3.4-3.4h.75a3.4,3.4,0,0,1,3.4,3.4Z"/><path class="cls-1" d="M391.47,512.91a3.4,3.4,0,0,1-2.17,4.29l-.72.23a3.4,3.4,0,0,1-4.29-2.17L290.55,274.68a3.4,3.4,0,0,1,2.17-4.29l.72-.23a3.4,3.4,0,0,1,4.29,2.17Z"/><path class="cls-2" d="M397,512.91a3.4,3.4,0,0,1-2.17,4.29l-.72.23a3.4,3.4,0,0,1-4.29-2.17L296.12,274.68a3.4,3.4,0,0,1,2.17-4.29l.72-.23a3.4,3.4,0,0,1,4.29,2.17Z"/><path class="cls-1" d="M196.71,512.91a3.4,3.4,0,0,0,2.17,4.29l.72.23a3.4,3.4,0,0,0,4.29-2.17l93.73-240.59a3.4,3.4,0,0,0-2.17-4.29l-.72-.23a3.4,3.4,0,0,0-4.29,2.17Z"/><path class="cls-2" d="M202.28,512.91a3.4,3.4,0,0,0,2.17,4.29l.72.23a3.4,3.4,0,0,0,4.29-2.17L303.2,274.68a3.4,3.4,0,0,0-2.17-4.29l-.72-.23a3.4,3.4,0,0,0-4.29,2.17Z"/><polyline class="cls-3" points="404.62 334.48 404.62 286.37 412.04 286.37"/><line class="cls-3" x1="412.04" y1="279.71" x2="412.04" y2="292.06"/><path class="cls-1" d="M381.06,347.88H194.61a5.34,5.34,0,0,1-5.34-5.34V92.34a6.66,6.66,0,0,1,6.66-6.66H386.65a6.66,6.66,0,0,1,6.66,6.66V335.63A12.26,12.26,0,0,1,381.06,347.88Z"/><line class="cls-3" x1="184.82" y1="310.43" x2="402.97" y2="310.43"/><path class="cls-4" d="M398.88,347.88h-204V92.34a6.66,6.66,0,0,1,6.66-6.66H392.22a6.66,6.66,0,0,1,6.66,6.66Z"/><path class="cls-5" d="M398.88,347.88h-204V92.34a6.66,6.66,0,0,1,6.66-6.66H392.22a6.66,6.66,0,0,1,6.66,6.66Z"/><path class="cls-3" d="M398.88,347.88h-204V92.34a6.66,6.66,0,0,1,6.66-6.66H392.22a6.66,6.66,0,0,1,6.66,6.66Z"/><rect class="cls-6" x="204.55" y="94.33" width="184.62" height="244.9"/><rect class="cls-7" x="215.46" y="94.33" width="173.71" height="231.73"/><rect class="cls-8" x="215.46" y="94.33" width="173.71" height="231.73"/><polygon class="cls-9" points="351.84 94.33 311.5 94.33 215.46 190.37 215.46 230.71 351.84 94.33"/><path class="cls-9" d="M389.17,168V129.66l-44.06,44.06Q280.26,238.6,215.46,303.54v22.53h15.65Z"/><polygon class="cls-9" points="254.76 326.06 268.11 326.06 389.17 205 389.17 191.66 254.76 326.06"/><polygon class="cls-10" points="389.17 94.33 369.37 94.33 232.71 94.33 204.55 94.33 204.55 99.99 232.71 99.99 232.71 102.41 369.37 102.41 369.37 99.99 389.17 99.99 389.17 94.33"/><rect class="cls-3" x="204.55" y="94.33" width="184.62" height="244.9"/><rect class="cls-1" x="189.27" y="339.56" width="213.96" height="8.58"/><rect class="cls-11" x="196.2" y="339.56" width="207.02" height="8.58"/><rect class="cls-3" x="196.2" y="339.56" width="207.02" height="8.58"/><rect class="cls-12" x="239.71" y="82.9" width="129.66" height="14.18" rx="3.22" ry="3.22"/><rect class="cls-13" x="239.71" y="82.9" width="129.66" height="14.18" rx="3.22" ry="3.22"/><rect class="cls-3" x="239.71" y="82.9" width="129.66" height="14.18" rx="3.22" ry="3.22"/><rect class="cls-14" x="260.39" y="328.91" width="40.65" height="10.91"/><rect class="cls-15" x="301.03" y="328.91" width="40.65" height="10.91"/><rect class="cls-16" x="280.71" y="318" width="40.65" height="10.91"/><line class="cls-3" x1="246.58" y1="126.36" x2="246.58" y2="245.63"/><line class="cls-3" x1="241.94" y1="240.06" x2="353.3" y2="240.06"/><path class="cls-3" d="M246.58,240s18-48,30.26-48,16.38,26,24.19,18.82c7.62-7,35.42-98.31,52.27-59"/><line class="cls-3" x1="274.44" y1="235.98" x2="274.44" y2="244.79"/><line class="cls-3" x1="302.21" y1="235.98" x2="302.21" y2="244.79"/><line class="cls-3" x1="329.21" y1="235.98" x2="329.21" y2="244.79"/><line class="cls-3" x1="250.76" y1="157.76" x2="241.96" y2="157.76"/><line class="cls-3" x1="250.76" y1="185.53" x2="241.96" y2="185.53"/><polyline class="cls-3" points="184.56 334.48 184.56 286.37 177.14 286.37"/><line class="cls-3" x1="177.14" y1="279.71" x2="177.14" y2="292.06"/><line class="cls-3" x1="250.76" y1="212.53" x2="241.96" y2="212.53"/><polyline class="cls-3" points="241.75 133.8 246.36 125.82 250.97 133.8"/><polyline class="cls-3" points="349.31 235.39 357.3 240 349.31 244.61"/><rect class="cls-1" x="231.32" y="373.93" width="132.59" height="13.24" rx="3.4" ry="3.4"/><rect class="cls-12" x="236.89" y="373.93" width="132.59" height="13.24" rx="3.4" ry="3.4"/><rect class="cls-17" x="236.89" y="373.93" width="132.59" height="13.24" rx="3.4" ry="3.4"/><rect class="cls-3" x="236.89" y="373.93" width="132.59" height="13.24" rx="3.4" ry="3.4"/><line class="cls-3" x1="255.34" y1="262.43" x2="342.68" y2="262.43"/><line class="cls-3" x1="255.38" y1="272.64" x2="342.64" y2="272.64"/><line class="cls-3" x1="264.66" y1="282.85" x2="333.36" y2="282.85"/><line class="cls-3" x1="279.98" y1="292.6" x2="318.04" y2="292.6"/><path class="cls-2" d="M215.46,519.1a12.61,12.61,0,0,0-24.8,0Z"/><path class="cls-2" d="M405.75,519.1a12.61,12.61,0,0,0-24.8,0Z"/><path class="cls-2" d="M294.34,493.58a12.61,12.61,0,0,0-24.8,0Z"/><line class="cls-3" x1="232.71" y1="133.8" x2="223.41" y2="133.8"/><line class="cls-3" x1="355.9" y1="250.01" x2="363.9" y2="250.01"/><line class="cls-3" x1="316.48" y1="157.39" x2="288.01" y2="157.39"/><line class="cls-3" x1="288.24" y1="166.03" x2="300.92" y2="166.03"/><line class="cls-3" x1="177.02" y1="518.83" x2="230.96" y2="518.83"/><line class="cls-3" x1="369.04" y1="518.83" x2="422.98" y2="518.83"/><line class="cls-3" x1="337.83" y1="518.83" x2="357.1" y2="518.83"/><line class="cls-3" x1="253.75" y1="493.58" x2="307.68" y2="493.58"/><line class="cls-3" x1="329.21" y1="328.91" x2="329.21" y2="339.56"/><line class="cls-3" x1="288.24" y1="328.91" x2="288.24" y2="339.23"/><line class="cls-3" x1="308.82" y1="318" x2="308.82" y2="327.79"/></g></g></svg>