<svg xmlns="http://www.w3.org/2000/svg" viewBox="0 0 600 600"><defs><style>.cls-1,.cls-8{fill:#ffe8d9;}.cls-1,.cls-10,.cls-12,.cls-5{stroke:#323854;stroke-linecap:round;stroke-width:4px;}.cls-1,.cls-10,.cls-5{stroke-linejoin:round;}.cls-10,.cls-2{fill:#ffd371;}.cls-3{fill:#fd9;}.cls-4{fill:#f4ba5d;}.cls-5{fill:none;}.cls-6{fill:#fff;}.cls-7{fill:#efefef;}.cls-9{fill:#eabb9b;}.cls-11,.cls-12{fill:#444a54;}.cls-12{stroke-miterlimit:10;}.cls-13{fill:#ff6161;}.cls-14{fill:#fff2eb;}</style></defs><title>Images</title><g id="Color_Images" data-name="Color Images"><g id="Woman"><path class="cls-1" d="M365.64,299.64l27.66-.05A30.53,30.53,0,0,0,423.77,269h0a30.53,30.53,0,0,0-30.58-30.47l-27.66.05"/><path class="cls-2" d="M395.8,427c10.46-.08,18.88-8.85,18.86-19.63l-.39-206c-.11-58-28.49-103.15-108-103-72.52.14-107.76,45.37-107.65,103.41L199,407.26a20,20,0,0,0,20,20C260.4,427.27,355.29,427.29,395.8,427Z"/><path class="cls-3" d="M318.73,98.72c-4-.25-8.18-.39-12.5-.38-72.52.14-107.76,45.37-107.65,103.41L199,407.26A20,20,0,0,0,215.69,427l-.4-213C215.17,150.47,249,100.76,318.73,98.72Z"/><path class="cls-4" d="M414.27,201.34c-.1-53.82-24.53-96.52-91.52-102.32a2,2,0,0,1,.25,1c-.09,31.57-4.61,63.33-16.19,92.83-5.72,14.59-12.49,28.91-22,41.41-8.46,11.08-18.47,20.87-26.78,32.07V427.26c46.11,0,107.33,0,137.8-.28,10.46-.08,18.88-8.85,18.86-19.63Z"/><path class="cls-5" d="M395.8,427c10.46-.08,18.88-8.85,18.86-19.63l-.39-206c-.11-58-28.49-103.15-108-103-72.52.14-107.76,45.37-107.65,103.41L199,407.26a20,20,0,0,0,20,20C260.4,427.27,355.29,427.29,395.8,427Z"/><path class="cls-6" d="M199.17,407c3,57,50.17,90.78,107.92,90.67s104.82-34,107.57-91.08c-17.79-18.1-59.37-30.75-107.8-30.66S216.89,388.87,199.17,407Z"/><path class="cls-7" d="M307.06,483.45c-53.27.1-97.54-28.63-106.41-77.85-.51.48-1,1-1.48,1.44,3,57,50.17,90.78,107.92,90.67s104.82-34,107.57-91.08c-.47-.48-1-1-1.48-1.43C404.49,454.45,360.33,483.35,307.06,483.45Z"/><path class="cls-5" d="M199.17,407c3,57,50.17,90.78,107.92,90.67s104.82-34,107.57-91.08c-17.79-18.1-59.37-30.75-107.8-30.66S216.89,388.87,199.17,407Z"/><path class="cls-1" d="M307,433.41c30.94-.06,58.24-18.17,74.78-45.85-20.3-7.28-46.41-11.63-74.89-11.58s-54.58,4.51-74.85,11.86C248.65,415.45,276,433.46,307,433.41Z"/><polyline class="cls-8" points="287.7 380.6 287.59 326.14 325.94 326.06 326.04 380.52"/><path class="cls-9" d="M326,374.77l-.09-48.7-38.34.07.08,44.38C294.64,377.9,310.06,377.35,326,374.77Z"/><polyline class="cls-5" points="326.04 380.52 325.94 326.06 287.59 326.14 287.7 380.6"/><line class="cls-10" x1="388.52" y1="448.11" x2="388.56" y2="466.22"/><path class="cls-2" d="M225.56,374.5l0,15.84.15,77.38a99.26,99.26,0,0,0,31.72,20.65l-.2-107.53-.06-31.35"/><path class="cls-4" d="M257.25,380.84l.2,107.53a99.26,99.26,0,0,1-31.72-20.65c3-4.36,14.69,5.39,20.5-10.55C254.31,435,256.49,385.8,257.25,380.84Z"/><path class="cls-5" d="M225.56,374.5l0,15.84.15,77.38a99.26,99.26,0,0,0,31.72,20.65l-.2-107.53-.06-31.35"/><path class="cls-8" d="M237.35,299.88l-30.54.06a30.53,30.53,0,0,1-30.58-30.47h0a30.53,30.53,0,0,1,30.47-30.58l36.39-.07"/><path class="cls-9" d="M181.42,261.59a30.37,30.37,0,0,1,2.75-12.67,30.49,30.49,0,0,0,22.65,51l30.54-.06.74-7.86-26.09,0A30.53,30.53,0,0,1,181.42,261.59Z"/><path class="cls-5" d="M237.35,299.88l-30.54.06a30.53,30.53,0,0,1-30.58-30.47h0a30.53,30.53,0,0,1,30.47-30.58l36.39-.07"/><path class="cls-1" d="M189.78,258.66H190a18.78,18.78,0,0,1,18.81,18.74V279"/><path class="cls-8" d="M280.26,164.15c-22.24,0-41.65,14.76-47.13,35.79a89.44,89.44,0,0,0-2.88,22.75l-11.48,13,.07,38.45c.09,50.25,42.49,92.06,94,92.61,52.32.56,88.14-40.69,88-91.59l-.1-52.79a89.39,89.39,0,0,0-3.33-24.08C391.7,177.87,372.28,164,350.57,164Z"/><path class="cls-9" d="M397.45,198.3C391.7,177.87,372.28,164,350.57,164l-70.31.13c-1.34,0-2.67.06-4,.17,5,46.44,50.52,83.7,105.16,84.22a117,117,0,0,0,19.38-1.42l0-24.73A89.38,89.38,0,0,0,397.45,198.3Z"/><path class="cls-9" d="M316.54,353.88c-52.07-.56-95.17-41.68-97.6-92l-.11.22,0,12c.09,50.25,42.49,92.06,94,92.61,39.8.43,70-23.34,82.18-57.14C379.63,336.49,351.67,354.26,316.54,353.88Z"/><path class="cls-9" d="M230.69,213.65q-.43,4.34-.44,8.79l.45-.89Z"/><path class="cls-5" d="M280.26,164.15c-22.24,0-41.65,14.76-47.13,35.79a89.44,89.44,0,0,0-2.88,22.75l-11.48,13,.07,38.45c.09,50.25,42.49,92.06,94,92.61,52.32.56,88.14-40.69,88-91.59l-.1-52.79a89.39,89.39,0,0,0-3.33-24.08C391.7,177.87,372.28,164,350.57,164Z"/><circle class="cls-11" cx="280.56" cy="264.23" r="6.76" transform="translate(-0.5 0.53) rotate(-0.11)"/><circle class="cls-11" cx="375.22" cy="264.05" r="6.76" transform="translate(-0.5 0.71) rotate(-0.11)"/><path class="cls-5" d="M259.11,244.49c8.22-5.72,19.75-8.66,35.27-7.65"/><path class="cls-5" d="M392,244.24c-8.24-5.69-19.78-8.59-35.29-7.52"/><path class="cls-12" d="M294.48,295.63a33.13,33.13,0,0,0,31.81,23.7h1.44a33.13,33.13,0,0,0,31.72-23.82Z"/><path class="cls-2" d="M279.41,131l1.42,26a81.52,81.52,0,0,1-81.33,84h-.85l0-15.26"/><path class="cls-4" d="M280.83,157l-1.42-26-8.59,15c4.16,76.08-72.17,95-72.17,95h.85A81.52,81.52,0,0,0,280.83,157Z"/><path class="cls-5" d="M279.41,131l1.42,26a81.52,81.52,0,0,1-81.33,84h-.85l0-24.26"/><path class="cls-2" d="M414.34,238.33l-.07-37c-.11-58-28.49-103.15-108-103-27.2.05-34,19.86-31.79,44.59,4.8,54.67,51.73,96,106.6,95.63Z"/><path class="cls-3" d="M301.32,106.86c20.43,2.15,39.58,7.73,57.86,18.17,50.33,28.75,55.09,76.31,55.09,76.31-.11-58-28.49-103.15-108-103-9.73,0-16.84,2.58-21.86,7C290,105.79,295.67,106.27,301.32,106.86Z"/><path class="cls-4" d="M299.56,183.35c-11.25-10.19-19.76-22.09-24.57-35.61C282,200,327.79,238.93,381,238.56l33.29-.23-.06-33.69C374.75,215.58,331.12,212,299.56,183.35Z"/><path class="cls-5" d="M414.34,238.33l-.07-37c-.11-58-28.49-103.15-108-103-27.2.05-34,19.86-31.79,44.59,4.8,54.67,51.73,96,106.6,95.63Z"/><path class="cls-13" d="M327,303a23,23,0,0,0-19.32,10.59,32.92,32.92,0,0,0,18.63,5.73h1.44a32.92,32.92,0,0,0,18.61-5.8A23,23,0,0,0,327,303Z"/><path class="cls-5" d="M327,303a23,23,0,0,0-19.32,10.59,32.92,32.92,0,0,0,18.63,5.73h1.44a32.92,32.92,0,0,0,18.61-5.8A23,23,0,0,0,327,303Z"/><path class="cls-4" d="M394.55,203.43c-35.77,3.56-76.11-13.74-95-37.65C303.1,170.05,363.66,201.76,394.55,203.43Z"/><path class="cls-14" d="M256.25,274.25c-3.33,5.08,22.5,24.33,25.8,16.8S259.58,269.17,256.25,274.25Z"/></g></g></svg>