<svg xmlns="http://www.w3.org/2000/svg" viewBox="0 0 600 600"><defs><style>.cls-1,.cls-5{fill:#fff;}.cls-2,.cls-4,.cls-6{fill:#efefef;}.cls-3{fill:none;}.cls-3,.cls-4,.cls-5,.cls-6{stroke:#cecece;stroke-linecap:round;stroke-linejoin:round;}.cls-3,.cls-4,.cls-5{stroke-width:4px;}.cls-6{stroke-width:2.72px;}</style></defs><title>Images</title><g id="Monochrome_Images" data-name="Monochrome Images"><g id="Plane"><path class="cls-1" d="M112.92,376.49a11.79,11.79,0,0,1-2.4-2c-6.72-7.28-3.41-19,5.84-22.63a44.45,44.45,0,0,1,16-3.11h323.9c25.54,0,44.6,16.78,57.12,22.86,10.2,5,12.83,29.86-28.63,30-78.2.2-225,0-266.49,0C189.09,401.57,130,387.15,112.92,376.49Z"/><path class="cls-2" d="M487.14,392.26c-78.2.2-225,0-266.49,0-29.16,0-88.27-14.43-105.33-25.08a11.79,11.79,0,0,1-2.4-2,13.2,13.2,0,0,1-3.49-7.77,13.73,13.73,0,0,0,1.09,17.07,11.78,11.78,0,0,0,2.4,2c17.06,10.65,76.17,25.08,105.33,25.08,41.48,0,188.29.2,266.49,0,28.08-.07,35.93-11.52,34.91-20.44C515.52,387.15,505.8,392.22,487.14,392.26Z"/><path class="cls-3" d="M112.92,376.49a11.79,11.79,0,0,1-2.4-2c-6.72-7.28-3.41-19,5.84-22.63a44.45,44.45,0,0,1,16-3.11h323.9c25.54,0,44.6,16.78,57.12,22.86,10.2,5,12.83,29.86-28.63,30-78.2.2-225,0-266.49,0C189.09,401.57,130,387.15,112.92,376.49Z"/><path class="cls-4" d="M132.35,348.24,110.08,285.7s20.72-5.92,28.31,2.69l62,59.85Z"/><path class="cls-4" d="M336.29,424.89H293.62a69.16,69.16,0,0,1-50.68-22.11l-.21-.22h93.56a6.4,6.4,0,0,1,6.4,6.4v9.52A6.4,6.4,0,0,1,336.29,424.89Z"/><path class="cls-5" d="M315.31,382.29h65.23a4.31,4.31,0,0,1,4.31,4.31v3.12a4.3,4.3,0,0,1-3.45,4.22c-23.55,4.75-160.46,32.16-181.8,32.16H159.51a4.31,4.31,0,0,1-4.31-4.31v-.08a4.31,4.31,0,0,1,3.35-4.2l154.46-35A10.39,10.39,0,0,1,315.31,382.29Z"/><path class="cls-3" d="M384.53,386c-23.55,4.75-163.59,33.2-184.93,33.2H157.42"/><path class="cls-5" d="M123.87,368.1a15.8,15.8,0,0,0-3.49.39l-38.1,8.63a2.59,2.59,0,0,0-2,2.53v0a2.59,2.59,0,0,0,2.59,2.59H107c6.72,0,32.43-4.51,57.49-9.22a2.51,2.51,0,0,0-.46-5Z"/><line class="cls-3" x1="333.17" y1="424.89" x2="333.17" y2="403.47"/><line class="cls-3" x1="199.03" y1="371.68" x2="199.03" y2="375.4"/><line class="cls-3" x1="210.09" y1="371.68" x2="210.09" y2="375.4"/><line class="cls-3" x1="221.15" y1="371.68" x2="221.15" y2="375.4"/><line class="cls-3" x1="232.21" y1="371.68" x2="232.21" y2="375.4"/><line class="cls-3" x1="243.27" y1="371.68" x2="243.27" y2="375.4"/><line class="cls-3" x1="254.33" y1="371.68" x2="254.33" y2="375.4"/><line class="cls-3" x1="265.39" y1="371.68" x2="265.39" y2="375.4"/><line class="cls-3" x1="276.45" y1="371.68" x2="276.45" y2="375.4"/><line class="cls-3" x1="287.51" y1="371.68" x2="287.51" y2="375.4"/><line class="cls-3" x1="298.57" y1="371.68" x2="298.57" y2="375.4"/><line class="cls-3" x1="309.63" y1="371.68" x2="309.63" y2="375.4"/><line class="cls-3" x1="320.69" y1="371.68" x2="320.69" y2="375.4"/><line class="cls-3" x1="331.75" y1="371.68" x2="331.75" y2="375.4"/><line class="cls-3" x1="342.81" y1="371.68" x2="342.81" y2="375.4"/><line class="cls-3" x1="353.87" y1="371.68" x2="353.87" y2="375.4"/><line class="cls-3" x1="364.93" y1="371.68" x2="364.93" y2="375.4"/><line class="cls-3" x1="375.99" y1="371.68" x2="375.99" y2="375.4"/><line class="cls-3" x1="387.05" y1="371.68" x2="387.05" y2="375.4"/><line class="cls-3" x1="398.11" y1="371.68" x2="398.11" y2="375.4"/><line class="cls-3" x1="409.17" y1="371.68" x2="409.17" y2="375.4"/><line class="cls-3" x1="420.24" y1="371.68" x2="420.24" y2="375.4"/><line class="cls-3" x1="431.3" y1="371.68" x2="431.3" y2="375.4"/><line class="cls-3" x1="442.36" y1="371.68" x2="442.36" y2="375.4"/><line class="cls-3" x1="453.42" y1="371.68" x2="453.42" y2="375.4"/><line class="cls-3" x1="464.48" y1="371.68" x2="464.48" y2="375.4"/><path class="cls-4" d="M518.88,378H485a3.55,3.55,0,0,1-3.55-3.55h0a3.55,3.55,0,0,1,3.55-3.55h27a13.44,13.44,0,0,1,4.56,3.11A13.76,13.76,0,0,1,518.88,378Z"/><path class="cls-6" d="M468.42,381.77a3.94,3.94,0,0,1-3.94,3.94h0a3.94,3.94,0,0,1-3.94-3.94V369a3.94,3.94,0,0,1,3.94-3.94h0a3.94,3.94,0,0,1,3.94,3.94Z"/><path class="cls-6" d="M402.06,381.77a3.94,3.94,0,0,1-3.94,3.94h0a3.94,3.94,0,0,1-3.94-3.94V369a3.94,3.94,0,0,1,3.94-3.94h0a3.94,3.94,0,0,1,3.94,3.94Z"/><path class="cls-6" d="M302.52,381.77a3.94,3.94,0,0,1-3.94,3.94h0a3.94,3.94,0,0,1-3.94-3.94V369a3.94,3.94,0,0,1,3.94-3.94h0a3.94,3.94,0,0,1,3.94,3.94Z"/><path class="cls-6" d="M186.92,381.77a3.94,3.94,0,0,1-3.94,3.94h0a3.94,3.94,0,0,1-3.94-3.94V369a3.94,3.94,0,0,1,3.94-3.94h0a3.94,3.94,0,0,1,3.94,3.94Z"/><line class="cls-3" x1="122.04" y1="285.33" x2="144.25" y2="348.24"/></g></g></svg>