<svg xmlns="http://www.w3.org/2000/svg" viewBox="0 0 600 600"><defs><style>.cls-1{fill:#efefef;}.cls-1,.cls-2,.cls-3{stroke:#cecece;stroke-linecap:round;stroke-linejoin:round;stroke-width:4px;}.cls-2{fill:none;}.cls-3{fill:#fcfcfc;}</style></defs><title>Images</title><g id="Monochrome_Images" data-name="Monochrome Images"><g id="Apple_TV" data-name="Apple TV"><rect class="cls-1" x="170.52" y="262.54" width="255.09" height="242.22" rx="49.38" ry="49.38"/><line class="cls-2" x1="131.8" y1="505.39" x2="468.2" y2="505.39"/><circle class="cls-3" cx="257.8" cy="384.92" r="24.08"/><path class="cls-3" d="M318,374v-5.6H307.5V358.22l-8.28,2.62v7.51H293V374h6.26v24.79c0,6.5,6.15,9.92,10.67,10.25a27.56,27.56,0,0,0,8.11-.48v-6.65a42.65,42.65,0,0,1-4.77.21c-4.66,0-5.72-3.1-5.72-6.67V374Z"/><path class="cls-3" d="M353.38,368.32l-10.8,28.12-10.12-28.12h-9a3.6,3.6,0,0,0,.12.5l15.57,39.32h6.57l16.51-39.24a3.51,3.51,0,0,0,.15-.57Z"/></g></g></svg>