<svg xmlns="http://www.w3.org/2000/svg" viewBox="0 0 600 600"><defs><style>.cls-1{fill:#fff;}.cls-1,.cls-3,.cls-4{stroke:#cecece;stroke-linecap:round;stroke-linejoin:round;stroke-width:4px;}.cls-2,.cls-4{fill:#efefef;}.cls-3{fill:none;}</style></defs><title>Images</title><g id="Monochrome_Images" data-name="Monochrome Images"><g id="Apple_Monitor" data-name="Apple Monitor"><path class="cls-1" d="M377.63,494.78H226c28.23-26.3,31.33-91.76,32.5-112.77h86.4C345.33,408.39,349.66,473,377.63,494.78Z"/><path class="cls-1" d="M377.63,494.78H226c28.23-26.3,31.33-91.76,32.5-112.77h86.4C345.33,408.39,349.66,473,377.63,494.78Z"/><path class="cls-1" d="M501.09,428.41H102.58c-6.27,0-11.36-5-11.36-7.29V182c0-10,5.09-15,11.36-15H501.09c6.27,0,11.36,5,11.36,15V421.12C512.45,423.42,507.37,428.41,501.09,428.41Z"/><path class="cls-1" d="M501.09,428.41H102.58c-6.27,0-11.36-5-11.36-7.29V182c0-10,5.09-15,11.36-15H501.09c6.27,0,11.36,5,11.36,15V421.12C512.45,423.42,507.37,428.41,501.09,428.41Z"/><path class="cls-2" d="M353,445.79c-5.77-20.83-7.07-38.11-7.45-63.77h-86.4c-1.36,24.57-2.2,41.87-8.43,63.77Z"/><path class="cls-1" d="M501.09,428.41H102.58c-6.27,0-11.36-5-11.36-7.29V182c0-10,5.09-15,11.36-15H501.09c6.27,0,11.36,5,11.36,15V421.12C512.45,423.42,507.37,428.41,501.09,428.41Z"/><path class="cls-1" d="M501.09,428.41H102.58c-6.27,0-11.36-5-11.36-7.29V182c0-10,5.09-15,11.36-15H501.09c6.27,0,11.36,5,11.36,15V421.12C512.45,423.42,507.37,428.41,501.09,428.41Z"/><path class="cls-3" d="M377.63,494.78H226c28.23-26.3,31.33-91.76,32.5-112.77h86.4C345.33,408.39,349.66,473,377.63,494.78Z"/><path class="cls-4" d="M501.09,428.41H102.58c-6.27,0-11.36-5-11.36-7.29V182c0-10,5.09-15,11.36-15H501.09c6.27,0,11.36,5,11.36,15V421.12C512.45,423.42,507.37,428.41,501.09,428.41Z"/><ellipse class="cls-1" cx="301.84" cy="415.94" rx="6.24" ry="6.11"/><rect class="cls-1" x="107.41" y="184.54" width="388.86" height="219.81"/><ellipse class="cls-1" cx="301.84" cy="175.38" rx="3.37" ry="3.31"/><line class="cls-1" x1="157.62" y1="494.78" x2="446.05" y2="494.78"/><rect class="cls-1" x="221.6" y="485.61" width="160.47" height="8.98" rx="4.45" ry="4.45"/><path class="cls-4" d="M391.38,364.65H212.29a7.66,7.66,0,0,1-7.67-7.66V229.66a7.66,7.66,0,0,1,7.67-7.66H391.38a7.66,7.66,0,0,1,7.67,7.66V357A7.66,7.66,0,0,1,391.38,364.65Z"/><path class="cls-1" d="M399.05,238.68v-9a7.66,7.66,0,0,0-7.67-7.66H212.29a7.66,7.66,0,0,0-7.67,7.66v9Z"/><line class="cls-1" x1="108.72" y1="198.01" x2="494.95" y2="198.01"/><line class="cls-1" x1="127.2" y1="191.44" x2="152.42" y2="191.44"/><line class="cls-1" x1="465.44" y1="191.44" x2="483.24" y2="191.44"/><line class="cls-1" x1="441.07" y1="191.44" x2="457.39" y2="191.44"/><line class="cls-1" x1="419.56" y1="191.44" x2="432.91" y2="191.44"/><path class="cls-1" d="M231.43,294.82c21.78.08,69.87.14,107.74-.05"/><path class="cls-1" d="M231.46,307.2h65.71"/><path class="cls-1" d="M231.93,320.32h85.15"/><path class="cls-1" d="M231.43,332.73c29.82.11,13.26.1,43.08-.05"/><rect class="cls-1" x="232.75" y="262.67" width="37.32" height="21.63"/><rect class="cls-1" x="283.7" y="262.67" width="37.32" height="21.63"/><rect class="cls-1" x="334.93" y="262.67" width="37.32" height="21.63"/></g></g></svg>