<svg xmlns="http://www.w3.org/2000/svg" viewBox="0 0 600 600"><defs><style>.cls-1{fill:#efefef;}.cls-1,.cls-2,.cls-3{stroke:#cecece;stroke-linecap:round;stroke-linejoin:round;stroke-width:4px;}.cls-2{fill:#fff;}.cls-3{fill:none;}</style></defs><title>Images</title><g id="Monochrome_Images" data-name="Monochrome Images"><g id="Books"><rect class="cls-1" x="209.35" y="213.81" width="71" height="250.91" rx="4.47" ry="4.47"/><path class="cls-2" d="M280.35,232.87v-14.6a4.47,4.47,0,0,0-4.47-4.47H213.82a4.47,4.47,0,0,0-4.47,4.47v14.6Z"/><rect class="cls-2" x="209.35" y="241.83" width="71" height="26.88"/><rect class="cls-2" x="209.35" y="277.67" width="71" height="122.46"/><rect class="cls-2" x="209.35" y="408.59" width="71" height="26.88"/><path class="cls-2" d="M209.35,443.93v16.31a4.47,4.47,0,0,0,4.47,4.47h62.06a4.47,4.47,0,0,0,4.47-4.47V443.93Z"/><rect class="cls-1" x="112.21" y="256.81" width="71" height="207.84" rx="4.47" ry="4.47"/><rect class="cls-2" x="112.21" y="298.58" width="71" height="53.76"/><rect class="cls-2" x="183.21" y="234.29" width="26.14" height="230.64" rx="4.47" ry="4.47"/><rect class="cls-1" x="280.35" y="256.31" width="42.73" height="208.4" rx="4.47" ry="4.47"/><rect class="cls-2" x="294.77" y="273.69" width="13.89" height="173.64" rx="6.88" ry="6.88"/><rect class="cls-2" x="323.09" y="256.53" width="34.34" height="208.4" rx="4.47" ry="4.47"/><rect class="cls-1" x="396.15" y="201.17" width="43.68" height="265.14" rx="4.47" ry="4.47" transform="translate(-99.26 197.55) rotate(-23.85)"/><line class="cls-2" x1="378.96" y1="244.06" x2="451.43" y2="407.96"/><line class="cls-3" x1="70.84" y1="464.71" x2="529.16" y2="464.71"/></g></g></svg>