<svg xmlns="http://www.w3.org/2000/svg" viewBox="0 0 600 600"><defs><style>.cls-1,.cls-3{fill:#fff;}.cls-1,.cls-2,.cls-5{stroke:#cecece;stroke-linecap:round;stroke-linejoin:round;stroke-width:4px;}.cls-2,.cls-4{fill:#efefef;}.cls-5{fill:none;}</style></defs><title>Images</title><g id="Monochrome_Images" data-name="Monochrome Images"><g id="Box"><rect class="cls-1" x="320.67" y="263.4" width="111.35" height="113.04" transform="translate(-46.38 575.44) rotate(-71.52)"/><rect class="cls-1" x="225.87" y="301.54" width="108.13" height="108.13"/><polygon class="cls-1" points="421.71 294.33 388.49 402.52 307.32 376.95 340.54 268.76 421.71 294.33"/><path class="cls-2" d="M447.66,207.94c6.76-6.7,15.64-19.72,10.16-38.83-8.94-31.15-41.47-23-41.47-23-21.6,6.2-19.42,28.53-19.42,28.53s-6.41-7.6-12.21-1.83a8,8,0,0,0-1.94,3.23,27,27,0,0,0-7.64-2.54s-32-4.56-37.78,27.33c-1.68,9.32-.34,16.92,2.29,23a35.94,35.94,0,0,0,25.75,20.7l29.54,6.06-3.42,15.4s26.9,9.31,32.95,1.9,2.42-13.45,2.42-13.45,21.08,2.43,28-13.58C462.55,223.19,455,214.3,447.66,207.94Z"/><line class="cls-1" x1="379.75" y1="333.23" x2="407.64" y2="178.04"/><line class="cls-1" x1="397.95" y1="231.94" x2="432.15" y2="208.17"/><line class="cls-1" x1="415.37" y1="219.83" x2="426.68" y2="221.86"/><line class="cls-1" x1="353.72" y1="224" x2="389.85" y2="275.96"/><line class="cls-1" x1="368.2" y1="226.6" x2="365.66" y2="240.71"/><line class="cls-1" x1="379.53" y1="261.11" x2="362.55" y2="258.06"/><line class="cls-1" x1="392.06" y1="191.37" x2="402.58" y2="206.49"/><line class="cls-1" x1="394.47" y1="251.63" x2="408.79" y2="241.67"/><line class="cls-1" x1="388.11" y1="286.98" x2="409.82" y2="271.88"/><polygon class="cls-1" points="399.56 364.76 348.72 355.62 353.25 282.3 420.84 294.45 399.56 364.76"/><polygon class="cls-2" points="399.56 364.76 348.72 355.62 353.25 282.3 420.84 294.45 399.56 364.76"/><rect class="cls-1" x="377.72" y="253.33" width="15.84" height="85.69" transform="translate(25.93 623.34) rotate(-79.81)"/><rect class="cls-2" x="377.72" y="253.33" width="15.84" height="85.69" transform="translate(25.93 623.34) rotate(-79.81)"/><circle class="cls-2" cx="259.3" cy="336.93" r="49.21"/><rect class="cls-1" x="170.7" y="268.49" width="107.09" height="124.79" transform="translate(-97.15 93.23) rotate(-19.39)"/><path class="cls-1" d="M259.3,347.53l-12-43.47a9,9,0,0,0-1.76-3.36l-62-70.81a2.33,2.33,0,0,0-3-.49l-15,9.33a2.33,2.33,0,0,0-.89,2.92l36.2,86.91a9,9,0,0,0,2.24,3.06l33.71,30Z"/><path class="cls-2" d="M214.05,311.76c1.76,1.4,2.44,3.94.45,5.78-2.58,2.39-5.41-.58-7-3C204.63,310.39,208.32,309.18,214.05,311.76Z"/><path class="cls-2" d="M214.58,336.69a32.79,32.79,0,0,1,3-11.82c1.48-3,3.61-6.06,4.15-9.37.86-5.21-2.76-10.08-5.38-14.21-2.93-4.61-6.6-11.73-.57-15.84,5-3.39,11.32.44,14.91,4.19,4.35,4.54,5.17,9.67,5,15.78-.16,5.59-.35,11.25,3.18,15.94a12.52,12.52,0,0,0,6.7,4.6c2.73.75,6,.87,8.43,2.42l5.31,19.15L236.71,361.6,214.55,341.9A33.78,33.78,0,0,1,214.58,336.69Z"/><path class="cls-2" d="M195.21,276.86c-.2,4.72,4,6.9,5.19,11,1.1,3.69.66,8-3,10.09-2.82,1.6-5.54,1.57-8.89,1.06l-24-57.39a2.33,2.33,0,0,1,.89-2.92l15-9.33a2.33,2.33,0,0,1,3,.49l27.29,31.16C206.69,266.73,195.53,269.26,195.21,276.86Z"/><path class="cls-1" d="M174.93,266.5l-10.37-24.85a2.33,2.33,0,0,1,.89-2.92l15-9.33a2.33,2.33,0,0,1,3,.49l17.74,20.26Z"/><polygon class="cls-1" points="251.8 320.47 259.3 347.53 236.71 361.6 215.73 342.94 251.8 320.47"/><path class="cls-1" d="M287.93,375.94,259.3,347.53,236.71,361.6l12.87,38.22a2.33,2.33,0,0,0,3.48,1.39l34.58-21.54A2.33,2.33,0,0,0,287.93,375.94Z"/><rect class="cls-3" x="165.24" y="323.87" width="270.5" height="168.48"/><path class="cls-4" d="M415.28,422.41l20.46-45.53v-53H165.24V492.35h270.5V482.08H179.16a5.26,5.26,0,0,1-5.26-5.26V422.41Z"/><rect class="cls-5" x="165.24" y="323.87" width="270.5" height="168.48"/><rect class="cls-1" x="469.97" y="306.92" width="7.51" height="101.51" rx="3.72" ry="3.72" transform="translate(-112.02 453.83) rotate(-46.38)"/><rect class="cls-1" x="74.15" y="353.92" width="101.51" height="7.51" rx="3.72" ry="3.72" transform="translate(-212.28 184.93) rotate(-43.62)"/><path class="cls-1" d="M401.23,398.94H140.57a4.54,4.54,0,0,1-4.18-6.29l28.85-68.78h270.5l-30.33,72.29A4.54,4.54,0,0,1,401.23,398.94Z"/><line class="cls-5" x1="88.98" y1="492.35" x2="512.89" y2="492.35"/></g></g></svg>