<svg xmlns="http://www.w3.org/2000/svg" viewBox="0 0 801 600"><defs><style>.cls-1{fill:#efefef;}.cls-1,.cls-2,.cls-5{stroke:#cecece;stroke-linecap:round;stroke-linejoin:round;stroke-width:4px;}.cls-2,.cls-3{fill:#fcfcfc;}.cls-4{fill:#f4f4f4;}.cls-5{fill:none;}</style></defs><title>Images</title><g id="Monochrome_Images" data-name="Monochrome Images"><g id="Bus"><circle class="cls-1" cx="287.7" cy="465.28" r="33.6"/><circle class="cls-2" cx="287.7" cy="465.28" r="14.39"/><circle class="cls-1" cx="526.79" cy="465.28" r="33.6" transform="translate(53.44 984.82) rotate(-89.12)"/><circle class="cls-2" cx="526.79" cy="465.28" r="14.39" transform="translate(53.44 984.82) rotate(-89.12)"/><path class="cls-1" d="M191.63,434.41h.07V389.56h-.07a7.13,7.13,0,0,0-7.13,7.13v30.59A7.13,7.13,0,0,0,191.63,434.41Z"/><path class="cls-3" d="M602.23,348.57c-14.28-50.24-46.46-80.1-98.68-80.1l-192.68.41a174.62,174.62,0,0,0-44.58,5.71c-11.6,3.09-22.44,7.42-31.24,15.58C224.55,299.91,195.8,365,195.8,365a40.93,40.93,0,0,0-4.1,17.86v80.06a2.36,2.36,0,0,0,2.36,2.36H239a2.35,2.35,0,0,0,2.35-2.24A46.4,46.4,0,0,1,334,463a2.35,2.35,0,0,0,2.35,2.24h144c0-.24,0-.48,0-.72A46.39,46.39,0,0,1,573.13,463a2.35,2.35,0,0,0,2.35,2.25h31.46a2.36,2.36,0,0,0,2.36-2.36V379.48a43.29,43.29,0,0,0-1.65-11.84Z"/><path class="cls-4" d="M606.94,455.94H575.48a2.35,2.35,0,0,1-2.35-2.25c-1.15-24.27-21-39.77-45.62-40.15-25.62-.4-46.72,16.06-47.11,41.68,0,.24,0,.48,0,.72h-144A2.35,2.35,0,0,1,334,453.7c-1.17-24.58-21.47-40.16-46.35-40.16s-45.18,15.57-46.35,40.16a2.35,2.35,0,0,1-2.35,2.24H194.06a2.36,2.36,0,0,1-2.36-2.36v9.33a2.36,2.36,0,0,0,2.36,2.36H239a2.35,2.35,0,0,0,2.35-2.24A46.4,46.4,0,0,1,334,463a2.35,2.35,0,0,0,2.35,2.24h144c0-.24,0-.48,0-.72A46.39,46.39,0,0,1,573.13,463a2.35,2.35,0,0,0,2.35,2.24h31.46a2.36,2.36,0,0,0,2.36-2.36v-9.33A2.36,2.36,0,0,1,606.94,455.94Z"/><path class="cls-5" d="M602.23,348.57c-14.28-50.24-46.46-80.1-98.68-80.1l-192.68.41a174.62,174.62,0,0,0-44.58,5.71c-11.6,3.09-22.44,7.42-31.24,15.58C224.55,299.91,195.8,365,195.8,365a40.93,40.93,0,0,0-4.1,17.86v80.06a2.36,2.36,0,0,0,2.36,2.36H239a2.35,2.35,0,0,0,2.35-2.24A46.4,46.4,0,0,1,334,463a2.35,2.35,0,0,0,2.35,2.24h144c0-.24,0-.48,0-.72A46.39,46.39,0,0,1,573.13,463a2.35,2.35,0,0,0,2.35,2.25h31.46a2.36,2.36,0,0,0,2.36-2.36V379.48a43.29,43.29,0,0,0-1.65-11.84Z"/><line class="cls-1" x1="196.1" y1="373.45" x2="607.72" y2="373.45"/><line class="cls-1" x1="287.7" y1="418.88" x2="287.7" y2="373.45"/><line class="cls-1" x1="404.35" y1="465.28" x2="404.35" y2="373.45"/><line class="cls-1" x1="236.51" y1="289.49" x2="564.35" y2="289.49"/><path class="cls-1" d="M281,307.68H261.68a24.55,24.55,0,0,0-22.38,14.47l-10.52,23.37a7.2,7.2,0,0,0,6.57,10.15H281a7.2,7.2,0,0,0,7.2-7.2v-33.6A7.2,7.2,0,0,0,281,307.68Z"/><rect class="cls-1" x="310.61" y="307.68" width="100" height="48" rx="7.2" ry="7.2"/><rect class="cls-1" x="431.41" y="307.68" width="100" height="48" rx="7.2" ry="7.2"/><line class="cls-1" x1="544.35" y1="319.68" x2="574.75" y2="319.68"/><line class="cls-1" x1="544.35" y1="332.48" x2="574.75" y2="332.48"/><line class="cls-1" x1="544.35" y1="345.28" x2="574.75" y2="345.28"/><rect class="cls-1" x="178.9" y="443.68" width="34.4" height="21.6" rx="10.69" ry="10.69"/><rect class="cls-1" x="587.7" y="443.68" width="34.4" height="21.6" rx="10.69" ry="10.69"/><line class="cls-5" x1="309.01" y1="386.08" x2="385.15" y2="386.08"/><path class="cls-5" d="M486.35,420.83a61.75,61.75,0,0,1,40-15.8c14.65-.24,29.33,6.61,40.51,16.09"/><rect class="cls-1" x="343.7" y="222.08" width="113.6" height="34.3" rx="6.88" ry="6.88"/><path class="cls-5" d="M297.21,241.38H503.79a7.43,7.43,0,0,1,7.43,7.43V249a7.43,7.43,0,0,1-7.43,7.43H297.21a7.43,7.43,0,0,1-7.43-7.43v-.15A7.42,7.42,0,0,1,297.21,241.38Z"/><line class="cls-1" x1="363.86" y1="241.38" x2="363.86" y2="268.48"/><line class="cls-1" x1="438.26" y1="241.38" x2="438.26" y2="268.59"/><rect class="cls-1" x="380.93" y="204.48" width="69.49" height="17.6" rx="3.67" ry="3.67"/><line class="cls-5" x1="147.6" y1="498.87" x2="653.4" y2="498.87"/></g></g></svg>