<svg xmlns="http://www.w3.org/2000/svg" viewBox="0 0 600 600"><defs><style>.cls-1{fill:none;}.cls-1,.cls-2,.cls-3{stroke:#cecece;stroke-linecap:round;stroke-linejoin:round;stroke-width:4px;}.cls-2,.cls-4{fill:#fff;}.cls-3,.cls-5{fill:#efefef;}</style></defs><title>Images</title><g id="Monochrome_Images" data-name="Monochrome Images"><g id="Cactus"><line class="cls-1" x1="188.89" y1="490.43" x2="410.93" y2="490.43"/><path class="cls-2" d="M379.52,166.66s24.55-21.76,30.67-10.2-20.32,27.2-20.32,27.2l-10.35-15.29"/><path class="cls-2" d="M245.72,246.9s-9.07-35.36-17.84-32.64-4.31,16.25-4.31,16.25-14.47-16.25-19-8.09,8.08,19,8.08,19-14.47,1.36-10.82,9.52S232.62,264,232.62,264Z"/><path class="cls-3" d="M403.21,169.19c10.71,22-12.54,60.2-39.94,87.9-18.92,19.12-64.57,2.78-63.47-24.09,1.65-40.29,13.47-83,38.94-91.58S391.44,145,403.21,169.19Z"/><circle class="cls-3" cx="299.91" cy="293.19" r="85.05"/><path class="cls-4" d="M233.17,474.77,204.52,348.44H395.31L366.66,474.77A18.9,18.9,0,0,1,348,490.43H251.79A18.9,18.9,0,0,1,233.17,474.77Z"/><path class="cls-5" d="M204.52,348.44l28.65,126.33a18.9,18.9,0,0,0,18.62,15.66H348a18.9,18.9,0,0,0,18.62-15.66l28.65-126.33ZM363.33,460a18.2,18.2,0,0,1-17.69,15.54H254.19A18.2,18.2,0,0,1,236.5,460l-15-68H378.81Z"/><path class="cls-1" d="M233.17,474.77,204.52,348.44H395.31L366.66,474.77A18.9,18.9,0,0,1,348,490.43H251.79A18.9,18.9,0,0,1,233.17,474.77Z"/><path class="cls-4" d="M395.44,385.62H204.38a8.85,8.85,0,0,1-8.79-7.8l-3.32-27.64a8.85,8.85,0,0,1,8.79-9.91H398.76a8.85,8.85,0,0,1,8.79,9.91l-3.32,27.64A8.85,8.85,0,0,1,395.44,385.62Z"/><path class="cls-5" d="M404.23,369a8.85,8.85,0,0,1-8.79,7.8H204.38a8.85,8.85,0,0,1-8.79-7.8l-2.77-23.1a8.79,8.79,0,0,0-.54,4.25l3.32,27.64a8.85,8.85,0,0,0,8.79,7.8H395.44a8.85,8.85,0,0,0,8.79-7.8l3.32-27.64a8.78,8.78,0,0,0-.54-4.25Z"/><path class="cls-1" d="M395.44,385.62H204.38a8.85,8.85,0,0,1-8.79-7.8l-3.32-27.64a8.85,8.85,0,0,1,8.79-9.91H398.76a8.85,8.85,0,0,1,8.79,9.91l-3.32,27.64A8.85,8.85,0,0,1,395.44,385.62Z"/><path class="cls-2" d="M374.06,287.86c-12.51,9.13-20-20.48-20-20.48s-8.85,28.26-21.24,19.15,13.31-25.32,13.31-25.32-29.39,3.48-24.78-14.29,28.19,4.84,28.19,4.84-10.22-28.14,5.93-28,4.11,28.3,4.11,28.3,24-17.33,28.44-3-25.65,12.66-25.65,12.66S386.57,278.73,374.06,287.86Z"/><line class="cls-1" x1="357.83" y1="127.9" x2="354.7" y2="145.58"/><line class="cls-1" x1="392.51" y1="136.74" x2="384.96" y2="147.92"/><line class="cls-1" x1="325.87" y1="136.74" x2="329.27" y2="163.26"/><line class="cls-1" x1="347.93" y1="177.2" x2="346.57" y2="196.24"/><line class="cls-1" x1="372.81" y1="156.46" x2="366.67" y2="172.78"/><line class="cls-1" x1="387.87" y1="176.41" x2="376.61" y2="191.6"/><line class="cls-1" x1="308.19" y1="172.78" x2="313.53" y2="196.24"/><line class="cls-1" x1="261.95" y1="199.3" x2="270.79" y2="223.79"/><line class="cls-1" x1="304.84" y1="223.79" x2="304.84" y2="248.61"/><line class="cls-1" x1="204.52" y1="278.18" x2="227.21" y2="287.85"/><line class="cls-1" x1="239.51" y1="244.86" x2="254.13" y2="263.22"/><line class="cls-1" x1="279.63" y1="260.5" x2="288.9" y2="280.09"/><line class="cls-1" x1="260.59" y1="299.26" x2="275.55" y2="314.22"/><line class="cls-1" x1="210.95" y1="318.3" x2="234.75" y2="318.3"/><line class="cls-1" x1="338.11" y1="314.22" x2="352.83" y2="293.19"/><line class="cls-1" x1="374.17" y1="306.74" x2="395.31" y2="289.61"/><line class="cls-1" x1="368.67" y1="215.96" x2="386.43" y2="207.12"/><line class="cls-1" x1="316.25" y1="293.19" x2="310.91" y2="318.3"/></g></g></svg>