<svg xmlns="http://www.w3.org/2000/svg" viewBox="0 0 600 600"><defs><style>.cls-1{fill:#efefef;}.cls-1,.cls-2,.cls-3{stroke:#cecece;stroke-linecap:round;stroke-linejoin:round;stroke-width:4px;}.cls-2{fill:#fff;}.cls-3{fill:none;}</style></defs><title>Images</title><g id="Monochrome_Images" data-name="Monochrome Images"><g id="Calculator"><path class="cls-1" d="M394.84,458.85,205.67,459a13,13,0,0,1-13-13l-.47-274.24a13,13,0,0,1,13-13l189.17-.11a13,13,0,0,1,13,13l.47,274.24A13,13,0,0,1,394.84,458.85Z"/><rect class="cls-2" x="213.16" y="267.78" width="31.11" height="31.11" rx="4.6" ry="4.6"/><rect class="cls-2" x="261.31" y="267.78" width="31.11" height="31.11" rx="4.6" ry="4.6"/><rect class="cls-2" x="309.23" y="267.78" width="31.11" height="31.11" rx="4.6" ry="4.6"/><rect class="cls-2" x="355.73" y="267.78" width="31.11" height="31.11" rx="4.6" ry="4.6"/><rect class="cls-2" x="213.16" y="314.02" width="31.11" height="31.11" rx="4.6" ry="4.6"/><rect class="cls-2" x="261.31" y="314.02" width="31.11" height="31.11" rx="4.6" ry="4.6"/><rect class="cls-2" x="309.23" y="314.02" width="31.11" height="31.11" rx="4.6" ry="4.6"/><rect class="cls-2" x="355.73" y="314.02" width="31.11" height="31.11" rx="4.6" ry="4.6"/><rect class="cls-2" x="213.16" y="359.47" width="31.11" height="31.11" rx="4.6" ry="4.6"/><rect class="cls-2" x="261.31" y="359.47" width="31.11" height="31.11" rx="4.6" ry="4.6"/><rect class="cls-2" x="309.23" y="359.47" width="31.11" height="31.11" rx="4.6" ry="4.6"/><rect class="cls-2" x="355.73" y="359.47" width="31.11" height="31.11" rx="4.6" ry="4.6"/><rect class="cls-2" x="213.16" y="405.19" width="31.11" height="31.11" rx="4.6" ry="4.6"/><path class="cls-2" d="M335.74,405.19H265.91a4.6,4.6,0,0,0-4.6,4.6V431.7a4.6,4.6,0,0,0,4.6,4.6h69.83a4.6,4.6,0,0,0,4.6-4.6V409.79A4.6,4.6,0,0,0,335.74,405.19Z"/><rect class="cls-2" x="355.73" y="405.19" width="31.11" height="31.11" rx="4.6" ry="4.6"/><line class="cls-3" x1="164.7" y1="458.96" x2="435.3" y2="458.96"/><rect class="cls-2" x="213.16" y="184.51" width="173.68" height="60.75" rx="5.9" ry="5.9"/><line class="cls-2" x1="335.74" y1="230.44" x2="313.82" y2="230.44"/><line class="cls-2" x1="371.29" y1="230.44" x2="349.37" y2="230.44"/><line class="cls-2" x1="302.41" y1="230.44" x2="280.49" y2="230.44"/><line class="cls-2" x1="337.96" y1="230.44" x2="316.04" y2="230.44"/><line class="cls-2" x1="363.05" y1="283.33" x2="380.23" y2="283.33"/><line class="cls-2" x1="363.05" y1="375.02" x2="380.23" y2="375.02"/><line class="cls-2" x1="371.64" y1="274.74" x2="371.64" y2="291.92"/><line class="cls-2" x1="377.71" y1="323.5" x2="365.57" y2="335.65"/><line class="cls-2" x1="377.71" y1="335.65" x2="365.57" y2="323.5"/></g></g></svg>