<svg xmlns="http://www.w3.org/2000/svg" viewBox="0 0 600 600"><defs><style>.cls-1{fill:#fff;}.cls-1,.cls-2,.cls-3{stroke:#cecece;stroke-linecap:round;stroke-linejoin:round;stroke-width:4px;}.cls-2{fill:#efefef;}.cls-3{fill:none;}</style></defs><title>Images</title><g id="Monochrome_Images" data-name="Monochrome Images"><g id="Clock"><path class="cls-1" d="M361.71,364.54H238.29l-28.77,88.54A8,8,0,0,0,221.76,462L300,405.13,378.24,462a8,8,0,0,0,12.24-8.89Z"/><rect class="cls-1" x="294.77" y="203.19" width="10.46" height="159.31"/><rect class="cls-1" x="280.56" y="200.66" width="38.87" height="16.32" rx="4.51" ry="4.51"/><path class="cls-1" d="M305.8,334.36a8,8,0,0,1,0,11.38h0a8,8,0,0,1-11.38,0L165.21,216.93a8,8,0,0,1,0-11.38h0a8,8,0,0,1,11.38,0Z"/><path class="cls-1" d="M305.78,345.77a8,8,0,0,1-11.38,0h0a8,8,0,0,1,0-11.38L423.22,205.19a8,8,0,0,1,11.38,0h0a8,8,0,0,1,0,11.38Z"/><circle class="cls-2" cx="300" cy="341.42" r="112.42"/><circle class="cls-1" cx="300" cy="341.42" r="82.19"/><path class="cls-2" d="M332.43,367.44l-26.05-26.9c-1.83,1.83-3.66,3.67-5.45,5.54l26.53,26.49a3.53,3.53,0,0,0,5.12-.37l0-.05A3.53,3.53,0,0,0,332.43,367.44Z"/><path class="cls-2" d="M345.78,294.4l0-.05a3.63,3.63,0,0,0-5.24-.18l-41,40c1.69,2.21,3.48,4.34,5.2,6.54l41-41.33A3.63,3.63,0,0,0,345.78,294.4Z"/><line class="cls-3" x1="300" y1="341.42" x2="240.81" y2="341.07"/><circle class="cls-2" cx="300" cy="341.42" r="9.98"/><path class="cls-2" d="M177.45,290.71q9.24-9.23,18.46-18.49,18.43-18.49,36.92-36.93,10.55-10.48,21.19-20.87a56.45,56.45,0,1,0-79.84,79.64C175.27,292.93,176.35,291.81,177.45,290.71Z"/><path class="cls-2" d="M349.43,217.42q9.23,9.24,18.49,18.46,18.49,18.43,36.93,36.92,10.48,10.55,20.87,21.19a56.45,56.45,0,1,0-79.64-79.84C347.21,215.24,348.34,216.33,349.43,217.42Z"/><line class="cls-3" x1="148.48" y1="463.53" x2="451.52" y2="463.53"/></g></g></svg>