<svg xmlns="http://www.w3.org/2000/svg" viewBox="0 0 799 600"><defs><style>.cls-1{fill:none;}.cls-1,.cls-2,.cls-3{stroke:#cecece;stroke-linecap:round;stroke-linejoin:round;stroke-width:4px;}.cls-2{fill:#fff;}.cls-3{fill:#efefef;}</style></defs><title>Images</title><g id="Monochrome_Images" data-name="Monochrome Images"><g id="Closed_MacBook" data-name="Closed MacBook"><line class="cls-1" x1="159.42" y1="420.62" x2="275.91" y2="420.62"/><line class="cls-1" x1="494.87" y1="385.33" x2="611.36" y2="385.33"/><line class="cls-1" x1="545.34" y1="441.57" x2="661.84" y2="441.57"/><line class="cls-1" x1="142.99" y1="411.48" x2="160.26" y2="411.48"/><line class="cls-1" x1="653.2" y1="431.19" x2="670.48" y2="431.19"/><path class="cls-2" d="M639.28,460.27l-479.41-.09s-2.05-9.2,1.43-13.78l68.08-89.68c1.73-2.28,8.81-4.09,15.85-4.09H553.65c7,0,14.13,1.81,15.85,4.09l68.08,89.68C641.05,451,639.28,460.27,639.28,460.27Z"/><line class="cls-3" x1="161.1" y1="452.99" x2="637.9" y2="452.99"/><ellipse class="cls-3" cx="399.5" cy="399.37" rx="25.88" ry="11.64"/><path class="cls-2" d="M626.21,474.06l-453-.14c-8.9-.18-14.06-13.89-13.37-13.74l479.33.09S634.55,474.06,626.21,474.06Z"/><path class="cls-2" d="M450.05,462.16s1.2,4-5.91,4H356c-7.11,0-5.91-4-5.91-4"/><line class="cls-1" x1="95.1" y1="474.06" x2="703.9" y2="474.06"/><ellipse class="cls-2" cx="192.35" cy="472.37" rx="3.37" ry="1.69"/><ellipse class="cls-2" cx="468.67" cy="472.37" rx="3.37" ry="1.69"/><ellipse class="cls-2" cx="330.33" cy="472.37" rx="3.37" ry="1.69"/><ellipse class="cls-2" cx="606.65" cy="472.37" rx="3.37" ry="1.69"/><line class="cls-1" x1="602.34" y1="465.25" x2="613.58" y2="465.25"/></g></g></svg>