<svg xmlns="http://www.w3.org/2000/svg" viewBox="0 0 600 600"><defs><style>.cls-1{fill:#efefef;stroke:#cecece;stroke-linecap:round;stroke-linejoin:round;stroke-width:4px;}</style></defs><title>Images</title><g id="Monochrome_Images" data-name="Monochrome Images"><g id="Clouds"><path class="cls-1" d="M511.7,340.54c19.11,0,10.17-30.29-14-23.06-1.34-42.07-69.91-72.84-98.26-16.11-8-6.34-26,5.64-22,16.11A139.22,139.22,0,0,0,356,320.64c-12.58,3.15-10.09,19.76,2.88,19.65Z"/><path class="cls-1" d="M273.56,312.32h49a4.53,4.53,0,0,0,2.69-8.2l-.15-.11c-5.11-3.51-11.81-3.19-11.81-3.19s-1-19-19-19c-16.31,0-22.81,16-25.16,24.83A4.53,4.53,0,0,0,273.56,312.32Z"/><path class="cls-1" d="M463.11,454.84H409a4.53,4.53,0,0,1-2.69-8.2l.15-.11c5.11-3.51,11.81-3.19,11.81-3.19s1-19,19-19c8.92,0,16.13,15.25,16.13,15.25s12.13,0,14.14,9.58A4.59,4.59,0,0,1,463.11,454.84Z"/><path class="cls-1" d="M105.35,423.14H401.81c27.83,0,26.55-22.91,17.46-30.9-9.32-8.18-27.73-4.86-27.73-4.86S386.07,372,368,364.47c-16-6.64-32.67-3.48-32.67-3.48s0-10.58-10.22-19.34-23.84-7.91-23.84-7.91-9.37-58.32-71.95-58.32-69.82,54.92-69.82,54.92-14,0-24.27,9.37-11.49,20-11.49,20-34.17-4.6-44.27,24.87C73.47,402.15,85.85,423.14,105.35,423.14Z"/></g></g></svg>