<svg xmlns="http://www.w3.org/2000/svg" viewBox="0 0 600 600"><defs><style>.cls-1,.cls-2{fill:#fff;}.cls-1,.cls-4,.cls-5{stroke:#cecece;stroke-linecap:round;stroke-linejoin:round;stroke-width:4px;}.cls-3{fill:#f4f4f4;}.cls-4{fill:none;}.cls-5{fill:#efefef;}</style></defs><title>Images</title><g id="Monochrome_Images" data-name="Monochrome Images"><g id="Coffee_to_Go" data-name="Coffee to Go"><polygon class="cls-1" points="389.02 240.78 210.98 240.78 214.49 224.46 385.51 224.46 389.02 240.78"/><polygon class="cls-2" points="235.98 458.02 204.61 245.31 395.39 245.31 364.02 458.02 235.98 458.02"/><polygon class="cls-3" points="204.61 245.31 235.98 458.02 261.99 458.02 233.08 261.45 393.01 261.45 395.39 245.31 204.61 245.31"/><polygon class="cls-4" points="235.98 458.02 204.61 245.31 395.39 245.31 364.02 458.02 235.98 458.02"/><path class="cls-5" d="M373.1,396.47l13.74-93.13H213.17L226.83,396C275.57,396.5,324.35,397.13,373.1,396.47Z"/><circle class="cls-1" cx="300" cy="349.36" r="29.11"/><rect class="cls-5" x="282.72" y="230.36" width="34.56" height="8.16"/><polygon class="cls-1" points="403.38 253.47 196.62 253.47 200.7 237.16 399.3 237.16 403.38 253.47"/><path class="cls-4" d="M296.73,146.26s15.87,10.88,3.22,29-3.22,29-3.22,29"/><path class="cls-4" d="M313,179.81s-15.87,10.88-3.22,29"/><line class="cls-4" x1="188.98" y1="458.03" x2="411.02" y2="458.03"/></g></g></svg>