<svg xmlns="http://www.w3.org/2000/svg" viewBox="0 0 600 600"><defs><style>.cls-1{fill:#efefef;}.cls-1,.cls-4,.cls-6{stroke:#cecece;stroke-linecap:round;stroke-linejoin:round;stroke-width:4px;}.cls-2,.cls-6{fill:#fff;}.cls-3{fill:#f4f4f4;}.cls-4{fill:none;}.cls-5{fill:#cecece;}</style></defs><title>Images</title><g id="Monochrome_Images" data-name="Monochrome Images"><g id="Gamepad"><path class="cls-1" d="M220.29,323.4l-39.81,1.49-.23-6.07a4.24,4.24,0,0,1,3.34-4.31,99.15,99.15,0,0,1,32.74-1.16,4.25,4.25,0,0,1,3.73,4.06Z"/><path class="cls-1" d="M414.73,324.13l-39.82-1.05.16-6.08a4.24,4.24,0,0,1,3.61-4.09,99.15,99.15,0,0,1,32.75.92,4.25,4.25,0,0,1,3.47,4.29Z"/><path class="cls-2" d="M412.32,491.37c16.53-1.46,33.15-9,43.54-21.57a121.2,121.2,0,0,0-.82-17.11c-7.28-64.25-23.93-105.09-23.93-105.09-4.55-12.82-6.87-20.2-13.54-25.2s-42.53-6.19-47.57-.8c-1.7,1.82-4.4,2.34-6.89,2.34H232a10.41,10.41,0,0,1-6.77-2.24c-5.13-4.35-40.36-3.76-47,.86-7.14,5-9.64,12.22-14.37,25,0,0-16.64,40.85-23.93,105.09a119.7,119.7,0,0,0-.79,17.84c10.42,12.12,26.71,19.41,42.92,20.84a89.72,89.72,0,0,0,18.61-.37,126.69,126.69,0,0,0,7.93-15c3.35-7.35,6.54-15.44,9.14-22.44a19.86,19.86,0,0,1,18.62-12.93H358.62a19.86,19.86,0,0,1,18.62,12.93c2.6,7,5.79,15.09,9.14,22.44a126.38,126.38,0,0,0,8,15.11A89.34,89.34,0,0,0,412.32,491.37Z"/><path class="cls-3" d="M412.32,477.16l-.18,0a25.86,25.86,0,0,1-25.6-15.07l-.16-.35c-3.35-7.35-6.54-15.44-9.14-22.44a19.86,19.86,0,0,0-18.62-12.93H236.37a19.86,19.86,0,0,0-18.62,12.93c-2.6,7-5.79,15.09-9.14,22.44l-.18.39a26,26,0,0,1-25.63,15.07l-.73-.06c-16-1.41-32.1-8.55-42.53-20.41a113.54,113.54,0,0,0-.39,13.79c10.42,12.12,26.71,19.41,42.92,20.84a89.71,89.71,0,0,0,18.61-.37,126.67,126.67,0,0,0,7.93-15c3.35-7.35,6.54-15.44,9.14-22.44a19.86,19.86,0,0,1,18.62-12.93H358.62a19.86,19.86,0,0,1,18.62,12.93c2.6,7,5.79,15.09,9.14,22.44a126.35,126.35,0,0,0,8,15.11,89.33,89.33,0,0,0,18,.29c16.53-1.46,33.16-9,43.54-21.57a116.21,116.21,0,0,0-.48-13.67C445,468.36,428.61,475.72,412.32,477.16Z"/><path class="cls-4" d="M412.32,491.37c16.53-1.46,33.15-9,43.54-21.57a121.2,121.2,0,0,0-.82-17.11c-7.28-64.25-23.93-105.09-23.93-105.09-4.55-12.82-6.87-20.2-13.54-25.2s-42.53-6.19-47.57-.8c-1.7,1.82-4.4,2.34-6.89,2.34H232a10.41,10.41,0,0,1-6.77-2.24c-5.13-4.35-40.36-3.76-47,.86-7.14,5-9.64,12.22-14.37,25,0,0-16.64,40.85-23.93,105.09a119.7,119.7,0,0,0-.79,17.84c10.42,12.12,26.71,19.41,42.92,20.84a89.72,89.72,0,0,0,18.61-.37,126.69,126.69,0,0,0,7.93-15c3.35-7.35,6.54-15.44,9.14-22.44a19.86,19.86,0,0,1,18.62-12.93H358.62a19.86,19.86,0,0,1,18.62,12.93c2.6,7,5.79,15.09,9.14,22.44a126.38,126.38,0,0,0,8,15.11A89.34,89.34,0,0,0,412.32,491.37Z"/><circle class="cls-4" cx="198.7" cy="372.59" r="37.82"/><circle class="cls-4" cx="396.63" cy="372.59" r="37.82"/><path class="cls-1" d="M343.89,382.64H251.1a6.05,6.05,0,0,1-6.05-6.05V326.66a5,5,0,0,1,5-5h94.8a5,5,0,0,1,5,5v49.92A6.05,6.05,0,0,1,343.89,382.64Z"/><circle class="cls-1" cx="297.58" cy="416.93" r="7.31"/><path class="cls-5" d="M286.15,393.76c2.63,0,2.63-4.08,0-4.08s-2.63,4.08,0,4.08Z"/><path class="cls-5" d="M291.92,393.76c2.63,0,2.63-4.08,0-4.08s-2.63,4.08,0,4.08Z"/><path class="cls-5" d="M297.58,393.76c2.63,0,2.63-4.08,0-4.08s-2.63,4.08,0,4.08Z"/><path class="cls-5" d="M303.26,393.76c2.63,0,2.63-4.08,0-4.08s-2.63,4.08,0,4.08Z"/><path class="cls-5" d="M308.94,393.76c2.63,0,2.63-4.08,0-4.08s-2.63,4.08,0,4.08Z"/><path class="cls-5" d="M289,397.76c2.63,0,2.63-4.08,0-4.08s-2.63,4.08,0,4.08Z"/><path class="cls-5" d="M294.65,397.76c2.63,0,2.63-4.08,0-4.08s-2.63,4.08,0,4.08Z"/><path class="cls-5" d="M300.33,397.76c2.63,0,2.63-4.08,0-4.08s-2.63,4.08,0,4.08Z"/><path class="cls-5" d="M306,397.76c2.63,0,2.63-4.08,0-4.08s-2.63,4.08,0,4.08Z"/><path class="cls-5" d="M291.82,401.73c2.63,0,2.63-4.08,0-4.08s-2.63,4.08,0,4.08Z"/><path class="cls-5" d="M297.5,401.73c2.63,0,2.63-4.08,0-4.08s-2.63,4.08,0,4.08Z"/><path class="cls-5" d="M303.18,401.73c2.63,0,2.63-4.08,0-4.08s-2.63,4.08,0,4.08Z"/><path class="cls-1" d="M236.52,345a4.32,4.32,0,0,1-4.32,4.32h0a4.32,4.32,0,0,1-4.32-4.32v-9a4.32,4.32,0,0,1,4.32-4.32h0a4.32,4.32,0,0,1,4.32,4.32Z"/><path class="cls-1" d="M367.45,345a4.32,4.32,0,0,1-4.32,4.32h0a4.32,4.32,0,0,1-4.32-4.32v-9a4.32,4.32,0,0,1,4.32-4.32h0a4.32,4.32,0,0,1,4.32,4.32Z"/><path class="cls-1" d="M412.32,491.37a89.34,89.34,0,0,1-18-.29c8.2,12.94,19.8,23.39,37,18.64,15.93-4.4,23.86-18.26,24.49-39.92C445.48,482.36,428.85,489.91,412.32,491.37Z"/><path class="cls-1" d="M182.07,491.37c-16.2-1.43-32.5-8.72-42.92-20.84.79,21.24,8.71,34.84,24.46,39.19,17.25,4.76,28.86-5.74,37.06-18.72A89.72,89.72,0,0,1,182.07,491.37Z"/><circle class="cls-1" cx="396.63" cy="349.71" r="10.04"/><circle class="cls-1" cx="396.63" cy="394.36" r="10.04"/><circle class="cls-1" cx="418.67" cy="372.59" r="10.04"/><circle class="cls-1" cx="374.53" cy="372.59" r="10.04"/><path class="cls-1" d="M206.08,358.63l-4.24,4.24a4.79,4.79,0,0,1-6.82,0l-4.08-4.2a4.79,4.79,0,0,1-1.36-3.34v-7.89a4.79,4.79,0,0,1,4.79-4.79h8.32a4.79,4.79,0,0,1,4.79,4.79v7.85A4.79,4.79,0,0,1,206.08,358.63Z"/><path class="cls-1" d="M206.08,385.46l-4.24-4.24a4.79,4.79,0,0,0-6.82,0l-4.08,4.2a4.79,4.79,0,0,0-1.36,3.34v7.89a4.79,4.79,0,0,0,4.79,4.79h8.32a4.79,4.79,0,0,0,4.79-4.79v-7.85A4.79,4.79,0,0,0,206.08,385.46Z"/><path class="cls-1" d="M211.19,379.59,207,375.35a4.79,4.79,0,0,1,0-6.82l4.2-4.08a4.79,4.79,0,0,1,3.34-1.36h7.89a4.79,4.79,0,0,1,4.79,4.79v8.32a4.79,4.79,0,0,1-4.79,4.79h-7.85A4.79,4.79,0,0,1,211.19,379.59Z"/><path class="cls-1" d="M185,379.59l4.24-4.24a4.79,4.79,0,0,0,0-6.82l-4.2-4.08a4.79,4.79,0,0,0-3.34-1.36h-7.89a4.79,4.79,0,0,0-4.79,4.79v8.32a4.79,4.79,0,0,0,4.79,4.79h7.85A4.79,4.79,0,0,0,185,379.59Z"/><circle class="cls-6" cx="247.07" cy="417.69" r="29.25"/><circle class="cls-1" cx="247.07" cy="417.69" r="17.61"/><circle class="cls-6" cx="347.52" cy="417.69" r="29.25"/><circle class="cls-1" cx="347.52" cy="417.69" r="17.61"/><line class="cls-4" x1="104" y1="510.88" x2="496" y2="510.88"/></g></g></svg>