<svg xmlns="http://www.w3.org/2000/svg" viewBox="0 0 600 600"><defs><style>.cls-1{fill:none;}.cls-1,.cls-2,.cls-3{stroke:#cecece;stroke-linecap:round;stroke-linejoin:round;stroke-width:4px;}.cls-2{fill:#efefef;}.cls-3{fill:#fcfcfc;}</style></defs><title>Images</title><g id="Monochrome_Images" data-name="Monochrome Images"><g id="Graph"><rect class="cls-1" x="176.45" y="237.89" width="242.55" height="230.31" rx="13.15" ry="13.15"/><path class="cls-1" d="M176.44,392.24a45.28,45.28,0,0,1,27.67-8.83c39.44,0,44.06,41.18,68.27,41.18s52.78-60.69,65.52-82.74c37.57-65,62.05-44.94,81.09-21"/><path class="cls-2" d="M337.9,341.85c-12.74,22-41.31,82.74-65.52,82.74s-28.83-41.18-68.27-41.18a45.28,45.28,0,0,0-27.67,8.83V455A13.15,13.15,0,0,0,189.6,468.2H405.84A13.15,13.15,0,0,0,419,455V320.85C400,296.92,375.47,276.84,337.9,341.85Z"/><circle class="cls-3" cx="205.02" cy="382.71" r="9.53"/><circle class="cls-3" cx="273.46" cy="422.16" r="9.53"/><circle class="cls-3" cx="385.9" cy="298" r="9.53"/><line class="cls-1" x1="139.29" y1="468.2" x2="459.15" y2="468.2"/><path class="cls-1" d="M178.59,390.81c-16.9,8.1-33.94,46.49-67.88,46.49"/><path class="cls-1" d="M412.23,312.91l21.45,30.62c12.22,17.45,31.73,28.76,53,29.58q1.3.05,2.6.05"/></g></g></svg>