<svg xmlns="http://www.w3.org/2000/svg" viewBox="0 0 600 600"><defs><style>.cls-1,.cls-5{fill:#fff;}.cls-2,.cls-4{fill:#efefef;}.cls-3{fill:none;}.cls-3,.cls-4,.cls-5,.cls-7{stroke:#cecece;stroke-linecap:round;stroke-linejoin:round;stroke-width:4px;}.cls-6{fill:#c7cfd3;}.cls-7{fill:#fcfcfc;}</style></defs><title>Images</title><g id="Monochrome_Images" data-name="Monochrome Images"><g id="iMac"><path class="cls-1" d="M369.48,456h-139c27-25.12,27.64-64.65,29.79-103.38h79.2C340.15,395.49,343.56,435.86,369.48,456Z"/><path class="cls-1" d="M369.48,456h-139c27-25.12,27.64-64.65,29.79-103.38h79.2C340.15,395.49,343.56,435.86,369.48,456Z"/><path class="cls-2" d="M346.88,418c-5.29-19.09-6.48-41.86-6.83-65.39h-79.2c-1.25,22.52-2,45.31-7.73,65.39Z"/><path class="cls-3" d="M369.48,456h-139c27-25.12,27.64-64.65,29.79-103.38h79.2C340.15,395.49,343.56,435.86,369.48,456Z"/><path class="cls-4" d="M493.08,371.75V141.91c0-9.17-4.66-13.74-10.41-13.74H117.33c-5.75,0-10.41,4.57-10.41,13.74V371.75Z"/><path class="cls-5" d="M106.92,358.64v34.14A10.31,10.31,0,0,0,117.33,403H482.67a10.31,10.31,0,0,0,10.41-10.21V358.64Z"/><ellipse class="cls-6" cx="300" cy="380.23" rx="8.98" ry="8.8"/><rect class="cls-5" x="121.76" y="144.2" width="356.49" height="198.57"/><ellipse class="cls-6" cx="300" cy="135.81" rx="3.09" ry="3.03"/><line class="cls-3" x1="167.79" y1="456.02" x2="432.21" y2="456.02"/><rect class="cls-5" x="226.44" y="447.61" width="147.12" height="8.23" rx="4.08" ry="4.08"/><path class="cls-4" d="M382.09,309.32H217.91a7,7,0,0,1-7-7V185.56a7,7,0,0,1,7-7H382.09a7,7,0,0,1,7,7V302.3A7,7,0,0,1,382.09,309.32Z"/><path class="cls-7" d="M344.46,284.52H255.54a3.8,3.8,0,0,1-3.81-3.8V217.49a3.8,3.8,0,0,1,3.81-3.8h88.93a3.8,3.8,0,0,1,3.81,3.8v63.23A3.8,3.8,0,0,1,344.46,284.52Z"/><path class="cls-7" d="M389.12,193.83v-8.27a7,7,0,0,0-7-7H217.91a7,7,0,0,0-7,7v8.27Z"/><line class="cls-3" x1="271.77" y1="249.1" x2="328.23" y2="249.1"/><line class="cls-3" x1="271.77" y1="234.5" x2="328.23" y2="234.5"/><line class="cls-3" x1="280.82" y1="264.29" x2="319.18" y2="264.29"/><line class="cls-3" x1="123.16" y1="156.55" x2="477.24" y2="156.55"/><line class="cls-3" x1="139.89" y1="150.53" x2="163.01" y2="150.53"/><line class="cls-3" x1="449.97" y1="150.53" x2="466.29" y2="150.53"/><line class="cls-3" x1="427.63" y1="150.53" x2="442.59" y2="150.53"/><line class="cls-3" x1="407.91" y1="150.53" x2="420.15" y2="150.53"/></g></g></svg>