<svg xmlns="http://www.w3.org/2000/svg" viewBox="0 0 600 600"><defs><style>.cls-1{fill:#fff;}.cls-2,.cls-4{fill:#efefef;}.cls-3{fill:none;}.cls-3,.cls-4,.cls-5{stroke:#cecece;stroke-linecap:round;stroke-linejoin:round;stroke-width:4px;}.cls-5{fill:#fcfcfc;}</style></defs><title>Images</title><g id="Monochrome_Images" data-name="Monochrome Images"><g id="iPad_Air" data-name="iPad Air"><path class="cls-1" d="M401.84,455.76H199.23c-7.68,0-13.92-6.8-13.95-14.48l-1-301a13.9,13.9,0,0,1,13.86-13.95l202.6-.45a13.9,13.9,0,0,1,13.95,13.86l1,301C415.72,448.42,409.52,455.74,401.84,455.76Z"/><path class="cls-2" d="M415.66,430.51c-.13,7.42-6.15,14.42-13.58,14.44H203.36c-7.53,0-13.66-6.67-13.68-14.2l-1-295.23a13.56,13.56,0,0,1,1.85-6.88,13.88,13.88,0,0,0-6.26,11.65l1,301c0,7.68,6.27,14.5,13.95,14.48h202.6c7.68,0,13.88-7.34,13.86-15Z"/><path class="cls-3" d="M401.84,455.76H199.23c-7.68,0-13.92-6.8-13.95-14.48l-1-301a13.9,13.9,0,0,1,13.86-13.95l202.6-.45a13.9,13.9,0,0,1,13.95,13.86l1,301C415.72,448.42,409.52,455.74,401.84,455.76Z"/><rect class="cls-3" x="197.51" y="151.42" width="204.97" height="272.83"/><circle class="cls-3" cx="300" cy="140.3" r="3.81"/><circle class="cls-3" cx="300" cy="439" r="9.09"/><rect class="cls-4" x="223.44" y="178.85" width="19" height="19" rx="2.81" ry="2.81"/><rect class="cls-5" x="267.56" y="178.85" width="19" height="19" rx="2.81" ry="2.81"/><rect class="cls-4" x="311.46" y="178.85" width="19" height="19" rx="2.81" ry="2.81"/><rect class="cls-4" x="356.98" y="178.85" width="19" height="19" rx="2.81" ry="2.81"/><rect class="cls-5" x="223.44" y="221.39" width="19" height="19" rx="2.81" ry="2.81"/><rect class="cls-4" x="267.56" y="221.39" width="19" height="19" rx="2.81" ry="2.81"/><rect class="cls-5" x="311.46" y="221.39" width="19" height="19" rx="2.81" ry="2.81"/><rect class="cls-4" x="356.98" y="221.39" width="19" height="19" rx="2.81" ry="2.81"/><rect class="cls-4" x="223.44" y="263.75" width="19" height="19" rx="2.81" ry="2.81"/><rect class="cls-4" x="267.56" y="263.75" width="19" height="19" rx="2.81" ry="2.81"/><rect class="cls-5" x="311.46" y="263.75" width="19" height="19" rx="2.81" ry="2.81"/><rect class="cls-4" x="356.98" y="263.75" width="19" height="19" rx="2.81" ry="2.81"/><rect class="cls-4" x="223.44" y="305.39" width="19" height="19" rx="2.81" ry="2.81"/><rect class="cls-4" x="267.56" y="305.39" width="19" height="19" rx="2.81" ry="2.81"/><rect class="cls-4" x="311.46" y="305.39" width="19" height="19" rx="2.81" ry="2.81"/><rect class="cls-4" x="356.98" y="305.39" width="19" height="19" rx="2.81" ry="2.81"/><rect class="cls-4" x="223.44" y="394.92" width="19" height="19" rx="2.81" ry="2.81"/><rect class="cls-4" x="267.56" y="394.92" width="19" height="19" rx="2.81" ry="2.81"/><rect class="cls-4" x="311.46" y="394.92" width="19" height="19" rx="2.81" ry="2.81"/><rect class="cls-5" x="356.98" y="394.92" width="19" height="19" rx="2.81" ry="2.81"/><line class="cls-3" x1="197.51" y1="386.94" x2="402.49" y2="386.94"/><line class="cls-3" x1="155.1" y1="455.76" x2="444.9" y2="455.76"/></g></g></svg>