<svg xmlns="http://www.w3.org/2000/svg" viewBox="0 0 799 600"><defs><style>.cls-1{fill:#efefef;}.cls-1,.cls-2,.cls-3{stroke:#cecece;stroke-linecap:round;stroke-linejoin:round;stroke-width:4px;}.cls-2{fill:#fcfcfc;}.cls-3{fill:none;}</style></defs><title>Images</title><g id="Monochrome_Images" data-name="Monochrome Images"><g id="Keyboard"><path class="cls-1" d="M637.59,462.91a7,7,0,0,1-7,7H169.32a7,7,0,0,1-7-7V272.54c0-7,4.89-19.63,12-19.63H628.09c6.64,0,9.5,10.45,9.5,17.1Z"/><rect class="cls-2" x="309.04" y="432.75" width="151.13" height="27.44" rx="3.17" ry="3.17"/><rect class="cls-2" x="269.48" y="432.75" width="31.24" height="27.44" rx="3.17" ry="3.17"/><rect class="cls-2" x="467.89" y="432.75" width="31.24" height="27.44" rx="3.17" ry="3.17"/><rect class="cls-2" x="236.55" y="432.75" width="24.91" height="27.44" rx="3.17" ry="3.17"/><rect class="cls-2" x="245.84" y="400.66" width="23.64" height="23.64" rx="3.38" ry="3.38"/><rect class="cls-2" x="277.08" y="400.66" width="23.64" height="23.64" rx="3.38" ry="3.38"/><rect class="cls-2" x="309.04" y="400.66" width="23.64" height="23.64" rx="3.38" ry="3.38"/><rect class="cls-2" x="340.82" y="400.66" width="23.64" height="23.64" rx="3.38" ry="3.38"/><rect class="cls-2" x="373.33" y="400.66" width="23.64" height="23.64" rx="3.38" ry="3.38"/><rect class="cls-2" x="405.41" y="400.66" width="23.64" height="23.64" rx="3.38" ry="3.38"/><rect class="cls-2" x="437.07" y="400.66" width="23.64" height="23.64" rx="3.38" ry="3.38"/><rect class="cls-2" x="467.89" y="400.66" width="23.64" height="23.64" rx="3.38" ry="3.38"/><rect class="cls-2" x="500.39" y="400.66" width="23.64" height="23.64" rx="3.38" ry="3.38"/><rect class="cls-2" x="532.47" y="400.66" width="23.64" height="23.64" rx="3.38" ry="3.38"/><rect class="cls-2" x="229.38" y="369" width="23.64" height="23.64" rx="3.17" ry="3.17"/><rect class="cls-2" x="260.62" y="369" width="23.64" height="23.64" rx="3.17" ry="3.17"/><rect class="cls-2" x="292.58" y="369" width="23.64" height="23.64" rx="3.17" ry="3.17"/><rect class="cls-2" x="324.36" y="369" width="23.64" height="23.64" rx="3.17" ry="3.17"/><rect class="cls-2" x="356.86" y="369" width="23.64" height="23.64" rx="3.17" ry="3.17"/><rect class="cls-2" x="388.95" y="369" width="23.64" height="23.64" rx="3.17" ry="3.17"/><rect class="cls-2" x="420.61" y="369" width="23.64" height="23.64" rx="3.17" ry="3.17"/><rect class="cls-2" x="451.42" y="369" width="23.64" height="23.64" rx="3.17" ry="3.17"/><rect class="cls-2" x="483.93" y="369" width="23.64" height="23.64" rx="3.17" ry="3.17"/><rect class="cls-2" x="516.01" y="369" width="23.64" height="23.64" rx="3.17" ry="3.17"/><rect class="cls-2" x="548.52" y="369" width="23.64" height="23.64" rx="3.17" ry="3.17"/><rect class="cls-2" x="221.78" y="337.76" width="23.64" height="23.64" rx="3.17" ry="3.17"/><rect class="cls-2" x="253.02" y="337.76" width="23.64" height="23.64" rx="3.17" ry="3.17"/><rect class="cls-2" x="284.98" y="337.76" width="23.64" height="23.64" rx="3.17" ry="3.17"/><rect class="cls-2" x="316.76" y="337.76" width="23.64" height="23.64" rx="3.17" ry="3.17"/><rect class="cls-2" x="349.27" y="337.76" width="23.64" height="23.64" rx="3.17" ry="3.17"/><rect class="cls-2" x="381.35" y="337.76" width="23.64" height="23.64" rx="3.17" ry="3.17"/><rect class="cls-2" x="413.01" y="337.76" width="23.64" height="23.64" rx="3.17" ry="3.17"/><rect class="cls-2" x="443.83" y="337.76" width="23.64" height="23.64" rx="3.17" ry="3.17"/><rect class="cls-2" x="476.33" y="337.76" width="23.64" height="23.64" rx="3.17" ry="3.17"/><rect class="cls-2" x="508.41" y="337.76" width="23.64" height="23.64" rx="3.17" ry="3.17"/><rect class="cls-2" x="540.92" y="337.76" width="23.64" height="23.64" rx="3.17" ry="3.17"/><rect class="cls-2" x="572.16" y="337.76" width="23.64" height="23.64" rx="3.17" ry="3.17"/><rect class="cls-2" x="604.66" y="337.76" width="23.64" height="23.64" rx="3.17" ry="3.17"/><rect class="cls-2" x="205.31" y="306.1" width="23.64" height="23.64" rx="3.17" ry="3.17"/><rect class="cls-2" x="172.64" y="306.1" width="23.64" height="23.64" rx="3.17" ry="3.17"/><rect class="cls-2" x="237.82" y="306.1" width="23.64" height="23.64" rx="3.17" ry="3.17"/><rect class="cls-2" x="269.78" y="306.1" width="23.64" height="23.64" rx="3.17" ry="3.17"/><rect class="cls-2" x="301.56" y="306.1" width="23.64" height="23.64" rx="3.17" ry="3.17"/><rect class="cls-2" x="334.07" y="306.1" width="23.64" height="23.64" rx="3.17" ry="3.17"/><rect class="cls-2" x="366.15" y="306.1" width="23.64" height="23.64" rx="3.17" ry="3.17"/><rect class="cls-2" x="397.81" y="306.1" width="23.64" height="23.64" rx="3.17" ry="3.17"/><rect class="cls-2" x="428.63" y="306.1" width="23.64" height="23.64" rx="3.17" ry="3.17"/><rect class="cls-2" x="461.13" y="306.1" width="23.64" height="23.64" rx="3.17" ry="3.17"/><rect class="cls-2" x="493.22" y="306.1" width="23.64" height="23.64" rx="3.17" ry="3.17"/><rect class="cls-2" x="525.72" y="306.1" width="23.64" height="23.64" rx="3.17" ry="3.17"/><rect class="cls-2" x="556.96" y="306.1" width="23.64" height="23.64" rx="3.17" ry="3.17"/><rect class="cls-2" x="206.58" y="284.15" width="23.64" height="13.93" rx="3.17" ry="3.17"/><rect class="cls-2" x="172.64" y="284.15" width="23.64" height="13.93" rx="3.17" ry="3.17"/><rect class="cls-2" x="240.35" y="284.15" width="23.64" height="13.93" rx="3.17" ry="3.17"/><rect class="cls-2" x="273.58" y="284.15" width="23.64" height="13.93" rx="3.17" ry="3.17"/><rect class="cls-2" x="306.63" y="284.15" width="23.64" height="13.93" rx="3.17" ry="3.17"/><rect class="cls-2" x="340.4" y="284.15" width="23.64" height="13.93" rx="3.17" ry="3.17"/><rect class="cls-2" x="373.75" y="284.15" width="23.64" height="13.93" rx="3.17" ry="3.17"/><rect class="cls-2" x="406.68" y="284.15" width="23.64" height="13.93" rx="3.17" ry="3.17"/><rect class="cls-2" x="438.76" y="284.15" width="23.64" height="13.93" rx="3.17" ry="3.17"/><rect class="cls-2" x="472.53" y="284.15" width="23.64" height="13.93" rx="3.17" ry="3.17"/><rect class="cls-2" x="505.88" y="284.15" width="23.64" height="13.93" rx="3.17" ry="3.17"/><rect class="cls-2" x="539.65" y="284.15" width="23.64" height="13.93" rx="3.17" ry="3.17"/><rect class="cls-2" x="572.16" y="284.15" width="23.64" height="13.93" rx="3.17" ry="3.17"/><rect class="cls-2" x="604.66" y="284.15" width="23.64" height="13.93" rx="3.17" ry="3.17"/><rect class="cls-2" x="589.46" y="306.1" width="39.26" height="23.64" rx="3.17" ry="3.17"/><rect class="cls-2" x="580.18" y="369" width="48.55" height="23.64" rx="3.17" ry="3.17"/><rect class="cls-2" x="564.14" y="400.66" width="64.59" height="23.64" rx="3.38" ry="3.38"/><rect class="cls-2" x="172.64" y="400.66" width="64.54" height="23.64" rx="3.38" ry="3.38"/><rect class="cls-2" x="172.64" y="369" width="49.13" height="23.64" rx="3.17" ry="3.17"/><rect class="cls-2" x="172.64" y="337.76" width="41.54" height="23.64" rx="3.17" ry="3.17"/><rect class="cls-2" x="507.57" y="432.75" width="24.91" height="27.44" rx="3.17" ry="3.17"/><rect class="cls-2" x="204.89" y="432.75" width="24.91" height="27.44" rx="3.17" ry="3.17"/><rect class="cls-2" x="540.07" y="448.79" width="23.64" height="11.4" rx="3.38" ry="3.38"/><rect class="cls-2" x="603.82" y="448.79" width="24.91" height="11.4" rx="3.38" ry="3.38"/><rect class="cls-2" x="570.89" y="432.75" width="26.17" height="27.44" rx="3.38" ry="3.38"/><rect class="cls-2" x="172.64" y="432.75" width="24.91" height="27.44" rx="3.17" ry="3.17"/><line class="cls-3" x1="138.62" y1="469.88" x2="660.38" y2="469.88"/></g></g></svg>