<svg xmlns="http://www.w3.org/2000/svg" viewBox="0 0 600 600"><defs><style>.cls-1{fill:none;}.cls-1,.cls-2,.cls-3{stroke:#cecece;stroke-linecap:round;stroke-linejoin:round;stroke-width:4px;}.cls-2{fill:#efefef;}.cls-3{fill:#fff;}</style></defs><title>Images</title><g id="Monochrome_Images" data-name="Monochrome Images"><g id="Lamp-2" data-name="Lamp"><path class="cls-1" d="M310.23,232.65h-46.3a24.41,24.41,0,0,1-24.41-24.41h0a24.41,24.41,0,0,1,24.41-24.41h31.61"/><polygon class="cls-2" points="264.75 413.49 251.98 425.05 162.61 324.95 175.38 313.38 264.75 413.49"/><polygon class="cls-2" points="263.12 222.82 274.68 235.59 174.58 324.96 163.01 312.19 263.12 222.82"/><path class="cls-2" d="M329.08,454.06H176.76v-.15a14.36,14.36,0,0,1,14.36-14.36h123.6a14.36,14.36,0,0,1,14.36,14.36Z"/><path class="cls-2" d="M301.88,439.56H204v-.15A14.36,14.36,0,0,1,218.32,425h69.2a14.36,14.36,0,0,1,14.36,14.36Z"/><path class="cls-3" d="M268.33,425H237.51V415.5a15.26,15.26,0,0,1,15.26-15.26h.31a15.26,15.26,0,0,1,15.26,15.26Z"/><path class="cls-3" d="M197.85,327.15l-22.5,13a9.35,9.35,0,0,1-13.63-5.45,53.49,53.49,0,0,1,.18-31.29,9.32,9.32,0,0,1,13.59-5.32L197.85,311A9.33,9.33,0,0,1,197.85,327.15Z"/><path class="cls-3" d="M282.29,238.64l-9.37,7.9a8.71,8.71,0,0,1-12.32-1.1l-10.28-12.39a8.71,8.71,0,0,1,6.7-14.28h18A11.26,11.26,0,0,1,282.29,238.64Z"/><path class="cls-2" d="M437.12,214.72,327.49,324.35A77.52,77.52,0,1,1,437.12,214.72Z"/><path class="cls-2" d="M352,198.82l-23.21-23.21a28.11,28.11,0,0,0-39.75,0l-.64.64a28.11,28.11,0,0,0,0,39.75l23.21,23.21Z"/><line class="cls-1" x1="321.53" y1="318.39" x2="431.16" y2="208.76"/><line class="cls-1" x1="306.33" y1="233.96" x2="346.72" y2="193.57"/><line class="cls-1" x1="350.62" y1="328.24" x2="350.62" y2="349.81"/><line class="cls-1" x1="374.3" y1="304.56" x2="384.95" y2="323.32"/><line class="cls-1" x1="396.78" y1="282.08" x2="412.03" y2="297.33"/><line class="cls-1" x1="420.46" y1="258.4" x2="439.18" y2="269.11"/><line class="cls-1" x1="443.54" y1="235.32" x2="465.11" y2="235.32"/><line class="cls-1" x1="134.89" y1="454.06" x2="370.95" y2="454.06"/></g></g></svg>