<svg xmlns="http://www.w3.org/2000/svg" viewBox="0 0 600 600"><defs><style>.cls-1{fill:none;}.cls-1,.cls-2,.cls-3{stroke:#cecece;stroke-linecap:round;stroke-linejoin:round;stroke-width:4px;}.cls-2{fill:#efefef;}.cls-3,.cls-4{fill:#fff;}.cls-5{fill:#f4f4f4;}</style></defs><title>Images</title><g id="Monochrome_Images" data-name="Monochrome Images"><g id="Lava_Lamp" data-name="Lava Lamp"><path class="cls-1" d="M274.1,362.82l-24.83-84.2a17.54,17.54,0,0,1-.55-7.35l29.63-180.8a4.53,4.53,0,0,1,4.48-3.91h34.33a4.53,4.53,0,0,1,4.48,3.91l29.63,180.8a17.54,17.54,0,0,1-.55,7.35l-24.83,84.2Z"/><path class="cls-2" d="M312,257.19c-1.48,4.12,0,9,5.21,10,6.72,1.3,8.34-6.53,8.56-12.19C326.19,245.24,318.85,247,312,257.19Z"/><path class="cls-2" d="M336.81,298.91c-4.69-6.26-10.38-12.34-17.1-16.44-5.5-3.36-12.19-6.29-16.5-11.2-6.78-7.73-5.82-19.49-5.73-29,.1-10.63-1.16-26.17-15.35-26.74-11.71-.47-18.24,12.37-20.31,22.27-2.51,12,1.41,21.29,8,31.2,6,9.07,12.14,18.22,11.15,29.59a24.36,24.36,0,0,1-6.34,14.49c-3.75,4-9,7.59-11.44,12.67l10.94,37.09H325.9l16.32-55.35A65.74,65.74,0,0,0,336.81,298.91Z"/><path class="cls-2" d="M307.25,180.17c5.18,7.59.55,15.49,2.78,23.57,2,7.23,7.16,13.91,15.34,13.58,6.31-.25,10.76-3.11,15.77-7.4L321.65,90.48a4.53,4.53,0,0,0-4.48-3.91H282.84a4.53,4.53,0,0,0-4.48,3.91l-13,79.55C277.86,175.25,298.9,167.94,307.25,180.17Z"/><path class="cls-3" d="M330.08,142.19l-8.43-51.71a4.53,4.53,0,0,0-4.48-3.91H282.84a4.53,4.53,0,0,0-4.48,3.91l-8.46,51.71Z"/><polygon class="cls-4" points="258.65 310.42 274.11 362.82 325.89 362.82 341.35 310.42 258.65 310.42"/><path class="cls-4" d="M256,439.2l18.06-76.37H325.9L344,439.2a4.53,4.53,0,0,1-4.32,5.89H260.36A4.53,4.53,0,0,1,256,439.2Z"/><path class="cls-5" d="M333.15,320.18a34.29,34.29,0,0,1-32.89,24.59h-.52a34.29,34.29,0,0,1-32.89-24.59L264,310.42h-5.32l15.45,52.4H325.9l15.45-52.4H336Z"/><path class="cls-5" d="M344,439.2,325.9,362.82h-3.81L337.48,428a3.86,3.86,0,0,1-3.68,5H266.2a3.86,3.86,0,0,1-3.68-5l15.4-65.13H274.1L256,439.2a4.53,4.53,0,0,0,4.32,5.89h79.28A4.53,4.53,0,0,0,344,439.2Z"/><polygon class="cls-1" points="258.65 310.42 274.11 362.82 325.89 362.82 341.35 310.42 258.65 310.42"/><path class="cls-1" d="M256,439.2l18.06-76.37H325.9L344,439.2a4.53,4.53,0,0,1-4.32,5.89H260.36A4.53,4.53,0,0,1,256,439.2Z"/><line class="cls-1" x1="204.14" y1="445.08" x2="395.86" y2="445.08"/></g></g></svg>