<svg xmlns="http://www.w3.org/2000/svg" viewBox="0 0 600 600"><defs><style>.cls-1{fill:#fff;}.cls-1,.cls-2,.cls-3,.cls-4{stroke:#cecece;stroke-linecap:round;stroke-linejoin:round;stroke-width:4px;}.cls-2{fill:#efefef;}.cls-3{fill:#fcfcfc;}.cls-4{fill:none;}</style></defs><title>Images</title><g id="Monochrome_Images" data-name="Monochrome Images"><g id="MacBook_Pro" data-name="MacBook Pro"><path class="cls-1" d="M457.24,449.69H142.16V244a11.34,11.34,0,0,1,11.34-11.34H445.9A11.34,11.34,0,0,1,457.24,244Z"/><path class="cls-2" d="M457.24,449.69H142.16V244a11.34,11.34,0,0,1,11.34-11.34H445.9A11.34,11.34,0,0,1,457.24,244Z"/><rect class="cls-1" x="158.25" y="247.37" width="282.89" height="187.57"/><path class="cls-1" d="M507.5,463l-.17.06a71.33,71.33,0,0,1-24.49,4.34H117.53A71.33,71.33,0,0,1,95.85,464l-3.64-1.16a7.73,7.73,0,0,1-5.38-7.36v-5.8H512.57v6A7.73,7.73,0,0,1,507.5,463Z"/><path class="cls-1" d="M88.28,460a7.7,7.7,0,0,0,3.92,2.87L95.85,464a71.33,71.33,0,0,0,21.69,3.38h365.3a71.33,71.33,0,0,0,24.49-4.34l.17-.06a7.68,7.68,0,0,0,3.78-3Z"/><rect class="cls-1" x="158.25" y="247.37" width="282.89" height="10.75"/><circle class="cls-1" cx="299.78" cy="239.46" r="2.57"/><path class="cls-1" d="M507.5,463l-.17.06a71.33,71.33,0,0,1-24.49,4.34H117.53A71.33,71.33,0,0,1,95.85,464l-3.64-1.16a7.73,7.73,0,0,1-5.38-7.36v-5.8H512.57v6A7.73,7.73,0,0,1,507.5,463Z"/><line class="cls-1" x1="478.68" y1="454.55" x2="489.54" y2="454.55"/><ellipse class="cls-1" cx="117.95" cy="465.41" rx="2.96" ry="1.48"/><ellipse class="cls-1" cx="360.52" cy="465.41" rx="2.96" ry="1.48"/><ellipse class="cls-1" cx="239.07" cy="465.41" rx="2.96" ry="1.48"/><ellipse class="cls-1" cx="481.64" cy="465.41" rx="2.96" ry="1.48"/><line class="cls-1" x1="176.36" y1="252.74" x2="198.09" y2="252.74"/><line class="cls-1" x1="422.23" y1="252.74" x2="433.1" y2="252.74"/><line class="cls-1" x1="403.8" y1="252.74" x2="414.67" y2="252.74"/><line class="cls-1" x1="386.03" y1="252.74" x2="396.89" y2="252.74"/><path class="cls-2" d="M387,416.89H212.41a7.47,7.47,0,0,1-7.47-7.46V285.31a7.47,7.47,0,0,1,7.47-7.46H387a7.47,7.47,0,0,1,7.47,7.46V409.43A7.47,7.47,0,0,1,387,416.89Z"/><rect class="cls-3" x="236.84" y="315.21" width="65.68" height="48.19" rx="2.59" ry="2.59"/><path class="cls-3" d="M302.53,416.44V386.83a2.59,2.59,0,0,0-2.59-2.59h-60.5a2.59,2.59,0,0,0-2.59,2.59v29.61Z"/><path class="cls-3" d="M394.45,294.1v-8.8a7.47,7.47,0,0,0-7.47-7.46H212.41a7.47,7.47,0,0,0-7.47,7.46v8.8Z"/><line class="cls-4" x1="339.67" y1="339.82" x2="373.05" y2="339.82"/><line class="cls-4" x1="333.59" y1="356.17" x2="373.05" y2="356.17"/><line class="cls-4" x1="323.76" y1="324.3" x2="373.05" y2="324.3"/><line class="cls-4" x1="323.76" y1="393.79" x2="373.05" y2="393.79"/><line class="cls-4" x1="333.59" y1="407.52" x2="373.05" y2="407.52"/><path class="cls-1" d="M331.55,451.59s1.15,3.85-5.66,3.85h-51.4c-6.81,0-5.66-3.85-5.66-3.85"/><line class="cls-4" x1="63.41" y1="467.62" x2="536.59" y2="467.62"/></g></g></svg>