<svg xmlns="http://www.w3.org/2000/svg" viewBox="0 0 600 600"><defs><style>.cls-1{fill:#efefef;}.cls-1,.cls-2,.cls-5{stroke:#cecece;stroke-linecap:round;stroke-linejoin:round;stroke-width:4px;}.cls-2,.cls-3{fill:#fcfcfc;}.cls-4{fill:#f4f4f4;}.cls-5{fill:none;}</style></defs><title>Images</title><g id="Monochrome_Images" data-name="Monochrome Images"><g id="Notebook"><path class="cls-1" d="M471,240.06l-171,9-171.65-9a5.87,5.87,0,0,0-6,6L123,502.89H477.33L477,246.05A5.86,5.86,0,0,0,471,240.06Z"/><polygon class="cls-1" points="300 502.89 140.08 502.89 140.08 251.3 300 259 300 502.89"/><polygon class="cls-1" points="300 502.89 148.12 502.89 148.12 251.3 300 259 300 502.89"/><polyline class="cls-2" points="166.93 374.94 146.27 374.94 146.27 397.86 166.93 397.86"/><polygon class="cls-3" points="300 502.89 156.21 502.89 156.21 251.3 300 259 300 502.89"/><polygon class="cls-1" points="300 502.89 459.92 502.89 459.92 251.3 300 259 300 502.89"/><polyline class="cls-2" points="442.41 292.26 463.07 292.26 463.07 315.18 442.41 315.18"/><polygon class="cls-1" points="300 502.89 451.88 502.89 451.88 251.3 300 259 300 502.89"/><polyline class="cls-2" points="433.83 351.64 454.49 351.64 454.49 374.56 433.83 374.56"/><polygon class="cls-3" points="300 502.89 443.79 502.89 443.79 251.3 300 259 300 502.89"/><polygon class="cls-4" points="156.21 491.95 156.21 502.89 300 502.89 300 259 299.71 258.98 293.6 491.95 156.21 491.95"/><polygon class="cls-4" points="300.25 258.98 300 259 300 502.89 443.79 502.89 443.79 491.95 305.6 491.95 300.25 258.98"/><polygon class="cls-5" points="300 502.89 156.21 502.89 156.21 251.3 300 259 300 502.89"/><polygon class="cls-5" points="300 502.89 443.79 502.89 443.79 251.3 300 259 300 502.89"/><line class="cls-1" x1="425.59" y1="293.51" x2="319.97" y2="298.1"/><line class="cls-1" x1="425.59" y1="320.7" x2="319.97" y2="323.64"/><line class="cls-1" x1="425.59" y1="348.83" x2="319.97" y2="350.11"/><line class="cls-1" x1="425.59" y1="375.1" x2="319.97" y2="377.18"/><line class="cls-1" x1="425.59" y1="403.63" x2="319.97" y2="404.49"/><line class="cls-1" x1="425.59" y1="433.9" x2="319.97" y2="434.76"/><line class="cls-1" x1="425.59" y1="463.89" x2="319.97" y2="463.52"/><line class="cls-1" x1="173.57" y1="293.51" x2="279.19" y2="298.1"/><line class="cls-1" x1="173.57" y1="320.7" x2="279.19" y2="323.64"/><line class="cls-1" x1="173.57" y1="348.83" x2="279.19" y2="350.11"/><line class="cls-1" x1="173.57" y1="375.1" x2="279.19" y2="377.18"/><line class="cls-1" x1="173.57" y1="403.63" x2="279.19" y2="404.49"/><line class="cls-1" x1="173.57" y1="433.9" x2="279.19" y2="434.76"/><line class="cls-1" x1="173.57" y1="463.89" x2="279.19" y2="463.52"/><line class="cls-1" x1="88" y1="502.89" x2="512" y2="502.89"/><path class="cls-1" d="M340.84,488.62l-5.53-11.05-5.56,11.05v-233a1.13,1.13,0,0,1,.93-1.21l9.12-.62a1.1,1.1,0,0,1,1,1.21Z"/><line class="cls-5" x1="471.92" y1="247.97" x2="471.92" y2="502.89"/><line class="cls-5" x1="128.14" y1="247.97" x2="128.14" y2="502.89"/></g></g></svg>