<svg xmlns="http://www.w3.org/2000/svg" viewBox="0 0 600 600"><defs><style>.cls-1,.cls-2{fill:#fff;}.cls-1,.cls-2,.cls-3,.cls-4{stroke:#cecece;stroke-linecap:round;stroke-linejoin:round;}.cls-1,.cls-3,.cls-4{stroke-width:4px;}.cls-2{stroke-width:2.34px;}.cls-3{fill:#efefef;}.cls-4{fill:none;}</style></defs><title>Images</title><g id="Monochrome_Images" data-name="Monochrome Images"><g id="Camera_Leica" data-name="Camera Leica"><path class="cls-1" d="M470.78,265.49H452.23a2.13,2.13,0,0,1-2.13-2.13v-6.6a2.13,2.13,0,0,0-2.13-2.13H271.07a2.13,2.13,0,0,0-2.13,2.13v10.68a2.13,2.13,0,0,1-2.13,2.13h-136a2.13,2.13,0,0,0-2.13,2.13V461.08a2.13,2.13,0,0,0,2.13,2.13H470.78a2.13,2.13,0,0,0,2.13-2.13V267.63A2.13,2.13,0,0,0,470.78,265.49Z"/><rect class="cls-1" x="208.37" y="253.46" width="55.95" height="11.68" rx="1.63" ry="1.63"/><path class="cls-1" d="M201.31,265.14h-40.2V253.87a2.31,2.31,0,0,1,2.31-2.31H199a2.31,2.31,0,0,1,2.31,2.31Z"/><rect class="cls-1" x="158.94" y="261.07" width="44.54" height="4.07" rx="0.81" ry="0.81"/><path class="cls-2" d="M188.13,248.84h-14.4a1.22,1.22,0,0,0-1.22,1.22v1.49h16.84v-1.49A1.22,1.22,0,0,0,188.13,248.84Z"/><path class="cls-2" d="M188.13,255.09h-14.4a1.22,1.22,0,0,0-1.22,1.22v8.83h16.84v-8.83A1.22,1.22,0,0,0,188.13,255.09Z"/><circle class="cls-3" cx="280.7" cy="265.79" r="6.25"/><circle class="cls-3" cx="301.31" cy="283.46" r="11.95"/><path class="cls-3" d="M366.31,299.09,327,299a2,2,0,0,1-2-2V268.47a2,2,0,0,1,2-2l39.33.07a2,2,0,0,1,2,2v28.52A2,2,0,0,1,366.31,299.09Z"/><rect class="cls-3" x="386.54" y="260.69" width="57.63" height="46.68" rx="2.68" ry="2.68"/><rect class="cls-3" x="224.12" y="278.53" width="27.16" height="16.88" rx="3.26" ry="3.26"/><circle class="cls-1" cx="237.7" cy="286.97" r="5.27"/><rect class="cls-3" x="128.72" y="320.77" width="344.2" height="125.89"/><path class="cls-3" d="M475.21,318.73h-2.3V290.62h2.3a3.13,3.13,0,0,1,3.13,3.13V315.6A3.13,3.13,0,0,1,475.21,318.73Z"/><circle class="cls-1" cx="244.57" cy="374.45" r="11.59"/><polygon class="cls-1" points="398.17 371.55 405.69 339.1 415.36 339.1 415.36 371.55 398.17 371.55"/><circle class="cls-1" cx="410.04" cy="343.17" r="7.33"/><line class="cls-1" x1="386.54" y1="300.26" x2="444.18" y2="300.26"/><circle class="cls-1" cx="405.69" cy="373.34" r="14.02"/><line class="cls-1" x1="386.54" y1="267.67" x2="444.18" y2="267.67"/><line class="cls-4" x1="144.84" y1="304.03" x2="319.57" y2="304.03"/><polyline class="cls-4" points="362.18 313.03 450.09 313.03 450.09 263.46"/><path class="cls-1" d="M475.51,326.47h-2.6v16.7h2.6a8.27,8.27,0,0,0,8.27-8.27v-.17A8.27,8.27,0,0,0,475.51,326.47Zm1.67,11.14a2.79,2.79,0,1,1,2.79-2.79A2.79,2.79,0,0,1,477.18,337.61Z"/><path class="cls-3" d="M126.12,318.73h2.3V290.62h-2.3a3.13,3.13,0,0,0-3.13,3.13V315.6A3.13,3.13,0,0,0,126.12,318.73Z"/><path class="cls-1" d="M125.83,326.47h2.6v16.7h-2.6a8.27,8.27,0,0,1-8.27-8.27v-.17A8.27,8.27,0,0,1,125.83,326.47Zm-1.67,11.14a2.79,2.79,0,1,0-2.79-2.79A2.79,2.79,0,0,0,124.16,337.61Z"/><line class="cls-4" x1="331.25" y1="266.5" x2="331.25" y2="299.09"/><line class="cls-4" x1="337.3" y1="266.5" x2="337.3" y2="299.09"/><line class="cls-4" x1="343.65" y1="266.5" x2="343.65" y2="299.09"/><line class="cls-4" x1="349.7" y1="266.5" x2="349.7" y2="299.09"/><line class="cls-4" x1="356.13" y1="266.5" x2="356.13" y2="299.09"/><line class="cls-4" x1="362.18" y1="266.5" x2="362.18" y2="299.09"/><line class="cls-4" x1="214.46" y1="254.05" x2="214.46" y2="264.64"/><line class="cls-4" x1="220.51" y1="254.05" x2="220.51" y2="264.64"/><line class="cls-4" x1="226.85" y1="254.05" x2="226.85" y2="264.64"/><line class="cls-4" x1="232.91" y1="254.05" x2="232.91" y2="264.64"/><line class="cls-4" x1="239.33" y1="254.05" x2="239.33" y2="264.64"/><line class="cls-4" x1="245.38" y1="254.05" x2="245.38" y2="264.64"/><line class="cls-4" x1="251.84" y1="254.05" x2="251.84" y2="264.64"/><line class="cls-4" x1="258.27" y1="254.05" x2="258.27" y2="264.64"/><circle class="cls-4" cx="260.67" cy="337.47" r="5.28"/><circle class="cls-1" cx="324.04" cy="378.48" r="74.46"/><circle class="cls-1" cx="324.04" cy="378.48" r="67.94"/><circle class="cls-3" cx="324.04" cy="378.48" r="51.1"/><circle class="cls-1" cx="324.04" cy="378.48" r="20.86"/><line class="cls-4" x1="87.59" y1="463.21" x2="512.41" y2="463.21"/></g></g></svg>