<svg xmlns="http://www.w3.org/2000/svg" viewBox="0 0 600 600"><defs><style>.cls-1{fill:none;}.cls-1,.cls-2,.cls-3{stroke:#cecece;stroke-linecap:round;stroke-linejoin:round;stroke-width:4px;}.cls-2{fill:#efefef;}.cls-3{fill:#fff;}.cls-4{fill:#cecece;}</style></defs><title>Images</title><g id="Monochrome_Images" data-name="Monochrome Images"><g id="PC_Mouse" data-name="PC Mouse"><line class="cls-1" x1="101.87" y1="505.62" x2="484.14" y2="505.62"/><line class="cls-1" x1="146.07" y1="515.22" x2="233.05" y2="515.22"/><line class="cls-1" x1="348.42" y1="474.97" x2="498.13" y2="474.97"/><path class="cls-2" d="M387.66,437c-25.7-3.07-69,10.78-91.43,16.82s-113.85,38.38-129.81,42.69c-8,2.16-13.59,2.16-17.2,1.62,4.15,4.77,8.78,7.44,12.89,7.44H271.66c38.81,0,90.46,7.76,90.46,7.76,44.4,0,71.07-14.08,85.44-29.77C443.5,453.45,414.47,440.22,387.66,437Zm-82.89,29.85c-12.08,4.44-43.46,13.71-58.56,17.59s-19.2-8-19.2-8,4.1,11.86,19.2,8,46.48-13.15,58.56-17.59c14.32-5.27,9.5-17.41,9.5-17.41S319.09,461.6,304.77,466.87Z"/><path class="cls-2" d="M368.69,414.6c-61.24,0-205.28,61.24-216.49,66-5.44,2.3-8,5.32-9.27,7.81a43.51,43.51,0,0,0,6.3,9.76c3.61.54,9.22.54,17.2-1.62,16-4.31,107.38-36.66,129.81-42.69S362,434,387.66,437c26.81,3.2,55.83,16.43,59.89,46.56a59.64,59.64,0,0,0,9.33-13.37C452.86,439.74,422.68,414.6,368.69,414.6Z"/><path class="cls-2" d="M317.45,351h-21c-29.37,0-106.66,21.38-144.9,60.81a49.73,49.73,0,0,0-12.78,22c11.88-9.78,37.36-29.48,61.3-39.7,41.4-17.68,61-24.79,83.88-24.37,7,.13,11.24,1.6,13.33,3.64h0c4.11,4-.07,10.32-7.5,13.18-11.21,4.31-52.51,17.49-67.71,23.72-24.53,10.06-62.25,30.27-85.4,46.24.12,3.43.35,6.94.66,10.55a61.41,61.41,0,0,0,5.61,21.31c1.23-2.49,3.83-5.51,9.27-7.81,11.21-4.74,155.25-66,216.49-66,54,0,84.17,25.14,88.2,55.62A39.39,39.39,0,0,0,461.5,453C461.5,399.07,389.67,351,317.45,351Z"/><path class="cls-3" d="M297.27,373.39c-2.09-2-6.3-3.51-13.33-3.64-22.86-.43-42.48,6.68-83.88,24.37-23.93,10.22-49.41,29.92-61.3,39.7a67.77,67.77,0,0,0-2.17,16.87c0,1.92,0,3.87.06,5.84,23.15-16,60.87-36.18,85.4-46.24,15.19-6.23,56.49-19.41,67.71-23.72C297.21,383.7,301.38,377.41,297.27,373.39Z"/><path class="cls-4" d="M316.51,486.07c2.63,0,2.63-4.08,0-4.08s-2.63,4.08,0,4.08Z"/><path class="cls-4" d="M316.51,492.54c2.63,0,2.63-4.08,0-4.08s-2.63,4.08,0,4.08Z"/><path class="cls-4" d="M316.51,499.44c2.63,0,2.63-4.08,0-4.08s-2.63,4.08,0,4.08Z"/><path class="cls-4" d="M316.51,479.17c2.63,0,2.63-4.08,0-4.08s-2.63,4.08,0,4.08Z"/><path class="cls-4" d="M316.51,471.41c2.63,0,2.63-4.08,0-4.08s-2.63,4.08,0,4.08Z"/><path class="cls-4" d="M309,486.39c2.63,0,2.63-4.08,0-4.08s-2.63,4.08,0,4.08Z"/><path class="cls-4" d="M309,492.86c2.63,0,2.63-4.08,0-4.08s-2.63,4.08,0,4.08Z"/><path class="cls-4" d="M309,499.76c2.63,0,2.63-4.08,0-4.08s-2.63,4.08,0,4.08Z"/><path class="cls-4" d="M309,479.49c2.63,0,2.63-4.08,0-4.08s-2.63,4.08,0,4.08Z"/><path class="cls-4" d="M309,472.38c2.63,0,2.63-4.08,0-4.08s-2.63,4.08,0,4.08Z"/><path class="cls-4" d="M301.2,481.17c2.63,0,2.63-4.08,0-4.08s-2.63,4.08,0,4.08Z"/><path class="cls-4" d="M301.2,474.64c2.63,0,2.63-4.08,0-4.08s-2.63,4.08,0,4.08Z"/><path class="cls-4" d="M293,482.91c2.63,0,2.63-4.08,0-4.08s-2.63,4.08,0,4.08Z"/><path class="cls-4" d="M293,476.74c2.63,0,2.63-4.08,0-4.08s-2.63,4.08,0,4.08Z"/><path class="cls-4" d="M284.59,484.71c2.63,0,2.63-4.08,0-4.08s-2.63,4.08,0,4.08Z"/><path class="cls-4" d="M284.59,478.52c2.63,0,2.63-4.08,0-4.08s-2.63,4.08,0,4.08Z"/><path class="cls-4" d="M276.4,480.37c2.63,0,2.63-4.08,0-4.08s-2.63,4.08,0,4.08Z"/><path class="cls-4" d="M268.23,494.65c2.63,0,2.63-4.08,0-4.08s-2.63,4.08,0,4.08Z"/><path class="cls-4" d="M268.23,501.79c2.63,0,2.63-4.08,0-4.08s-2.63,4.08,0,4.08Z"/><path class="cls-4" d="M268.23,488.36c2.63,0,2.63-4.08,0-4.08s-2.63,4.08,0,4.08Z"/><path class="cls-4" d="M276.4,493.1c2.63,0,2.63-4.08,0-4.08s-2.63,4.08,0,4.08Z"/><path class="cls-4" d="M276.4,499.76c2.63,0,2.63-4.08,0-4.08s-2.63,4.08,0,4.08Z"/><path class="cls-4" d="M276.4,486.81c2.63,0,2.63-4.08,0-4.08s-2.63,4.08,0,4.08Z"/><path class="cls-4" d="M284.59,497.8c2.63,0,2.63-4.08,0-4.08s-2.63,4.08,0,4.08Z"/><path class="cls-4" d="M284.59,504.22c2.63,0,2.63-4.08,0-4.08s-2.63,4.08,0,4.08Z"/><path class="cls-4" d="M276.4,506.42c2.63,0,2.63-4.08,0-4.08s-2.63,4.08,0,4.08Z"/><path class="cls-4" d="M284.59,491.51c2.63,0,2.63-4.08,0-4.08s-2.63,4.08,0,4.08Z"/><path class="cls-4" d="M293,495.68c2.63,0,2.63-4.08,0-4.08s-2.63,4.08,0,4.08Z"/><path class="cls-4" d="M293,502.07c2.63,0,2.63-4.08,0-4.08s-2.63,4.08,0,4.08Z"/><path class="cls-4" d="M293,489.39c2.63,0,2.63-4.08,0-4.08s-2.63,4.08,0,4.08Z"/><path class="cls-4" d="M301.2,494.23c2.63,0,2.63-4.08,0-4.08s-2.63,4.08,0,4.08Z"/><path class="cls-4" d="M301.2,501.36c2.63,0,2.63-4.08,0-4.08s-2.63,4.08,0,4.08Z"/><path class="cls-4" d="M301.2,487.94c2.63,0,2.63-4.08,0-4.08s-2.63,4.08,0,4.08Z"/><path class="cls-4" d="M268.23,482.58c2.63,0,2.63-4.08,0-4.08s-2.63,4.08,0,4.08Z"/><path class="cls-4" d="M260.23,496.75c2.63,0,2.63-4.08,0-4.08s-2.63,4.08,0,4.08Z"/><path class="cls-4" d="M260.23,502.69c2.63,0,2.63-4.08,0-4.08s-2.63,4.08,0,4.08Z"/><path class="cls-4" d="M260.23,490.16c2.63,0,2.63-4.08,0-4.08s-2.63,4.08,0,4.08Z"/><path class="cls-4" d="M260.23,484.71c2.63,0,2.63-4.08,0-4.08s-2.63,4.08,0,4.08Z"/><path class="cls-4" d="M252.25,491.51c2.63,0,2.63-4.08,0-4.08s-2.63,4.08,0,4.08Z"/><path class="cls-4" d="M252.25,496.75c2.63,0,2.63-4.08,0-4.08s-2.63,4.08,0,4.08Z"/><path class="cls-4" d="M252.25,502.07c2.63,0,2.63-4.08,0-4.08s-2.63,4.08,0,4.08Z"/><path class="cls-4" d="M252.25,486.39c2.63,0,2.63-4.08,0-4.08s-2.63,4.08,0,4.08Z"/><path class="cls-4" d="M244.49,495.06c2.63,0,2.63-4.08,0-4.08s-2.63,4.08,0,4.08Z"/><path class="cls-4" d="M244.49,500.3c2.63,0,2.63-4.08,0-4.08s-2.63,4.08,0,4.08Z"/><path class="cls-4" d="M236.51,493.52c2.63,0,2.63-4.08,0-4.08s-2.63,4.08,0,4.08Z"/><path class="cls-4" d="M236.51,498.76c2.63,0,2.63-4.08,0-4.08s-2.63,4.08,0,4.08Z"/><path class="cls-4" d="M244.49,489.95c2.63,0,2.63-4.08,0-4.08s-2.63,4.08,0,4.08Z"/><path class="cls-4" d="M324.48,485.21c2.63,0,2.63-4.08,0-4.08s-2.63,4.08,0,4.08Z"/><path class="cls-4" d="M324.48,491.68c2.63,0,2.63-4.08,0-4.08s-2.63,4.08,0,4.08Z"/><path class="cls-4" d="M324.48,499.22c2.63,0,2.63-4.08,0-4.08s-2.63,4.08,0,4.08Z"/><path class="cls-4" d="M324.48,478.31c2.63,0,2.63-4.08,0-4.08s-2.63,4.08,0,4.08Z"/><path class="cls-4" d="M324.48,471.19c2.63,0,2.63-4.08,0-4.08s-2.63,4.08,0,4.08Z"/><path class="cls-4" d="M332.46,485.21c2.63,0,2.63-4.08,0-4.08s-2.63,4.08,0,4.08Z"/><path class="cls-4" d="M332.46,491.68c2.63,0,2.63-4.08,0-4.08s-2.63,4.08,0,4.08Z"/><path class="cls-4" d="M332.46,498.58c2.63,0,2.63-4.08,0-4.08s-2.63,4.08,0,4.08Z"/><path class="cls-4" d="M332.46,478.31c2.63,0,2.63-4.08,0-4.08s-2.63,4.08,0,4.08Z"/><path class="cls-4" d="M332.46,471.84c2.63,0,2.63-4.08,0-4.08s-2.63,4.08,0,4.08Z"/><path class="cls-4" d="M340.23,489.3c2.63,0,2.63-4.08,0-4.08s-2.63,4.08,0,4.08Z"/><path class="cls-4" d="M340.23,495.77c2.63,0,2.63-4.08,0-4.08s-2.63,4.08,0,4.08Z"/><path class="cls-4" d="M348.42,480.81c2.63,0,2.63-4.08,0-4.08s-2.63,4.08,0,4.08Z"/><path class="cls-4" d="M348.42,487.28c2.63,0,2.63-4.08,0-4.08s-2.63,4.08,0,4.08Z"/><path class="cls-4" d="M340.23,482.4c2.63,0,2.63-4.08,0-4.08s-2.63,4.08,0,4.08Z"/><path class="cls-4" d="M340.23,475.29c2.63,0,2.63-4.08,0-4.08s-2.63,4.08,0,4.08Z"/><ellipse class="cls-2" cx="236.51" cy="390.71" rx="11.54" ry="5.18" transform="translate(-132.21 121.19) rotate(-22.65)"/><path class="cls-2" d="M186,399.51a35.44,35.44,0,0,0-17.84,10.4c-5.32,5.84-7.69,12.88-6,18.79,5.78-.12,14.91-3.22,24.31-8.63S202.93,408.5,206,403.6C201.61,399.13,194,397.66,186,399.51Z"/><path class="cls-1" d="M170,427.51c-.11.09-.12-11,9.57-17,12-7.32,21.33-1,21.41-1"/><path class="cls-2" d="M148.58,449.87v10.84a1.71,1.71,0,0,0,2.52,1.5l37.56-20.29a1.71,1.71,0,0,0,.9-1.5v-12a1.71,1.71,0,0,0-2.5-1.52c-14.77,7.65-27.17,14.78-37.7,21.52A1.7,1.7,0,0,0,148.58,449.87Z"/><line class="cls-2" x1="241.85" y1="478.61" x2="269.2" y2="470.08"/><line class="cls-2" x1="277.37" y1="467.46" x2="304.73" y2="458.93"/></g></g></svg>