<svg xmlns="http://www.w3.org/2000/svg" viewBox="0 0 600 600"><defs><style>.cls-1,.cls-5{fill:#fff;}.cls-1,.cls-2,.cls-3,.cls-4{stroke:#cecece;stroke-linecap:round;stroke-width:4px;}.cls-1,.cls-2,.cls-4{stroke-linejoin:round;}.cls-2{fill:#efefef;}.cls-3,.cls-4{fill:none;}.cls-3{stroke-linejoin:bevel;}.cls-6{fill:#f4f4f4;}</style></defs><title>Images</title><g id="Monochrome_Images" data-name="Monochrome Images"><g id="Pencil_Case" data-name="Pencil Case"><rect class="cls-1" x="110.23" y="290.47" width="379.55" height="176.06" rx="28.4" ry="28.4"/><path class="cls-2" d="M459.31,361.68H140.69a7.27,7.27,0,0,0-7.27,7.27v8.84H466.58V369A7.27,7.27,0,0,0,459.31,361.68Z"/><line class="cls-3" x1="157.8" y1="369.85" x2="157.8" y2="377.86"/><line class="cls-3" x1="188.97" y1="369.85" x2="188.97" y2="377.86"/><line class="cls-3" x1="219.68" y1="369.85" x2="219.68" y2="377.86"/><line class="cls-3" x1="250.85" y1="369.85" x2="250.85" y2="377.86"/><line class="cls-3" x1="282.7" y1="369.85" x2="282.7" y2="377.86"/><line class="cls-3" x1="313.86" y1="369.85" x2="313.86" y2="377.86"/><line class="cls-3" x1="344.58" y1="369.85" x2="344.58" y2="377.86"/><line class="cls-3" x1="375.74" y1="369.85" x2="375.74" y2="377.86"/><line class="cls-3" x1="173.73" y1="369.85" x2="173.73" y2="377.86"/><line class="cls-3" x1="204.89" y1="369.85" x2="204.89" y2="377.86"/><line class="cls-3" x1="235.61" y1="369.85" x2="235.61" y2="377.86"/><line class="cls-3" x1="266.77" y1="369.85" x2="266.77" y2="377.86"/><line class="cls-3" x1="298.62" y1="369.85" x2="298.62" y2="377.86"/><line class="cls-3" x1="329.79" y1="369.85" x2="329.79" y2="377.86"/><line class="cls-3" x1="360.5" y1="369.85" x2="360.5" y2="377.86"/><line class="cls-3" x1="391.67" y1="369.85" x2="391.67" y2="377.86"/><line class="cls-3" x1="406.25" y1="369.85" x2="406.25" y2="377.86"/><rect class="cls-1" x="315.23" y="196.04" width="52.42" height="290.87" rx="4.23" ry="4.23" transform="translate(-141.42 346.99) rotate(-45.66)"/><line class="cls-4" x1="270.06" y1="308.36" x2="289.4" y2="288.57"/><line class="cls-4" x1="395.51" y1="392.28" x2="376.18" y2="412.07"/><polyline class="cls-4" points="370.63 367.96 351.29 387.75 294.95 332.69 314.29 312.9"/><line class="cls-4" x1="244.02" y1="282.92" x2="263.1" y2="263.4"/><line class="cls-4" x1="421.28" y1="418" x2="402.21" y2="437.51"/><line class="cls-4" x1="323.12" y1="360.22" x2="342.46" y2="340.43"/><line class="cls-4" x1="257.06" y1="295.66" x2="266.73" y2="285.76"/><line class="cls-4" x1="373.66" y1="390.26" x2="363.99" y2="400.16"/><line class="cls-4" x1="282.76" y1="320.77" x2="292.43" y2="310.88"/><line class="cls-4" x1="347.14" y1="364.35" x2="337.47" y2="374.25"/><line class="cls-4" x1="231.83" y1="271.01" x2="241.37" y2="261.25"/><line class="cls-4" x1="399.56" y1="415.84" x2="390.02" y2="425.6"/><line class="cls-4" x1="309.3" y1="346.72" x2="318.97" y2="336.82"/><line class="cls-4" x1="414.13" y1="449.16" x2="423.67" y2="439.4"/><polygon class="cls-1" points="347.07 436.2 356.97 414.55 132.4 311.87 91.92 306.44 122.5 333.51 347.07 436.2"/><polygon class="cls-2" points="102.88 316.14 91.92 306.44 106.42 308.39 102.88 316.14"/><rect class="cls-1" x="227.88" y="250.63" width="23.8" height="246.84" transform="translate(-200.11 436.57) rotate(-65.43)"/><line class="cls-4" x1="127.53" y1="322.73" x2="352.02" y2="425.37"/><path class="cls-2" d="M408.21,419l0-.09a4.65,4.65,0,0,0-2.3-6.17l-18-8.24L384,413.05l18,8.24A4.65,4.65,0,0,0,408.21,419Z"/><line class="cls-4" x1="146.8" y1="299.55" x2="187.2" y2="318.02"/><path class="cls-2" d="M177.51,300.51l213.77,97.75a11.78,11.78,0,0,1,5.82,15.61l-.1.22a11.78,11.78,0,0,1-15.61,5.82L167.62,322.15C147,312.73,156.9,291.08,177.51,300.51Z"/><path class="cls-2" d="M165.3,321c-16.9-9.6-8.19-28.23,10.31-21.24C171.81,306.6,168.55,313.77,165.3,321Z"/><path class="cls-2" d="M301.81,357.34l89.47,40.91a11.78,11.78,0,0,1,5.82,15.61l-.1.22a11.78,11.78,0,0,1-15.61,5.82L291.92,379Z"/><path class="cls-5" d="M110.23,378v60.17a28.4,28.4,0,0,0,28.4,28.4H461.37a28.4,28.4,0,0,0,28.4-28.4V378"/><path class="cls-6" d="M461.37,453.66H138.63a28.4,28.4,0,0,1-28.4-28.4v12.87a28.4,28.4,0,0,0,28.4,28.4H461.37a28.4,28.4,0,0,0,28.4-28.4V425.26A28.4,28.4,0,0,1,461.37,453.66Z"/><path class="cls-4" d="M110.23,378v60.17a28.4,28.4,0,0,0,28.4,28.4H461.37a28.4,28.4,0,0,0,28.4-28.4V378"/><path class="cls-2" d="M459.31,394.08H140.69a7.27,7.27,0,0,1-7.27-7.27V378H466.58v8.84A7.27,7.27,0,0,1,459.31,394.08Z"/><path class="cls-2" d="M442.84,378v16.11h16.47a7.27,7.27,0,0,0,7.27-7.27V378Z"/><path class="cls-2" d="M429.05,390.18h-9.58a5.36,5.36,0,0,0-5.36,5.36v35.87a10,10,0,0,0,10,10h.2a10,10,0,0,0,10-10V395.54A5.36,5.36,0,0,0,429.05,390.18Zm-2.52,37.19c0,3.51-5.44,3.51-5.44,0V415.59c0-3.51,5.44-3.51,5.44,0Z"/><rect class="cls-2" x="411.11" y="370.61" width="26.3" height="14.7" rx="7.28" ry="7.28"/><rect class="cls-2" x="419.43" y="377.51" width="9.67" height="21.38" rx="4.79" ry="4.79"/><path class="cls-2" d="M466.58,383.24V369a7.27,7.27,0,0,0-7.27-7.27H442.84v21.55"/><line class="cls-3" x1="157.8" y1="378.01" x2="157.8" y2="386.02"/><line class="cls-3" x1="188.97" y1="378.01" x2="188.97" y2="386.02"/><line class="cls-3" x1="219.68" y1="378.01" x2="219.68" y2="386.02"/><line class="cls-3" x1="250.85" y1="378.01" x2="250.85" y2="386.02"/><line class="cls-3" x1="282.7" y1="378.01" x2="282.7" y2="386.02"/><line class="cls-3" x1="313.86" y1="378.01" x2="313.86" y2="386.02"/><line class="cls-3" x1="344.58" y1="378.01" x2="344.58" y2="386.02"/><line class="cls-3" x1="375.74" y1="378.01" x2="375.74" y2="386.02"/><line class="cls-3" x1="173.73" y1="378.01" x2="173.73" y2="386.02"/><line class="cls-3" x1="204.89" y1="378.01" x2="204.89" y2="386.02"/><line class="cls-3" x1="235.61" y1="378.01" x2="235.61" y2="386.02"/><line class="cls-3" x1="266.77" y1="378.01" x2="266.77" y2="386.02"/><line class="cls-3" x1="298.62" y1="378.01" x2="298.62" y2="386.02"/><line class="cls-3" x1="329.79" y1="378.01" x2="329.79" y2="386.02"/><line class="cls-3" x1="360.5" y1="378.01" x2="360.5" y2="386.02"/><line class="cls-3" x1="391.67" y1="378.01" x2="391.67" y2="386.02"/><line class="cls-3" x1="406.25" y1="378.01" x2="406.25" y2="386.02"/><line class="cls-4" x1="90.9" y1="466.53" x2="509.1" y2="466.53"/></g></g></svg>