<svg xmlns="http://www.w3.org/2000/svg" viewBox="0 0 600 600"><defs><style>.cls-1{fill:none;}.cls-1,.cls-2,.cls-3{stroke:#cecece;stroke-linecap:round;stroke-linejoin:round;stroke-width:4px;}.cls-2{fill:#efefef;}.cls-3{fill:#fcfcfc;}</style></defs><title>Images</title><g id="Monochrome_Images" data-name="Monochrome Images"><g id="Picture"><polyline class="cls-1" points="162.07 272.63 300.47 181.59 438.86 272.63"/><rect class="cls-2" x="131.69" y="222.63" width="337.42" height="239.66"/><polyline class="cls-1" points="131.69 462.29 182.18 419.12 418.62 265.79 469.11 222.63"/><polyline class="cls-1" points="131.69 222.63 182.17 265.79 418.61 419.12 469.11 462.29"/><rect class="cls-3" x="181.63" y="265.79" width="237.54" height="153.33"/><rect class="cls-2" x="215.9" y="293.67" width="169" height="97.57"/><path class="cls-3" d="M361.55,327.4c-10.23.82-19.27,5.14-28.43,9.45A133.37,133.37,0,0,1,285,349.73,123.86,123.86,0,0,1,215.9,334v57.21h169v-58C377.68,329.44,369.86,326.73,361.55,327.4Z"/><path class="cls-3" d="M369.74,350.89a98.75,98.75,0,0,0-33.06,2.47c-9.4,2.21-18.11,3.49-27.41.13-8.68-3.14-15.49-9.79-21.77-16.34-25.57-26.67-57.6-19.38-71.6-6.22v60.32h169V353.83A85.39,85.39,0,0,0,369.74,350.89Z"/><rect class="cls-1" x="215.9" y="364.87" width="169" height="26.37"/><circle class="cls-3" cx="300" cy="318.63" r="10.88"/><line class="cls-1" x1="215.9" y1="378.06" x2="271.91" y2="378.06"/><line class="cls-1" x1="292.76" y1="378.06" x2="317.24" y2="378.06"/><line class="cls-1" x1="384.9" y1="378.06" x2="370.73" y2="378.06"/><line class="cls-1" x1="96.89" y1="462.29" x2="503.11" y2="462.29"/><circle class="cls-2" cx="300.47" cy="187.14" r="5.88"/></g></g></svg>