<svg xmlns="http://www.w3.org/2000/svg" viewBox="0 0 600 600"><defs><style>.cls-1{fill:#efefef;}.cls-1,.cls-2,.cls-3{stroke:#cecece;stroke-linecap:round;stroke-linejoin:round;stroke-width:4px;}.cls-2{fill:#fff;}.cls-3{fill:none;}</style></defs><title>Images</title><g id="Monochrome_Images" data-name="Monochrome Images"><g id="Plant"><path class="cls-1" d="M406.49,289c-21.14,4.18-103.59,62.57-111.87,68,11.42-33.1,54.36-66,90.76-76.14s78-3.62,107,20.59C464.56,292.42,435.21,283.29,406.49,289Z"/><path class="cls-1" d="M295.56,357.62c-11.38-43.52-36.43-109.47-54.9-148.16-3.11-6.53-6.59-13.11-12-17.85-11.49-10-28.65-9.39-43.57-6.4a186.82,186.82,0,0,0-47.78,16.55c14-.51,27.62-1.3,41.61-1.81,6.67-.24,13.49-.47,19.89,1.44,14.55,4.35,23.63,18.5,30.73,31.92C247,266.4,268.79,324.56,295.56,357.62Z"/><path class="cls-1" d="M302.69,300.73q14.29-35.17,32-68.81c5.43-10.28,11.15-20.53,18.77-29.31,26.58-30.65,71.7-38.34,112-33.37-26,4.47-54,9.34-72.92,27.77-54.37,53-73,120-95,160C294.95,338,297.68,313,302.69,300.73Z"/><path class="cls-1" d="M280.13,210.52a86,86,0,0,0-3.45-34.3c-6.79-22-26.22-37.59-46.19-49,24.48-3.72,48.52,14.39,59.25,36.7s11.4,48,11.49,72.73c.11,31,1.31,82.84-2.75,121C286.45,333.32,275.61,252.72,280.13,210.52Z"/><path class="cls-1" d="M294.62,357c-5.34-13.74-4.58-47.7-3.6-62.41,1.11-16.61-.39-33.66-6.82-49S266,216.69,250.65,210.33c9,12.85,12.42,69,15.4,88.58C269,318.15,282.8,348.26,294.62,357Z"/><path class="cls-1" d="M434.63,208.88c-38.78,18.06-79,37.26-105.5,70.87-13.45,17.08-24.15,45.13-29.59,75.45C339.08,301.14,380.72,248.61,434.63,208.88Z"/><path class="cls-1" d="M295.56,357.62c-6.54-9.78-64.81-75.55-77.4-86.05-30.76-25.64-80-25.43-110.57.47,30.26-3.31,58.28-3.83,85.87,9S271.25,339.31,295.56,357.62Z"/><path class="cls-1" d="M301.25,356.27c-1.46-57.91,26-111.15,51.9-189.82-24.48,31.15-48.81,54-61.92,114.61C283.23,318,290.67,339.7,301.25,356.27Z"/><path class="cls-1" d="M443.68,360.25a89.57,89.57,0,0,1-22.08-25.49c-4-7-7.15-14.56-11.84-21.15a34.55,34.55,0,0,0-19.45-13.29c-29-7.57-81.79,40.22-92.66,57.55,22.45-11.57,62.74-50.37,89.74-36.92,10.57,5.27,14,21.37,23.45,28.48S431.95,361.65,443.68,360.25Z"/><path class="cls-1" d="M297.18,357.55c-12-8.72-35-26.05-71.56-38.81A64.56,64.56,0,0,0,210,315.3c-23.25-2-46.68,14.95-52,37.67.65-10.2,2-20.45,6-29.85,3.38-7.89,8.13-15.53,15.29-20.25,7.6-5,17.18-5.67,26.26-5C241.87,300.53,281.33,334.51,297.18,357.55Z"/><path class="cls-1" d="M296.08,358.23c-1.24-10.43-19.8-35.73-28.44-46.41-18.63-23-17.44-57.49-37-79.71-8.41-9.54-20.24-15.22-31.73-20.66,10,12.83,20.28,27.42,24.4,43.14,2.61,10,9.54,52.52,36,74.66C271.05,339.11,285,347.52,296.08,358.23Z"/><path class="cls-2" d="M262.89,449.54h58.3a78.21,78.21,0,0,0,33.44-119.47H229.45a78.21,78.21,0,0,0,33.44,119.47Z"/><path class="cls-1" d="M262.88,449.54h58.33a78.34,78.34,0,0,0,47.36-56.42c-9.94,3.09-17,6-27.17,5-7.25-.76-16.72-5.61-23.87-7.22-10-2.26-20.06-2.39-30,.69-8.74,2.71-24,8.77-33.21,8.77-23.52,0-22.85-4.72-39.11-8.65A78.33,78.33,0,0,0,262.88,449.54Z"/><line class="cls-3" x1="186.1" y1="449.54" x2="397.98" y2="449.54"/></g></g></svg>