<svg xmlns="http://www.w3.org/2000/svg" viewBox="0 0 600 600"><defs><style>.cls-1{fill:#fff;}.cls-1,.cls-2,.cls-3{stroke:#cecece;stroke-linecap:round;stroke-linejoin:round;stroke-width:4px;}.cls-2{fill:#efefef;}.cls-3{fill:none;}</style></defs><title>Images</title><g id="Monochrome_Images" data-name="Monochrome Images"><g id="Safe"><path class="cls-1" d="M215.26,461.27h-33.7a7.24,7.24,0,0,1-7.24-7.24v-79.8H222.5V454A7.24,7.24,0,0,1,215.26,461.27Z"/><path class="cls-1" d="M419.87,461.27h-33.7a7.24,7.24,0,0,1-7.24-7.24v-79.8h48.18V454A7.24,7.24,0,0,1,419.87,461.27Z"/><path class="cls-1" d="M454.59,449.49H146.84a7.84,7.84,0,0,1-7.73-7.94V180a7.84,7.84,0,0,1,7.73-7.94H454.59a7.84,7.84,0,0,1,7.73,7.94V441.55A7.84,7.84,0,0,1,454.59,449.49Z"/><path class="cls-2" d="M419.17,205.24H182.26a7.94,7.94,0,0,0-7.94,7.94V408.38a7.94,7.94,0,0,0,7.94,7.94h236.9a7.94,7.94,0,0,0,7.94-7.94V213.18A7.94,7.94,0,0,0,419.17,205.24Z"/><rect class="cls-2" x="293.87" y="225.57" width="13.69" height="170.41" rx="6.78" ry="6.78"/><rect class="cls-2" x="215.51" y="303.93" width="170.41" height="13.69" rx="6.78" ry="6.78"/><rect class="cls-2" x="215.51" y="303.93" width="170.41" height="13.69" rx="6.78" ry="6.78" transform="translate(-131.68 303.66) rotate(-45)"/><rect class="cls-2" x="293.87" y="225.57" width="13.69" height="170.41" rx="6.78" ry="6.78" transform="translate(-131.68 303.66) rotate(-45)"/><path class="cls-2" d="M174.22,333.9h.1v46.24h-.1a9.7,9.7,0,0,1-9.7-9.7V343.6A9.7,9.7,0,0,1,174.22,333.9Z"/><path class="cls-2" d="M174.22,241.42h.1v46.24h-.1a9.7,9.7,0,0,1-9.7-9.7V251.12A9.7,9.7,0,0,1,174.22,241.42Z"/><circle class="cls-2" cx="300.71" cy="310.78" r="58.09"/><circle class="cls-1" cx="300.71" cy="310.78" r="38.14"/><path class="cls-1" d="M405.18,310.78a38.15,38.15,0,0,0,21.93,34.54V276.24A38.15,38.15,0,0,0,405.18,310.78Z"/><circle class="cls-2" cx="300.71" cy="310.78" r="20.01"/><line class="cls-3" x1="111.81" y1="461.27" x2="488.19" y2="461.27"/></g></g></svg>