<svg xmlns="http://www.w3.org/2000/svg" viewBox="0 0 600 600"><defs><style>.cls-1{fill:#fff;}.cls-1,.cls-2,.cls-3{stroke:#cecece;stroke-linecap:round;stroke-linejoin:round;stroke-width:4px;}.cls-2{fill:#efefef;}.cls-3{fill:none;}</style></defs><title>Images</title><g id="Monochrome_Images" data-name="Monochrome Images"><g id="Satellite"><path class="cls-1" d="M245.76,198.59a6.84,6.84,0,0,1,0,9.67h0a6.84,6.84,0,0,1-9.67,0l-49.43-49.43a6.84,6.84,0,0,1,0-9.67h0a6.84,6.84,0,0,1,9.67,0Z"/><path class="cls-2" d="M156.22,196.79a57.2,57.2,0,0,0,78.06-78.06Z"/><line class="cls-3" x1="238.55" y1="125.29" x2="162.79" y2="201.05"/><path class="cls-2" d="M198.35,405.77l-37,37a5.74,5.74,0,0,1-8.11,0l-32.92-32.92a5.74,5.74,0,0,1,0-8.11l37-37Z"/><rect class="cls-2" x="169.34" y="335.72" width="58.03" height="58.03" transform="translate(-199.81 247.08) rotate(-45)"/><path class="cls-2" d="M276.36,327.76l-37,37-41-41,37-37a5.74,5.74,0,0,1,8.11,0l32.92,32.92A5.74,5.74,0,0,1,276.36,327.76Z"/><path class="cls-2" d="M401.65,201.33l-37,37a5.74,5.74,0,0,1-8.11,0l-32.92-32.92a5.74,5.74,0,0,1,0-8.11l37-37Z"/><rect class="cls-2" x="372.64" y="131.28" width="58.03" height="58.03" transform="translate(4.29 330.96) rotate(-45)"/><path class="cls-2" d="M479.66,123.32l-37,37-41-41,37-37a5.74,5.74,0,0,1,8.11,0l32.92,32.92A5.74,5.74,0,0,1,479.66,123.32Z"/><rect class="cls-3" x="242.6" y="255.88" width="114.24" height="12.68" transform="translate(-97.64 288.74) rotate(-45)"/><path class="cls-1" d="M342.35,258.7l-46.16,46.16L216,224.64a4.65,4.65,0,0,1,0-6.58l39.58-39.58a4.65,4.65,0,0,1,6.58,0Z"/><path class="cls-2" d="M354,256.87l-59.68,59.68-8.5-8.5a11.06,11.06,0,0,1,0-15.64l44-44a11.06,11.06,0,0,1,15.64,0Z"/><circle class="cls-2" cx="249.6" cy="212.11" r="9.55" transform="translate(-76.88 238.62) rotate(-45)"/><path class="cls-2" d="M279.44,195.78a9.55,9.55,0,1,1-13.51-13.51C269.66,178.54,283.17,192.05,279.44,195.78Z"/><path class="cls-2" d="M233.28,228.43a9.55,9.55,0,0,1,0,13.51c-3.73,3.73-17.24-9.78-13.51-13.51A9.55,9.55,0,0,1,233.28,228.43Z"/><path class="cls-2" d="M314.66,229.93l-47.23,47.23a8.8,8.8,0,0,1-12.45,0l-1.71-1.71a8.83,8.83,0,0,1,0-12.49l47.19-47.19a8.83,8.83,0,0,1,12.49,0l1.71,1.71A8.8,8.8,0,0,1,314.66,229.93Z"/><line class="cls-3" x1="290.94" y1="253.45" x2="277.92" y2="240.43"/><line class="cls-3" x1="305.72" y1="238.68" x2="292.7" y2="225.66"/><line class="cls-3" x1="275.74" y1="268.65" x2="262.72" y2="255.63"/><line class="cls-3" x1="283.36" y1="261.03" x2="270.34" y2="248.01"/><line class="cls-3" x1="268.57" y1="275.82" x2="255.55" y2="262.8"/><line class="cls-3" x1="313.11" y1="231.28" x2="300.09" y2="218.26"/><line class="cls-3" x1="298.32" y1="246.07" x2="285.3" y2="233.05"/><rect class="cls-1" x="295.56" y="281.1" width="84.4" height="38.33" transform="translate(-113.39 326.78) rotate(-45)"/><line class="cls-3" x1="337.23" y1="299.73" x2="324.21" y2="286.71"/><line class="cls-3" x1="352" y1="284.96" x2="338.98" y2="271.94"/><line class="cls-3" x1="322.03" y1="314.93" x2="309.01" y2="301.91"/><line class="cls-3" x1="329.64" y1="307.32" x2="316.62" y2="294.3"/><line class="cls-3" x1="314.86" y1="322.1" x2="301.84" y2="309.08"/><line class="cls-3" x1="359.39" y1="277.57" x2="346.37" y2="264.55"/><line class="cls-3" x1="344.61" y1="292.35" x2="331.59" y2="279.33"/><path class="cls-1" d="M368.87,330.48l-.08.08a5.46,5.46,0,0,1-7.72,0l-27.93-27.93,7.8-7.8,27.93,27.93A5.46,5.46,0,0,1,368.87,330.48Z"/><path class="cls-1" d="M385.18,314.18l-.08.08a5.46,5.46,0,0,1-7.72,0l-27.93-27.93,7.8-7.8,27.93,27.93A5.46,5.46,0,0,1,385.18,314.18Z"/><path class="cls-1" d="M351.75,347.61l-.08.08a5.46,5.46,0,0,1-7.72,0L316,319.76l7.8-7.8,27.93,27.93A5.46,5.46,0,0,1,351.75,347.61Z"/><polygon class="cls-2" points="321.4 363.7 306.14 328.32 365.81 268.64 401.2 283.9 321.4 363.7"/><rect class="cls-2" x="289.29" y="258.65" width="20.85" height="7.16" transform="translate(-97.64 288.74) rotate(-45)"/><rect class="cls-2" x="257.18" y="226.53" width="20.85" height="7.16" transform="translate(-84.33 256.63) rotate(-45)"/></g></g></svg>