<svg xmlns="http://www.w3.org/2000/svg" viewBox="0 0 600 600"><defs><style>.cls-1{fill:#fcfcfc;}.cls-1,.cls-2,.cls-3,.cls-4{stroke:#cecece;stroke-linecap:round;stroke-linejoin:round;stroke-width:4px;}.cls-2{fill:#efefef;}.cls-3{fill:#fff;}.cls-4{fill:none;}</style></defs><title>Images</title><g id="Monochrome_Images" data-name="Monochrome Images"><g id="Sneakers"><path class="cls-1" d="M420.26,409.78c0,5-5,31-5,31s-159.2-.5-175-.5c0,0-35.54-5.28-35.54-37.63l4.62-144.75c0-20.78,15.8-24.06,36.59-24.06h0c20.78,0,31.22,2.24,36.59,28.24s12.17,130.6,99.95,140.78C419.16,407.08,420.26,409.78,420.26,409.78Z"/><path class="cls-2" d="M159.75,254.13l-.11,103.58a58.7,58.7,0,0,1-5.15,23.76,84.34,84.34,0,0,0-7.26,34.24v25h320.2l-63.66-.26c-.25-4-2.81-9.49-9.66-15-9.59-7.67-29.29-8.37-59.39-19.42-59.29-21.77-76.43-75.51-81-101.36-5-28.25-6.48-50.61-34.43-50.61Z"/><rect class="cls-3" x="140.97" y="440.75" width="331.27" height="26.57" rx="4.96" ry="4.96"/><path class="cls-4" d="M384.4,440.75H351.9c-78.73,0-129-55.73-139.51-132-2.2-12.58-2.41-24.21-3-52"/><line class="cls-3" x1="361.23" y1="440.75" x2="361.23" y2="467.32"/><line class="cls-3" x1="361.23" y1="454.04" x2="142.47" y2="454.04"/><path class="cls-3" d="M384.4,440.75h83l-.09-.26c-13.47-34.87-63.44-34.87-63.44-34.87C392,414.63,386.7,426.94,384.4,440.75Z"/><ellipse class="cls-3" cx="188.74" cy="353.62" rx="19.9" ry="24.15"/><circle class="cls-3" cx="237.42" cy="303.61" r="4.68"/><circle class="cls-3" cx="232.74" cy="272.73" r="4.68"/><circle class="cls-3" cx="244.18" cy="333.89" r="4.68"/><circle class="cls-3" cx="256.41" cy="362.7" r="4.68"/><circle class="cls-3" cx="275.44" cy="387.98" r="4.68"/><circle class="cls-3" cx="300.41" cy="407.74" r="4.68"/><circle class="cls-3" cx="328.89" cy="421.43" r="4.68"/><circle class="cls-3" cx="362.27" cy="426.11" r="4.68"/><path class="cls-3" d="M287,272.61a3,3,0,0,1-3,3H235.75a3,3,0,0,1-3-3h0a3,3,0,0,1,3-3H284a3,3,0,0,1,3,3Z"/><path class="cls-3" d="M292.16,300.78a3,3,0,0,1-2.87,3.14l-48.18,2.22a3,3,0,0,1-3.14-2.87h0a3,3,0,0,1,2.87-3.14L289,297.91a3,3,0,0,1,3.14,2.87Z"/><path class="cls-3" d="M299,326.22a3,3,0,0,1-2.58,3.38L247.52,337a3,3,0,0,1-3.38-2.58h0a3,3,0,0,1,2.58-3.38l48.85-7.4a3,3,0,0,1,3.38,2.58Z"/><path class="cls-3" d="M310,347.85a3,3,0,0,1-2.14,3.67l-47.69,13.3a3,3,0,0,1-3.67-2.14h0a3,3,0,0,1,2.14-3.67l47.69-13.3a3,3,0,0,1,3.67,2.14Z"/><path class="cls-3" d="M321.86,366.32a3,3,0,0,1-1.52,4l-40.92,18.59a3,3,0,0,1-4-1.52h0a3,3,0,0,1,1.52-4l40.92-18.59a3,3,0,0,1,4,1.52Z"/><path class="cls-3" d="M338.77,381.74a3,3,0,0,1-.88,4.16l-33.09,22.17a3,3,0,0,1-4.16-.88h0a3,3,0,0,1,.88-4.16l33.09-22.17a3,3,0,0,1,4.16.88Z"/><path class="cls-3" d="M357.49,392.81a3,3,0,0,1,.11,4.25l-24.89,24.5a3,3,0,0,1-4.25.11h0a3,3,0,0,1-.11-4.25l24.89-24.5a3,3,0,0,1,4.25-.11Z"/><path class="cls-3" d="M380.09,399.31a3,3,0,0,1,.9,4.16l-14.61,21.77a3,3,0,0,1-4.16.9h0a3,3,0,0,1-.9-4.16l14.61-21.77a3,3,0,0,1,4.16-.9Z"/><line class="cls-4" x1="89.52" y1="467.75" x2="510.48" y2="467.75"/></g></g></svg>