<svg xmlns="http://www.w3.org/2000/svg" viewBox="0 0 600 600"><defs><style>.cls-1{fill:#efefef;}.cls-1,.cls-2,.cls-3{stroke:#cecece;stroke-linecap:round;stroke-linejoin:round;stroke-width:4px;}.cls-2{fill:#fcfcfc;}.cls-3{fill:none;}</style></defs><title>Images</title><g id="Monochrome_Images" data-name="Monochrome Images"><g id="Stand_with_Graph" data-name="Stand with Graph"><path class="cls-1" d="M382.05,490.24l11,0a3.76,3.76,0,0,0,3.32-5.18L335,333.9l-18.84,7.64,62.22,146.41A3.76,3.76,0,0,0,382.05,490.24Z"/><path class="cls-1" d="M369.81,490.27H402v-4.46a5.91,5.91,0,0,0-5.91-5.91H375.72a5.91,5.91,0,0,0-5.91,5.91Z"/><path class="cls-1" d="M217.95,490.24l-11,0a3.76,3.76,0,0,1-3.32-5.18L265,333.9l18.84,7.64L221.58,487.95A3.76,3.76,0,0,1,217.95,490.24Z"/><path class="cls-1" d="M230.19,490.27H198v-4.46a5.91,5.91,0,0,1,5.91-5.91h20.42a5.91,5.91,0,0,1,5.91,5.91Z"/><path class="cls-1" d="M306.27,490h-12.8a3.76,3.76,0,0,1-3.76-3.76V321.55H310V486.27A3.76,3.76,0,0,1,306.27,490Z"/><path class="cls-1" d="M316,490.27H283.76v-4.46a5.91,5.91,0,0,1,5.91-5.91h20.42a5.91,5.91,0,0,1,5.91,5.91Z"/><path class="cls-1" d="M321.51,143.66h-43V130.2a3.76,3.76,0,0,1,3.76-3.76h35.5a3.76,3.76,0,0,1,3.76,3.76Z"/><rect class="cls-1" x="189.84" y="356.98" width="220.32" height="15.78" rx="3.06" ry="3.06"/><rect class="cls-1" x="201.08" y="143.66" width="197.85" height="213.32" rx="6.05" ry="6.05"/><line class="cls-2" x1="204.3" y1="147.13" x2="395.7" y2="353.5"/><line class="cls-2" x1="203.19" y1="355.52" x2="396.47" y2="147.13"/><rect class="cls-2" x="216.49" y="160.28" width="167.02" height="180.08"/><line class="cls-3" x1="241.78" y1="310.73" x2="358.62" y2="310.73"/><polyline class="cls-3" points="237.03 194.91 242.05 186.2 247.08 194.91"/><polyline class="cls-3" points="354.27 305.64 362.97 310.67 354.27 315.69"/><line class="cls-3" x1="241.78" y1="310.73" x2="241.78" y2="190.55"/><polyline class="cls-3" points="241.78 310.21 305.55 241.58 317.94 253.95 360.85 207.12"/><line class="cls-3" x1="434.02" y1="490.27" x2="165.98" y2="490.27"/></g></g></svg>