<svg xmlns="http://www.w3.org/2000/svg" viewBox="0 0 600 600"><defs><style>.cls-1{fill:#efefef;}.cls-1,.cls-2{stroke:#cecece;stroke-linecap:round;stroke-linejoin:round;stroke-width:4px;}.cls-2{fill:none;}</style></defs><title>Images</title><g id="Monochrome_Images" data-name="Monochrome Images"><g id="Sunset_" data-name="Sunset
"><path class="cls-1" d="M411.11,372.13a114.13,114.13,0,1,0-222.22,0Z"/><path class="cls-2" d="M156,278.68q-1.41,3.18-2.67,6.42"/><path class="cls-2" d="M196.37,223.93q-2.75,2.39-5.39,4.91"/><path class="cls-2" d="M325.1,187a155.23,155.23,0,0,0-17.19-1.89"/><path class="cls-2" d="M410.85,230.53a155.08,155.08,0,0,0-13.91-12.15"/><path class="cls-2" d="M122.41,279.82a187.76,187.76,0,0,0-5.36,91.53"/><path class="cls-2" d="M298.67,149.81c-39.9.27-79.39,14.08-111.18,38.1"/><path class="cls-2" d="M484.35,305.74c-6.17-35.52-22.9-68.9-46.92-95.7"/><path class="cls-2" d="M482.79,371.92a143.59,143.59,0,0,0,3-35.14"/><path class="cls-2" d="M172.59,299.94a135.42,135.42,0,0,0-4.69,68.55"/><path class="cls-2" d="M201.52,251.56a133.72,133.72,0,0,0-16.66,22"/><path class="cls-2" d="M214.24,239.47q-2.78,2.35-5.43,4.86"/><path class="cls-2" d="M304.63,208.18A134,134,0,0,0,232,226.85"/><path class="cls-2" d="M320.3,209.65q-3.24-.5-6.5-.84"/><path class="cls-2" d="M378.83,233.63A136.64,136.64,0,0,0,342.29,215"/><path class="cls-2" d="M432.74,321a139.34,139.34,0,0,0-28.1-62.81"/><path class="cls-2" d="M432.11,368.49a123.63,123.63,0,0,0,2.52-28.13"/><line class="cls-1" x1="215.9" y1="421.77" x2="384.1" y2="421.77"/><path class="cls-1" d="M233.14,437a113.64,113.64,0,0,0,133.72,0Z"/><path class="cls-1" d="M395.92,406.5a113.77,113.77,0,0,0,11.38-22.91H192.7a113.75,113.75,0,0,0,11.38,22.91Z"/><line class="cls-2" x1="93.2" y1="372.13" x2="506.8" y2="372.13"/><line class="cls-2" x1="156.82" y1="383.58" x2="443.18" y2="383.58"/><line class="cls-2" x1="176.57" y1="406.5" x2="423.43" y2="406.5"/><line class="cls-2" x1="443.18" y1="406.5" x2="460.89" y2="406.5"/><line class="cls-2" x1="196.37" y1="421.77" x2="165.5" y2="421.77"/><line class="cls-2" x1="134.64" y1="383.58" x2="111.29" y2="383.58"/></g></g></svg>