<svg xmlns="http://www.w3.org/2000/svg" viewBox="0 0 600 600"><defs><style>.cls-1{fill:#efefef;}.cls-1,.cls-2,.cls-3{stroke:#cecece;stroke-linecap:round;stroke-linejoin:round;}.cls-1,.cls-2{stroke-width:4px;}.cls-2{fill:#fff;}.cls-3{fill:none;stroke-width:3.74px;}</style></defs><title>Images</title><g id="Monochrome_Images" data-name="Monochrome Images"><g id="Table"><rect class="cls-1" x="273.4" y="261.6" width="194.02" height="33.13"/><rect class="cls-1" x="98.62" y="230.97" width="402.76" height="21.71" rx="3.57" ry="3.57"/><path class="cls-1" d="M121.55,460.69V261.6h14.39V460.69a7.12,7.12,0,0,1-7.12,7.12h-.14A7.12,7.12,0,0,1,121.55,460.69Z"/><rect class="cls-1" x="116.33" y="447.15" width="24.83" height="9.14" rx="4.52" ry="4.52"/><path class="cls-1" d="M467.42,460.69V261.6H481.8V460.69a7.12,7.12,0,0,1-7.12,7.12h-.14A7.12,7.12,0,0,1,467.42,460.69Z"/><path class="cls-1" d="M483,261.6H117a3.57,3.57,0,0,1-3.57-3.57v-5.35H486.59V258A3.57,3.57,0,0,1,483,261.6Z"/><rect class="cls-1" x="273.4" y="285.81" width="194.02" height="8.92"/><path class="cls-1" d="M270.11,436.71H135.94V261.6H274V432.83A3.88,3.88,0,0,1,270.11,436.71Z"/><rect class="cls-1" x="147.68" y="272.91" width="115.51" height="50.25"/><rect class="cls-1" x="147.68" y="323.16" width="115.51" height="50.25"/><rect class="cls-1" x="147.68" y="373.41" width="115.51" height="50.25"/><rect class="cls-2" x="184.88" y="394.36" width="41.11" height="8.35" rx="4.13" ry="4.13"/><rect class="cls-2" x="184.88" y="343.75" width="41.11" height="8.35" rx="4.13" ry="4.13"/><rect class="cls-2" x="184.88" y="293.86" width="41.11" height="8.35" rx="4.13" ry="4.13"/><rect class="cls-1" x="462.2" y="447.15" width="24.83" height="9.14" rx="4.52" ry="4.52"/><line class="cls-3" x1="80.26" y1="467.81" x2="519.74" y2="467.81"/></g></g></svg>