<svg xmlns="http://www.w3.org/2000/svg" viewBox="0 0 799 600"><defs><style>.cls-1,.cls-3{fill:#efefef;}.cls-1,.cls-2,.cls-3{stroke:#cecece;stroke-linecap:round;stroke-linejoin:round;}.cls-1,.cls-2{stroke-width:4px;}.cls-2{fill:none;}.cls-3{stroke-width:2.35px;}</style></defs><title>Images</title><g id="Monochrome_Images" data-name="Monochrome Images"><g id="Tablet_Wacom" data-name="Tablet Wacom"><path class="cls-1" d="M633,241.15H626.8v-7.93a3.07,3.07,0,0,1,3.07-3.07h.06a3.07,3.07,0,0,1,3.07,3.07Z"/><line class="cls-2" x1="153.89" y1="397.46" x2="325.04" y2="397.46"/><line class="cls-2" x1="441.35" y1="423.45" x2="662.69" y2="423.45"/><line class="cls-2" x1="660.09" y1="433.63" x2="677.36" y2="433.63"/><line class="cls-2" x1="182.03" y1="388.44" x2="199.31" y2="388.44"/><path class="cls-1" d="M612.86,467.72h-456c-10.31,0-13.62-9.2-10.15-13.78l68.08-89.68c1.73-2.28,8.81-4.09,15.85-4.09H539.07c7,0,14.13,1.81,15.85,4.09L623,453.94C626.48,458.52,623.17,467.72,612.86,467.72Z"/><polygon class="cls-1" points="569.72 444.49 153.89 444.49 210.94 369.34 524.06 369.34 569.72 444.49"/><polygon class="cls-1" points="569.72 444.49 236.31 444.49 273 369.34 524.06 369.34 569.72 444.49"/><line class="cls-1" x1="563.39" y1="398.55" x2="569.8" y2="407.82"/><line class="cls-3" x1="224.25" y1="388.52" x2="236.84" y2="388.52"/><line class="cls-1" x1="205.93" y1="417.07" x2="218.52" y2="417.07"/><line class="cls-1" x1="201.94" y1="423.45" x2="214.53" y2="423.45"/><line class="cls-1" x1="197.53" y1="430.14" x2="210.12" y2="430.14"/><line class="cls-1" x1="193.4" y1="437.15" x2="205.99" y2="437.15"/><line class="cls-3" x1="227.17" y1="384.23" x2="239.77" y2="384.23"/><line class="cls-3" x1="230.09" y1="380.14" x2="242.68" y2="380.14"/><line class="cls-3" x1="233.14" y1="375.91" x2="245.73" y2="375.91"/><path class="cls-1" d="M243,401c-2.37,4.35-13.9,8-25.7,8s-18.81-3.63-15.75-8,14.3-7.52,25.41-7.52S245.28,396.82,243,401Z"/><path class="cls-3" d="M231.95,401c-1.18,2-6.54,3.67-12,3.67s-8.72-1.65-7.39-3.67,6.63-3.57,11.9-3.57S233.11,399,231.95,401Z"/><line class="cls-1" x1="146.46" y1="460.54" x2="623.26" y2="460.54"/><line class="cls-2" x1="104.02" y1="467.72" x2="694.98" y2="467.72"/><path class="cls-1" d="M637,369H622.84l1.53-126.54a3.69,3.69,0,0,1,3.69-3.64h3.72a3.69,3.69,0,0,1,3.69,3.64Z"/><line class="cls-1" x1="629.91" y1="342.25" x2="629.91" y2="370.02"/><line class="cls-1" x1="623.64" y1="302.04" x2="636.19" y2="302.04"/><path class="cls-1" d="M642.87,423.45H616.94a6.87,6.87,0,0,1-6.85-6.47l-3.33-44a3.77,3.77,0,0,1,3.77-4h38.76a3.77,3.77,0,0,1,3.77,4l-3.33,44A6.87,6.87,0,0,1,642.87,423.45Z"/></g></g></svg>