<svg xmlns="http://www.w3.org/2000/svg" viewBox="0 0 600 600"><defs><style>.cls-1,.cls-2{fill:#fff;}.cls-1,.cls-4,.cls-5{stroke:#cecece;stroke-linecap:round;stroke-linejoin:round;stroke-width:4px;}.cls-3{fill:#f4f4f4;}.cls-4{fill:none;}.cls-5{fill:#efefef;}</style></defs><title>Images</title><g id="Monochrome_Images" data-name="Monochrome Images"><g id="Lamp"><rect class="cls-1" x="291.87" y="357.21" width="16.27" height="80.8"/><rect class="cls-1" x="283.62" y="405.89" width="32.75" height="32.13"/><path class="cls-2" d="M352.08,450.67H247.92v-.25A25.06,25.06,0,0,1,273,425.36h54a25.06,25.06,0,0,1,25.06,25.06Z"/><rect class="cls-2" x="273.59" y="393.72" width="52.82" height="21.42" rx="10.6" ry="10.6"/><path class="cls-2" d="M300.25,383.49h-.5A20.65,20.65,0,0,1,279.46,359l3.18-12.59a128.9,128.9,0,0,0,3.92-31.55V287.12h26.89v27.79a128.9,128.9,0,0,0,3.92,31.55L320.54,359A20.65,20.65,0,0,1,300.25,383.49Z"/><path class="cls-3" d="M284.19,415.13h31.61a10.6,10.6,0,0,0,10.6-10.6v-.21a10.56,10.56,0,0,0-.62-3.54,10.6,10.6,0,0,1-10,7.07H284.19a10.6,10.6,0,0,1-10-7.07,10.56,10.56,0,0,0-.62,3.54v.21A10.6,10.6,0,0,0,284.19,415.13Z"/><path class="cls-3" d="M247.92,450.41v.25H352.08v-.25a25.05,25.05,0,0,0-1-7H248.93A25.05,25.05,0,0,0,247.92,450.41Z"/><path class="cls-4" d="M352.08,450.67H247.92v-.25A25.06,25.06,0,0,1,273,425.36h54a25.06,25.06,0,0,1,25.06,25.06Z"/><rect class="cls-4" x="273.59" y="393.72" width="52.82" height="21.42" rx="10.6" ry="10.6"/><path class="cls-3" d="M299.75,383.49h.5a20.64,20.64,0,0,0,20.32-24.27,20.65,20.65,0,0,1-20.32,17h-.5a20.65,20.65,0,0,1-20.32-17A20.64,20.64,0,0,0,299.75,383.49Z"/><path class="cls-4" d="M300.25,383.49h-.5A20.65,20.65,0,0,1,279.46,359l3.18-12.59a128.9,128.9,0,0,0,3.92-31.55V287.12h26.89v27.79a128.9,128.9,0,0,0,3.92,31.55L320.54,359A20.65,20.65,0,0,1,300.25,383.49Z"/><polygon class="cls-1" points="233.97 136.82 193.47 314.62 406.52 314.62 366.03 136.82 233.97 136.82"/><polygon class="cls-5" points="233.97 136.82 216.16 215 383.83 215 366.03 136.82 233.97 136.82"/><polygon class="cls-5" points="206.07 259.33 193.47 314.62 406.52 314.62 393.93 259.33 206.07 259.33"/><line class="cls-4" x1="195.62" y1="450.67" x2="404.38" y2="450.67"/></g></g></svg>