<svg xmlns="http://www.w3.org/2000/svg" viewBox="0 0 600 600"><defs><style>.cls-1{fill:#efefef;}.cls-1,.cls-4{stroke:#cecece;stroke-linecap:round;stroke-linejoin:round;stroke-width:4px;}.cls-2{fill:#f4f4f4;}.cls-3{fill:#fcfcfc;}.cls-4{fill:none;}</style></defs><title>Images</title><g id="Monochrome_Images" data-name="Monochrome Images"><g id="Teacup"><path class="cls-1" d="M418.58,352.52s33-17.29,48.75,3.69c12,16,4.29,43.23-20.6,55.11s-66.55,11.85-66.55,11.85l14.06-14.77c19.6-1.93,27.33-.86,48.2-11.49,18.55-9.45,19.74-36.15,0-36.15s-32.32,19-32.32,19Z"/><path class="cls-2" d="M337.15,459.3C397.91,437.91,430,366.6,430,314.48H154.78c0,56.1,31,123.43,89.32,144.81Z"/><path class="cls-3" d="M156.63,315.45a180,180,0,0,0,6,26.44c17.32,56.26,70,94.17,128.85,94.17h.93c55.17,0,105.16-33.37,125.43-84.67a178.81,178.81,0,0,0,10.05-35.94Z"/><path class="cls-4" d="M337.15,459.3C397.91,437.91,430,366.6,430,314.48H154.78c0,56.1,31,123.43,89.32,144.81Z"/><path class="cls-4" d="M295.25,216.63s-15.44,20.87,0,47,0,40.91,0,40.91"/><path class="cls-4" d="M270.19,235.66c-4.09,24.91,11.86,30,13,44.26"/><path class="cls-4" d="M315.2,265.7c11.7,19.76,0,31,0,31"/><path class="cls-1" d="M183.18,455.89l.68.18a297.63,297.63,0,0,0,75.63,9.77h62.68a297.63,297.63,0,0,0,76.58-10l.68-.18a3.08,3.08,0,0,0-.93-6.06c-23,1-58.69,2.18-105.1,2.18-47.1,0-84.78-1.17-109.27-2.23A3.23,3.23,0,0,0,183.18,455.89Z"/><path class="cls-1" d="M205.36,400.67V364.36a5.43,5.43,0,0,1,.73-2.72l9.85-17.06a5.43,5.43,0,0,1,4.7-2.71h18a5.43,5.43,0,0,1,4.7,2.71l9.85,17.06a5.43,5.43,0,0,1,.73,2.71v36.31a5.43,5.43,0,0,1-5.43,5.43H210.79A5.43,5.43,0,0,1,205.36,400.67Z"/><path class="cls-4" d="M229.64,350.58V314.48a5,5,0,0,1,5-5h1.16a5,5,0,0,1,5,5v.05"/><line class="cls-4" x1="127.1" y1="465.84" x2="455.62" y2="465.84"/></g></g></svg>