<svg xmlns="http://www.w3.org/2000/svg" viewBox="0 0 600 600"><defs><style>.cls-1,.cls-6{fill:#fff;}.cls-2{fill:#f4f4f4;}.cls-3,.cls-5{fill:none;}.cls-3,.cls-4,.cls-5,.cls-6{stroke:#cecece;stroke-linecap:round;stroke-linejoin:round;}.cls-3{stroke-width:5.03px;}.cls-4{fill:#efefef;}.cls-4,.cls-5,.cls-6{stroke-width:4px;}</style></defs><title>Images</title><g id="Monochrome_Images" data-name="Monochrome Images"><g id="Tree"><path class="cls-1" d="M171.54,255.64c0,71.89,51.84,119.34,108.57,119.34v.45c6.88,4.67,10.11,16,44.56,16,107.61,0,151.61-110.15,78.8-184.48,1.56-30.82-.78-59.46-38.63-79.35-32.09-64-117.74-44.49-126,14.67C211.19,152.83,171.54,183.75,171.54,255.64Z"/><path class="cls-2" d="M324.67,368.46c-34.45,0-37.68-11.37-44.56-16V352c-53.84,0-103.27-42.75-108.17-108.56q-.39,5.91-.4,12.23c0,71.89,51.84,119.34,108.57,119.34v.45c6.88,4.67,10.11,16,44.56,16,76.31,0,120.61-55.38,114-114.1C433,326.76,390.88,368.46,324.67,368.46Z"/><path class="cls-3" d="M171.54,255.64c0,71.89,51.84,119.34,108.57,119.34v.45c6.88,4.67,10.11,16,44.56,16,107.61,0,151.61-110.15,78.8-184.48,1.56-30.82-.78-59.46-38.63-79.35-32.09-64-117.74-44.49-126,14.67C211.19,152.83,171.54,183.75,171.54,255.64Z"/><path class="cls-4" d="M322.17,273.51l-.8,139.72a33.74,33.74,0,0,0,21.34,31.38l18.36,7.25H237.5l18.77-7.79a33.74,33.74,0,0,0,20.8-31.16l.8-142.38"/><line class="cls-5" x1="289.44" y1="331.38" x2="288.64" y2="385.78"/><line class="cls-5" x1="299.29" y1="392.98" x2="299.29" y2="423.11"/><line class="cls-5" x1="309.55" y1="347.81" x2="309.55" y2="368.34"/><line class="cls-5" x1="309.55" y1="377.3" x2="309.55" y2="403.7"/><path class="cls-4" d="M280.11,317.57H264.24A16.61,16.61,0,0,1,247.63,301V249.43L238.3,256v48.16a22.4,22.4,0,0,0,22.4,22.4h19.41"/><path class="cls-4" d="M319.93,339.43h9.17a16.61,16.61,0,0,0,16.61-16.61V298.16l9.33-2.05V326a22.4,22.4,0,0,1-22.4,22.4H319.93"/><path class="cls-6" d="M255.28,234.12a25.21,25.21,0,0,1-36.33,22.62"/><path class="cls-6" d="M260.7,242.5a34.17,34.17,0,0,0,41.25,33.42,42.29,42.29,0,0,0,68,19.6"/><path class="cls-6" d="M317.6,238.11A16.43,16.43,0,0,1,323.72,225c4.37,3.55,6.77,7.86,6.83,13.07"/><path class="cls-6" d="M337,242.45a20.21,20.21,0,0,1,15.67-8.22A24.08,24.08,0,0,1,349,248.91a13.1,13.1,0,0,1,9.78-.06,20.5,20.5,0,0,1-2,11.13"/><path class="cls-4" d="M289.76,451.86V433.94c-2.28,9.36-8.25,16.1-21.09,17.92"/><line class="cls-5" x1="192" y1="451.86" x2="410.17" y2="451.86"/><line class="cls-5" x1="232.27" y1="451.86" x2="232.27" y2="442.9"/><line class="cls-5" x1="226.11" y1="451.86" x2="226.11" y2="447.38"/><line class="cls-5" x1="320.2" y1="451.86" x2="320.2" y2="442.9"/><line class="cls-5" x1="311.95" y1="451.86" x2="311.95" y2="447.38"/><line class="cls-5" x1="328.91" y1="451.86" x2="328.91" y2="447.38"/><line class="cls-5" x1="367.13" y1="451.86" x2="367.13" y2="447.38"/></g></g></svg>