<svg xmlns="http://www.w3.org/2000/svg" viewBox="0 0 600 600"><defs><style>.cls-1{fill:#efefef;}.cls-1,.cls-2,.cls-3{stroke:#cecece;stroke-linecap:round;stroke-linejoin:round;stroke-width:4px;}.cls-2{fill:#fcfcfc;}.cls-3{fill:none;}</style></defs><title>Images</title><g id="Monochrome_Images" data-name="Monochrome Images"><g id="TV"><circle class="cls-1" cx="219.87" cy="259.01" r="22.21"/><rect class="cls-1" x="141.52" y="249.05" width="316.96" height="218.35" rx="20.34" ry="20.34"/><rect class="cls-2" x="153.61" y="262.34" width="292.78" height="191.78" rx="10.7" ry="10.7"/><path class="cls-3" d="M435.69,262.34h-68.6V454.12h68.6a10.7,10.7,0,0,0,10.7-10.7V273A10.7,10.7,0,0,0,435.69,262.34Z"/><rect class="cls-1" x="169.65" y="278.38" width="182.44" height="159.69" rx="15.59" ry="15.59"/><path class="cls-1" d="M203.27,488.6h-4.49a11,11,0,0,1-9.88-6.11l-7.55-15.09h39.34l-7.55,15.09A11,11,0,0,1,203.27,488.6Z"/><path class="cls-1" d="M400.6,488.6h-4.49a11,11,0,0,1-9.88-6.11l-7.55-15.09H418l-7.55,15.09A11,11,0,0,1,400.6,488.6Z"/><line class="cls-3" x1="211.98" y1="238.25" x2="145.7" y2="171.96"/><line class="cls-3" x1="227.76" y1="238.25" x2="227.76" y2="117.13"/><circle class="cls-1" cx="406.74" cy="298.32" r="18.67"/><circle class="cls-1" cx="406.74" cy="354.41" r="18.67"/><circle class="cls-3" cx="394.37" cy="395.94" r="7.01"/><circle class="cls-3" cx="418.65" cy="395.94" r="7.01"/><line class="cls-3" x1="387.82" y1="417.94" x2="425.66" y2="417.94"/><line class="cls-3" x1="387.82" y1="431.57" x2="425.66" y2="431.57"/><line class="cls-2" x1="406.74" y1="354.41" x2="421.84" y2="343.43"/><line class="cls-2" x1="406.74" y1="298.32" x2="425.42" y2="298.32"/><circle class="cls-1" cx="145.7" cy="171.96" r="5.73"/><circle class="cls-1" cx="227.76" cy="117.13" r="5.73"/><line class="cls-3" x1="127.93" y1="488.6" x2="472.07" y2="488.6"/></g></g></svg>