<svg xmlns="http://www.w3.org/2000/svg" viewBox="0 0 600 600"><defs><style>.cls-1{fill:#efefef;}.cls-1,.cls-2,.cls-5{stroke:#cecece;stroke-linecap:round;stroke-linejoin:round;stroke-width:4px;}.cls-2,.cls-3{fill:#fcfcfc;}.cls-4{fill:#f4f4f4;}.cls-5{fill:none;}</style></defs><title>Images</title><g id="Monochrome_Images" data-name="Monochrome Images"><g id="Window"><rect class="cls-1" x="392.05" y="245.43" width="14.55" height="35.36"/><rect class="cls-1" x="392.05" y="355.93" width="14.55" height="35.36"/><rect class="cls-2" x="220.02" y="204.83" width="160.4" height="217.97"/><rect class="cls-3" x="208.38" y="172.94" width="183.66" height="281.74"/><rect class="cls-1" x="220.02" y="204.83" width="160.4" height="217.97"/><rect class="cls-2" x="406.59" y="210.07" width="80.2" height="207.49"/><rect class="cls-1" x="421.55" y="251.29" width="50.28" height="7.46"/><rect class="cls-1" x="421.55" y="227.41" width="50.28" height="7.46"/><rect class="cls-1" x="421.55" y="275.18" width="50.28" height="7.46"/><rect class="cls-1" x="421.55" y="299.06" width="50.28" height="7.46"/><rect class="cls-1" x="421.55" y="321.11" width="50.28" height="7.46"/><rect class="cls-1" x="421.55" y="344.99" width="50.28" height="7.46"/><rect class="cls-1" x="421.55" y="368.88" width="50.28" height="7.46"/><rect class="cls-1" x="421.55" y="392.76" width="50.28" height="7.46"/><rect class="cls-1" x="193.41" y="245.43" width="14.55" height="35.36"/><rect class="cls-1" x="193.41" y="355.93" width="14.55" height="35.36"/><rect class="cls-2" x="113.21" y="210.07" width="80.2" height="207.49"/><rect class="cls-1" x="128.17" y="251.29" width="50.28" height="7.46"/><rect class="cls-1" x="128.17" y="227.41" width="50.28" height="7.46"/><rect class="cls-1" x="128.17" y="275.18" width="50.28" height="7.46"/><rect class="cls-1" x="128.17" y="299.06" width="50.28" height="7.46"/><rect class="cls-1" x="128.17" y="321.11" width="50.28" height="7.46"/><rect class="cls-1" x="128.17" y="344.99" width="50.28" height="7.46"/><rect class="cls-1" x="128.17" y="368.88" width="50.28" height="7.46"/><rect class="cls-1" x="128.17" y="392.76" width="50.28" height="7.46"/><rect class="cls-4" x="208.38" y="438.74" width="183.66" height="6.34"/><rect class="cls-2" x="220.02" y="307.31" width="160.4" height="13.01"/><rect class="cls-2" x="293.61" y="204.83" width="13.21" height="217.97"/><rect class="cls-3" x="264.26" y="309.42" width="71.92" height="8.78"/><rect class="cls-3" x="229.92" y="393.1" width="140.6" height="29.7"/><rect class="cls-5" x="208.38" y="172.94" width="183.66" height="281.74"/><rect class="cls-4" x="229.7" y="393.1" width="140.6" height="7.12"/><rect class="cls-5" x="229.92" y="393.1" width="140.6" height="29.7"/><path class="cls-2" d="M276.61,356.46c1.68,1.28,3.87,4.91,5.32,3.37,10.5-11.19,23.55-7.38,24.34-4.34,6.51-10.44,19.48-15.6,31.72-14.35,30.61,3.12,26,31.64,28.3,30.66,3.1-1.3,14.94,1,16.71,9.21,1.34,6.28-3.83,12.1-10.25,12.09H226.92c-19.1-6.9-8.78-35.5,11.75-26.67a24.9,24.9,0,0,1,38-10Z"/><rect class="cls-2" x="199.48" y="188.89" width="201.48" height="15.94"/><rect class="cls-3" x="199.48" y="422.8" width="201.48" height="15.94"/><rect class="cls-4" x="199.48" y="430.77" width="201.48" height="7.97"/><rect class="cls-5" x="199.48" y="422.8" width="201.48" height="15.94"/></g></g></svg>