<?xml version="1.0" encoding="UTF-8"?>
<svg width="14px" height="20px" viewBox="0 0 14 20" version="1.1" xmlns="http://www.w3.org/2000/svg" xmlns:xlink="http://www.w3.org/1999/xlink">
    <!-- Generator: Sketch 54 (76480) - https://sketchapp.com -->
    <title>gicon-dark</title>
    <desc>Created with Sketch.</desc>
    <g id="Page-1" stroke="none" stroke-width="1" fill="none" fill-rule="evenodd">
        <g id="gicon-dark" fill="#0D024A" fill-rule="nonzero">
            <path d="M7,19.5 C6.7,19.5 6.4,19.5 6.1,19.5 C6.1,19.5 6.1,19.5 6,19.5 C5.1,19.4 4.3,19.2 3.6,18.8 C2.6,18.3 1.9,17.6 1.2,16.8 C0.7,16.2 0.4,15.5 0.3,14.8 C0.3,14.7 0.3,14.5 0.2,14.4 C0.2,14.2 0.2,14 0.2,13.7 C0.2,13.6 0.2,13.5 0.2,13.5 C0.2,13.1 0.3,12.8 0.5,12.5 C0.7,12.1 1.1,11.8 1.6,11.7 C1.8,11.6 2,11.6 2.2,11.5 C2.2,11.5 2.2,11.5 2.2,11.4 C2.1,11.1 2,10.9 1.9,10.6 C2,10.3 2,10 2.1,9.7 C2.4,9.2 2.8,8.8 3.3,8.5 C3.5,8.4 3.7,8.4 3.9,8.4 C4.1,8.4 4.4,8.5 4.6,8.6 C4.7,8.6 4.8,8.7 4.8,8.7 C4.8,8.7 4.8,8.6 4.8,8.6 C4.5,7.6 4.1,6.4 3.7,5.3 C3.4,4.5 3.2,3.7 3,2.8 C3,2.4 2.9,2 3.1,1.6 C3.3,1.1 3.6,0.7 4.1,0.6 C4.2,0.6 4.3,0.6 4.4,0.5 C4.5,0.5 4.6,0.5 4.7,0.5 C5,0.6 5.2,0.8 5.4,1.1 C5.5,1.2 5.6,1.4 5.7,1.5 C6,2 6.3,2.5 6.6,3.1 C7.1,4.3 7.5,5.5 8,6.7 C8.1,6.9 8.2,7.1 8.2,7.4 C8.2,7.4 8.2,7.3 8.2,7.3 C8.5,6.4 8.8,5.5 9.2,4.6 C9.5,3.8 9.9,3 10.3,2.3 C10.5,1.9 10.8,1.6 11.1,1.3 C11.3,1.1 11.5,1 11.7,0.9 C12.2,0.8 12.7,1 13,1.4 C13.3,1.8 13.4,2.3 13.3,2.8 C13.2,3.3 13.1,3.7 13,4.2 C12.7,5.5 12.2,6.7 11.8,8 C11.7,8.2 11.7,8.4 11.6,8.6 C11.8,8.6 11.9,8.7 12.1,8.7 C12.8,8.9 13.2,9.3 13.5,10 C13.6,10.3 13.7,10.6 13.7,11 C13.7,11.1 13.7,11.3 13.7,11.4 C13.7,11.8 13.7,12.2 13.7,12.6 C13.7,12.6 13.7,12.6 13.7,12.7 C13.7,13.1 13.6,13.4 13.6,13.8 C13.3,15.4 12.6,16.7 11.4,17.8 C10.3,18.9 8.9,19.4 7.4,19.5 C7.2,19.5 7.1,19.5 7,19.5 Z M2.1,13.9 C2.2,14 2.3,14.2 2.4,14.3 C2.6,14.6 2.9,15 3.2,15.2 C3.4,15.4 3.6,15.6 3.9,15.6 C4.2,15.7 4.4,15.6 4.7,15.4 C4.8,15.3 4.9,15.1 4.8,15 C4.7,14.9 4.7,14.7 4.6,14.6 C4.2,14 3.8,13.4 3.3,12.8 C3.1,12.6 2.9,12.4 2.7,12.3 C2.5,12.2 2.3,12.2 2.1,12.2 C1.8,12.3 1.6,12.5 1.4,12.8 C1.1,13.3 1,13.8 1.1,14.3 C1.2,14.8 1.4,15.3 1.7,15.7 C2.1,16.4 2.7,17 3.4,17.5 C4.2,18 5.1,18.3 6,18.4 C6.7,18.5 7.4,18.4 8.1,18.2 C9.1,17.9 9.9,17.4 10.6,16.7 C11.4,15.9 12,14.9 12.3,13.7 C12.5,13 12.6,12.2 12.5,11.5 C12.5,11.1 12.5,10.8 12.4,10.4 C12.3,10 12.1,9.7 11.8,9.5 C11.7,9.4 11.5,9.4 11.4,9.3 C10.8,9.2 10,9 9.2,8.9 C8.5,8.8 7.7,8.7 7,8.7 C6.8,8.7 6.6,8.7 6.3,8.8 C6.2,8.8 6,8.9 6,9.1 C5.9,9.5 6,9.9 6.3,10.2 C6.6,10.5 6.9,10.6 7.3,10.7 C8,11 8.7,11 9.4,11 C9.8,11 10.2,11 10.7,11 C10.9,11 11,11.1 11.1,11.3 C11.1,11.3 11.1,11.4 11.1,11.4 C11.1,11.6 11.2,11.6 11,11.7 C10.9,11.7 10.9,11.8 10.8,11.8 C10.6,11.9 10.3,12 10.1,12.1 C9,12.5 8.2,13.3 7.7,14.4 C7.5,14.8 7.4,15.2 7.5,15.7 C7.5,15.9 7.6,16.2 7.6,16.4 C7.7,16.7 7.8,17 7.8,17.2 C7.8,17.3 7.8,17.4 7.8,17.5 C7.7,17.5 7.5,17.4 7.4,17.4 C7.2,17.3 7,17.1 6.9,16.8 C6.7,16.3 6.6,15.9 6.6,15.3 C6.6,15.2 6.6,15.1 6.6,14.9 C6.3,15.1 6,15.1 5.7,15 C5.7,15 5.7,15.1 5.7,15.1 C5.7,15.3 5.8,15.5 5.7,15.7 C5.6,16.1 5.3,16.4 5,16.6 C4.6,16.8 4.2,16.7 3.8,16.6 C3.1,16.3 2.5,15.8 2.2,15.1 C2,14.9 2,14.6 2,14.3 C2,14.2 2,14 2.1,13.9 Z M7.3,7.9 C7.3,7.9 7.3,7.9 7.3,7.9 C6.9,6.6 6.4,5.3 6,4.1 C5.8,3.4 5.5,2.8 5.2,2.2 C5.1,1.9 5,1.7 4.8,1.5 C4.6,1.4 4.4,1.3 4.2,1.4 C4,1.5 3.9,1.7 3.8,1.9 C3.8,2.1 3.8,2.4 3.8,2.6 C3.9,3.1 4,3.6 4.2,4.1 C4.6,5.3 5,6.4 5.4,7.6 C5.5,7.8 5.5,8 5.6,8.2 C5.8,7.9 6,7.9 6.2,7.9 C6.4,7.9 6.6,7.9 6.8,7.9 C6.9,7.9 7.1,7.9 7.3,7.9 Z M8.9,8.1 C9.4,8.2 10,8.3 10.5,8.4 C10.5,8.4 10.5,8.4 10.5,8.3 C10.8,7.4 11.2,6.5 11.5,5.5 C11.8,4.7 12.1,3.8 12.3,3 C12.4,2.7 12.4,2.5 12.4,2.2 C12.3,1.7 11.8,1.5 11.4,1.9 C11.3,2 11.2,2.2 11.1,2.3 C10.8,2.8 10.6,3.3 10.4,3.8 C10,5 9.6,6.2 9.2,7.3 C9.1,7.6 9,7.8 8.9,8.1 Z M6.1,14.2 C6.3,14.2 6.4,14.1 6.6,13.9 C6.7,13.7 6.7,13.5 6.7,13.3 C6.5,12.5 6.1,11.7 5.7,11 C5.5,10.6 5.2,10.2 4.9,9.8 C4.6,9.7 4.4,9.5 4.1,9.4 C3.9,9.3 3.7,9.4 3.5,9.5 C3.4,9.6 3.3,9.7 3.1,9.9 C3,10.1 2.9,10.3 3,10.6 C3.1,10.8 3.2,11.1 3.3,11.3 C3.7,12.1 4.2,12.8 4.8,13.4 C5,13.7 5.3,13.9 5.6,14.1 C5.7,14.2 5.9,14.2 6.1,14.2 Z M7.4,13.2 C7.6,13 7.8,12.7 8,12.5 C8.2,12.3 8.5,12.1 8.7,11.9 C8,11.9 7.4,11.8 6.7,11.5 C7.1,12.1 7.3,12.6 7.4,13.2 Z" id="Shape"></path>
        </g>
    </g>
</svg>
