<?xml version="1.0" encoding="UTF-8"?>
<svg width="16px" height="23px" viewBox="0 0 16 23" version="1.1" xmlns="http://www.w3.org/2000/svg" xmlns:xlink="http://www.w3.org/1999/xlink">
    <!-- Generator: Sketch 54 (76480) - https://sketchapp.com -->
    <title>angellist-icon-dark</title>
    <desc>Created with Sketch.</desc>
    <g id="Page-1" stroke="none" stroke-width="1" fill="none" fill-rule="evenodd">
        <g id="angellist-icon-dark" fill="#0D024A" fill-rule="nonzero">
            <path d="M8.05,22.425 C7.705,22.425 7.36,22.425 7.015,22.425 C7.015,22.425 7.015,22.425 6.9,22.425 C5.865,22.31 4.945,22.08 4.14,21.62 C2.99,21.045 2.185,20.24 1.38,19.32 C0.805,18.63 0.46,17.825 0.345,17.02 C0.345,16.905 0.345,16.675 0.23,16.56 C0.23,16.33 0.23,16.1 0.23,15.755 C0.23,15.64 0.23,15.525 0.23,15.525 C0.23,15.065 0.345,14.72 0.575,14.375 C0.805,13.915 1.265,13.57 1.84,13.455 C2.07,13.34 2.3,13.34 2.53,13.225 C2.53,13.225 2.53,13.225 2.53,13.11 C2.415,12.765 2.3,12.535 2.185,12.19 C2.3,11.845 2.3,11.5 2.415,11.155 C2.76,10.58 3.22,10.12 3.795,9.775 C4.025,9.66 4.255,9.66 4.485,9.66 C4.715,9.66 5.06,9.775 5.29,9.89 C5.405,9.89 5.52,10.005 5.52,10.005 C5.52,10.005 5.52,9.89 5.52,9.89 C5.175,8.74 4.715,7.36 4.255,6.095 C3.91,5.175 3.68,4.255 3.45,3.22 C3.45,2.76 3.335,2.3 3.565,1.84 C3.795,1.265 4.14,0.805 4.715,0.69 C4.83,0.69 4.945,0.69 5.06,0.575 C5.175,0.575 5.29,0.575 5.405,0.575 C5.75,0.69 5.98,0.92 6.21,1.265 C6.325,1.38 6.44,1.61 6.555,1.725 C6.9,2.3 7.245,2.875 7.59,3.565 C8.165,4.945 8.625,6.325 9.2,7.705 C9.315,7.935 9.43,8.165 9.43,8.51 C9.43,8.51 9.43,8.395 9.43,8.395 C9.775,7.36 10.12,6.325 10.58,5.29 C10.925,4.37 11.385,3.45 11.845,2.645 C12.075,2.185 12.42,1.84 12.765,1.495 C12.995,1.265 13.225,1.15 13.455,1.035 C14.03,0.92 14.605,1.15 14.95,1.61 C15.295,2.07 15.41,2.645 15.295,3.22 C15.18,3.795 15.065,4.255 14.95,4.83 C14.605,6.325 14.03,7.705 13.57,9.2 C13.455,9.43 13.455,9.66 13.34,9.89 C13.57,9.89 13.685,10.005 13.915,10.005 C14.72,10.235 15.18,10.695 15.525,11.5 C15.64,11.845 15.755,12.19 15.755,12.65 C15.755,12.765 15.755,12.995 15.755,13.11 C15.755,13.57 15.755,14.03 15.755,14.49 C15.755,14.49 15.755,14.49 15.755,14.605 C15.755,15.065 15.64,15.41 15.64,15.87 C15.295,17.71 14.49,19.205 13.11,20.47 C11.845,21.735 10.235,22.31 8.51,22.425 C8.28,22.425 8.165,22.425 8.05,22.425 Z M2.415,15.985 C2.53,16.1 2.645,16.33 2.76,16.445 C2.99,16.79 3.335,17.25 3.68,17.48 C3.91,17.71 4.14,17.94 4.485,17.94 C4.83,18.055 5.06,17.94 5.405,17.71 C5.52,17.595 5.635,17.365 5.52,17.25 C5.405,17.135 5.405,16.905 5.29,16.79 C4.83,16.1 4.37,15.41 3.795,14.72 C3.565,14.49 3.335,14.26 3.105,14.145 C2.875,14.03 2.645,14.03 2.415,14.03 C2.07,14.145 1.84,14.375 1.61,14.72 C1.265,15.295 1.15,15.87 1.265,16.445 C1.38,17.02 1.61,17.595 1.955,18.055 C2.415,18.86 3.105,19.55 3.91,20.125 C4.83,20.7 5.865,21.045 6.9,21.16 C7.705,21.275 8.51,21.16 9.315,20.93 C10.465,20.585 11.385,20.01 12.19,19.205 C13.11,18.285 13.8,17.135 14.145,15.755 C14.375,14.95 14.49,14.03 14.375,13.225 C14.375,12.765 14.375,12.42 14.26,11.96 C14.145,11.5 13.915,11.155 13.57,10.925 C13.455,10.81 13.225,10.81 13.11,10.695 C12.42,10.58 11.5,10.35 10.58,10.235 C9.775,10.12 8.855,10.005 8.05,10.005 C7.82,10.005 7.59,10.005 7.245,10.12 C7.13,10.12 6.9,10.235 6.9,10.465 C6.785,10.925 6.9,11.385 7.245,11.73 C7.59,12.075 7.935,12.19 8.395,12.305 C9.2,12.65 10.005,12.65 10.81,12.65 C11.27,12.65 11.73,12.65 12.305,12.65 C12.535,12.65 12.65,12.765 12.765,12.995 C12.765,12.995 12.765,13.11 12.765,13.11 C12.765,13.34 12.88,13.34 12.65,13.455 C12.535,13.455 12.535,13.57 12.42,13.57 C12.19,13.685 11.845,13.8 11.615,13.915 C10.35,14.375 9.43,15.295 8.855,16.56 C8.625,17.02 8.51,17.48 8.625,18.055 C8.625,18.285 8.74,18.63 8.74,18.86 C8.855,19.205 8.97,19.55 8.97,19.78 C8.97,19.895 8.97,20.01 8.97,20.125 C8.855,20.125 8.625,20.01 8.51,20.01 C8.28,19.895 8.05,19.665 7.935,19.32 C7.705,18.745 7.59,18.285 7.59,17.595 C7.59,17.48 7.59,17.365 7.59,17.135 C7.245,17.365 6.9,17.365 6.555,17.25 C6.555,17.25 6.555,17.365 6.555,17.365 C6.555,17.595 6.67,17.825 6.555,18.055 C6.44,18.515 6.095,18.86 5.75,19.09 C5.29,19.32 4.83,19.205 4.37,19.09 C3.565,18.745 2.875,18.17 2.53,17.365 C2.3,17.135 2.3,16.79 2.3,16.445 C2.3,16.33 2.3,16.1 2.415,15.985 Z M8.395,9.085 C8.395,9.085 8.395,9.085 8.395,9.085 C7.935,7.59 7.36,6.095 6.9,4.715 C6.67,3.91 6.325,3.22 5.98,2.53 C5.865,2.185 5.75,1.955 5.52,1.725 C5.29,1.61 5.06,1.495 4.83,1.61 C4.6,1.725 4.485,1.955 4.37,2.185 C4.37,2.415 4.37,2.76 4.37,2.99 C4.485,3.565 4.6,4.14 4.83,4.715 C5.29,6.095 5.75,7.36 6.21,8.74 C6.325,8.97 6.325,9.2 6.44,9.43 C6.67,9.085 6.9,9.085 7.13,9.085 C7.36,9.085 7.59,9.085 7.82,9.085 C7.935,9.085 8.165,9.085 8.395,9.085 Z M10.235,9.315 C10.81,9.43 11.5,9.545 12.075,9.66 C12.075,9.66 12.075,9.66 12.075,9.545 C12.42,8.51 12.88,7.475 13.225,6.325 C13.57,5.405 13.915,4.37 14.145,3.45 C14.26,3.105 14.26,2.875 14.26,2.53 C14.145,1.955 13.57,1.725 13.11,2.185 C12.995,2.3 12.88,2.53 12.765,2.645 C12.42,3.22 12.19,3.795 11.96,4.37 C11.5,5.75 11.04,7.13 10.58,8.395 C10.465,8.74 10.35,8.97 10.235,9.315 Z M7.015,16.33 C7.245,16.33 7.36,16.215 7.59,15.985 C7.705,15.755 7.705,15.525 7.705,15.295 C7.475,14.375 7.015,13.455 6.555,12.65 C6.325,12.19 5.98,11.73 5.635,11.27 C5.29,11.155 5.06,10.925 4.715,10.81 C4.485,10.695 4.255,10.81 4.025,10.925 C3.91,11.04 3.795,11.155 3.565,11.385 C3.45,11.615 3.335,11.845 3.45,12.19 C3.565,12.42 3.68,12.765 3.795,12.995 C4.255,13.915 4.83,14.72 5.52,15.41 C5.75,15.755 6.095,15.985 6.44,16.215 C6.555,16.33 6.785,16.33 7.015,16.33 Z M8.51,15.18 C8.74,14.95 8.97,14.605 9.2,14.375 C9.43,14.145 9.775,13.915 10.005,13.685 C9.2,13.685 8.51,13.57 7.705,13.225 C8.165,13.915 8.395,14.49 8.51,15.18 Z" id="Shape"></path>
        </g>
    </g>
</svg>