<svg xmlns="http://www.w3.org/2000/svg" width="19" height="13" viewBox="0 0 19 13">

  <path id="Arrow-right" class="cls-1" d="M535.841,2635.05h0a0.226,0.226,0,0,1,.013.02l0.025,0.03,0.015,0.03,0.02,0.03c0,0.01.009,0.02,0.013,0.03s0.011,0.03.016,0.04,0.008,0.02.011,0.03l0.012,0.03c0,0.01.006,0.03,0.009,0.04s0,0.02.007,0.03a0.236,0.236,0,0,1,.008.05,0.059,0.059,0,0,1,0,.02,0.7,0.7,0,0,1-.247.61l-5.463,5.8a0.67,0.67,0,0,1-.964-0.1,0.717,0.717,0,0,1,.1-0.99l4.292-4.55H517.683a0.7,0.7,0,0,1,0-1.4h16.029l-4.29-4.56a0.706,0.706,0,0,1-.1-0.98,0.668,0.668,0,0,1,.962-0.1l5.444,5.77c0.022,0.02.041,0.04,0.06,0.06,0,0,0,0,0,.01a0.037,0.037,0,0,1,.022.02Z" transform="translate(-517 -2629)"/>
</svg>
