<svg xmlns="http://www.w3.org/2000/svg" width="14" height="12" viewBox="0 0 14 12">
  <metadata><?xpacket begin="﻿" id="W5M0MpCehiHzreSzNTczkc9d"?>
<x:xmpmeta xmlns:x="adobe:ns:meta/" x:xmptk="Adobe XMP Core 5.6-c138 79.159824, 2016/09/14-01:09:01        ">
   <rdf:RDF xmlns:rdf="http://www.w3.org/1999/02/22-rdf-syntax-ns#">
      <rdf:Description rdf:about=""/>
   </rdf:RDF>
</x:xmpmeta>
<?xpacket end="w"?></metadata>
<defs>
    <style>
      .cls-1 {
        fill: #211f55;
        fill-rule: evenodd;
      }
    </style>
  </defs>
  <path id="email" class="cls-1" d="M166.344,3808.7c0.177,0.13.711,0.54,1.6,1.21s1.573,1.19,2.047,1.56c0.052,0.04.163,0.12,0.332,0.26s0.31,0.24.422,0.32,0.247,0.18.406,0.28a2.366,2.366,0,0,0,.449.23,1.19,1.19,0,0,0,.391.08h0.016a1.18,1.18,0,0,0,.39-0.08,2.342,2.342,0,0,0,.45-0.23c0.159-.1.294-0.2,0.406-0.28s0.252-.19.422-0.32,0.28-.22.332-0.26q0.718-.555,3.656-2.77a3.9,3.9,0,0,0,.953-1.05,2.406,2.406,0,0,0,.383-1.29,1.375,1.375,0,0,0-.371-0.96,1.151,1.151,0,0,0-.879-0.4h-11.5a1.09,1.09,0,0,0-.926.44,1.85,1.85,0,0,0-.324,1.11,2.059,2.059,0,0,0,.43,1.16A4.067,4.067,0,0,0,166.344,3808.7Zm11.875,0.91q-2.564,1.89-3.891,2.94c-0.3.24-.538,0.43-0.723,0.56a4.622,4.622,0,0,1-.738.41,2.08,2.08,0,0,1-.859.21h-0.016a2.08,2.08,0,0,1-.859-0.21,4.638,4.638,0,0,1-.739-0.41c-0.184-.13-0.425-0.32-0.722-0.56q-1.054-.84-3.883-2.94a4.337,4.337,0,0,1-.789-0.74v6.77a1.38,1.38,0,0,0,.367.96,1.146,1.146,0,0,0,.883.4h11.5a1.146,1.146,0,0,0,.883-0.4,1.38,1.38,0,0,0,.367-0.96v-6.77A4.476,4.476,0,0,1,178.219,3809.61Z" transform="translate(-165 -3805)"/>
</svg>
