<?xml version="1.0" encoding="utf-8"?>
<!-- Generator: Adobe Illustrator 21.0.0, SVG Export Plug-In . SVG Version: 6.00 Build 0)  -->
<svg version="1.1" id="Layer_1" xmlns="http://www.w3.org/2000/svg" xmlns:xlink="http://www.w3.org/1999/xlink" x="0px" y="0px"
	 viewBox="0 0 20 20" style="enable-background:new 0 0 20 20;" xml:space="preserve">
<style type="text/css">
	.st0{fill:#FFFFFF;}
</style>
<g>
	<g>
		<path class="st0" d="M10,19.5c-0.3,0-0.6,0-0.9,0c0,0,0,0-0.1,0c-0.9-0.1-1.7-0.3-2.4-0.7c-1-0.5-1.7-1.2-2.4-2
			c-0.5-0.6-0.8-1.3-0.9-2c0-0.1,0-0.3-0.1-0.4c0-0.2,0-0.4,0-0.7c0-0.1,0-0.2,0-0.2c0-0.4,0.1-0.7,0.3-1c0.2-0.4,0.6-0.7,1.1-0.8
			c0.2-0.1,0.4-0.1,0.6-0.2c0,0,0,0,0-0.1c-0.1-0.3-0.2-0.5-0.3-0.8C5,10.3,5,10,5.1,9.7c0.3-0.5,0.7-0.9,1.2-1.2
			c0.2-0.1,0.4-0.1,0.6-0.1c0.2,0,0.5,0.1,0.7,0.2c0.1,0,0.2,0.1,0.2,0.1c0,0,0-0.1,0-0.1C7.5,7.6,7.1,6.4,6.7,5.3
			C6.4,4.5,6.2,3.7,6,2.8C6,2.4,5.9,2,6.1,1.6c0.2-0.5,0.5-0.9,1-1c0.1,0,0.2,0,0.3-0.1c0.1,0,0.2,0,0.3,0C8,0.6,8.2,0.8,8.4,1.1
			c0.1,0.1,0.2,0.3,0.3,0.4C9,2,9.3,2.5,9.6,3.1c0.5,1.2,0.9,2.4,1.4,3.6c0.1,0.2,0.2,0.4,0.2,0.7c0,0,0-0.1,0-0.1
			c0.3-0.9,0.6-1.8,1-2.7c0.3-0.8,0.7-1.6,1.1-2.3c0.2-0.4,0.5-0.7,0.8-1c0.2-0.2,0.4-0.3,0.6-0.4c0.5-0.1,1,0.1,1.3,0.5
			c0.3,0.4,0.4,0.9,0.3,1.4c-0.1,0.5-0.2,0.9-0.3,1.4c-0.3,1.3-0.8,2.5-1.2,3.8c-0.1,0.2-0.1,0.4-0.2,0.6c0.2,0,0.3,0.1,0.5,0.1
			c0.7,0.2,1.1,0.6,1.4,1.3c0.1,0.3,0.2,0.6,0.2,1c0,0.1,0,0.3,0,0.4c0,0.4,0,0.8,0,1.2c0,0,0,0,0,0.1c0,0.4-0.1,0.7-0.1,1.1
			c-0.3,1.6-1,2.9-2.2,4c-1.1,1.1-2.5,1.6-4,1.7C10.2,19.5,10.1,19.5,10,19.5z M5.1,13.9c0.1,0.1,0.2,0.3,0.3,0.4
			c0.2,0.3,0.5,0.7,0.8,0.9c0.2,0.2,0.4,0.4,0.7,0.4c0.3,0.1,0.5,0,0.8-0.2c0.1-0.1,0.2-0.3,0.1-0.4c-0.1-0.1-0.1-0.3-0.2-0.4
			c-0.4-0.6-0.8-1.2-1.3-1.8c-0.2-0.2-0.4-0.4-0.6-0.5c-0.2-0.1-0.4-0.1-0.6-0.1c-0.3,0.1-0.5,0.3-0.7,0.6c-0.3,0.5-0.4,1-0.3,1.5
			c0.1,0.5,0.3,1,0.6,1.4c0.4,0.7,1,1.3,1.7,1.8c0.8,0.5,1.7,0.8,2.6,0.9c0.7,0.1,1.4,0,2.1-0.2c1-0.3,1.8-0.8,2.5-1.5
			c0.8-0.8,1.4-1.8,1.7-3c0.2-0.7,0.3-1.5,0.2-2.2c0-0.4,0-0.7-0.1-1.1c-0.1-0.4-0.3-0.7-0.6-0.9c-0.1-0.1-0.3-0.1-0.4-0.2
			C13.8,9.2,13,9,12.2,8.9c-0.7-0.1-1.5-0.2-2.2-0.2c-0.2,0-0.4,0-0.7,0.1C9.2,8.8,9,8.9,9,9.1c-0.1,0.4,0,0.8,0.3,1.1
			c0.3,0.3,0.6,0.4,1,0.5C11,11,11.7,11,12.4,11c0.4,0,0.8,0,1.3,0c0.2,0,0.3,0.1,0.4,0.3c0,0,0,0.1,0,0.1c0,0.2,0.1,0.2-0.1,0.3
			c-0.1,0-0.1,0.1-0.2,0.1c-0.2,0.1-0.5,0.2-0.7,0.3c-1.1,0.4-1.9,1.2-2.4,2.3c-0.2,0.4-0.3,0.8-0.2,1.3c0,0.2,0.1,0.5,0.1,0.7
			c0.1,0.3,0.2,0.6,0.2,0.8c0,0.1,0,0.2,0,0.3c-0.1,0-0.3-0.1-0.4-0.1c-0.2-0.1-0.4-0.3-0.5-0.6c-0.2-0.5-0.3-0.9-0.3-1.5
			c0-0.1,0-0.2,0-0.4c-0.3,0.2-0.6,0.2-0.9,0.1c0,0,0,0.1,0,0.1c0,0.2,0.1,0.4,0,0.6c-0.1,0.4-0.4,0.7-0.7,0.9
			c-0.4,0.2-0.8,0.1-1.2,0c-0.7-0.3-1.3-0.8-1.6-1.5C5,14.9,5,14.6,5,14.3C5,14.2,5,14,5.1,13.9z M10.3,7.9
			C10.3,7.9,10.3,7.9,10.3,7.9C9.9,6.6,9.4,5.3,9,4.1C8.8,3.4,8.5,2.8,8.2,2.2C8.1,1.9,8,1.7,7.8,1.5C7.6,1.4,7.4,1.3,7.2,1.4
			C7,1.5,6.9,1.7,6.8,1.9c0,0.2,0,0.5,0,0.7c0.1,0.5,0.2,1,0.4,1.5C7.6,5.3,8,6.4,8.4,7.6c0.1,0.2,0.1,0.4,0.2,0.6
			C8.8,7.9,9,7.9,9.2,7.9c0.2,0,0.4,0,0.6,0C9.9,7.9,10.1,7.9,10.3,7.9z M11.9,8.1c0.5,0.1,1.1,0.2,1.6,0.3c0,0,0,0,0-0.1
			c0.3-0.9,0.7-1.8,1-2.8c0.3-0.8,0.6-1.7,0.8-2.5c0.1-0.3,0.1-0.5,0.1-0.8c-0.1-0.5-0.6-0.7-1-0.3c-0.1,0.1-0.2,0.3-0.3,0.4
			c-0.3,0.5-0.5,1-0.7,1.5C13,5,12.6,6.2,12.2,7.3C12.1,7.6,12,7.8,11.9,8.1z M9.1,14.2c0.2,0,0.3-0.1,0.5-0.3
			c0.1-0.2,0.1-0.4,0.1-0.6c-0.2-0.8-0.6-1.6-1-2.3c-0.2-0.4-0.5-0.8-0.8-1.2C7.6,9.7,7.4,9.5,7.1,9.4c-0.2-0.1-0.4,0-0.6,0.1
			C6.4,9.6,6.3,9.7,6.1,9.9C6,10.1,5.9,10.3,6,10.6c0.1,0.2,0.2,0.5,0.3,0.7c0.4,0.8,0.9,1.5,1.5,2.1c0.2,0.3,0.5,0.5,0.8,0.7
			C8.7,14.2,8.9,14.2,9.1,14.2z M10.4,13.2c0.2-0.2,0.4-0.5,0.6-0.7c0.2-0.2,0.5-0.4,0.7-0.6c-0.7,0-1.3-0.1-2-0.4
			C10.1,12.1,10.3,12.6,10.4,13.2z"/>
	</g>
</g>
</svg>
