<?xml version="1.0" encoding="UTF-8"?>
<svg width="15px" height="15px" viewBox="0 0 15 15" version="1.1" xmlns="http://www.w3.org/2000/svg" xmlns:xlink="http://www.w3.org/1999/xlink">
    <!-- Generator: Sketch 54 (76480) - https://sketchapp.com -->
    <title>link</title>
    <desc>Created with Sketch.</desc>
    <g id="Page-1" stroke="none" stroke-width="1" fill="none" fill-rule="evenodd">
        <g id="link" fill="#090766">
            <path d="M5.49,11.9 L4.73,12.653 C4.07095261,13.3057894 3.00904739,13.3057894 2.35,12.653 C2.03645946,12.3432027 1.85999612,11.9207744 1.85999612,11.48 C1.85999612,11.0392256 2.03645946,10.6167973 2.35,10.307 L5.14,7.535 C5.72,6.961 6.81,6.116 7.6,6.903 C7.96510305,7.26606836 8.55489695,7.26606836 8.92,6.903 C9.09395303,6.72796613 9.19075484,6.49068074 9.18887687,6.2439157 C9.1869989,5.99715066 9.08659687,5.76136606 8.91,5.589 C7.56,4.25 5.57,4.497 3.83,6.221 L1.04,8.993 C0.374579935,9.65152166 0.000165444571,10.5488191 0.000165444571,11.485 C0.000165444571,12.4211809 0.374579935,13.3184783 1.04,13.977 C2.42532925,15.3465192 4.65467075,15.3465192 6.04,13.977 L6.8,13.223 C6.97659687,13.0506339 7.0769989,12.8148493 7.07887687,12.5680843 C7.08075484,12.3213193 6.98395303,12.0840339 6.81,11.909 C6.44737741,11.5434304 5.85757368,11.539409 5.49,11.9 L5.49,11.9 Z M13.96,1.132 C13.3583395,0.446372386 12.501287,0.0382215236 11.5897736,0.00323605172 C10.6782602,-0.0317494201 9.7924442,0.309507111 9.14,0.947 L8.2,1.886 C8.02358977,2.0586722 7.92333571,2.29457427 7.92145856,2.54141984 C7.91958141,2.7882654 8.01623622,3.02566488 8.19,3.201 C8.55510305,3.56406836 9.14489695,3.56406836 9.51,3.201 L10.45,2.263 C10.7596963,1.98089295 11.172903,1.84053114 11.5903523,1.87563483 C12.0078016,1.91073852 12.391765,2.11813509 12.65,2.448 C12.9636,2.75796908 13.1400872,3.18056257 13.1400872,3.6215 C13.1400872,4.06243743 12.9636,4.48503092 12.65,4.795 L9.67,7.751 C8.31,9.104 7.67,8.469 7.4,8.198 C7.03330014,7.83685783 6.44395345,7.83909021 6.08,8.203 C5.90604697,8.37803387 5.80924516,8.61531926 5.81112313,8.8620843 C5.8130011,9.10884934 5.91340313,9.34463394 6.09,9.517 C6.628828,10.0956916 7.37943521,10.4309387 8.17,10.446 C9.25173163,10.3768145 10.2620498,9.8820822 10.98,9.07 L13.96,6.113 C14.623938,5.4545002 14.997395,4.55811261 14.997395,3.623 C14.997395,2.68788739 14.623938,1.7914998 13.96,1.133 L13.96,1.132 Z"></path>
        </g>
    </g>
</svg>