<svg xmlns="http://www.w3.org/2000/svg" width="15" height="15" viewBox="0 0 15 15">
  <metadata><?xpacket begin="﻿" id="W5M0MpCehiHzreSzNTczkc9d"?>
<x:xmpmeta xmlns:x="adobe:ns:meta/" x:xmptk="Adobe XMP Core 5.6-c138 79.159824, 2016/09/14-01:09:01        ">
   <rdf:RDF xmlns:rdf="http://www.w3.org/1999/02/22-rdf-syntax-ns#">
      <rdf:Description rdf:about=""/>
   </rdf:RDF>
</x:xmpmeta>
                                                                                                    
                                                                                                    
                                                                                                    
                                                                                                    
                                                                                                    
                                                                                                    
                                                                                                    
                                                                                                    
                                                                                                    
                                                                                                    
                                                                                                    
                                                                                                    
                                                                                                    
                                                                                                    
                                                                                                    
                                                                                                    
                                                                                                    
                                                                                                    
                                                                                                    
                                                                                                    
                           
<?xpacket end="w"?></metadata>
<defs>
    <style>
      .cls-1 {
        fill: #b90dac;
        fill-rule: evenodd;
      }
    </style>
  </defs>
  <path id="link" class="cls-1" d="M1053.49,469.9l-0.76.753a1.691,1.691,0,0,1-2.38,0,1.649,1.649,0,0,1,0-2.346l2.79-2.772c0.58-.574,1.67-1.419,2.46-0.632a0.936,0.936,0,0,0,1.32,0,0.925,0.925,0,0,0-.01-1.314c-1.35-1.339-3.34-1.092-5.08.632l-2.79,2.772a3.506,3.506,0,0,0,0,4.984,3.556,3.556,0,0,0,5,0l0.76-.754a0.925,0.925,0,0,0,.01-1.314A0.936,0.936,0,0,0,1053.49,469.9Zm8.47-10.768a3.323,3.323,0,0,0-4.82-.185l-0.94.939a0.927,0.927,0,0,0-.01,1.315,0.936,0.936,0,0,0,1.32,0l0.94-.938a1.506,1.506,0,0,1,2.2.185,1.65,1.65,0,0,1,0,2.347l-2.98,2.956c-1.36,1.353-2,.718-2.27.447a0.937,0.937,0,0,0-1.32.005,0.925,0.925,0,0,0,.01,1.314,2.918,2.918,0,0,0,2.08.929,4.1,4.1,0,0,0,2.81-1.376l2.98-2.957A3.507,3.507,0,0,0,1061.96,459.133Z" transform="translate(-1048 -458)"/>
</svg>
