<svg xmlns="http://www.w3.org/2000/svg" width="38.969" height="33" viewBox="0 0 38.969 33">
  <metadata><?xpacket begin="﻿" id="W5M0MpCehiHzreSzNTczkc9d"?>
<x:xmpmeta xmlns:x="adobe:ns:meta/" x:xmptk="Adobe XMP Core 5.6-c138 79.159824, 2016/09/14-01:09:01        ">
   <rdf:RDF xmlns:rdf="http://www.w3.org/1999/02/22-rdf-syntax-ns#">
      <rdf:Description rdf:about=""/>
   </rdf:RDF>
</x:xmpmeta>
                                                                                                    
                                                                                                    
                                                                                                    
                                                                                                    
                                                                                                    
                                                                                                    
                                                                                                    
                                                                                                    
                                                                                                    
                                                                                                    
                                                                                                    
                                                                                                    
                                                                                                    
                                                                                                    
                                                                                                    
                                                                                                    
                                                                                                    
                                                                                                    
                                                                                                    
                                                                                                    
                           
<?xpacket end="w"?></metadata>
<defs>
    <style>
      .cls-1 {
        fill: #fff;
        fill-rule: evenodd;
        opacity: 0.1;
      }
    </style>
  </defs>
  <path id="quotes" class="cls-1" d="M173.014,2694.38a7.341,7.341,0,0,0-7.571-7.74,4.662,4.662,0,0,0-2.524.64c0.126-5.21,3.912-11.04,9.464-12.31V2669c-7.067.77-16.784,7.24-16.784,22.21,0,7.23,4.291,10.78,9.213,10.78C169.481,2701.99,173.014,2698.57,173.014,2694.38Zm-21.579,0a7.342,7.342,0,0,0-7.572-7.74,4.665,4.665,0,0,0-2.524.64c0.126-5.21,3.912-11.04,9.465-12.31V2669c-7.067.77-16.785,7.24-16.785,22.21,0,7.23,4.291,10.78,9.213,10.78C147.9,2701.99,151.435,2698.57,151.435,2694.38Z" transform="translate(-134.031 -2669)"/>
</svg>
