<svg xmlns="http://www.w3.org/2000/svg" width="31" height="33" viewBox="0 0 31 33">
  <metadata><?xpacket begin="﻿" id="W5M0MpCehiHzreSzNTczkc9d"?>
<x:xmpmeta xmlns:x="adobe:ns:meta/" x:xmptk="Adobe XMP Core 5.6-c138 79.159824, 2016/09/14-01:09:01        ">
   <rdf:RDF xmlns:rdf="http://www.w3.org/1999/02/22-rdf-syntax-ns#">
      <rdf:Description rdf:about=""/>
   </rdf:RDF>
</x:xmpmeta>





















<?xpacket end="w"?></metadata>
<defs>
    <style>
      .cls-1 {
        fill: #0d024a;
        fill-rule: evenodd;
      }
    </style>
  </defs>
  <path id="Forma_1" data-name="Forma 1" class="cls-1" d="M34.516,34.057l-7.64-8.169a13.508,13.508,0,0,0,3.04-8.565A13.161,13.161,0,0,0,16.957,4,13.161,13.161,0,0,0,4,17.323a13.161,13.161,0,0,0,12.96,13.324,12.584,12.584,0,0,0,7.425-2.411l7.7,8.23a1.659,1.659,0,0,0,2.39.048A1.774,1.774,0,0,0,34.516,34.057ZM16.957,7.475a9.727,9.727,0,0,1,9.579,9.848,9.726,9.726,0,0,1-9.579,9.847,9.726,9.726,0,0,1-9.579-9.847A9.727,9.727,0,0,1,16.957,7.475Z" transform="translate(-4 -4)"/>
</svg>
