<svg xmlns="http://www.w3.org/2000/svg" viewBox="0 0 800 500"><defs><style>.cls-1{fill:none;stroke:#e1e4e5;stroke-linecap:round;stroke-linejoin:round;stroke-width:4px;}</style></defs><title>Images</title><g id="Background_Clouds" data-name="Background Clouds"><g id="Style_5" data-name="Style 5"><path class="cls-1" d="M165.31,261.56H359.77A14.46,14.46,0,0,1,374.23,276v.29a14.46,14.46,0,0,0,14.46,14.46h63.15a6.62,6.62,0,0,1,6.62,6.62h0a6.62,6.62,0,0,0,6.62,6.62H635.33a14.42,14.42,0,0,0,14.42-14.42V275a14.42,14.42,0,0,0-14.42-14.42H571.39A14.42,14.42,0,0,1,557,246.2v-.29a14.42,14.42,0,0,0-14.42-14.42H502.88V204.83a21,21,0,0,0-21-21H465.51c-1.8,0,33.71-.25,3.53-.34a10.26,10.26,0,0,1-10.23-10.27V173A10.27,10.27,0,0,1,469,162.71l80.44-.3c13.37-.05,14.36-20.17,1-21.08q-.71,0-1.44,0H297.62a14.46,14.46,0,0,0-14.46,14.46v62.15a14.46,14.46,0,0,1-14.46,14.46H165.31a14.46,14.46,0,0,0-14.46,14.46v.29A14.46,14.46,0,0,0,165.31,261.56Z"/><rect class="cls-1" x="587.16" y="140.84" width="32.91" height="20.86" rx="10.32" ry="10.32"/><circle class="cls-1" cx="234.08" cy="211.23" r="3.31"/><line class="cls-1" x1="259.92" y1="219.48" x2="259.92" y2="204.68"/><line class="cls-1" x1="267.32" y1="212.08" x2="252.52" y2="212.08"/><path class="cls-1" d="M198,279.33H340.24a16.87,16.87,0,0,1,16.87,16.87v24A16.87,16.87,0,0,0,374,337.11H539.6A16.87,16.87,0,0,1,556.47,354h0a16.87,16.87,0,0,1-16.87,16.87H243A16.87,16.87,0,0,1,226.11,354V337.16a16.87,16.87,0,0,0-16.87-16.87H198a16.87,16.87,0,0,1-16.87-16.87V296.2A16.87,16.87,0,0,1,198,279.33Z"/><line class="cls-1" x1="477.38" y1="380.31" x2="556.47" y2="380.31"/></g></g></svg>