<svg xmlns="http://www.w3.org/2000/svg" viewBox="0 0 800 500"><defs><style>.cls-1{fill:none;stroke:#e1e4e5;stroke-linecap:round;stroke-linejoin:round;stroke-width:4px;}</style></defs><title>Images</title><g id="Background_Clouds" data-name="Background Clouds"><g id="Style_9" data-name="Style 9"><circle class="cls-1" cx="626.94" cy="318.4" r="4.36"/><circle class="cls-1" cx="155.94" cy="366.11" r="4.36"/><circle class="cls-1" cx="643.3" cy="340.09" r="6.12"/><path class="cls-1" d="M728.07,283.92H663.57A19.91,19.91,0,0,1,643.66,264v-3.94a19.91,19.91,0,0,0-19.91-19.91H388.63a19.91,19.91,0,0,1-19.91-19.91h0c0-.4,0-.78-.06-1.18l232.46,1.22a22.13,22.13,0,0,0,22.24-22.13h0A22.13,22.13,0,0,0,601.24,176h-162a10.93,10.93,0,0,1-10.93-10.93V159A10.93,10.93,0,0,1,439.21,148h61.47a26.87,26.87,0,0,0,0-53.74H442.76a14.47,14.47,0,0,1-14.47-14.47,14.47,14.47,0,0,0-14.47-14.47H177a20.5,20.5,0,0,0-20.5,20.5h0a20.5,20.5,0,0,0,20.5,20.5h91.45a16.1,16.1,0,0,1,0,32.21H230.37a10.92,10.92,0,0,0-10.93,10.92h0a10.93,10.93,0,0,1-10.93,10.93H116.09a28.66,28.66,0,0,0-28.66,28.66h0a28.66,28.66,0,0,0,28.51,28.66l95.08.5c-.07.66-.1,1.33-.1,2V298.7a19.91,19.91,0,0,1-19.81,19.91l-119.29.28A19.91,19.91,0,0,0,52,338.81v27.9a19.91,19.91,0,0,0,19.91,19.91H667.56a19.91,19.91,0,0,0,19.91-19.91V351.85a19.91,19.91,0,0,1,19.91-19.91h20.7A19.91,19.91,0,0,0,748,312v-8.2A19.91,19.91,0,0,0,728.07,283.92Z"/><line class="cls-1" x1="346.23" y1="52.69" x2="430.66" y2="52.69"/><line class="cls-1" x1="454.3" y1="52.69" x2="473.3" y2="52.69"/><line class="cls-1" x1="705.51" y1="385.32" x2="723.51" y2="385.32"/></g></g></svg>