<svg xmlns="http://www.w3.org/2000/svg" viewBox="0 0 800 500"><defs><style>.cls-1{fill:none;stroke:#e1e4e5;stroke-linecap:round;stroke-linejoin:round;stroke-width:4px;}</style></defs><title>Images</title><g id="Background_Clouds" data-name="Background Clouds"><g id="Style_6" data-name="Style 6"><path class="cls-1" d="M231.79,143.54H498.41a12,12,0,0,1,12,12v34a12,12,0,0,0,12,12H626a19.82,19.82,0,0,1,19.82,19.82v48.73A19.82,19.82,0,0,0,665.66,290h.4a19.82,19.82,0,0,1,19.82,19.82v41.54a19.82,19.82,0,0,1-19.82,19.82H394.72a12,12,0,0,1-12-12V354a12,12,0,0,1,12-12h87.13a12,12,0,0,0,12-12v-.24a12,12,0,0,0-12-12H182.21a24.54,24.54,0,0,1-24.54-24.54V266.63a24.54,24.54,0,0,1,24.54-24.54h.5a24.54,24.54,0,0,0,24.54-24.54V168.08A24.54,24.54,0,0,1,231.79,143.54Z"/><rect class="cls-1" x="309.79" y="345.69" width="54.3" height="21.86" rx="10.82" ry="10.82"/><circle class="cls-1" cx="224.37" cy="79.03" r="7.18"/><line class="cls-1" x1="459.36" y1="395.86" x2="550.87" y2="395.86"/><line class="cls-1" x1="592.72" y1="395.86" x2="622.58" y2="395.86"/></g></g></svg>