<svg xmlns="http://www.w3.org/2000/svg" viewBox="0 0 800 500"><defs><style>.cls-1{fill:#fff;}.cls-1,.cls-2{stroke:#e1e4e5;stroke-linecap:round;stroke-linejoin:round;stroke-width:4px;}.cls-2{fill:none;}</style></defs><title>Images</title><g id="Background_Clouds" data-name="Background Clouds"><g id="Style_2" data-name="Style 2"><line class="cls-1" x1="522.47" y1="116.7" x2="561.48" y2="116.7"/><rect class="cls-1" x="536.31" y="90.95" width="11.33" height="11.33" transform="translate(90.42 411.53) rotate(-45)"/><line class="cls-1" x1="226.27" y1="327.09" x2="226.27" y2="344.31"/><line class="cls-1" x1="217.66" y1="335.7" x2="234.89" y2="335.7"/><circle class="cls-1" cx="439.02" cy="410.38" r="4.64" transform="translate(-20.87 23.53) rotate(-3)"/><circle class="cls-1" cx="461.77" cy="134.4" r="3.11" transform="translate(-6.4 24.34) rotate(-3)"/><path class="cls-2" d="M283.83,124.64v.44a22,22,0,0,0,22,22h44a11.83,11.83,0,0,1,11.83,11.83v.24A11.83,11.83,0,0,1,349.84,171H333.78a21.23,21.23,0,0,0-21.23,21.23v.43a21.23,21.23,0,0,0,21.23,21.23H434a19.44,19.44,0,0,1,19.44,19.44v7.36a19.92,19.92,0,0,0,19.92,19.92H616a18.25,18.25,0,0,0,18.25-18.25V242A18.25,18.25,0,0,0,616,223.71H553.18a7.83,7.83,0,0,1-7.83-7.83V197.11a18.52,18.52,0,0,0-18.52-18.52H493.11a7.83,7.83,0,0,1-7.83-7.83v-.16a7.83,7.83,0,0,1,7.83-7.83h70.09a13.47,13.47,0,0,0,13.47-13.47v-4a13.47,13.47,0,0,0-13.47-13.47H509.64a7.83,7.83,0,0,1-7.83-7.83v-5.19a16.22,16.22,0,0,0-16.22-16.22H305.82A22,22,0,0,0,283.83,124.64Z"/><path class="cls-2" d="M250.4,328.07v13.77a17.9,17.9,0,0,1-17.9,17.9H210.31a17.9,17.9,0,0,0-17.9,17.9V378a17.9,17.9,0,0,0,17.9,17.9H402.12a25.69,25.69,0,0,0,25.69-25.69v-.45A18.74,18.74,0,0,1,446.55,351h73a24.24,24.24,0,0,0,24.24-24.24v-1a24.24,24.24,0,0,0-24.24-24.24H276.93A26.53,26.53,0,0,0,250.4,328.07Z"/></g></g></svg>