<svg xmlns="http://www.w3.org/2000/svg" viewBox="0 0 800 500"><defs><style>.cls-1{fill:#fff;}.cls-1,.cls-2{stroke:#e1e4e5;stroke-linecap:round;stroke-linejoin:round;stroke-width:4px;}.cls-2{fill:none;}</style></defs><title>Images</title><g id="Background_Clouds" data-name="Background Clouds"><g id="Style_8" data-name="Style 8"><rect class="cls-1" x="520.99" y="293.24" width="11.33" height="11.33" transform="translate(-57.11 459.95) rotate(-45)"/><rect class="cls-1" x="266.66" y="193.7" width="11.33" height="11.33" transform="translate(-41.21 324.26) rotate(-57.93)"/><circle class="cls-1" cx="256.49" cy="180.08" r="3.11" transform="translate(-39.57 77.29) rotate(-15.93)"/><path class="cls-2" d="M344.37,55.77h0a14.06,14.06,0,0,1-14.06,13.86H272.47a35,35,0,0,0-35,35V176.9a15,15,0,0,1-15,15h-9.77a24.19,24.19,0,0,0-24.19,24.19h0a24.19,24.19,0,0,0,24.19,24.19h119.8a24.19,24.19,0,0,0,24.19-24.19h0a24.19,24.19,0,0,1,24.19-24.19H572.47a27,27,0,0,0,27-27h0a27,27,0,0,0-27-27H524.33a15,15,0,0,1-15-15V68.17a26.53,26.53,0,0,0-26.53-26.53l-124.38.27A14.06,14.06,0,0,0,344.37,55.77Z"/><path class="cls-2" d="M377.5,272.29v.94a23.33,23.33,0,0,0,23.33,23.33h23.58a15,15,0,0,1,15,15h0a15,15,0,0,1-15,15H321.35a23.89,23.89,0,0,0-23.89,23.89h0a23.89,23.89,0,0,1-23.89,23.89H223.09a22.79,22.79,0,0,0-22.79,22.79v13.4a22.79,22.79,0,0,0,22.79,22.79H365.81a23.65,23.65,0,0,0,23.65-23.65h0A23.65,23.65,0,0,1,413.1,386.1h120.1a28.26,28.26,0,0,0,28.26-28.26v-2a28.26,28.26,0,0,0-28.26-28.26h-15.7a15,15,0,0,1-15-15V276.79A27.83,27.83,0,0,0,474.62,249H400.83A23.33,23.33,0,0,0,377.5,272.29Z"/><line class="cls-2" x1="322.82" y1="59.44" x2="284.83" y2="59.44"/><line class="cls-2" x1="265.35" y1="59.44" x2="249.33" y2="59.44"/><line class="cls-2" x1="495.67" y1="397.53" x2="527.65" y2="397.53"/></g></g></svg>