<svg xmlns="http://www.w3.org/2000/svg" viewBox="0 0 800 500"><defs><style>.cls-1{fill:#fff;}.cls-1,.cls-2{stroke:#e1e4e5;stroke-linecap:round;stroke-linejoin:round;stroke-width:4px;}.cls-2{fill:none;}</style></defs><title>Images</title><g id="Background_Clouds" data-name="Background Clouds"><g id="Style_1" data-name="Style 1"><rect class="cls-1" x="558.84" y="329.43" width="11.33" height="11.33" transform="translate(-71.6 497.31) rotate(-45)"/><circle class="cls-1" cx="183.73" cy="217.82" r="3.11" transform="translate(-11.14 9.91) rotate(-3)"/><circle class="cls-1" cx="173.67" cy="200.34" r="5.01" transform="translate(-10.24 9.36) rotate(-3)"/><path class="cls-2" d="M251.3,122.81H479.45a24.5,24.5,0,0,1,24.5,24.5h0a24.5,24.5,0,0,1-24.5,24.5h-86a17.49,17.49,0,0,0-17.49,17.48v.83a16.68,16.68,0,0,0,16.68,16.69h.75A43.52,43.52,0,0,1,437,250.91q-.07,4.91,0,9.82a43.5,43.5,0,0,1-43.5,44.08H287.56A19.61,19.61,0,0,0,268,324.43h0a30.39,30.39,0,0,1-30.39,30.39H214.34A30.39,30.39,0,0,1,184,324.43V269.09a28.28,28.28,0,0,0-28.28-28.28H142a39,39,0,0,1-39-39h0a39,39,0,0,1,39-39h71a17.32,17.32,0,0,0,17.34-18q0-.27,0-.53A21,21,0,0,1,251.3,122.81Z"/><path class="cls-2" d="M451.82,307.15H594.08A16.87,16.87,0,0,1,611,324v24a16.87,16.87,0,0,0,16.87,16.87h7.62a16.87,16.87,0,0,1,16.87,16.87h0a16.87,16.87,0,0,1-16.87,16.87H496.82A16.87,16.87,0,0,1,480,381.8V365a16.87,16.87,0,0,0-16.87-16.87H451.82A16.87,16.87,0,0,1,435,331.24V324A16.87,16.87,0,0,1,451.82,307.15Z"/><line class="cls-2" x1="407.57" y1="161.57" x2="357.03" y2="161.57"/><line class="cls-2" x1="334.59" y1="160.4" x2="312.66" y2="160.4"/><line class="cls-2" x1="509.23" y1="412.77" x2="581.56" y2="412.77"/></g></g></svg>