<svg xmlns="http://www.w3.org/2000/svg" viewBox="0 0 800 500"><defs><style>.cls-1{fill:#fff;}.cls-1,.cls-2{stroke:#e1e4e5;stroke-linecap:round;stroke-linejoin:round;stroke-width:4px;}.cls-2{fill:none;}</style></defs><title>Images</title><g id="Background_Clouds" data-name="Background Clouds"><g id="Style_7" data-name="Style 7"><rect class="cls-1" x="546.53" y="76.7" width="11.33" height="11.33" transform="translate(103.49 414.58) rotate(-45)"/><circle class="cls-1" cx="176.64" cy="355.7" r="4.64" transform="translate(-18.37 9.73) rotate(-3)"/><circle class="cls-1" cx="563.31" cy="104.7" r="3.11" transform="translate(-4.71 29.61) rotate(-3)"/><circle class="cls-1" cx="156.24" cy="260.22" r="3.11" transform="translate(-13.4 8.53) rotate(-3)"/><path class="cls-2" d="M605.9,148H565.12a21.65,21.65,0,0,1-21.65-21.65h0a21.65,21.65,0,0,0-21.65-21.65H303.89a10.83,10.83,0,0,0-10.83,10.83h0a10.83,10.83,0,0,0,10.83,10.83h46.76a4.72,4.72,0,0,1,4.76,4.14,4.59,4.59,0,0,1-4.56,5H260.45a32.81,32.81,0,0,0-32.81,32.81V250.1A21.65,21.65,0,0,1,206,271.75H135.48a25.87,25.87,0,0,0-25.87,25.87v12.91a25.87,25.87,0,0,0,25.87,25.87h39.29a25.33,25.33,0,0,1,25.33,25.33h0a31.62,31.62,0,0,0,31.62,31.62H424.41a21,21,0,0,0,20.95-20.79h0a21,21,0,0,1,20.95-20.79H582a15.76,15.76,0,0,0,15.89-14.73,15.47,15.47,0,0,0-15.46-16.22h-7a15.47,15.47,0,0,1-15.47-15.47V283.3a15.47,15.47,0,0,0-15.47-15.47H498.41a17,17,0,0,1-17-17.05h0a17,17,0,0,1,17.06-17l107.15.08a35.71,35.71,0,0,0,36-35.71V183.72A35.71,35.71,0,0,0,605.9,148Z"/><line class="cls-2" x1="403.98" y1="94.57" x2="485.15" y2="94.57"/><line class="cls-2" x1="385.61" y1="94.57" x2="370.61" y2="94.57"/></g></g></svg>