<svg xmlns="http://www.w3.org/2000/svg" viewBox="0 0 800 500"><defs><style>.cls-1{fill:#fff;}.cls-1,.cls-2{stroke:#e1e4e5;stroke-linecap:round;stroke-linejoin:round;stroke-width:4px;}.cls-2{fill:none;}</style></defs><title>Images</title><g id="Background_Clouds" data-name="Background Clouds"><g id="Style_3" data-name="Style 3"><line class="cls-1" x1="499.81" y1="300.02" x2="538.82" y2="300.02"/><line class="cls-1" x1="194.73" y1="270.18" x2="233.74" y2="270.18"/><line class="cls-1" x1="518.93" y1="314.05" x2="538.43" y2="314.05"/><rect class="cls-1" x="257.9" y="377.79" width="11.33" height="11.33" transform="translate(-193.95 298.68) rotate(-45)"/><circle class="cls-1" cx="317.7" cy="114.58" r="3.11" transform="translate(-5.56 16.78) rotate(-3)"/><path class="cls-2" d="M633.5,118.73v.5a24.69,24.69,0,0,1-24.69,24.69H559.38A13.28,13.28,0,0,0,546.1,157.2v.27a13.28,13.28,0,0,0,13.28,13.28h18a23.83,23.83,0,0,1,23.83,23.83v.48a23.83,23.83,0,0,1-23.83,23.83H516.65a21.83,21.83,0,0,0-21.83,21.83V249a22.37,22.37,0,0,1-22.37,22.37H260.61a20.49,20.49,0,0,1-20.49-20.49v-.41A20.49,20.49,0,0,1,260.61,230h70.48a8.79,8.79,0,0,0,8.79-8.79V200.09a20.79,20.79,0,0,1,20.79-20.79h13.87a8.79,8.79,0,0,0,8.79-8.79v-.18a8.79,8.79,0,0,0-8.79-8.79H319.85a15.12,15.12,0,0,1-15.12-15.12V142a15.12,15.12,0,0,1,15.12-15.12H380a8.79,8.79,0,0,0,8.79-8.79v-5.83A18.21,18.21,0,0,1,407,94H608.81A24.69,24.69,0,0,1,633.5,118.73Z"/><path class="cls-2" d="M495.85,329.81v15.46a20.09,20.09,0,0,0,20.09,20.09h24.91A20.09,20.09,0,0,1,561,385.46v.41A20.09,20.09,0,0,1,540.86,406H325.51a28.85,28.85,0,0,1-28.85-28.85v-.5a21,21,0,0,0-21-21H193.72a27.22,27.22,0,0,1-27.22-27.22v-1.11A27.22,27.22,0,0,1,193.72,300H466.06A29.79,29.79,0,0,1,495.85,329.81Z"/></g></g></svg>