<svg xmlns="http://www.w3.org/2000/svg" viewBox="0 0 800 500"><defs><style>.cls-1{fill:none;stroke:#e1e4e5;stroke-linecap:round;stroke-linejoin:round;stroke-width:4px;}</style></defs><title>Images</title><g id="Background_Clouds" data-name="Background Clouds"><g id="Style_10" data-name="Style 10"><circle class="cls-1" cx="671.3" cy="367.12" r="4.36"/><circle class="cls-1" cx="188.25" cy="215.82" r="4.36"/><circle class="cls-1" cx="204.61" cy="237.52" r="6.12"/><rect class="cls-1" x="637.58" y="170.47" width="13.29" height="13.29" transform="translate(63.45 507.41) rotate(-45)"/><path class="cls-1" d="M69.16,303.26h0a36.74,36.74,0,0,1,36.74-36.74H224.39a14,14,0,0,0,14-14h0a14,14,0,0,1,14-14h48.79a20.64,20.64,0,0,0,20.64-20.64h0a20.64,20.64,0,0,0-20.64-20.64H184A26.28,26.28,0,0,1,157.68,171h0A26.28,26.28,0,0,1,184,144.68H487.53a18.55,18.55,0,0,1,18.55,18.55h0a18.55,18.55,0,0,0,18.55,18.55h74.25a34.44,34.44,0,0,1,34.44,34.44h0a34.44,34.44,0,0,1-34.44,34.44H520.08a14,14,0,0,0-14,14v7.88a14,14,0,0,0,14,14H727.77a28.36,28.36,0,0,1,28.36,28.36h0a28.36,28.36,0,0,1-28.51,28.36L105.71,340A36.74,36.74,0,0,1,69.16,303.26Z"/><line class="cls-1" x1="301" y1="128.52" x2="396.36" y2="128.52"/><line class="cls-1" x1="421.82" y1="129.58" x2="448.29" y2="129.58"/></g></g></svg>