<svg xmlns="http://www.w3.org/2000/svg" viewBox="0 0 800 500"><defs><style>.cls-1{fill:#fff;}.cls-1,.cls-2{stroke:#e1e4e5;stroke-linecap:round;stroke-linejoin:round;stroke-width:4px;}.cls-2{fill:none;}</style></defs><title>Images</title><g id="Background_Clouds" data-name="Background Clouds"><g id="Style_4" data-name="Style 4"><rect class="cls-1" x="326.4" y="435.2" width="9.71" height="9.71" transform="translate(-214.14 363.12) rotate(-45)"/><line class="cls-1" x1="590.32" y1="251.5" x2="590.32" y2="266.57"/><line class="cls-1" x1="582.79" y1="259.03" x2="597.86" y2="259.03"/><circle class="cls-1" cx="265.42" cy="189.5" r="4.64" transform="translate(-9.55 14.14) rotate(-3)"/><circle class="cls-1" cx="456.44" cy="363.61" r="3.22" transform="translate(-18.4 24.38) rotate(-3)"/><path class="cls-2" d="M197,231.43V232a29,29,0,0,0,29,29h21.41A10.94,10.94,0,0,1,258.4,272v26.41a27,27,0,0,0,27,27H400A10.94,10.94,0,0,1,411,336.34v.22A10.94,10.94,0,0,1,400,347.5H382.46a20.72,20.72,0,0,0-20.72,20.72v.42a20.72,20.72,0,0,0,20.72,20.72H508.35a22.48,22.48,0,0,0,22.48-22.48v-30.6a22.48,22.48,0,0,0-22.48-22.48h-8.28a10.94,10.94,0,0,1-10.94-10.94V299a10.94,10.94,0,0,1,10.94-10.94h45.56A27.39,27.39,0,0,0,573,260.71V206.58a27.39,27.39,0,0,0-27.39-27.39H489.38a25.44,25.44,0,0,1-25.44-25.44v-.51a25.44,25.44,0,0,1,25.44-25.44H610.74a23.62,23.62,0,0,0,23.62-23.62v-.48a23.62,23.62,0,0,0-23.62-23.62H560.16A13.36,13.36,0,0,1,546.8,66.71v-.27a13.37,13.37,0,0,0-13.37-13.37H438.55A24.58,24.58,0,0,0,414,77.66v25a16.4,16.4,0,0,1-16.4,16.4h-6A24.59,24.59,0,0,0,367,143.64v36.23a22.64,22.64,0,0,1-22.66,22.64l-118.24-.09A29,29,0,0,0,197,231.43Z"/><rect class="cls-2" x="340.41" y="403.55" width="62.44" height="15.86" rx="7.85" ry="7.85"/><line class="cls-2" x1="422.73" y1="403.55" x2="449.36" y2="403.55"/><line class="cls-2" x1="295.8" y1="191.67" x2="310.43" y2="191.67"/></g></g></svg>